<svg width="183" height="61" viewBox="0 0 183 61" fill="none" xmlns="http://www.w3.org/2000/svg">
<path d="M86.4573 24.3663L79.3284 15.1299V24.3663H75.998V4.3584H79.3284V14.2713L86.3793 4.3584H90.256L82.9189 14.5835L90.5422 24.3663H86.4573Z" fill="white"/>
<path d="M120.411 5.68529C121.92 6.56991 123.091 7.76675 123.923 9.2758C124.756 10.7849 125.146 12.476 125.146 14.3233C125.146 16.1966 124.73 17.8878 123.923 19.4229C123.091 20.9579 121.92 22.1808 120.411 23.0654C118.902 23.95 117.106 24.3923 115.077 24.3923H109.535V4.38439H115.077C117.106 4.35837 118.902 4.80068 120.411 5.68529ZM118.641 20.2294C119.63 19.605 120.411 18.7984 120.957 17.7577C121.503 16.717 121.764 15.5722 121.764 14.2973C121.764 13.0484 121.477 11.9036 120.957 10.8889C120.411 9.8742 119.63 9.06766 118.641 8.46925C117.653 7.89685 116.456 7.58462 115.103 7.58462H112.839V21.114H115.103C116.456 21.1401 117.627 20.8278 118.641 20.2294Z" fill="white"/>
<path d="M129.673 7.55864V12.6322H135.684V15.8324H129.673V21.1661H137.583V24.3663H126.369V4.3584H137.583V7.55864H129.673Z" fill="white"/>
<path d="M158.059 24.3664L155.484 12.9705L150.15 24.6266H149.734L144.504 13.1526L142.162 24.3664H138.754L143.255 4.02026H143.697L149.942 18.2262L156.186 4.02026H156.628L161.39 24.3664H158.059Z" fill="white"/>
<path d="M178.561 24.3663L171.406 15.1299V24.3663H168.102V4.3584H171.406V14.2713L178.457 4.3584H182.359L175.022 14.5835L182.646 24.3663H178.561Z" fill="white"/>
<path d="M66.7096 4.09839H66.2152L57.291 24.3665H60.9336L62.4946 20.5939H62.5206L63.8216 17.3936L66.4754 11.0192L69.1293 17.3936L70.4562 20.5939L70.5602 20.8541L72.0173 24.3665H75.6598L66.7096 4.09839Z" fill="white"/>
<path d="M99.9629 4.09839H99.4945L90.5703 24.3665H94.1868L95.7479 20.5939L97.0748 17.3936L99.7287 11.0192L102.383 17.3676V17.3936L103.709 20.5939L103.814 20.8541L105.271 24.3665H108.913L99.9629 4.09839Z" fill="white"/>
<path d="M166.203 5.13881V4.38428H162.898V8.28699L166.203 5.13881Z" fill="white"/>
<path d="M162.898 9.74412V24.3663H166.203V6.41382L162.898 9.74412Z" fill="white"/>
<path d="M67.6727 34.3834H63.692V54.7296H61.0902V34.3834H57.1094V32.1719H59.3209H67.6988V34.3834H67.6727Z" fill="white"/>
<path d="M79.4587 54.7295H73.3445C72.72 54.7295 72.2257 54.6255 71.8094 54.4173C71.3671 54.1832 71.0029 53.923 70.7167 53.5847C70.4305 53.2205 70.1963 52.8823 70.0662 52.466C69.9101 52.0497 69.832 51.6594 69.832 51.2431V50.4365V36.5169V35.7103C69.832 35.32 69.8841 34.9038 70.0662 34.4875C70.2223 34.0712 70.4305 33.6809 70.7167 33.3687C71.0029 33.0044 71.3671 32.7443 71.8094 32.5361C72.2517 32.328 72.7721 32.2239 73.3445 32.2239H79.4587V34.4094H76.1024H74.2291C73.6827 34.4094 73.2664 34.5915 72.9542 34.9558C72.642 35.32 72.4599 35.7623 72.4599 36.2827V36.5689V42.2929H78.1058V44.7386H72.4599V50.4626V50.7748C72.4599 51.2691 72.616 51.7115 72.9542 52.0497C73.2924 52.3879 73.6827 52.5961 74.2291 52.5961H76.1024H79.4587V54.7295Z" fill="white"/>
<path d="M92.156 54.7295H86.0417C85.4173 54.7295 84.923 54.6255 84.5067 54.4173C84.0904 54.1832 83.7001 53.923 83.4139 53.5847C83.1277 53.2205 82.8935 52.8823 82.7634 52.466C82.6073 52.0497 82.5293 51.6594 82.5293 51.2431V50.4365V36.5169V35.7103C82.5293 35.32 82.5813 34.9038 82.7634 34.4875C82.9456 34.0712 83.1277 33.6809 83.4139 33.3687C83.7001 33.0044 84.0644 32.7443 84.5067 32.5361C84.949 32.302 85.4693 32.2239 86.0417 32.2239H92.156V34.4094H88.7997H86.9263C86.38 34.4094 85.9637 34.5915 85.6515 34.9558C85.3393 35.32 85.1571 35.7623 85.1571 36.2827V36.5689V42.2929H90.803V44.7386H85.1571V50.4626V50.7748C85.1571 51.2691 85.3132 51.7115 85.6515 52.0497C85.9637 52.4139 86.38 52.5961 86.9263 52.5961H88.7997H92.156V54.7295Z" fill="white"/>
<path d="M105.763 54.7295H103.135V36.4648V36.1005C103.135 35.9184 103.109 35.7103 103.031 35.4761C102.979 35.2419 102.849 35.0598 102.641 34.8516C102.459 34.6695 102.199 34.4874 101.808 34.3573C101.444 34.2272 100.976 34.1752 100.351 34.1752C99.8051 34.1752 99.3627 34.2272 98.9985 34.3573C98.6342 34.4874 98.374 34.6695 98.1919 34.8777C98.0098 35.0598 97.8797 35.294 97.8277 35.5281C97.7756 35.7623 97.7756 35.9444 97.7756 36.1526V36.4388V54.7035H95.1738V36.4388V35.6322C95.1738 35.398 95.1998 35.0858 95.3039 34.6695C95.408 34.2532 95.5901 33.8369 95.9544 33.4207C96.3186 33.0044 96.813 32.6401 97.5415 32.3539C98.244 32.0677 99.2066 31.9116 100.482 31.9116C101.73 31.9116 102.693 32.0677 103.422 32.3539C104.124 32.6401 104.644 33.0044 105.009 33.4207C105.373 33.8369 105.581 34.2532 105.659 34.6695C105.763 35.0858 105.789 35.398 105.789 35.6322V36.0225V54.7035H105.763V54.7295Z" fill="white"/>
<path d="M119.423 51.191C119.423 51.4512 119.397 51.7634 119.293 52.1797C119.189 52.596 119.007 53.0123 118.643 53.4286C118.278 53.8449 117.784 54.2091 117.056 54.4953C116.353 54.7815 115.39 54.9376 114.116 54.9376C112.841 54.9376 111.904 54.7815 111.176 54.4953C110.473 54.2091 109.953 53.8449 109.588 53.4286C109.224 53.0123 109.016 52.596 108.938 52.1797C108.834 51.7634 108.808 51.4512 108.808 51.217V50.4365H111.41V50.7227C111.41 50.9048 111.436 51.113 111.462 51.3471C111.514 51.5813 111.618 51.7634 111.826 51.9716C112.008 52.1537 112.268 52.3358 112.633 52.4659C112.997 52.596 113.439 52.648 113.985 52.648C114.61 52.648 115.078 52.596 115.39 52.4659C115.755 52.3358 116.015 52.1797 116.223 51.9716C116.405 51.7894 116.535 51.5813 116.613 51.3471C116.665 51.113 116.717 50.9309 116.717 50.7747V50.4105V47.6526V47.3403C116.717 47.0802 116.665 46.794 116.483 46.4297C116.327 46.0655 115.989 45.8053 115.443 45.6231C115.312 45.5971 115.156 45.5191 114.948 45.467C114.766 45.415 114.584 45.337 114.454 45.2849L112.112 44.5044C112.008 44.4784 111.956 44.4523 111.93 44.4523C110.733 44.0881 109.901 43.5938 109.458 42.9433C108.964 42.2668 108.756 41.5643 108.756 40.8098V40.6277V40.0813V36.2826V35.6322C108.756 35.398 108.782 35.0858 108.886 34.6695C108.99 34.2532 109.172 33.8369 109.536 33.4207C109.901 33.0044 110.395 32.6401 111.124 32.3539C111.826 32.0677 112.789 31.9116 114.064 31.9116C115.312 31.9116 116.275 32.0677 117.004 32.3539C117.706 32.6401 118.226 33.0044 118.591 33.4207C118.955 33.8369 119.163 34.2532 119.241 34.6695C119.345 35.0858 119.371 35.398 119.371 35.6322V36.4388H116.743V36.0745C116.743 35.8924 116.717 35.6842 116.639 35.4501C116.561 35.2159 116.457 35.0338 116.249 34.8256C116.067 34.6435 115.755 34.4614 115.416 34.3313C115.052 34.2012 114.584 34.1492 114.012 34.1492C113.465 34.1492 113.023 34.2012 112.659 34.3313C112.294 34.4614 112.034 34.6435 111.852 34.8516C111.67 35.0338 111.54 35.2679 111.488 35.5021C111.436 35.7363 111.436 35.9184 111.436 36.1265V36.4127V40.0553V40.3415C111.436 40.6017 111.488 40.9139 111.67 41.2521C111.826 41.5643 112.19 41.8245 112.711 42.0327C112.815 42.0587 112.893 42.1367 113.023 42.1628C113.153 42.1888 113.283 42.2668 113.413 42.2929C113.803 42.4229 114.22 42.553 114.688 42.7351C115.182 42.8913 115.625 43.0474 116.041 43.2295C116.457 43.3336 116.821 43.4637 117.108 43.6198C117.498 43.7499 117.81 43.932 118.07 44.1661C118.357 44.4003 118.591 44.6865 118.799 44.9987C119.189 45.5711 119.371 46.2216 119.371 46.9241V47.3143V50.4365V51.217H119.423V51.191Z" fill="white"/>
<path d="M22.869 23.0392C24.4041 21.5041 24.4041 19.3446 23.1812 18.0958L12.0715 7.29824C10.8487 6.07539 8.68915 6.07539 7.44028 7.29824H7.12808C5.90522 8.52109 5.90522 10.6806 7.12808 11.9294L18.2378 23.0392C19.4606 24.5743 21.6202 24.5743 22.869 23.0392Z" fill="url(#paint0_linear_87_8477)"/>
<path d="M18.5502 23.9762C18.5502 23.664 18.238 23.3518 17.9258 23.0396L18.5502 23.9762Z" fill="#222653"/>
<path d="M44.464 7.01236L22.869 23.6639C21.6462 24.8868 19.7729 24.8868 18.55 23.9762L17.9256 23.0395L12.6699 18.0961V17.7839C12.6699 17.7839 13.8928 18.0961 15.1416 18.0961C15.1416 18.0961 15.1416 18.0961 15.4538 18.0961C17.6133 17.7839 20.3973 17.1594 23.7796 14.7137C26.8758 12.242 31.1948 8.85965 34.8894 6.07571C35.2016 5.7635 35.2016 5.76349 35.5138 5.45127L40.145 1.44451C40.7695 1.13229 41.6801 0.820068 42.3045 0.820068C43.2412 0.820068 44.1518 1.13228 44.7762 1.75671L45.0885 2.06892C46.3113 3.60399 45.9991 5.76349 44.464 7.01236Z" fill="white"/>
<path d="M28.1007 27.983C29.6358 29.5181 31.7953 29.5181 33.0442 28.2952L44.1539 17.1855C45.3768 15.9627 45.3768 13.8032 44.1539 12.5543L43.8417 12.2421C42.6188 11.0192 40.4594 11.0192 39.2105 12.2421L28.1007 23.0396C26.8779 24.2885 26.8779 26.422 28.1007 27.983Z" fill="url(#paint1_linear_87_8477)"/>
<path d="M44.1509 49.578L27.4994 27.983C26.5627 26.7601 26.5627 24.8868 27.4994 23.664L28.1238 23.0396L33.3794 17.7839L33.6917 17.4717C33.6917 17.4717 33.3794 18.6945 33.3794 19.9434C33.3794 19.9434 33.3794 19.9434 33.3794 20.2556C33.6917 22.4151 34.3161 25.199 36.7618 28.5814C39.2335 31.6776 42.6159 35.9966 45.3998 39.6911C45.712 40.0034 45.712 40.0033 46.0242 40.3156L50.031 45.5712C50.6555 46.1957 50.6555 47.1063 50.6555 47.7307C50.6555 48.6674 50.3432 49.578 49.7188 50.2024L49.4066 50.5147C47.5333 51.4253 45.3738 51.1131 44.1509 49.578Z" fill="white"/>
<path d="M27.1878 38.7804C25.6527 40.3155 25.6527 42.475 26.8756 43.7238L37.9853 54.8336C39.2081 56.0564 41.3677 56.0564 42.6165 54.8336L42.9287 54.5214C44.1516 53.2985 44.1516 51.139 42.9287 49.8901L31.819 38.7804C30.5701 37.5315 28.7229 37.5315 27.1878 38.7804Z" fill="url(#paint2_linear_87_8477)"/>
<path d="M5.59298 54.8077L27.188 38.1561C28.4109 37.2195 30.2842 37.2195 31.507 38.1561L32.1314 38.7805L37.3871 44.0362L37.6993 44.3484C37.6993 44.3484 36.4765 44.0362 35.2276 44.0362C35.2276 44.0362 35.2276 44.0362 34.9154 44.0362C32.7559 44.3484 29.972 44.9728 26.5896 47.4185C23.4935 49.8903 19.1744 53.2726 15.4799 56.0565C15.4799 56.0565 15.1677 56.0566 15.1677 56.3688L9.91198 60.3756C9.28755 61 8.37693 61 7.7525 61C6.81584 61 5.90521 60.6878 5.28078 60.0633L4.96854 59.7511C3.74569 58.2161 4.03189 56.0566 5.59298 54.8077Z" fill="white"/>
<path d="M22.2457 33.8372C20.7106 32.3021 18.5511 32.3021 17.3022 33.525L6.19253 44.6347C4.96968 45.8576 4.96968 48.0171 6.19253 49.2659L6.50473 49.5782C7.72758 50.801 9.8871 50.801 11.136 49.5782L22.2457 38.4684C23.7808 37.2195 23.7808 35.0601 22.2457 33.8372Z" fill="url(#paint3_linear_87_8477)"/>
<path d="M6.19232 11.9298L22.8439 33.5248C23.7806 34.7477 23.7806 36.621 22.8439 37.8438L22.2195 38.4682L16.9638 43.7239V44.0361C16.9638 44.0361 17.276 42.8133 17.276 41.5644C17.276 41.5644 17.276 41.5644 17.276 41.2522C16.9638 39.0927 16.3394 36.3088 13.8937 32.9264C11.422 29.8303 8.03961 25.5112 5.25568 21.8167C4.94346 21.8167 4.94345 21.8167 4.63124 21.5045L0.624441 16.2488C0.312224 15.6243 0 15.026 0 14.0893C0 13.1526 0.312211 12.5542 0.936645 11.6176L1.24888 11.3053C2.80997 10.0825 4.96947 10.3947 6.19232 11.9298Z" fill="white"/>
<defs>
<linearGradient id="paint0_linear_87_8477" x1="7.56623" y1="10.6532" x2="26.6465" y2="21.1161" gradientUnits="userSpaceOnUse">
<stop stop-color="#E40520"/>
<stop offset="0.0668918" stop-color="#D9081E"/>
<stop offset="0.1964" stop-color="#BD0D18"/>
<stop offset="0.3755" stop-color="#8F0F0D"/>
<stop offset="0.5951" stop-color="#4B0600"/>
<stop offset="0.702"/>
</linearGradient>
<linearGradient id="paint1_linear_87_8477" x1="40.7178" y1="12.5256" x2="30.2549" y2="31.6062" gradientUnits="userSpaceOnUse">
<stop stop-color="#4FAE32"/>
<stop offset="0.0668918" stop-color="#4CA730"/>
<stop offset="0.1964" stop-color="#43932B"/>
<stop offset="0.3755" stop-color="#317120"/>
<stop offset="0.5951" stop-color="#0C3A09"/>
<stop offset="0.702"/>
</linearGradient>
<linearGradient id="paint2_linear_87_8477" x1="42.5437" y1="51.4178" x2="23.4632" y2="40.9549" gradientUnits="userSpaceOnUse">
<stop stop-color="#DFBA20"/>
<stop offset="0.0682901" stop-color="#D5B21F"/>
<stop offset="0.2005" stop-color="#B99C1B"/>
<stop offset="0.3834" stop-color="#8A7614"/>
<stop offset="0.6076" stop-color="#423900"/>
<stop offset="0.702"/>
</linearGradient>
<linearGradient id="paint3_linear_87_8477" x1="9.78088" y1="49.0069" x2="20.2441" y2="29.9264" gradientUnits="userSpaceOnUse">
<stop stop-color="#56BAEB"/>
<stop offset="0.0668918" stop-color="#52B2E0"/>
<stop offset="0.1964" stop-color="#4A9DC5"/>
<stop offset="0.3755" stop-color="#377895"/>
<stop offset="0.5951" stop-color="#143C4B"/>
<stop offset="0.702"/>
</linearGradient>
</defs>
</svg>
