<svg xmlns="http://www.w3.org/2000/svg" xmlns:xlink="http://www.w3.org/1999/xlink" width="2048" zoomAndPan="magnify" viewBox="0 0 1536 708.749996" height="945" preserveAspectRatio="xMidYMid meet" version="1.0"><defs><clipPath id="e08b139a20"><path d="M 487 70.851562 L 1032 70.851562 L 1032 616 L 487 616 Z M 487 70.851562 " clip-rule="nonzero"/></clipPath><clipPath id="b189a6f68f"><path d="M 461.367188 74 L 1009 74 L 1009 622 L 461.367188 622 Z M 461.367188 74 " clip-rule="nonzero"/></clipPath><clipPath id="c6c04a2e72"><path d="M 1038 351 L 1074.652344 351 L 1074.652344 372 L 1038 372 Z M 1038 351 " clip-rule="nonzero"/></clipPath><clipPath id="030b392e29"><path d="M 628 615 L 664 615 L 664 663.890625 L 628 663.890625 Z M 628 615 " clip-rule="nonzero"/></clipPath></defs><g clip-path="url(#e08b139a20)"><path fill="#D3D7DD" d="M 1031.777344 343.183594 C 1031.777344 347.636719 1031.667969 352.089844 1031.449219 356.542969 C 1031.230469 360.992188 1030.902344 365.4375 1030.464844 369.871094 C 1030.027344 374.304688 1029.484375 378.726562 1028.828125 383.136719 C 1028.175781 387.542969 1027.414062 391.933594 1026.546875 396.304688 C 1025.675781 400.675781 1024.699219 405.019531 1023.617188 409.34375 C 1022.535156 413.667969 1021.347656 417.960938 1020.054688 422.226562 C 1018.761719 426.488281 1017.363281 430.71875 1015.863281 434.914062 C 1014.363281 439.109375 1012.761719 443.265625 1011.054688 447.382812 C 1009.351562 451.5 1007.546875 455.574219 1005.640625 459.601562 C 1003.738281 463.632812 1001.734375 467.609375 999.632812 471.539062 C 997.535156 475.472656 995.339844 479.347656 993.050781 483.167969 C 990.757812 486.992188 988.375 490.753906 985.902344 494.460938 C 983.425781 498.164062 980.863281 501.808594 978.207031 505.386719 C 975.554688 508.96875 972.816406 512.480469 969.988281 515.921875 C 967.164062 519.367188 964.253906 522.742188 961.261719 526.042969 C 958.269531 529.34375 955.199219 532.570312 952.050781 535.722656 C 948.898438 538.875 945.671875 541.945312 942.375 544.9375 C 939.070312 547.929688 935.699219 550.839844 932.257812 553.667969 C 928.8125 556.496094 925.300781 559.234375 921.722656 561.890625 C 918.144531 564.546875 914.503906 567.109375 910.800781 569.585938 C 907.097656 572.0625 903.332031 574.445312 899.511719 576.738281 C 895.691406 579.027344 891.816406 581.222656 887.886719 583.324219 C 883.960938 585.425781 879.980469 587.429688 875.953125 589.332031 C 871.925781 591.238281 867.855469 593.042969 863.738281 594.75 C 859.625 596.453125 855.46875 598.058594 851.273438 599.558594 C 847.082031 601.0625 842.851562 602.457031 838.589844 603.75 C 834.324219 605.046875 830.035156 606.234375 825.710938 607.316406 C 821.390625 608.398438 817.046875 609.375 812.675781 610.246094 C 808.308594 611.113281 803.917969 611.875 799.511719 612.53125 C 795.105469 613.183594 790.6875 613.730469 786.253906 614.164062 C 781.820312 614.601562 777.378906 614.929688 772.929688 615.148438 C 768.480469 615.367188 764.027344 615.476562 759.574219 615.476562 C 755.117188 615.476562 750.664062 615.367188 746.214844 615.148438 C 741.765625 614.929688 737.324219 614.601562 732.890625 614.164062 C 728.457031 613.730469 724.039062 613.183594 719.632812 612.53125 C 715.226562 611.875 710.835938 611.113281 706.46875 610.246094 C 702.097656 609.375 697.753906 608.398438 693.433594 607.316406 C 689.113281 606.234375 684.820312 605.046875 680.554688 603.75 C 676.292969 602.457031 672.066406 601.0625 667.871094 599.558594 C 663.675781 598.058594 659.519531 596.453125 655.40625 594.75 C 651.289062 593.042969 647.21875 591.238281 643.191406 589.332031 C 639.164062 587.429688 635.1875 585.425781 631.257812 583.324219 C 627.328125 581.222656 623.453125 579.027344 619.632812 576.738281 C 615.8125 574.445312 612.046875 572.0625 608.34375 569.585938 C 604.640625 567.109375 601 564.546875 597.421875 561.890625 C 593.84375 559.234375 590.332031 556.496094 586.890625 553.667969 C 583.445312 550.839844 580.074219 547.929688 576.773438 544.9375 C 573.472656 541.945312 570.246094 538.875 567.097656 535.722656 C 563.945312 532.570312 560.875 529.34375 557.882812 526.042969 C 554.890625 522.742188 551.984375 519.367188 549.15625 515.921875 C 546.332031 512.480469 543.589844 508.96875 540.9375 505.386719 C 538.285156 501.808594 535.71875 498.164062 533.242188 494.460938 C 530.769531 490.753906 528.386719 486.992188 526.097656 483.167969 C 523.804688 479.347656 521.609375 475.472656 519.511719 471.539062 C 517.410156 467.609375 515.410156 463.632812 513.503906 459.601562 C 511.597656 455.574219 509.792969 451.5 508.089844 447.382812 C 506.386719 443.265625 504.78125 439.109375 503.28125 434.914062 C 501.78125 430.71875 500.382812 426.488281 499.089844 422.226562 C 497.796875 417.960938 496.609375 413.667969 495.527344 409.34375 C 494.445312 405.019531 493.46875 400.675781 492.601562 396.304688 C 491.730469 391.933594 490.96875 387.542969 490.316406 383.136719 C 489.664062 378.726562 489.117188 374.304688 488.679688 369.871094 C 488.242188 365.4375 487.917969 360.992188 487.699219 356.542969 C 487.480469 352.089844 487.371094 347.636719 487.371094 343.183594 C 487.371094 338.726562 487.480469 334.273438 487.699219 329.820312 C 487.917969 325.371094 488.242188 320.925781 488.679688 316.492188 C 489.117188 312.058594 489.664062 307.636719 490.316406 303.226562 C 490.96875 298.820312 491.730469 294.429688 492.601562 290.058594 C 493.46875 285.6875 494.445312 281.34375 495.527344 277.019531 C 496.609375 272.695312 497.796875 268.402344 499.089844 264.140625 C 500.382812 259.875 501.78125 255.644531 503.28125 251.449219 C 504.78125 247.253906 506.386719 243.097656 508.089844 238.980469 C 509.792969 234.863281 511.597656 230.789062 513.503906 226.761719 C 515.410156 222.730469 517.410156 218.753906 519.511719 214.824219 C 521.609375 210.894531 523.804688 207.015625 526.097656 203.195312 C 528.386719 199.371094 530.769531 195.609375 533.242188 191.902344 C 535.71875 188.199219 538.285156 184.554688 540.9375 180.976562 C 543.589844 177.398438 546.332031 173.882812 549.15625 170.441406 C 551.984375 166.996094 554.890625 163.621094 557.882812 160.320312 C 560.875 157.019531 563.945312 153.792969 567.097656 150.640625 C 570.246094 147.488281 573.472656 144.417969 576.773438 141.425781 C 580.074219 138.433594 583.445312 135.523438 586.890625 132.695312 C 590.332031 129.867188 593.84375 127.128906 597.421875 124.472656 C 601 121.816406 604.640625 119.253906 608.34375 116.777344 C 612.046875 114.300781 615.8125 111.917969 619.632812 109.625 C 623.453125 107.335938 627.328125 105.140625 631.257812 103.039062 C 635.1875 100.9375 639.164062 98.933594 643.191406 97.03125 C 647.21875 95.125 651.289062 93.320312 655.40625 91.613281 C 659.519531 89.910156 663.675781 88.304688 667.871094 86.804688 C 672.066406 85.304688 676.292969 83.90625 680.554688 82.613281 C 684.820312 81.316406 689.113281 80.128906 693.433594 79.046875 C 697.753906 77.964844 702.097656 76.988281 706.46875 76.117188 C 710.835938 75.25 715.226562 74.488281 719.632812 73.835938 C 724.039062 73.179688 728.457031 72.636719 732.890625 72.199219 C 737.324219 71.761719 741.765625 71.433594 746.214844 71.214844 C 750.664062 70.996094 755.117188 70.886719 759.574219 70.886719 C 764.027344 70.886719 768.480469 70.996094 772.929688 71.214844 C 777.378906 71.433594 781.820312 71.761719 786.253906 72.199219 C 790.6875 72.636719 795.105469 73.179688 799.511719 73.835938 C 803.917969 74.488281 808.308594 75.25 812.675781 76.117188 C 817.046875 76.988281 821.390625 77.964844 825.710938 79.046875 C 830.035156 80.128906 834.324219 81.316406 838.589844 82.613281 C 842.851562 83.90625 847.082031 85.304688 851.273438 86.804688 C 855.46875 88.304688 859.625 89.910156 863.738281 91.613281 C 867.855469 93.320312 871.925781 95.125 875.953125 97.03125 C 879.980469 98.933594 883.960938 100.9375 887.886719 103.039062 C 891.816406 105.140625 895.691406 107.335938 899.511719 109.625 C 903.332031 111.917969 907.097656 114.300781 910.800781 116.777344 C 914.503906 119.253906 918.144531 121.816406 921.722656 124.472656 C 925.300781 127.128906 928.8125 129.867188 932.257812 132.695312 C 935.699219 135.523438 939.070312 138.433594 942.375 141.425781 C 945.671875 144.417969 948.898438 147.488281 952.050781 150.640625 C 955.199219 153.792969 958.269531 157.019531 961.261719 160.320312 C 964.253906 163.621094 967.164062 166.996094 969.988281 170.441406 C 972.816406 173.882812 975.554688 177.398438 978.207031 180.976562 C 980.863281 184.554688 983.425781 188.199219 985.902344 191.902344 C 988.375 195.609375 990.757812 199.371094 993.050781 203.195312 C 995.339844 207.015625 997.535156 210.894531 999.632812 214.824219 C 1001.734375 218.753906 1003.738281 222.730469 1005.640625 226.761719 C 1007.546875 230.789062 1009.351562 234.863281 1011.054688 238.980469 C 1012.761719 243.097656 1014.363281 247.253906 1015.863281 251.449219 C 1017.363281 255.644531 1018.761719 259.875 1020.054688 264.140625 C 1021.347656 268.402344 1022.535156 272.695312 1023.617188 277.019531 C 1024.699219 281.34375 1025.675781 285.6875 1026.546875 290.058594 C 1027.414062 294.429688 1028.175781 298.820312 1028.828125 303.226562 C 1029.484375 307.636719 1030.027344 312.058594 1030.464844 316.492188 C 1030.902344 320.925781 1031.230469 325.371094 1031.449219 329.820312 C 1031.667969 334.273438 1031.777344 338.726562 1031.777344 343.183594 Z M 1031.777344 343.183594 " fill-opacity="1" fill-rule="nonzero"/></g><g clip-path="url(#b189a6f68f)"><path fill="#fcfbf9" d="M 987.105469 241.628906 C 973.324219 209.035156 953.597656 179.765625 928.46875 154.628906 C 903.335938 129.492188 874.074219 109.757812 841.496094 95.96875 C 807.757812 81.699219 771.925781 74.460938 734.992188 74.460938 C 698.050781 74.460938 662.21875 81.699219 628.484375 95.96875 C 595.902344 109.757812 566.640625 129.496094 541.511719 154.628906 C 516.382812 179.765625 496.65625 209.039062 482.871094 241.628906 C 468.605469 275.375 461.371094 311.222656 461.371094 348.175781 C 461.371094 385.125 468.605469 420.96875 482.871094 454.714844 C 496.65625 487.304688 516.386719 516.578125 541.511719 541.714844 C 566.640625 566.851562 595.902344 586.585938 628.484375 600.371094 C 662.21875 614.644531 698.050781 621.878906 734.992188 621.878906 C 755.398438 621.878906 777.46875 617.414062 797.164062 612.875 C 793.726562 613.332031 790.179688 613.75 786.542969 614.105469 C 781.652344 614.582031 776.914062 614.917969 772.335938 615.144531 C 759.945312 617.40625 747.195312 619.050781 734.992188 619.050781 C 585.675781 619.050781 464.203125 497.535156 464.203125 348.171875 C 464.203125 198.808594 585.675781 77.292969 734.992188 77.292969 C 884.304688 77.292969 1005.78125 198.808594 1005.78125 348.171875 C 1005.78125 390.042969 994.882812 432.339844 977.855469 467.765625 C 978.601562 468.472656 979.328125 469.195312 980.046875 469.925781 C 982.050781 465.785156 985.304688 458.964844 987.105469 454.710938 C 1001.371094 420.964844 1008.609375 385.117188 1008.609375 348.171875 C 1008.609375 311.21875 1001.371094 275.375 987.105469 241.628906 Z M 987.105469 241.628906 " fill-opacity="1" fill-rule="nonzero"/></g><path fill="#ffd004" d="M 1015.660156 550.746094 C 1015.660156 552.550781 1015.613281 554.355469 1015.527344 556.15625 C 1015.4375 557.960938 1015.304688 559.761719 1015.128906 561.558594 C 1014.949219 563.355469 1014.730469 565.144531 1014.464844 566.929688 C 1014.199219 568.71875 1013.890625 570.496094 1013.539062 572.265625 C 1013.1875 574.035156 1012.792969 575.796875 1012.355469 577.546875 C 1011.914062 579.300781 1011.433594 581.039062 1010.910156 582.765625 C 1010.386719 584.496094 1009.820312 586.207031 1009.210938 587.910156 C 1008.605469 589.609375 1007.953125 591.292969 1007.265625 592.960938 C 1006.574219 594.628906 1005.84375 596.277344 1005.070312 597.910156 C 1004.300781 599.542969 1003.488281 601.15625 1002.636719 602.746094 C 1001.785156 604.339844 1000.898438 605.910156 999.96875 607.457031 C 999.042969 609.007812 998.078125 610.53125 997.074219 612.03125 C 996.070312 613.535156 995.03125 615.007812 993.957031 616.460938 C 992.882812 617.910156 991.773438 619.332031 990.628906 620.726562 C 989.480469 622.125 988.304688 623.488281 987.089844 624.828125 C 985.878906 626.164062 984.636719 627.472656 983.359375 628.75 C 982.082031 630.027344 980.777344 631.269531 979.4375 632.484375 C 978.101562 633.695312 976.734375 634.875 975.339844 636.019531 C 973.945312 637.164062 972.523438 638.273438 971.074219 639.351562 C 969.625 640.425781 968.148438 641.464844 966.648438 642.46875 C 965.148438 643.472656 963.625 644.4375 962.074219 645.363281 C 960.527344 646.292969 958.957031 647.183594 957.367188 648.035156 C 955.773438 648.882812 954.164062 649.695312 952.53125 650.46875 C 950.898438 651.238281 949.25 651.972656 947.582031 652.664062 C 945.914062 653.351562 944.230469 654.003906 942.53125 654.609375 C 940.832031 655.21875 939.121094 655.785156 937.394531 656.308594 C 935.667969 656.832031 933.925781 657.316406 932.175781 657.753906 C 930.425781 658.191406 928.664062 658.585938 926.894531 658.941406 C 925.125 659.292969 923.347656 659.601562 921.5625 659.867188 C 919.777344 660.128906 917.988281 660.351562 916.191406 660.527344 C 914.394531 660.707031 912.59375 660.839844 910.792969 660.925781 C 908.988281 661.015625 907.1875 661.058594 905.382812 661.058594 C 903.578125 661.058594 901.773438 661.015625 899.96875 660.925781 C 898.167969 660.839844 896.367188 660.707031 894.570312 660.527344 C 892.777344 660.351562 890.984375 660.128906 889.199219 659.867188 C 887.414062 659.601562 885.636719 659.292969 883.867188 658.941406 C 882.097656 658.585938 880.335938 658.191406 878.585938 657.753906 C 876.835938 657.316406 875.097656 656.832031 873.371094 656.308594 C 871.640625 655.785156 869.929688 655.21875 868.230469 654.609375 C 866.53125 654.003906 864.847656 653.351562 863.179688 652.664062 C 861.511719 651.972656 859.863281 651.238281 858.230469 650.46875 C 856.601562 649.695312 854.988281 648.882812 853.398438 648.035156 C 851.804688 647.183594 850.234375 646.292969 848.6875 645.363281 C 847.140625 644.4375 845.613281 643.472656 844.113281 642.46875 C 842.613281 641.464844 841.136719 640.425781 839.6875 639.351562 C 838.238281 638.273438 836.816406 637.164062 835.421875 636.019531 C 834.027344 634.875 832.660156 633.695312 831.324219 632.484375 C 829.984375 631.269531 828.679688 630.027344 827.402344 628.75 C 826.128906 627.472656 824.882812 626.164062 823.671875 624.828125 C 822.457031 623.488281 821.28125 622.125 820.136719 620.726562 C 818.992188 619.332031 817.878906 617.910156 816.804688 616.460938 C 815.730469 615.007812 814.691406 613.535156 813.6875 612.03125 C 812.6875 610.53125 811.71875 609.007812 810.792969 607.457031 C 809.863281 605.910156 808.976562 604.339844 808.125 602.746094 C 807.273438 601.15625 806.464844 599.542969 805.691406 597.910156 C 804.917969 596.277344 804.1875 594.628906 803.496094 592.960938 C 802.808594 591.292969 802.15625 589.609375 801.550781 587.910156 C 800.941406 586.207031 800.375 584.496094 799.851562 582.765625 C 799.328125 581.039062 798.847656 579.300781 798.410156 577.550781 C 797.96875 575.796875 797.574219 574.035156 797.222656 572.265625 C 796.871094 570.496094 796.5625 568.71875 796.296875 566.929688 C 796.03125 565.144531 795.8125 563.355469 795.632812 561.558594 C 795.457031 559.761719 795.324219 557.960938 795.238281 556.15625 C 795.148438 554.355469 795.105469 552.550781 795.105469 550.746094 C 795.105469 548.9375 795.148438 547.136719 795.238281 545.332031 C 795.324219 543.527344 795.457031 541.730469 795.632812 539.933594 C 795.8125 538.136719 796.03125 536.34375 796.296875 534.558594 C 796.5625 532.773438 796.871094 530.992188 797.222656 529.222656 C 797.574219 527.453125 797.96875 525.691406 798.410156 523.941406 C 798.847656 522.1875 799.328125 520.449219 799.851562 518.722656 C 800.375 516.996094 800.941406 515.28125 801.550781 513.582031 C 802.15625 511.882812 802.808594 510.195312 803.496094 508.527344 C 804.1875 506.859375 804.917969 505.210938 805.691406 503.578125 C 806.464844 501.945312 807.273438 500.335938 808.125 498.742188 C 808.976562 497.152344 809.863281 495.578125 810.792969 494.03125 C 811.71875 492.484375 812.6875 490.957031 813.6875 489.457031 C 814.691406 487.957031 815.730469 486.480469 816.804688 485.03125 C 817.878906 483.582031 818.992188 482.15625 820.136719 480.761719 C 821.28125 479.367188 822.457031 478 823.671875 476.660156 C 824.882812 475.324219 826.128906 474.015625 827.402344 472.742188 C 828.679688 471.464844 829.984375 470.21875 831.324219 469.007812 C 832.660156 467.792969 834.027344 466.617188 835.421875 465.46875 C 836.816406 464.324219 838.238281 463.214844 839.6875 462.140625 C 841.136719 461.0625 842.613281 460.023438 844.113281 459.019531 C 845.613281 458.019531 847.140625 457.050781 848.6875 456.125 C 850.234375 455.195312 851.804688 454.308594 853.398438 453.457031 C 854.988281 452.605469 856.601562 451.792969 858.230469 451.019531 C 859.863281 450.25 861.511719 449.519531 863.179688 448.828125 C 864.847656 448.136719 866.53125 447.488281 868.230469 446.878906 C 869.929688 446.269531 871.640625 445.703125 873.371094 445.179688 C 875.097656 444.65625 876.835938 444.175781 878.585938 443.734375 C 880.335938 443.296875 882.097656 442.902344 883.867188 442.550781 C 885.636719 442.199219 887.414062 441.890625 889.199219 441.625 C 890.984375 441.359375 892.777344 441.136719 894.570312 440.960938 C 896.367188 440.785156 898.167969 440.652344 899.96875 440.5625 C 901.773438 440.472656 903.578125 440.429688 905.382812 440.429688 C 907.1875 440.429688 908.988281 440.472656 910.792969 440.5625 C 912.59375 440.652344 914.394531 440.785156 916.191406 440.960938 C 917.988281 441.136719 919.777344 441.359375 921.5625 441.625 C 923.347656 441.890625 925.125 442.199219 926.894531 442.550781 C 928.664062 442.902344 930.425781 443.296875 932.175781 443.734375 C 933.925781 444.175781 935.667969 444.65625 937.394531 445.179688 C 939.121094 445.703125 940.832031 446.269531 942.53125 446.878906 C 944.230469 447.488281 945.914062 448.136719 947.582031 448.828125 C 949.25 449.519531 950.898438 450.25 952.53125 451.019531 C 954.164062 451.792969 955.773438 452.605469 957.367188 453.457031 C 958.957031 454.308594 960.527344 455.195312 962.074219 456.125 C 963.625 457.050781 965.148438 458.019531 966.648438 459.019531 C 968.148438 460.023438 969.625 461.0625 971.074219 462.140625 C 972.523438 463.214844 973.945312 464.324219 975.339844 465.46875 C 976.734375 466.617188 978.101562 467.792969 979.4375 469.007812 C 980.777344 470.21875 982.082031 471.464844 983.359375 472.742188 C 984.636719 474.015625 985.878906 475.324219 987.089844 476.660156 C 988.304688 478 989.480469 479.367188 990.628906 480.761719 C 991.773438 482.15625 992.882812 483.582031 993.957031 485.03125 C 995.03125 486.480469 996.070312 487.957031 997.074219 489.457031 C 998.078125 490.957031 999.042969 492.484375 999.96875 494.03125 C 1000.898438 495.578125 1001.785156 497.152344 1002.636719 498.742188 C 1003.488281 500.335938 1004.300781 501.945312 1005.070312 503.578125 C 1005.84375 505.210938 1006.574219 506.859375 1007.265625 508.527344 C 1007.957031 510.195312 1008.605469 511.878906 1009.210938 513.582031 C 1009.820312 515.28125 1010.386719 516.996094 1010.910156 518.722656 C 1011.433594 520.449219 1011.914062 522.1875 1012.355469 523.941406 C 1012.792969 525.691406 1013.1875 527.453125 1013.539062 529.222656 C 1013.890625 530.992188 1014.199219 532.773438 1014.464844 534.558594 C 1014.730469 536.34375 1014.949219 538.136719 1015.128906 539.933594 C 1015.304688 541.730469 1015.4375 543.527344 1015.527344 545.332031 C 1015.613281 547.136719 1015.660156 548.9375 1015.660156 550.746094 Z M 1015.660156 550.746094 " fill-opacity="1" fill-rule="nonzero"/><path fill="#ffd004" d="M 500.332031 155.167969 L 533.734375 227.480469 L 465.933594 183.097656 Z M 500.332031 155.167969 " fill-opacity="1" fill-rule="nonzero"/><path fill="#0f1724" d="M 472.414062 227.480469 L 497.339844 232.46875 L 472.414062 238.953125 Z M 472.414062 227.480469 " fill-opacity="1" fill-rule="nonzero"/><g clip-path="url(#c6c04a2e72)"><path fill="#0f1724" d="M 1074.648438 351.160156 L 1038.753906 364.128906 L 1074.648438 371.609375 Z M 1074.648438 351.160156 " fill-opacity="1" fill-rule="nonzero"/></g><path fill="#ffd004" d="M 1049.226562 388.566406 L 1043.242188 374.105469 L 1056.703125 381.335938 Z M 1049.226562 388.566406 " fill-opacity="1" fill-rule="nonzero"/><path fill="#ffd004" d="M 1045.734375 348.167969 L 1056.703125 336.199219 L 1061.6875 348.167969 Z M 1045.734375 348.167969 " fill-opacity="1" fill-rule="nonzero"/><g clip-path="url(#030b392e29)"><path fill="#0f1724" d="M 628.457031 652.882812 L 663.851562 615.480469 L 646.152344 663.855469 Z M 628.457031 652.882812 " fill-opacity="1" fill-rule="nonzero"/></g><path fill="#ffd004" d="M 666.84375 648.894531 L 672.328125 628.445312 L 674.820312 648.894531 Z M 666.84375 648.894531 " fill-opacity="1" fill-rule="nonzero"/></svg>