<svg xmlns="http://www.w3.org/2000/svg" xmlns:xlink="http://www.w3.org/1999/xlink" width="2048" zoomAndPan="magnify" viewBox="0 0 1536 708.749996" height="945" preserveAspectRatio="xMidYMid meet" version="1.0"><defs><clipPath id="f954b7578a"><path d="M 342 37.707031 L 1198 37.707031 L 1198 668 L 342 668 Z M 342 37.707031 " clip-rule="nonzero"/></clipPath><clipPath id="cb54f74ec3"><path d="M 1163.664062 354.339844 C 1163.734375 359.078125 1163.648438 363.8125 1163.40625 368.546875 C 1163.164062 373.277344 1162.765625 377.996094 1162.214844 382.703125 C 1161.660156 387.410156 1160.953125 392.09375 1160.09375 396.75 C 1159.230469 401.410156 1158.21875 406.039062 1157.050781 410.628906 C 1155.882812 415.222656 1154.570312 419.773438 1153.101562 424.277344 C 1151.636719 428.785156 1150.023438 433.238281 1148.261719 437.636719 C 1146.503906 442.039062 1144.601562 446.375 1142.554688 450.652344 C 1140.507812 454.925781 1138.324219 459.128906 1136.003906 463.257812 C 1133.679688 467.390625 1131.222656 471.441406 1128.632812 475.410156 C 1126.042969 479.378906 1123.328125 483.257812 1120.480469 487.050781 C 1117.636719 490.839844 1114.667969 494.53125 1111.582031 498.128906 C 1108.492188 501.722656 1105.289062 505.210938 1101.96875 508.597656 C 1098.652344 511.980469 1095.222656 515.25 1091.691406 518.410156 C 1088.15625 521.570312 1084.519531 524.609375 1080.785156 527.527344 C 1077.050781 530.445312 1073.226562 533.238281 1069.304688 535.90625 C 1065.386719 538.574219 1061.386719 541.109375 1057.300781 543.511719 C 1053.214844 545.917969 1049.054688 548.183594 1044.816406 550.3125 C 1040.582031 552.445312 1036.28125 554.433594 1031.914062 556.28125 C 1027.550781 558.125 1023.125 559.828125 1018.648438 561.382812 C 1014.167969 562.9375 1009.644531 564.347656 1005.074219 565.605469 C 1000.503906 566.863281 995.894531 567.96875 991.25 568.921875 C 986.605469 569.875 981.9375 570.675781 977.238281 571.324219 C 972.542969 571.972656 967.828125 572.464844 963.101562 572.800781 C 958.371094 573.136719 953.636719 573.316406 948.894531 573.34375 C 944.152344 573.367188 939.417969 573.234375 934.683594 572.949219 C 929.953125 572.664062 925.234375 572.21875 920.53125 571.621094 C 915.828125 571.023438 911.148438 570.273438 906.496094 569.367188 C 901.839844 568.460938 897.222656 567.40625 892.636719 566.195312 C 888.054688 564.984375 883.515625 563.628906 879.019531 562.117188 C 874.523438 560.609375 870.085938 558.957031 865.699219 557.15625 C 861.3125 555.355469 856.992188 553.410156 852.734375 551.328125 C 848.476562 549.242188 844.292969 547.019531 840.179688 544.65625 C 837.394531 543.054688 834.558594 541.542969 831.671875 540.121094 C 828.785156 538.703125 825.855469 537.378906 822.882812 536.152344 C 819.910156 534.925781 816.898438 533.796875 813.851562 532.765625 C 810.804688 531.734375 807.726562 530.804688 804.621094 529.972656 C 801.511719 529.140625 798.382812 528.414062 795.226562 527.789062 C 792.070312 527.164062 788.898438 526.640625 785.707031 526.222656 C 782.519531 525.804688 779.320312 525.488281 776.109375 525.28125 C 772.898438 525.070312 769.6875 524.964844 766.46875 524.964844 C 763.253906 524.964844 760.039062 525.070312 756.832031 525.28125 C 753.621094 525.488281 750.421875 525.804688 747.230469 526.222656 C 744.042969 526.640625 740.871094 527.164062 737.714844 527.789062 C 734.558594 528.414062 731.429688 529.140625 728.320312 529.972656 C 725.210938 530.804688 722.136719 531.734375 719.089844 532.765625 C 716.042969 533.796875 713.03125 534.925781 710.058594 536.152344 C 707.085938 537.378906 704.15625 538.703125 701.269531 540.121094 C 698.382812 541.542969 695.546875 543.054688 692.757812 544.65625 C 688.648438 547.019531 684.460938 549.242188 680.207031 551.324219 C 675.949219 553.410156 671.625 555.351562 667.238281 557.152344 C 662.855469 558.953125 658.414062 560.609375 653.917969 562.117188 C 649.425781 563.625 644.886719 564.984375 640.300781 566.195312 C 635.714844 567.402344 631.097656 568.460938 626.445312 569.367188 C 621.789062 570.269531 617.109375 571.023438 612.40625 571.621094 C 607.703125 572.21875 602.984375 572.660156 598.253906 572.945312 C 593.519531 573.234375 588.785156 573.363281 584.042969 573.339844 C 579.300781 573.3125 574.566406 573.132812 569.835938 572.796875 C 565.105469 572.460938 560.394531 571.96875 555.695312 571.320312 C 551 570.671875 546.328125 569.871094 541.6875 568.917969 C 537.042969 567.964844 532.433594 566.859375 527.863281 565.601562 C 523.292969 564.34375 518.765625 562.933594 514.289062 561.378906 C 509.808594 559.824219 505.386719 558.121094 501.019531 556.277344 C 496.652344 554.429688 492.351562 552.441406 488.117188 550.3125 C 483.882812 548.179688 479.722656 545.914062 475.636719 543.511719 C 471.550781 541.105469 467.546875 538.570312 463.628906 535.902344 C 459.710938 533.238281 455.882812 530.441406 452.148438 527.523438 C 448.414062 524.605469 444.777344 521.566406 441.242188 518.40625 C 437.710938 515.25 434.28125 511.976562 430.964844 508.59375 C 427.644531 505.210938 424.441406 501.71875 421.351562 498.125 C 418.261719 494.53125 415.296875 490.839844 412.449219 487.046875 C 409.605469 483.257812 406.886719 479.378906 404.296875 475.410156 C 401.707031 471.4375 399.25 467.390625 396.925781 463.257812 C 394.605469 459.128906 392.421875 454.925781 390.375 450.648438 C 388.328125 446.375 386.425781 442.039062 384.664062 437.636719 C 382.90625 433.238281 381.292969 428.785156 379.824219 424.277344 C 378.359375 419.773438 377.042969 415.222656 375.875 410.628906 C 374.707031 406.039062 373.691406 401.410156 372.832031 396.75 C 371.96875 392.09375 371.261719 387.410156 370.707031 382.703125 C 370.15625 377.996094 369.757812 373.277344 369.515625 368.546875 C 369.273438 363.8125 369.1875 359.078125 369.257812 354.339844 C 370.894531 238.46875 465.226562 143.785156 581.164062 141.703125 C 590.820312 141.511719 600.445312 141.96875 610.039062 143.074219 C 619.628906 144.179688 629.105469 145.921875 638.464844 148.300781 C 647.824219 150.679688 656.980469 153.675781 665.933594 157.289062 C 674.890625 160.902344 683.5625 165.097656 691.949219 169.878906 C 694.769531 171.492188 697.640625 173.011719 700.5625 174.4375 C 703.480469 175.867188 706.445312 177.195312 709.449219 178.429688 C 712.457031 179.664062 715.5 180.800781 718.578125 181.835938 C 721.660156 182.875 724.769531 183.808594 727.910156 184.644531 C 731.050781 185.476562 734.214844 186.210938 737.40625 186.839844 C 740.59375 187.46875 743.800781 187.992188 747.023438 188.414062 C 750.242188 188.835938 753.476562 189.148438 756.71875 189.359375 C 759.964844 189.570312 763.210938 189.675781 766.460938 189.675781 C 769.710938 189.675781 772.957031 189.570312 776.199219 189.359375 C 779.441406 189.148438 782.675781 188.835938 785.898438 188.414062 C 789.121094 187.992188 792.328125 187.46875 795.515625 186.839844 C 798.703125 186.210938 801.867188 185.476562 805.007812 184.644531 C 808.148438 183.808594 811.261719 182.875 814.339844 181.835938 C 817.421875 180.800781 820.464844 179.664062 823.46875 178.429688 C 826.476562 177.195312 829.4375 175.867188 832.359375 174.4375 C 835.277344 173.011719 838.148438 171.492188 840.96875 169.878906 C 849.359375 165.097656 858.03125 160.902344 866.984375 157.289062 C 875.941406 153.675781 885.097656 150.679688 894.453125 148.300781 C 903.8125 145.921875 913.289062 144.179688 922.882812 143.074219 C 932.476562 141.96875 942.097656 141.511719 951.753906 141.703125 C 1067.691406 143.785156 1162.109375 238.46875 1163.664062 354.339844 Z M 394.878906 37.707031 C 393.175781 37.707031 391.476562 37.792969 389.78125 37.960938 C 388.085938 38.125 386.402344 38.375 384.734375 38.707031 C 383.0625 39.039062 381.410156 39.453125 379.78125 39.949219 C 378.152344 40.441406 376.546875 41.015625 374.972656 41.667969 C 373.402344 42.316406 371.863281 43.042969 370.359375 43.847656 C 368.855469 44.648438 367.398438 45.523438 365.980469 46.46875 C 364.566406 47.417969 363.199219 48.429688 361.882812 49.507812 C 360.5625 50.589844 359.304688 51.730469 358.097656 52.9375 C 356.894531 54.140625 355.75 55.398438 354.671875 56.714844 C 353.589844 58.03125 352.578125 59.398438 351.628906 60.8125 C 350.683594 62.230469 349.808594 63.6875 349.003906 65.191406 C 348.203125 66.691406 347.476562 68.226562 346.824219 69.800781 C 346.171875 71.375 345.597656 72.976562 345.101562 74.605469 C 344.609375 76.234375 344.195312 77.882812 343.863281 79.554688 C 343.53125 81.222656 343.28125 82.90625 343.113281 84.601562 C 342.945312 86.296875 342.863281 87.992188 342.863281 89.695312 C 342.863281 91.398438 342.945312 93.097656 343.113281 94.792969 C 343.28125 96.488281 343.53125 98.167969 343.863281 99.839844 C 344.195312 101.507812 344.609375 103.15625 345.101562 104.789062 C 345.597656 106.417969 346.171875 108.019531 346.824219 109.589844 C 347.476562 111.164062 348.203125 112.703125 349.003906 114.203125 C 349.808594 115.703125 350.683594 117.164062 351.628906 118.578125 C 352.578125 119.996094 353.589844 121.359375 354.671875 122.675781 C 355.75 123.992188 356.894531 125.253906 358.097656 126.457031 C 359.304688 127.660156 360.5625 128.804688 361.882812 129.882812 C 363.199219 130.964844 364.566406 131.976562 365.980469 132.921875 C 367.398438 133.867188 368.855469 134.742188 370.359375 135.546875 C 371.863281 136.347656 373.402344 137.074219 374.972656 137.726562 C 376.546875 138.378906 378.152344 138.949219 379.78125 139.445312 C 381.410156 139.9375 383.0625 140.351562 384.734375 140.683594 C 386.402344 141.015625 388.085938 141.265625 389.78125 141.433594 C 391.476562 141.601562 393.175781 141.683594 394.878906 141.683594 C 396.585938 141.683594 398.285156 141.601562 399.980469 141.433594 C 401.675781 141.265625 403.359375 141.015625 405.027344 140.683594 C 406.699219 140.351562 408.351562 139.9375 409.980469 139.445312 C 411.609375 138.949219 413.214844 138.378906 414.785156 137.726562 C 416.359375 137.074219 417.898438 136.347656 419.402344 135.546875 C 420.902344 134.742188 422.363281 133.867188 423.78125 132.921875 C 425.195312 131.976562 426.5625 130.964844 427.878906 129.882812 C 429.195312 128.804688 430.457031 127.660156 431.664062 126.457031 C 432.867188 125.253906 434.011719 123.992188 435.089844 122.675781 C 436.171875 121.359375 437.183594 119.996094 438.132812 118.578125 C 439.078125 117.164062 439.953125 115.703125 440.757812 114.203125 C 441.558594 112.703125 442.285156 111.164062 442.9375 109.589844 C 443.589844 108.019531 444.164062 106.417969 444.660156 104.789062 C 445.152344 103.15625 445.566406 101.507812 445.898438 99.839844 C 446.230469 98.167969 446.480469 96.488281 446.648438 94.792969 C 446.816406 93.097656 446.898438 91.398438 446.898438 89.695312 C 446.898438 87.992188 446.816406 86.292969 446.648438 84.601562 C 446.484375 82.90625 446.234375 81.222656 445.902344 79.550781 C 445.570312 77.882812 445.15625 76.234375 444.664062 74.601562 C 444.167969 72.972656 443.59375 71.371094 442.945312 69.796875 C 442.292969 68.226562 441.566406 66.6875 440.761719 65.1875 C 439.957031 63.683594 439.085938 62.226562 438.136719 60.808594 C 437.191406 59.394531 436.175781 58.027344 435.097656 56.710938 C 434.015625 55.394531 432.875 54.132812 431.667969 52.929688 C 430.464844 51.726562 429.203125 50.582031 427.886719 49.503906 C 426.570312 48.421875 425.203125 47.410156 423.785156 46.464844 C 422.367188 45.519531 420.910156 44.644531 419.40625 43.839844 C 417.902344 43.039062 416.363281 42.3125 414.789062 41.660156 C 413.214844 41.007812 411.613281 40.4375 409.984375 39.941406 C 408.351562 39.449219 406.703125 39.035156 405.03125 38.703125 C 403.359375 38.371094 401.675781 38.125 399.980469 37.957031 C 398.285156 37.789062 396.585938 37.707031 394.878906 37.707031 Z M 1145.234375 71.355469 C 1143.53125 71.355469 1141.832031 71.441406 1140.136719 71.609375 C 1138.4375 71.773438 1136.757812 72.023438 1135.085938 72.355469 C 1133.414062 72.6875 1131.765625 73.101562 1130.132812 73.597656 C 1128.503906 74.089844 1126.902344 74.664062 1125.328125 75.316406 C 1123.753906 75.964844 1122.214844 76.691406 1120.710938 77.496094 C 1119.210938 78.296875 1117.75 79.171875 1116.335938 80.117188 C 1114.917969 81.066406 1113.550781 82.078125 1112.234375 83.15625 C 1110.917969 84.238281 1109.65625 85.378906 1108.453125 86.585938 C 1107.246094 87.789062 1106.105469 89.046875 1105.023438 90.363281 C 1103.941406 91.679688 1102.929688 93.046875 1101.984375 94.460938 C 1101.035156 95.878906 1100.160156 97.335938 1099.359375 98.839844 C 1098.554688 100.339844 1097.828125 101.878906 1097.175781 103.449219 C 1096.523438 105.023438 1095.949219 106.625 1095.457031 108.253906 C 1094.960938 109.882812 1094.546875 111.53125 1094.214844 113.203125 C 1093.882812 114.871094 1093.632812 116.554688 1093.464844 118.25 C 1093.300781 119.945312 1093.214844 121.640625 1093.214844 123.34375 C 1093.214844 125.046875 1093.300781 126.746094 1093.464844 128.441406 C 1093.632812 130.136719 1093.882812 131.816406 1094.214844 133.488281 C 1094.546875 135.15625 1094.960938 136.804688 1095.457031 138.4375 C 1095.949219 140.066406 1096.523438 141.667969 1097.175781 143.238281 C 1097.828125 144.8125 1098.554688 146.351562 1099.359375 147.851562 C 1100.160156 149.351562 1101.035156 150.8125 1101.984375 152.226562 C 1102.929688 153.644531 1103.941406 155.007812 1105.023438 156.324219 C 1106.105469 157.640625 1107.246094 158.902344 1108.453125 160.105469 C 1109.65625 161.308594 1110.917969 162.453125 1112.234375 163.53125 C 1113.550781 164.613281 1114.917969 165.625 1116.335938 166.570312 C 1117.75 167.515625 1119.210938 168.390625 1120.710938 169.195312 C 1122.214844 169.996094 1123.753906 170.722656 1125.328125 171.375 C 1126.902344 172.027344 1128.503906 172.597656 1130.132812 173.09375 C 1131.765625 173.589844 1133.414062 174 1135.085938 174.332031 C 1136.757812 174.664062 1138.4375 174.914062 1140.136719 175.082031 C 1141.832031 175.25 1143.53125 175.332031 1145.234375 175.332031 C 1146.9375 175.332031 1148.636719 175.25 1150.332031 175.082031 C 1152.027344 174.914062 1153.710938 174.664062 1155.382812 174.332031 C 1157.050781 174 1158.703125 173.589844 1160.332031 173.09375 C 1161.964844 172.597656 1163.566406 172.027344 1165.140625 171.375 C 1166.714844 170.722656 1168.25 169.996094 1169.753906 169.195312 C 1171.257812 168.390625 1172.714844 167.515625 1174.132812 166.570312 C 1175.550781 165.625 1176.917969 164.613281 1178.234375 163.53125 C 1179.550781 162.453125 1180.8125 161.308594 1182.015625 160.105469 C 1183.21875 158.902344 1184.363281 157.640625 1185.445312 156.324219 C 1186.523438 155.007812 1187.539062 153.644531 1188.484375 152.226562 C 1189.429688 150.8125 1190.304688 149.351562 1191.109375 147.851562 C 1191.910156 146.351562 1192.640625 144.8125 1193.292969 143.238281 C 1193.941406 141.667969 1194.515625 140.066406 1195.011719 138.4375 C 1195.503906 136.804688 1195.917969 135.15625 1196.25 133.488281 C 1196.582031 131.816406 1196.832031 130.136719 1197 128.441406 C 1197.167969 126.746094 1197.25 125.046875 1197.25 123.34375 C 1197.253906 121.640625 1197.171875 119.941406 1197.003906 118.246094 C 1196.839844 116.550781 1196.589844 114.867188 1196.257812 113.199219 C 1195.925781 111.527344 1195.515625 109.878906 1195.019531 108.246094 C 1194.527344 106.617188 1193.953125 105.015625 1193.300781 103.441406 C 1192.652344 101.867188 1191.925781 100.328125 1191.121094 98.824219 C 1190.320312 97.324219 1189.445312 95.863281 1188.496094 94.449219 C 1187.550781 93.03125 1186.539062 91.664062 1185.457031 90.347656 C 1184.375 89.03125 1183.234375 87.769531 1182.027344 86.566406 C 1180.824219 85.359375 1179.5625 84.21875 1178.246094 83.136719 C 1176.929688 82.054688 1175.5625 81.042969 1174.144531 80.097656 C 1172.726562 79.148438 1171.265625 78.277344 1169.765625 77.472656 C 1168.261719 76.667969 1166.722656 75.941406 1165.148438 75.289062 C 1163.574219 74.640625 1161.96875 74.066406 1160.339844 73.570312 C 1158.707031 73.078125 1157.058594 72.664062 1155.386719 72.332031 C 1153.714844 72 1152.03125 71.753906 1150.335938 71.585938 C 1148.636719 71.417969 1146.9375 71.335938 1145.234375 71.335938 Z M 532.582031 37.707031 C 531.480469 37.707031 530.378906 37.761719 529.285156 37.871094 C 528.1875 37.980469 527.097656 38.140625 526.015625 38.355469 C 524.933594 38.570312 523.867188 38.835938 522.808594 39.15625 C 521.753906 39.476562 520.71875 39.847656 519.699219 40.269531 C 518.679688 40.691406 517.683594 41.164062 516.710938 41.683594 C 515.738281 42.203125 514.796875 42.765625 513.878906 43.378906 C 512.960938 43.992188 512.078125 44.648438 511.226562 45.347656 C 510.371094 46.046875 509.554688 46.785156 508.777344 47.5625 C 507.996094 48.34375 507.257812 49.160156 506.558594 50.011719 C 505.859375 50.863281 505.203125 51.746094 504.589844 52.664062 C 503.976562 53.578125 503.410156 54.523438 502.890625 55.496094 C 502.371094 56.46875 501.898438 57.460938 501.476562 58.480469 C 501.054688 59.5 500.683594 60.535156 500.367188 61.589844 C 500.046875 62.644531 499.777344 63.710938 499.5625 64.792969 C 499.347656 65.875 499.1875 66.960938 499.078125 68.058594 C 498.96875 69.15625 498.914062 70.253906 498.914062 71.355469 C 498.914062 72.460938 498.96875 73.558594 499.078125 74.65625 C 499.1875 75.753906 499.347656 76.839844 499.5625 77.921875 C 499.777344 79.003906 500.046875 80.070312 500.367188 81.125 C 500.683594 82.179688 501.054688 83.214844 501.476562 84.234375 C 501.898438 85.253906 502.371094 86.246094 502.890625 87.21875 C 503.410156 88.191406 503.976562 89.136719 504.589844 90.050781 C 505.203125 90.96875 505.859375 91.851562 506.558594 92.703125 C 507.257812 93.554688 507.996094 94.371094 508.777344 95.148438 C 509.554688 95.929688 510.371094 96.667969 511.226562 97.367188 C 512.078125 98.066406 512.960938 98.722656 513.878906 99.335938 C 514.796875 99.945312 515.738281 100.511719 516.710938 101.03125 C 517.683594 101.550781 518.679688 102.023438 519.699219 102.445312 C 520.71875 102.867188 521.753906 103.238281 522.808594 103.558594 C 523.867188 103.875 524.933594 104.144531 526.015625 104.359375 C 527.097656 104.574219 528.1875 104.734375 529.285156 104.84375 C 530.378906 104.953125 531.480469 105.003906 532.582031 105.003906 C 533.6875 105.003906 534.785156 104.953125 535.882812 104.84375 C 536.980469 104.734375 538.070312 104.574219 539.152344 104.359375 C 540.234375 104.144531 541.300781 103.875 542.355469 103.558594 C 543.410156 103.238281 544.449219 102.867188 545.46875 102.445312 C 546.484375 102.023438 547.480469 101.550781 548.453125 101.03125 C 549.425781 100.511719 550.371094 99.945312 551.289062 99.335938 C 552.207031 98.722656 553.089844 98.066406 553.941406 97.367188 C 554.792969 96.667969 555.609375 95.929688 556.390625 95.148438 C 557.167969 94.371094 557.910156 93.554688 558.609375 92.703125 C 559.308594 91.851562 559.964844 90.96875 560.578125 90.050781 C 561.191406 89.136719 561.757812 88.191406 562.277344 87.21875 C 562.796875 86.246094 563.265625 85.253906 563.6875 84.234375 C 564.109375 83.214844 564.480469 82.179688 564.800781 81.125 C 565.121094 80.070312 565.390625 79.003906 565.605469 77.921875 C 565.820312 76.839844 565.980469 75.753906 566.089844 74.65625 C 566.199219 73.558594 566.25 72.460938 566.25 71.355469 C 566.25 70.253906 566.199219 69.15625 566.089844 68.058594 C 565.980469 66.960938 565.820312 65.875 565.605469 64.792969 C 565.390625 63.710938 565.121094 62.644531 564.800781 61.589844 C 564.480469 60.535156 564.109375 59.5 563.6875 58.480469 C 563.265625 57.460938 562.796875 56.46875 562.277344 55.496094 C 561.757812 54.523438 561.191406 53.578125 560.578125 52.664062 C 559.964844 51.746094 559.308594 50.863281 558.609375 50.011719 C 557.910156 49.160156 557.171875 48.34375 556.390625 47.5625 C 555.609375 46.785156 554.792969 46.046875 553.941406 45.347656 C 553.089844 44.648438 552.207031 43.992188 551.289062 43.378906 C 550.371094 42.765625 549.425781 42.203125 548.453125 41.683594 C 547.480469 41.164062 546.484375 40.691406 545.46875 40.269531 C 544.449219 39.847656 543.410156 39.476562 542.355469 39.15625 C 541.300781 38.835938 540.234375 38.570312 539.152344 38.355469 C 538.070312 38.140625 536.980469 37.980469 535.882812 37.871094 C 534.785156 37.761719 533.6875 37.707031 532.582031 37.707031 Z M 1059.546875 600.601562 C 1058.445312 600.601562 1057.34375 600.65625 1056.246094 600.765625 C 1055.148438 600.875 1054.0625 601.035156 1052.980469 601.25 C 1051.898438 601.464844 1050.828125 601.734375 1049.773438 602.054688 C 1048.71875 602.371094 1047.679688 602.742188 1046.664062 603.164062 C 1045.644531 603.585938 1044.648438 604.058594 1043.675781 604.578125 C 1042.703125 605.097656 1041.757812 605.664062 1040.839844 606.277344 C 1039.925781 606.886719 1039.039062 607.542969 1038.1875 608.242188 C 1037.335938 608.941406 1036.519531 609.683594 1035.738281 610.460938 C 1034.960938 611.242188 1034.21875 612.054688 1033.519531 612.910156 C 1032.820312 613.761719 1032.164062 614.644531 1031.550781 615.5625 C 1030.9375 616.476562 1030.375 617.421875 1029.851562 618.394531 C 1029.332031 619.367188 1028.863281 620.363281 1028.441406 621.378906 C 1028.019531 622.398438 1027.648438 623.433594 1027.328125 624.488281 C 1027.007812 625.542969 1026.742188 626.613281 1026.527344 627.691406 C 1026.3125 628.773438 1026.148438 629.863281 1026.042969 630.960938 C 1025.933594 632.058594 1025.878906 633.15625 1025.878906 634.257812 C 1025.878906 635.359375 1025.933594 636.460938 1026.042969 637.558594 C 1026.152344 638.652344 1026.3125 639.742188 1026.527344 640.824219 C 1026.742188 641.90625 1027.011719 642.972656 1027.332031 644.027344 C 1027.652344 645.082031 1028.023438 646.117188 1028.445312 647.136719 C 1028.867188 648.15625 1029.339844 649.148438 1029.859375 650.121094 C 1030.378906 651.09375 1030.945312 652.039062 1031.558594 652.953125 C 1032.171875 653.871094 1032.828125 654.753906 1033.527344 655.605469 C 1034.230469 656.457031 1034.96875 657.273438 1035.75 658.050781 C 1036.527344 658.832031 1037.34375 659.570312 1038.199219 660.269531 C 1039.050781 660.96875 1039.933594 661.625 1040.851562 662.234375 C 1041.769531 662.847656 1042.714844 663.414062 1043.6875 663.933594 C 1044.660156 664.453125 1045.65625 664.921875 1046.675781 665.34375 C 1047.695312 665.765625 1048.730469 666.136719 1049.785156 666.457031 C 1050.84375 666.773438 1051.910156 667.042969 1052.992188 667.257812 C 1054.074219 667.472656 1055.164062 667.632812 1056.261719 667.738281 C 1057.359375 667.847656 1058.457031 667.902344 1059.5625 667.902344 C 1060.664062 667.898438 1061.765625 667.84375 1062.863281 667.738281 C 1063.960938 667.628906 1065.050781 667.464844 1066.128906 667.25 C 1067.210938 667.035156 1068.28125 666.769531 1069.335938 666.449219 C 1070.390625 666.125 1071.425781 665.753906 1072.445312 665.332031 C 1073.464844 664.910156 1074.460938 664.441406 1075.433594 663.921875 C 1076.40625 663.398438 1077.351562 662.832031 1078.265625 662.222656 C 1079.183594 661.609375 1080.066406 660.953125 1080.917969 660.253906 C 1081.773438 659.550781 1082.585938 658.8125 1083.367188 658.03125 C 1084.144531 657.253906 1084.886719 656.4375 1085.585938 655.585938 C 1086.285156 654.734375 1086.941406 653.847656 1087.550781 652.929688 C 1088.164062 652.015625 1088.730469 651.070312 1089.25 650.097656 C 1089.769531 649.125 1090.238281 648.128906 1090.660156 647.113281 C 1091.082031 646.09375 1091.453125 645.054688 1091.773438 644 C 1092.089844 642.945312 1092.359375 641.878906 1092.574219 640.796875 C 1092.789062 639.714844 1092.949219 638.628906 1093.054688 637.53125 C 1093.164062 636.433594 1093.214844 635.332031 1093.214844 634.230469 C 1093.214844 633.128906 1093.160156 632.03125 1093.050781 630.933594 C 1092.945312 629.839844 1092.78125 628.75 1092.566406 627.671875 C 1092.351562 626.589844 1092.082031 625.523438 1091.761719 624.46875 C 1091.441406 623.414062 1091.070312 622.378906 1090.648438 621.359375 C 1090.226562 620.34375 1089.753906 619.347656 1089.234375 618.378906 C 1088.714844 617.40625 1088.148438 616.464844 1087.535156 615.546875 C 1086.921875 614.632812 1086.265625 613.75 1085.566406 612.898438 C 1084.867188 612.046875 1084.128906 611.230469 1083.347656 610.453125 C 1082.566406 609.671875 1081.753906 608.933594 1080.898438 608.234375 C 1080.046875 607.539062 1079.164062 606.882812 1078.246094 606.269531 C 1077.332031 605.660156 1076.386719 605.09375 1075.414062 604.574219 C 1074.441406 604.054688 1073.445312 603.585938 1072.425781 603.164062 C 1071.410156 602.742188 1070.371094 602.371094 1069.316406 602.050781 C 1068.261719 601.730469 1067.195312 601.464844 1066.113281 601.25 C 1065.03125 601.035156 1063.945312 600.875 1062.847656 600.765625 C 1061.75 600.65625 1060.652344 600.601562 1059.546875 600.601562 Z M 440.652344 596.746094 C 439.550781 596.746094 438.449219 596.796875 437.351562 596.90625 C 436.253906 597.011719 435.164062 597.175781 434.085938 597.386719 C 433.003906 597.601562 431.933594 597.871094 430.878906 598.1875 C 429.824219 598.507812 428.785156 598.878906 427.765625 599.300781 C 426.746094 599.722656 425.75 600.191406 424.777344 600.710938 C 423.804688 601.230469 422.859375 601.796875 421.941406 602.40625 C 421.027344 603.019531 420.140625 603.675781 419.289062 604.371094 C 418.433594 605.070312 417.617188 605.808594 416.839844 606.589844 C 416.058594 607.367188 415.316406 608.183594 414.617188 609.035156 C 413.917969 609.886719 413.261719 610.769531 412.648438 611.6875 C 412.035156 612.601562 411.46875 613.546875 410.949219 614.519531 C 410.429688 615.492188 409.957031 616.484375 409.535156 617.503906 C 409.113281 618.523438 408.738281 619.558594 408.417969 620.613281 C 408.097656 621.667969 407.832031 622.734375 407.613281 623.816406 C 407.398438 624.898438 407.238281 625.984375 407.128906 627.082031 C 407.019531 628.179688 406.964844 629.277344 406.964844 630.382812 C 406.964844 631.484375 407.019531 632.582031 407.125 633.679688 C 407.234375 634.777344 407.394531 635.867188 407.609375 636.945312 C 407.824219 638.027344 408.09375 639.09375 408.410156 640.148438 C 408.730469 641.207031 409.101562 642.242188 409.523438 643.261719 C 409.945312 644.277344 410.417969 645.273438 410.9375 646.246094 C 411.457031 647.21875 412.019531 648.164062 412.632812 649.078125 C 413.246094 649.996094 413.902344 650.878906 414.601562 651.734375 C 415.300781 652.585938 416.039062 653.402344 416.820312 654.179688 C 417.597656 654.960938 418.414062 655.699219 419.265625 656.398438 C 420.121094 657.097656 421.003906 657.753906 421.921875 658.367188 C 422.835938 658.980469 423.78125 659.546875 424.753906 660.066406 C 425.726562 660.585938 426.722656 661.054688 427.742188 661.476562 C 428.761719 661.898438 429.796875 662.269531 430.851562 662.589844 C 431.90625 662.910156 432.976562 663.179688 434.058594 663.394531 C 435.140625 663.609375 436.230469 663.773438 437.328125 663.878906 C 438.421875 663.988281 439.523438 664.042969 440.625 664.042969 C 441.730469 664.042969 442.828125 663.988281 443.925781 663.882812 C 445.023438 663.773438 446.113281 663.613281 447.195312 663.398438 C 448.277344 663.183594 449.347656 662.914062 450.402344 662.59375 C 451.457031 662.277344 452.492188 661.90625 453.511719 661.484375 C 454.53125 661.0625 455.527344 660.589844 456.5 660.070312 C 457.472656 659.550781 458.417969 658.988281 459.335938 658.375 C 460.25 657.761719 461.136719 657.105469 461.988281 656.40625 C 462.839844 655.707031 463.65625 654.96875 464.4375 654.191406 C 465.21875 653.410156 465.957031 652.59375 466.65625 651.742188 C 467.355469 650.890625 468.011719 650.007812 468.625 649.089844 C 469.238281 648.175781 469.804688 647.230469 470.324219 646.257812 C 470.84375 645.285156 471.316406 644.289062 471.738281 643.273438 C 472.160156 642.253906 472.53125 641.21875 472.851562 640.164062 C 473.171875 639.109375 473.4375 638.039062 473.652344 636.960938 C 473.871094 635.878906 474.03125 634.789062 474.140625 633.691406 C 474.246094 632.597656 474.300781 631.496094 474.300781 630.394531 C 474.300781 629.292969 474.246094 628.195312 474.140625 627.097656 C 474.03125 626 473.871094 624.914062 473.65625 623.832031 C 473.441406 622.75 473.171875 621.683594 472.851562 620.628906 C 472.53125 619.574219 472.160156 618.539062 471.742188 617.523438 C 471.320312 616.503906 470.847656 615.507812 470.328125 614.539062 C 469.808594 613.566406 469.242188 612.621094 468.632812 611.707031 C 468.019531 610.789062 467.363281 609.90625 466.664062 609.054688 C 465.964844 608.203125 465.226562 607.386719 464.449219 606.609375 C 463.667969 605.828125 462.851562 605.089844 462 604.390625 C 461.148438 603.691406 460.265625 603.035156 459.347656 602.421875 C 458.433594 601.8125 457.488281 601.246094 456.515625 600.726562 C 455.542969 600.207031 454.550781 599.734375 453.53125 599.3125 C 452.511719 598.890625 451.476562 598.519531 450.421875 598.199219 C 449.367188 597.878906 448.300781 597.613281 447.21875 597.394531 C 446.136719 597.179688 445.050781 597.019531 443.953125 596.910156 C 442.855469 596.800781 441.753906 596.746094 440.652344 596.746094 Z M 1145.214844 539.589844 C 1144.109375 539.589844 1143.011719 539.640625 1141.914062 539.75 C 1140.816406 539.859375 1139.726562 540.019531 1138.644531 540.234375 C 1137.5625 540.449219 1136.496094 540.71875 1135.441406 541.035156 C 1134.386719 541.355469 1133.347656 541.726562 1132.328125 542.148438 C 1131.308594 542.570312 1130.316406 543.042969 1129.34375 543.5625 C 1128.371094 544.082031 1127.425781 544.644531 1126.507812 545.257812 C 1125.589844 545.871094 1124.707031 546.527344 1123.855469 547.226562 C 1123.003906 547.925781 1122.1875 548.664062 1121.40625 549.441406 C 1120.625 550.222656 1119.886719 551.039062 1119.1875 551.890625 C 1118.488281 552.742188 1117.832031 553.625 1117.21875 554.542969 C 1116.605469 555.457031 1116.039062 556.402344 1115.519531 557.375 C 1115 558.347656 1114.53125 559.339844 1114.109375 560.359375 C 1113.6875 561.378906 1113.316406 562.414062 1112.996094 563.46875 C 1112.675781 564.523438 1112.40625 565.589844 1112.191406 566.671875 C 1111.976562 567.753906 1111.816406 568.839844 1111.707031 569.9375 C 1111.597656 571.035156 1111.546875 572.132812 1111.546875 573.238281 C 1111.546875 574.339844 1111.597656 575.4375 1111.707031 576.535156 C 1111.816406 577.632812 1111.976562 578.71875 1112.191406 579.800781 C 1112.40625 580.882812 1112.675781 581.949219 1112.996094 583.003906 C 1113.316406 584.058594 1113.6875 585.09375 1114.109375 586.113281 C 1114.53125 587.132812 1115 588.125 1115.519531 589.097656 C 1116.039062 590.070312 1116.605469 591.015625 1117.21875 591.929688 C 1117.832031 592.847656 1118.488281 593.730469 1119.1875 594.582031 C 1119.886719 595.433594 1120.625 596.25 1121.40625 597.03125 C 1122.1875 597.808594 1123.003906 598.546875 1123.855469 599.246094 C 1124.707031 599.945312 1125.589844 600.601562 1126.507812 601.214844 C 1127.425781 601.828125 1128.371094 602.390625 1129.34375 602.910156 C 1130.316406 603.429688 1131.308594 603.902344 1132.328125 604.324219 C 1133.347656 604.746094 1134.386719 605.117188 1135.441406 605.4375 C 1136.496094 605.753906 1137.5625 606.023438 1138.644531 606.238281 C 1139.726562 606.453125 1140.816406 606.613281 1141.914062 606.722656 C 1143.011719 606.832031 1144.109375 606.886719 1145.214844 606.886719 C 1146.316406 606.886719 1147.414062 606.832031 1148.511719 606.722656 C 1149.609375 606.613281 1150.699219 606.453125 1151.78125 606.238281 C 1152.863281 606.023438 1153.929688 605.753906 1154.988281 605.4375 C 1156.042969 605.117188 1157.078125 604.746094 1158.097656 604.324219 C 1159.117188 603.902344 1160.113281 603.429688 1161.085938 602.910156 C 1162.054688 602.390625 1163 601.828125 1163.917969 601.214844 C 1164.835938 600.601562 1165.71875 599.945312 1166.570312 599.246094 C 1167.425781 598.546875 1168.242188 597.808594 1169.019531 597.03125 C 1169.800781 596.25 1170.539062 595.433594 1171.238281 594.582031 C 1171.9375 593.730469 1172.59375 592.847656 1173.207031 591.929688 C 1173.820312 591.015625 1174.386719 590.070312 1174.90625 589.097656 C 1175.425781 588.125 1175.894531 587.132812 1176.316406 586.113281 C 1176.742188 585.09375 1177.113281 584.058594 1177.429688 583.003906 C 1177.75 581.949219 1178.019531 580.882812 1178.234375 579.800781 C 1178.449219 578.71875 1178.609375 577.632812 1178.71875 576.535156 C 1178.828125 575.4375 1178.882812 574.339844 1178.882812 573.238281 C 1178.882812 572.136719 1178.828125 571.035156 1178.71875 569.941406 C 1178.609375 568.84375 1178.449219 567.753906 1178.234375 566.675781 C 1178.019531 565.59375 1177.753906 564.527344 1177.433594 563.472656 C 1177.113281 562.417969 1176.742188 561.382812 1176.320312 560.363281 C 1175.898438 559.347656 1175.429688 558.351562 1174.910156 557.378906 C 1174.390625 556.410156 1173.824219 555.464844 1173.210938 554.546875 C 1172.597656 553.632812 1171.945312 552.75 1171.246094 551.898438 C 1170.546875 551.046875 1169.804688 550.230469 1169.027344 549.449219 C 1168.25 548.671875 1167.433594 547.933594 1166.582031 547.234375 C 1165.730469 546.535156 1164.84375 545.878906 1163.929688 545.265625 C 1163.011719 544.652344 1162.066406 544.085938 1161.097656 543.566406 C 1160.125 543.046875 1159.128906 542.578125 1158.113281 542.15625 C 1157.09375 541.734375 1156.058594 541.363281 1155.003906 541.042969 C 1153.949219 540.722656 1152.878906 540.453125 1151.800781 540.238281 C 1150.71875 540.023438 1149.628906 539.859375 1148.53125 539.75 C 1147.433594 539.644531 1146.335938 539.589844 1145.234375 539.585938 Z M 1145.214844 539.589844 " clip-rule="nonzero"/></clipPath><linearGradient x1="250" gradientTransform="matrix(2.02088, 0, 0, 2.019715, 264.837005, -152.144433)" y1="406.02031" x2="250" gradientUnits="userSpaceOnUse" y2="94.000011" id="bb010052d9"><stop stop-opacity="1" stop-color="rgb(100%, 59.599304%, 29.798889%)" offset="0"/><stop stop-opacity="1" stop-color="rgb(100%, 59.698486%, 29.79126%)" offset="0.0078125"/><stop stop-opacity="1" stop-color="rgb(100%, 59.898376%, 29.777527%)" offset="0.015625"/><stop stop-opacity="1" stop-color="rgb(100%, 60.098267%, 29.76532%)" offset="0.0234375"/><stop stop-opacity="1" stop-color="rgb(100%, 60.299683%, 29.751587%)" offset="0.03125"/><stop stop-opacity="1" stop-color="rgb(100%, 60.499573%, 29.737854%)" offset="0.0390625"/><stop stop-opacity="1" stop-color="rgb(100%, 60.699463%, 29.724121%)" offset="0.046875"/><stop stop-opacity="1" stop-color="rgb(100%, 60.900879%, 29.710388%)" offset="0.0546875"/><stop stop-opacity="1" stop-color="rgb(100%, 61.100769%, 29.696655%)" offset="0.0625"/><stop stop-opacity="1" stop-color="rgb(100%, 61.300659%, 29.682922%)" offset="0.0703125"/><stop stop-opacity="1" stop-color="rgb(100%, 61.502075%, 29.669189%)" offset="0.078125"/><stop stop-opacity="1" stop-color="rgb(100%, 61.701965%, 29.655457%)" offset="0.0859375"/><stop stop-opacity="1" stop-color="rgb(100%, 61.901855%, 29.641724%)" offset="0.09375"/><stop stop-opacity="1" stop-color="rgb(100%, 62.103271%, 29.629517%)" offset="0.101562"/><stop stop-opacity="1" stop-color="rgb(100%, 62.303162%, 29.615784%)" offset="0.109375"/><stop stop-opacity="1" stop-color="rgb(100%, 62.503052%, 29.602051%)" offset="0.117188"/><stop stop-opacity="1" stop-color="rgb(100%, 62.704468%, 29.588318%)" offset="0.125"/><stop stop-opacity="1" stop-color="rgb(100%, 62.904358%, 29.574585%)" offset="0.132812"/><stop stop-opacity="1" stop-color="rgb(100%, 63.105774%, 29.560852%)" offset="0.140625"/><stop stop-opacity="1" stop-color="rgb(100%, 63.305664%, 29.547119%)" offset="0.148438"/><stop stop-opacity="1" stop-color="rgb(100%, 63.505554%, 29.533386%)" offset="0.15625"/><stop stop-opacity="1" stop-color="rgb(100%, 63.70697%, 29.519653%)" offset="0.164062"/><stop stop-opacity="1" stop-color="rgb(100%, 63.90686%, 29.50592%)" offset="0.171875"/><stop stop-opacity="1" stop-color="rgb(100%, 64.10675%, 29.492188%)" offset="0.179688"/><stop stop-opacity="1" stop-color="rgb(100%, 64.308167%, 29.47998%)" offset="0.1875"/><stop stop-opacity="1" stop-color="rgb(100%, 64.508057%, 29.466248%)" offset="0.195312"/><stop stop-opacity="1" stop-color="rgb(100%, 64.707947%, 29.452515%)" offset="0.203125"/><stop stop-opacity="1" stop-color="rgb(100%, 64.909363%, 29.438782%)" offset="0.210938"/><stop stop-opacity="1" stop-color="rgb(100%, 65.109253%, 29.425049%)" offset="0.21875"/><stop stop-opacity="1" stop-color="rgb(100%, 65.309143%, 29.411316%)" offset="0.226563"/><stop stop-opacity="1" stop-color="rgb(100%, 65.507507%, 29.396057%)" offset="0.234375"/><stop stop-opacity="1" stop-color="rgb(100%, 65.795898%, 29.368591%)" offset="0.25"/><stop stop-opacity="1" stop-color="rgb(100%, 66.177368%, 29.330444%)" offset="0.265625"/><stop stop-opacity="1" stop-color="rgb(100%, 66.558838%, 29.292297%)" offset="0.28125"/><stop stop-opacity="1" stop-color="rgb(100%, 66.940308%, 29.252625%)" offset="0.296875"/><stop stop-opacity="1" stop-color="rgb(100%, 67.321777%, 29.214478%)" offset="0.3125"/><stop stop-opacity="1" stop-color="rgb(100%, 67.703247%, 29.176331%)" offset="0.328125"/><stop stop-opacity="1" stop-color="rgb(100%, 68.084717%, 29.136658%)" offset="0.34375"/><stop stop-opacity="1" stop-color="rgb(100%, 68.466187%, 29.098511%)" offset="0.359375"/><stop stop-opacity="1" stop-color="rgb(100%, 68.847656%, 29.060364%)" offset="0.375"/><stop stop-opacity="1" stop-color="rgb(100%, 69.229126%, 29.022217%)" offset="0.390625"/><stop stop-opacity="1" stop-color="rgb(100%, 69.610596%, 28.982544%)" offset="0.40625"/><stop stop-opacity="1" stop-color="rgb(100%, 69.992065%, 28.944397%)" offset="0.421875"/><stop stop-opacity="1" stop-color="rgb(100%, 70.373535%, 28.90625%)" offset="0.4375"/><stop stop-opacity="1" stop-color="rgb(100%, 70.755005%, 28.868103%)" offset="0.453125"/><stop stop-opacity="1" stop-color="rgb(100%, 71.136475%, 28.82843%)" offset="0.46875"/><stop stop-opacity="1" stop-color="rgb(100%, 71.517944%, 28.790283%)" offset="0.484375"/><stop stop-opacity="1" stop-color="rgb(100%, 71.899414%, 28.752136%)" offset="0.5"/><stop stop-opacity="1" stop-color="rgb(100%, 72.280884%, 28.713989%)" offset="0.515625"/><stop stop-opacity="1" stop-color="rgb(100%, 72.662354%, 28.674316%)" offset="0.53125"/><stop stop-opacity="1" stop-color="rgb(100%, 73.043823%, 28.636169%)" offset="0.546875"/><stop stop-opacity="1" stop-color="rgb(100%, 73.425293%, 28.598022%)" offset="0.5625"/><stop stop-opacity="1" stop-color="rgb(100%, 73.806763%, 28.55835%)" offset="0.578125"/><stop stop-opacity="1" stop-color="rgb(100%, 74.188232%, 28.520203%)" offset="0.59375"/><stop stop-opacity="1" stop-color="rgb(100%, 74.569702%, 28.482056%)" offset="0.609375"/><stop stop-opacity="1" stop-color="rgb(100%, 74.951172%, 28.443909%)" offset="0.625"/><stop stop-opacity="1" stop-color="rgb(100%, 75.332642%, 28.404236%)" offset="0.640625"/><stop stop-opacity="1" stop-color="rgb(100%, 75.714111%, 28.366089%)" offset="0.65625"/><stop stop-opacity="1" stop-color="rgb(100%, 76.095581%, 28.327942%)" offset="0.671875"/><stop stop-opacity="1" stop-color="rgb(100%, 76.478577%, 28.289795%)" offset="0.6875"/><stop stop-opacity="1" stop-color="rgb(100%, 76.860046%, 28.250122%)" offset="0.703125"/><stop stop-opacity="1" stop-color="rgb(100%, 77.241516%, 28.211975%)" offset="0.71875"/><stop stop-opacity="1" stop-color="rgb(100%, 77.622986%, 28.173828%)" offset="0.734375"/><stop stop-opacity="1" stop-color="rgb(100%, 78.004456%, 28.135681%)" offset="0.75"/><stop stop-opacity="1" stop-color="rgb(100%, 78.385925%, 28.096008%)" offset="0.765625"/><stop stop-opacity="1" stop-color="rgb(100%, 78.767395%, 28.057861%)" offset="0.78125"/><stop stop-opacity="1" stop-color="rgb(100%, 79.148865%, 28.019714%)" offset="0.796875"/><stop stop-opacity="1" stop-color="rgb(100%, 79.530334%, 27.980042%)" offset="0.8125"/><stop stop-opacity="1" stop-color="rgb(100%, 79.911804%, 27.941895%)" offset="0.828125"/><stop stop-opacity="1" stop-color="rgb(100%, 80.293274%, 27.903748%)" offset="0.84375"/><stop stop-opacity="1" stop-color="rgb(100%, 80.674744%, 27.865601%)" offset="0.859375"/><stop stop-opacity="1" stop-color="rgb(100%, 81.056213%, 27.825928%)" offset="0.875"/><stop stop-opacity="1" stop-color="rgb(100%, 81.437683%, 27.787781%)" offset="0.890625"/><stop stop-opacity="1" stop-color="rgb(100%, 81.819153%, 27.749634%)" offset="0.90625"/><stop stop-opacity="1" stop-color="rgb(100%, 82.200623%, 27.711487%)" offset="0.921875"/><stop stop-opacity="1" stop-color="rgb(100%, 82.582092%, 27.671814%)" offset="0.9375"/><stop stop-opacity="1" stop-color="rgb(100%, 82.963562%, 27.633667%)" offset="0.953125"/><stop stop-opacity="1" stop-color="rgb(100%, 83.345032%, 27.59552%)" offset="0.96875"/><stop stop-opacity="1" stop-color="rgb(100%, 83.726501%, 27.555847%)" offset="0.984375"/><stop stop-opacity="1" stop-color="rgb(100%, 84.107971%, 27.5177%)" offset="1"/></linearGradient></defs><g clip-path="url(#f954b7578a)"><g clip-path="url(#cb54f74ec3)"><path fill="url(#bb010052d9)" d="M 342.863281 37.707031 L 342.863281 667.902344 L 1197.253906 667.902344 L 1197.253906 37.707031 Z M 342.863281 37.707031 " fill-rule="nonzero"/></g></g></svg>