<svg xmlns="http://www.w3.org/2000/svg" xmlns:xlink="http://www.w3.org/1999/xlink" width="2048" zoomAndPan="magnify" viewBox="0 0 1536 708.749996" height="945" preserveAspectRatio="xMidYMid meet" version="1.0"><defs><clipPath id="46359641fd"><path d="M 516 95 L 1097.140625 95 L 1097.140625 614 L 516 614 Z M 516 95 " clip-rule="nonzero"/></clipPath><clipPath id="e748115405"><path d="M 438.875 48 L 754 48 L 754 661 L 438.875 661 Z M 438.875 48 " clip-rule="nonzero"/></clipPath></defs><g clip-path="url(#46359641fd)"><path fill="#fa6c3d" d="M 1097.132812 358.417969 L 1025.742188 287.042969 C 1024.410156 282.078125 1022.929688 277.164062 1021.304688 272.289062 C 1019.675781 267.417969 1017.90625 262.59375 1015.996094 257.828125 C 1014.082031 253.058594 1012.03125 248.351562 1009.835938 243.707031 C 1007.644531 239.0625 1005.316406 234.484375 1002.851562 229.976562 C 1000.386719 225.46875 997.789062 221.039062 995.058594 216.6875 C 992.332031 212.332031 989.476562 208.066406 986.492188 203.882812 C 983.507812 199.699219 980.40625 195.609375 977.179688 191.613281 C 973.953125 187.613281 970.609375 183.714844 967.152344 179.914062 C 963.695312 176.117188 960.128906 172.421875 956.449219 168.835938 C 952.769531 165.25 948.988281 161.773438 945.105469 158.414062 C 941.222656 155.050781 937.238281 151.808594 933.164062 148.683594 C 929.085938 145.558594 924.917969 142.554688 920.660156 139.679688 C 916.40625 136.800781 912.066406 134.054688 907.648438 131.433594 C 903.230469 128.816406 898.734375 126.332031 894.167969 123.976562 C 889.601562 121.625 884.964844 119.414062 880.265625 117.335938 C 875.566406 115.261719 870.8125 113.328125 865.996094 111.535156 C 861.183594 109.742188 856.320312 108.09375 851.40625 106.589844 C 846.496094 105.085938 841.542969 103.730469 836.546875 102.519531 C 831.554688 101.3125 826.53125 100.253906 821.472656 99.34375 C 816.417969 98.433594 811.339844 97.675781 806.238281 97.066406 C 801.136719 96.460938 796.023438 96.003906 790.894531 95.699219 C 785.765625 95.398438 780.632812 95.246094 775.496094 95.25 C 770.359375 95.25 765.226562 95.40625 760.097656 95.714844 C 754.96875 96.019531 749.855469 96.480469 744.753906 97.09375 C 739.652344 97.703125 734.574219 98.46875 729.519531 99.382812 C 724.464844 100.296875 719.441406 101.359375 714.449219 102.570312 C 709.457031 103.785156 704.503906 105.144531 699.59375 106.652344 C 694.679688 108.160156 689.820312 109.8125 685.007812 111.609375 C 680.195312 113.40625 675.4375 115.34375 670.742188 117.425781 C 666.042969 119.503906 661.410156 121.722656 656.847656 124.078125 C 652.28125 126.433594 647.789062 128.921875 643.371094 131.546875 C 638.953125 134.167969 634.617188 136.921875 630.363281 139.800781 C 626.113281 142.679688 621.945312 145.6875 617.871094 148.816406 C 613.796875 151.941406 609.820312 155.191406 605.9375 158.554688 C 602.054688 161.921875 598.277344 165.398438 594.601562 168.988281 C 590.925781 172.578125 587.363281 176.273438 583.90625 180.078125 C 580.453125 183.878906 577.113281 187.78125 573.890625 191.78125 C 570.667969 195.78125 567.566406 199.875 564.589844 204.058594 C 561.609375 208.246094 558.757812 212.515625 556.03125 216.871094 C 553.308594 221.226562 550.714844 225.660156 548.253906 230.167969 C 545.792969 234.675781 543.464844 239.253906 541.277344 243.902344 C 539.089844 248.550781 537.039062 253.261719 535.132812 258.03125 C 533.222656 262.800781 531.457031 267.621094 529.835938 272.496094 C 528.214844 277.371094 526.738281 282.289062 525.410156 287.25 C 524.078125 292.214844 522.898438 297.210938 521.867188 302.246094 C 520.835938 307.277344 519.953125 312.335938 519.222656 317.421875 C 518.492188 322.507812 517.914062 327.609375 517.488281 332.726562 C 517.058594 337.847656 516.785156 342.976562 516.664062 348.113281 C 516.542969 353.246094 516.574219 358.382812 516.757812 363.515625 C 516.941406 368.652344 517.277344 373.773438 517.765625 378.890625 C 518.253906 384.003906 518.894531 389.097656 519.683594 394.175781 C 520.476562 399.25 521.417969 404.296875 522.511719 409.316406 C 523.601562 414.339844 524.84375 419.320312 526.230469 424.265625 C 527.621094 429.214844 529.152344 434.113281 530.832031 438.96875 C 532.515625 443.824219 534.335938 448.625 536.300781 453.371094 C 538.269531 458.117188 540.375 462.800781 542.617188 467.421875 C 544.863281 472.042969 547.242188 476.59375 549.757812 481.074219 C 552.273438 485.550781 554.917969 489.953125 557.695312 494.277344 C 560.472656 498.597656 563.375 502.832031 566.40625 506.984375 C 569.433594 511.132812 572.585938 515.1875 575.855469 519.148438 C 579.125 523.113281 582.511719 526.972656 586.011719 530.734375 C 589.511719 534.492188 593.121094 538.148438 596.835938 541.691406 C 600.554688 545.238281 604.375 548.671875 608.296875 551.988281 C 612.21875 555.308594 616.234375 558.507812 620.347656 561.585938 C 624.460938 564.664062 628.660156 567.621094 632.949219 570.449219 C 637.234375 573.277344 641.605469 575.976562 646.050781 578.546875 C 650.5 581.117188 655.023438 583.550781 659.617188 585.851562 C 664.207031 588.152344 668.867188 590.316406 673.589844 592.339844 C 678.3125 594.363281 683.089844 596.242188 687.921875 597.980469 C 692.757812 599.722656 697.636719 601.316406 702.566406 602.765625 C 707.496094 604.210938 712.464844 605.511719 717.46875 606.667969 C 722.476562 607.820312 727.511719 608.824219 732.578125 609.675781 C 737.644531 610.53125 742.730469 611.230469 747.839844 611.78125 C 752.945312 612.332031 758.066406 612.730469 763.199219 612.976562 C 768.328125 613.222656 773.464844 613.316406 778.601562 613.257812 C 783.738281 613.199219 788.867188 612.984375 793.992188 612.621094 C 799.117188 612.257812 804.226562 611.738281 809.320312 611.070312 C 814.414062 610.402344 819.484375 609.582031 824.527344 608.613281 C 829.574219 607.640625 834.585938 606.523438 839.5625 605.253906 C 844.542969 603.984375 849.476562 602.570312 854.371094 601.007812 C 859.265625 599.445312 864.109375 597.738281 868.902344 595.886719 C 873.695312 594.039062 878.425781 592.046875 883.101562 589.914062 C 887.773438 587.78125 892.382812 585.511719 896.921875 583.105469 C 901.460938 580.699219 905.921875 578.160156 910.3125 575.488281 C 914.699219 572.816406 919.003906 570.015625 923.226562 567.089844 C 927.445312 564.160156 931.578125 561.109375 935.617188 557.9375 C 939.65625 554.761719 943.597656 551.472656 947.441406 548.0625 C 951.285156 544.65625 955.023438 541.136719 958.660156 537.503906 C 962.292969 533.875 965.816406 530.136719 969.230469 526.296875 C 972.640625 522.457031 975.9375 518.519531 979.113281 514.484375 C 982.292969 510.445312 985.347656 506.320312 988.28125 502.101562 C 991.210938 497.882812 994.015625 493.582031 996.691406 489.195312 C 999.371094 484.808594 1001.914062 480.347656 1004.324219 475.8125 C 1006.734375 471.277344 1009.007812 466.671875 1011.144531 462 C 1013.28125 457.328125 1015.277344 452.597656 1017.132812 447.804688 C 1018.988281 443.015625 1020.699219 438.175781 1022.269531 433.28125 Z M 1097.132812 358.417969 " fill-opacity="1" fill-rule="nonzero"/></g><path fill="#ffffff" d="M 1063.507812 358.417969 L 1033.273438 328.179688 C 1034.125 336.722656 1034.558594 345.410156 1034.566406 354.246094 C 1034.570312 366.164062 1033.753906 378.027344 1032.121094 389.835938 Z M 1063.507812 358.417969 " fill-opacity="1" fill-rule="nonzero"/><path fill="#ffffff" d="M 1003.949219 354.246094 C 1003.949219 358.484375 1003.84375 362.722656 1003.636719 366.957031 C 1003.425781 371.191406 1003.117188 375.417969 1002.699219 379.636719 C 1002.285156 383.855469 1001.765625 388.058594 1001.144531 392.253906 C 1000.523438 396.445312 999.796875 400.621094 998.96875 404.78125 C 998.144531 408.9375 997.214844 413.074219 996.183594 417.183594 C 995.15625 421.296875 994.023438 425.382812 992.792969 429.4375 C 991.5625 433.496094 990.234375 437.519531 988.804688 441.511719 C 987.378906 445.5 985.851562 449.457031 984.230469 453.371094 C 982.609375 457.289062 980.890625 461.164062 979.078125 464.996094 C 977.265625 468.828125 975.359375 472.613281 973.363281 476.351562 C 971.363281 480.089844 969.273438 483.777344 967.09375 487.414062 C 964.914062 491.050781 962.648438 494.628906 960.292969 498.152344 C 957.9375 501.679688 955.496094 505.144531 952.972656 508.546875 C 950.449219 511.953125 947.839844 515.292969 945.152344 518.570312 C 942.460938 521.847656 939.695312 525.058594 936.847656 528.199219 C 934 531.339844 931.078125 534.410156 928.082031 537.40625 C 925.082031 540.402344 922.011719 543.324219 918.871094 546.171875 C 915.730469 549.019531 912.523438 551.789062 909.246094 554.476562 C 905.96875 557.167969 902.628906 559.773438 899.222656 562.300781 C 895.816406 564.824219 892.351562 567.265625 888.828125 569.621094 C 885.304688 571.976562 881.722656 574.242188 878.085938 576.421875 C 874.449219 578.601562 870.761719 580.691406 867.023438 582.6875 C 863.285156 584.6875 859.5 586.59375 855.667969 588.40625 C 851.835938 590.214844 847.960938 591.933594 844.046875 593.554688 C 840.128906 595.179688 836.175781 596.703125 832.183594 598.132812 C 828.191406 599.558594 824.167969 600.890625 820.113281 602.121094 C 816.054688 603.351562 811.972656 604.480469 807.859375 605.511719 C 803.746094 606.539062 799.613281 607.46875 795.453125 608.296875 C 791.296875 609.125 787.121094 609.847656 782.925781 610.46875 C 778.734375 611.09375 774.527344 611.609375 770.308594 612.027344 C 766.089844 612.441406 761.863281 612.753906 757.628906 612.960938 C 753.394531 613.167969 749.160156 613.273438 744.921875 613.273438 C 740.679688 613.273438 736.445312 613.167969 732.210938 612.960938 C 727.976562 612.753906 723.75 612.441406 719.53125 612.027344 C 715.3125 611.609375 711.105469 611.09375 706.914062 610.46875 C 702.71875 609.847656 698.542969 609.125 694.386719 608.296875 C 690.230469 607.46875 686.09375 606.539062 681.980469 605.511719 C 677.871094 604.480469 673.785156 603.351562 669.730469 602.121094 C 665.671875 600.890625 661.648438 599.558594 657.65625 598.132812 C 653.664062 596.703125 649.710938 595.179688 645.792969 593.554688 C 641.878906 591.933594 638.003906 590.214844 634.171875 588.402344 C 630.339844 586.589844 626.554688 584.6875 622.816406 582.6875 C 619.078125 580.691406 615.390625 578.601562 611.753906 576.421875 C 608.117188 574.242188 604.539062 571.976562 601.011719 569.621094 C 597.488281 567.265625 594.023438 564.824219 590.617188 562.300781 C 587.214844 559.773438 583.871094 557.167969 580.59375 554.476562 C 577.316406 551.789062 574.109375 549.019531 570.96875 546.171875 C 567.828125 543.324219 564.757812 540.402344 561.761719 537.40625 C 558.761719 534.410156 555.839844 531.339844 552.992188 528.199219 C 550.148438 525.058594 547.378906 521.847656 544.691406 518.570312 C 542 515.292969 539.394531 511.953125 536.867188 508.550781 C 534.34375 505.144531 531.902344 501.679688 529.546875 498.152344 C 527.191406 494.628906 524.925781 491.050781 522.746094 487.414062 C 520.566406 483.777344 518.476562 480.089844 516.480469 476.351562 C 514.480469 472.613281 512.574219 468.828125 510.761719 464.996094 C 508.949219 461.164062 507.234375 457.289062 505.609375 453.371094 C 503.988281 449.457031 502.464844 445.5 501.035156 441.511719 C 499.605469 437.519531 498.277344 433.496094 497.046875 429.4375 C 495.816406 425.382812 494.6875 421.296875 493.65625 417.183594 C 492.625 413.074219 491.699219 408.9375 490.871094 404.78125 C 490.042969 400.621094 489.320312 396.445312 488.695312 392.253906 C 488.074219 388.058594 487.554688 383.855469 487.140625 379.636719 C 486.726562 375.417969 486.414062 371.191406 486.207031 366.957031 C 485.996094 362.722656 485.894531 358.484375 485.894531 354.246094 C 485.894531 350.007812 485.996094 345.769531 486.207031 341.535156 C 486.414062 337.300781 486.726562 333.078125 487.140625 328.859375 C 487.554688 324.640625 488.074219 320.433594 488.695312 316.238281 C 489.320312 312.046875 490.042969 307.871094 490.871094 303.710938 C 491.699219 299.554688 492.625 295.421875 493.65625 291.308594 C 494.6875 287.195312 495.816406 283.113281 497.046875 279.054688 C 498.277344 275 499.605469 270.972656 501.035156 266.984375 C 502.464844 262.992188 503.988281 259.039062 505.609375 255.121094 C 507.234375 251.203125 508.949219 247.332031 510.761719 243.5 C 512.574219 239.664062 514.480469 235.878906 516.480469 232.140625 C 518.476562 228.402344 520.566406 224.714844 522.746094 221.078125 C 524.925781 217.445312 527.191406 213.863281 529.546875 210.339844 C 531.902344 206.8125 534.34375 203.347656 536.867188 199.945312 C 539.394531 196.539062 542 193.199219 544.691406 189.921875 C 547.378906 186.644531 550.148438 183.4375 552.992188 180.292969 C 555.839844 177.152344 558.761719 174.085938 561.761719 171.085938 C 564.757812 168.089844 567.828125 165.167969 570.96875 162.320312 C 574.109375 159.472656 577.316406 156.707031 580.59375 154.015625 C 583.871094 151.328125 587.214844 148.71875 590.617188 146.195312 C 594.023438 143.667969 597.488281 141.230469 601.011719 138.875 C 604.539062 136.519531 608.117188 134.25 611.753906 132.070312 C 615.390625 129.890625 619.078125 127.804688 622.816406 125.804688 C 626.554688 123.808594 630.339844 121.902344 634.171875 120.089844 C 638.003906 118.277344 641.878906 116.558594 645.792969 114.9375 C 649.710938 113.3125 653.664062 111.789062 657.65625 110.359375 C 661.648438 108.933594 665.671875 107.605469 669.730469 106.375 C 673.785156 105.140625 677.871094 104.011719 681.980469 102.980469 C 686.09375 101.953125 690.230469 101.023438 694.386719 100.195312 C 698.542969 99.371094 702.71875 98.644531 706.914062 98.023438 C 711.105469 97.402344 715.3125 96.882812 719.53125 96.464844 C 723.75 96.050781 727.976562 95.738281 732.210938 95.53125 C 736.445312 95.324219 740.679688 95.21875 744.921875 95.21875 C 749.160156 95.21875 753.394531 95.324219 757.628906 95.53125 C 761.863281 95.738281 766.089844 96.050781 770.308594 96.464844 C 774.527344 96.882812 778.734375 97.402344 782.925781 98.023438 C 787.121094 98.644531 791.296875 99.371094 795.453125 100.195312 C 799.613281 101.023438 803.746094 101.953125 807.859375 102.980469 C 811.972656 104.011719 816.054688 105.140625 820.113281 106.375 C 824.167969 107.605469 828.191406 108.933594 832.183594 110.359375 C 836.175781 111.789062 840.128906 113.3125 844.046875 114.9375 C 847.960938 116.558594 851.835938 118.277344 855.667969 120.089844 C 859.5 121.902344 863.285156 123.808594 867.023438 125.804688 C 870.761719 127.804688 874.449219 129.890625 878.085938 132.070312 C 881.722656 134.25 885.304688 136.519531 888.828125 138.875 C 892.351562 141.230469 895.816406 143.667969 899.222656 146.195312 C 902.628906 148.71875 905.96875 151.328125 909.246094 154.015625 C 912.523438 156.707031 915.730469 159.472656 918.871094 162.320312 C 922.011719 165.167969 925.082031 168.089844 928.082031 171.085938 C 931.078125 174.085938 934 177.152344 936.847656 180.292969 C 939.695312 183.4375 942.460938 186.644531 945.152344 189.921875 C 947.839844 193.199219 950.449219 196.539062 952.972656 199.945312 C 955.496094 203.347656 957.9375 206.8125 960.292969 210.339844 C 962.648438 213.863281 964.914062 217.445312 967.09375 221.078125 C 969.273438 224.714844 971.363281 228.402344 973.363281 232.140625 C 975.359375 235.878906 977.265625 239.664062 979.078125 243.5 C 980.890625 247.332031 982.609375 251.203125 984.230469 255.121094 C 985.851562 259.039062 987.378906 262.992188 988.804688 266.984375 C 990.234375 270.972656 991.5625 275 992.792969 279.054688 C 994.023438 283.113281 995.15625 287.195312 996.183594 291.308594 C 997.214844 295.421875 998.144531 299.554688 998.96875 303.710938 C 999.796875 307.871094 1000.523438 312.046875 1001.144531 316.238281 C 1001.765625 320.433594 1002.285156 324.640625 1002.699219 328.859375 C 1003.117188 333.078125 1003.425781 337.300781 1003.636719 341.535156 C 1003.84375 345.769531 1003.949219 350.007812 1003.949219 354.246094 Z M 1003.949219 354.246094 " fill-opacity="1" fill-rule="nonzero"/><path fill="#fa6c3d" d="M 976.003906 354.246094 C 976.003906 358.027344 975.910156 361.808594 975.726562 365.585938 C 975.539062 369.363281 975.261719 373.132812 974.890625 376.898438 C 974.519531 380.660156 974.058594 384.414062 973.503906 388.152344 C 972.949219 391.894531 972.300781 395.621094 971.5625 399.328125 C 970.824219 403.039062 969.996094 406.726562 969.078125 410.394531 C 968.160156 414.0625 967.152344 417.707031 966.054688 421.328125 C 964.957031 424.945312 963.769531 428.535156 962.496094 432.097656 C 961.222656 435.65625 959.859375 439.183594 958.414062 442.679688 C 956.964844 446.171875 955.433594 449.628906 953.816406 453.046875 C 952.199219 456.464844 950.5 459.84375 948.71875 463.179688 C 946.933594 466.511719 945.070312 469.804688 943.125 473.046875 C 941.183594 476.289062 939.160156 479.484375 937.058594 482.628906 C 934.957031 485.773438 932.78125 488.863281 930.527344 491.902344 C 928.273438 494.941406 925.949219 497.921875 923.550781 500.84375 C 921.152344 503.765625 918.679688 506.628906 916.140625 509.433594 C 913.601562 512.234375 910.996094 514.972656 908.320312 517.648438 C 905.648438 520.320312 902.910156 522.929688 900.105469 525.46875 C 897.304688 528.007812 894.441406 530.476562 891.519531 532.875 C 888.59375 535.273438 885.613281 537.601562 882.578125 539.855469 C 879.539062 542.105469 876.449219 544.285156 873.304688 546.386719 C 870.160156 548.484375 866.964844 550.507812 863.71875 552.453125 C 860.476562 554.398438 857.1875 556.261719 853.851562 558.042969 C 850.515625 559.828125 847.140625 561.527344 843.722656 563.144531 C 840.300781 564.761719 836.847656 566.292969 833.351562 567.738281 C 829.859375 569.1875 826.332031 570.546875 822.769531 571.820312 C 819.210938 573.09375 815.617188 574.28125 812 575.378906 C 808.382812 576.476562 804.738281 577.484375 801.070312 578.40625 C 797.398438 579.324219 793.710938 580.152344 790.003906 580.890625 C 786.292969 581.628906 782.566406 582.273438 778.828125 582.828125 C 775.085938 583.382812 771.335938 583.847656 767.570312 584.21875 C 763.808594 584.585938 760.035156 584.867188 756.257812 585.050781 C 752.480469 585.238281 748.703125 585.328125 744.921875 585.328125 C 741.136719 585.328125 737.359375 585.238281 733.582031 585.050781 C 729.804688 584.867188 726.035156 584.585938 722.269531 584.21875 C 718.507812 583.847656 714.753906 583.382812 711.011719 582.828125 C 707.273438 582.273438 703.546875 581.628906 699.839844 580.890625 C 696.128906 580.152344 692.441406 579.324219 688.773438 578.40625 C 685.101562 577.484375 681.460938 576.476562 677.839844 575.378906 C 674.222656 574.28125 670.632812 573.09375 667.070312 571.820312 C 663.511719 570.546875 659.984375 569.1875 656.488281 567.738281 C 652.996094 566.292969 649.539062 564.761719 646.121094 563.144531 C 642.699219 561.527344 639.324219 559.828125 635.988281 558.042969 C 632.652344 556.261719 629.363281 554.398438 626.121094 552.453125 C 622.875 550.507812 619.683594 548.484375 616.539062 546.386719 C 613.394531 544.285156 610.300781 542.105469 607.265625 539.855469 C 604.226562 537.601562 601.246094 535.273438 598.324219 532.875 C 595.398438 530.476562 592.535156 528.007812 589.734375 525.46875 C 586.933594 522.929688 584.195312 520.320312 581.519531 517.648438 C 578.847656 514.972656 576.238281 512.234375 573.699219 509.433594 C 571.160156 506.628906 568.691406 503.765625 566.289062 500.84375 C 563.890625 497.921875 561.566406 494.941406 559.3125 491.902344 C 557.058594 488.863281 554.882812 485.773438 552.78125 482.628906 C 550.679688 479.484375 548.65625 476.289062 546.714844 473.046875 C 544.769531 469.804688 542.90625 466.511719 541.125 463.179688 C 539.339844 459.84375 537.640625 456.464844 536.023438 453.046875 C 534.40625 449.628906 532.875 446.171875 531.425781 442.679688 C 529.980469 439.183594 528.621094 435.65625 527.34375 432.097656 C 526.070312 428.535156 524.886719 424.945312 523.789062 421.328125 C 522.691406 417.707031 521.679688 414.0625 520.761719 410.394531 C 519.84375 406.726562 519.015625 403.039062 518.277344 399.328125 C 517.539062 395.621094 516.894531 391.894531 516.339844 388.152344 C 515.785156 384.414062 515.320312 380.660156 514.949219 376.898438 C 514.578125 373.132812 514.300781 369.363281 514.117188 365.585938 C 513.929688 361.808594 513.835938 358.027344 513.835938 354.246094 C 513.835938 350.464844 513.929688 346.683594 514.117188 342.90625 C 514.300781 339.128906 514.578125 335.359375 514.949219 331.597656 C 515.320312 327.832031 515.785156 324.082031 516.339844 320.339844 C 516.894531 316.597656 517.539062 312.875 518.277344 309.164062 C 519.015625 305.457031 519.84375 301.765625 520.761719 298.097656 C 521.679688 294.429688 522.691406 290.785156 523.789062 287.167969 C 524.886719 283.546875 526.070312 279.957031 527.34375 276.398438 C 528.621094 272.835938 529.980469 269.308594 531.425781 265.816406 C 532.875 262.320312 534.40625 258.863281 536.023438 255.445312 C 537.640625 252.027344 539.339844 248.648438 541.125 245.316406 C 542.90625 241.980469 544.769531 238.691406 546.714844 235.445312 C 548.65625 232.203125 550.679688 229.007812 552.78125 225.863281 C 554.882812 222.71875 557.058594 219.628906 559.3125 216.589844 C 561.566406 213.554688 563.890625 210.574219 566.289062 207.648438 C 568.691406 204.726562 571.160156 201.863281 573.699219 199.0625 C 576.238281 196.257812 578.847656 193.519531 581.519531 190.847656 C 584.195312 188.171875 586.933594 185.566406 589.734375 183.023438 C 592.535156 180.484375 595.398438 178.015625 598.324219 175.617188 C 601.246094 173.21875 604.226562 170.890625 607.265625 168.640625 C 610.300781 166.386719 613.394531 164.210938 616.539062 162.109375 C 619.683594 160.007812 622.875 157.984375 626.121094 156.039062 C 629.363281 154.097656 632.652344 152.230469 635.988281 150.449219 C 639.324219 148.667969 642.699219 146.96875 646.121094 145.351562 C 649.539062 143.734375 652.996094 142.199219 656.488281 140.753906 C 659.984375 139.304688 663.511719 137.945312 667.070312 136.671875 C 670.632812 135.398438 674.222656 134.210938 677.839844 133.113281 C 681.460938 132.015625 685.101562 131.007812 688.773438 130.089844 C 692.441406 129.167969 696.128906 128.339844 699.839844 127.605469 C 703.546875 126.867188 707.273438 126.21875 711.011719 125.664062 C 714.753906 125.109375 718.507812 124.648438 722.269531 124.277344 C 726.035156 123.90625 729.804688 123.628906 733.582031 123.441406 C 737.359375 123.257812 741.136719 123.164062 744.921875 123.164062 C 748.703125 123.164062 752.480469 123.257812 756.257812 123.441406 C 760.035156 123.628906 763.808594 123.90625 767.570312 124.277344 C 771.335938 124.648438 775.085938 125.109375 778.828125 125.664062 C 782.566406 126.21875 786.292969 126.867188 790.003906 127.605469 C 793.710938 128.339844 797.398438 129.167969 801.070312 130.089844 C 804.738281 131.007812 808.382812 132.015625 812 133.113281 C 815.617188 134.210938 819.210938 135.398438 822.769531 136.671875 C 826.332031 137.945312 829.859375 139.304688 833.351562 140.753906 C 836.847656 142.199219 840.300781 143.734375 843.722656 145.351562 C 847.140625 146.96875 850.515625 148.667969 853.851562 150.449219 C 857.1875 152.230469 860.476562 154.097656 863.71875 156.039062 C 866.964844 157.984375 870.160156 160.007812 873.304688 162.109375 C 876.449219 164.210938 879.539062 166.386719 882.578125 168.640625 C 885.613281 170.890625 888.59375 173.21875 891.519531 175.617188 C 894.441406 178.015625 897.304688 180.484375 900.105469 183.023438 C 902.910156 185.566406 905.644531 188.171875 908.320312 190.847656 C 910.996094 193.519531 913.601562 196.257812 916.140625 199.0625 C 918.679688 201.863281 921.152344 204.726562 923.550781 207.648438 C 925.949219 210.574219 928.273438 213.554688 930.527344 216.589844 C 932.78125 219.628906 934.957031 222.71875 937.058594 225.863281 C 939.160156 229.007812 941.183594 232.203125 943.125 235.445312 C 945.070312 238.691406 946.933594 241.980469 948.71875 245.316406 C 950.5 248.648438 952.199219 252.027344 953.816406 255.445312 C 955.433594 258.863281 956.964844 262.320312 958.414062 265.816406 C 959.859375 269.308594 961.222656 272.835938 962.496094 276.398438 C 963.769531 279.957031 964.957031 283.546875 966.054688 287.167969 C 967.152344 290.785156 968.160156 294.429688 969.078125 298.097656 C 969.996094 301.765625 970.824219 305.457031 971.5625 309.164062 C 972.300781 312.875 972.949219 316.597656 973.503906 320.339844 C 974.058594 324.082031 974.519531 327.832031 974.890625 331.597656 C 975.261719 335.359375 975.539062 339.128906 975.726562 342.90625 C 975.910156 346.683594 976.003906 350.464844 976.003906 354.246094 Z M 976.003906 354.246094 " fill-opacity="1" fill-rule="nonzero"/><g clip-path="url(#e748115405)"><path fill="#fa6c3d" d="M 744.921875 660.308594 C 576.160156 660.308594 438.859375 523.007812 438.859375 354.246094 C 438.859375 185.484375 576.160156 48.1875 744.921875 48.1875 C 745.484375 48.164062 746.042969 48.195312 746.597656 48.285156 C 747.15625 48.375 747.695312 48.519531 748.222656 48.71875 C 748.75 48.917969 749.25 49.167969 749.726562 49.46875 C 750.203125 49.769531 750.644531 50.117188 751.050781 50.503906 C 751.457031 50.894531 751.820312 51.320312 752.140625 51.785156 C 752.460938 52.25 752.730469 52.738281 752.953125 53.257812 C 753.171875 53.777344 753.339844 54.308594 753.453125 54.863281 C 753.566406 55.414062 753.621094 55.972656 753.621094 56.535156 C 753.621094 57.097656 753.566406 57.65625 753.453125 58.207031 C 753.339844 58.757812 753.171875 59.292969 752.953125 59.8125 C 752.730469 60.332031 752.460938 60.820312 752.140625 61.285156 C 751.820312 61.746094 751.457031 62.175781 751.050781 62.5625 C 750.644531 62.953125 750.203125 63.300781 749.726562 63.601562 C 749.25 63.902344 748.75 64.152344 748.222656 64.351562 C 747.695312 64.550781 747.15625 64.695312 746.597656 64.785156 C 746.042969 64.875 745.484375 64.90625 744.921875 64.882812 C 585.371094 64.882812 455.570312 194.695312 455.570312 354.246094 C 455.570312 513.796875 585.371094 643.609375 744.921875 643.609375 C 745.484375 643.585938 746.042969 643.621094 746.597656 643.710938 C 747.152344 643.800781 747.695312 643.945312 748.222656 644.144531 C 748.75 644.34375 749.25 644.59375 749.726562 644.894531 C 750.203125 645.195312 750.644531 645.539062 751.050781 645.929688 C 751.457031 646.320312 751.820312 646.746094 752.140625 647.207031 C 752.460938 647.671875 752.730469 648.164062 752.953125 648.679688 C 753.171875 649.199219 753.339844 649.734375 753.453125 650.285156 C 753.566406 650.835938 753.621094 651.394531 753.621094 651.957031 C 753.621094 652.523438 753.566406 653.078125 753.453125 653.628906 C 753.339844 654.183594 753.171875 654.71875 752.953125 655.234375 C 752.730469 655.753906 752.460938 656.246094 752.140625 656.707031 C 751.820312 657.171875 751.457031 657.597656 751.050781 657.988281 C 750.644531 658.378906 750.203125 658.722656 749.726562 659.023438 C 749.25 659.324219 748.75 659.574219 748.222656 659.773438 C 747.695312 659.972656 747.152344 660.117188 746.597656 660.207031 C 746.042969 660.296875 745.484375 660.332031 744.921875 660.308594 Z M 744.921875 660.308594 " fill-opacity="1" fill-rule="nonzero"/></g></svg>