<svg xmlns="http://www.w3.org/2000/svg" xmlns:xlink="http://www.w3.org/1999/xlink" width="2048" zoomAndPan="magnify" viewBox="0 0 1536 708.749996" height="945" preserveAspectRatio="xMidYMid meet" version="1.0"><defs><clipPath id="247918401c"><path d="M 424.085938 422 L 452 422 L 452 451 L 424.085938 451 Z M 424.085938 422 " clip-rule="nonzero"/></clipPath><clipPath id="3f5878bede"><path d="M 569 603 L 610 603 L 610 642.78125 L 569 642.78125 Z M 569 603 " clip-rule="nonzero"/></clipPath></defs><path fill="#ed1c24" d="M 1017.417969 499.726562 C 1025.101562 492.042969 1025.101562 479.582031 1017.417969 471.894531 C 1009.730469 464.210938 997.269531 464.210938 989.585938 471.894531 L 934.519531 526.964844 C 926.835938 534.652344 926.835938 547.113281 934.519531 554.796875 C 942.207031 562.484375 954.664062 562.484375 962.351562 554.796875 Z M 1017.417969 499.726562 " fill-opacity="1" fill-rule="nonzero"/><path fill="#ed1c24" d="M 494.308594 224.429688 C 501.996094 232.117188 514.453125 232.117188 522.140625 224.429688 L 559.4375 187.132812 C 567.121094 179.445312 567.121094 166.984375 559.4375 159.296875 C 551.75 151.613281 539.292969 151.613281 531.605469 159.296875 L 494.308594 196.597656 C 486.628906 204.285156 486.628906 216.746094 494.308594 224.429688 Z M 494.308594 224.429688 " fill-opacity="1" fill-rule="nonzero"/><path fill="#ed1c24" d="M 920.710938 570.347656 C 913.027344 562.660156 900.566406 562.660156 892.882812 570.347656 L 878.121094 585.109375 C 870.433594 592.796875 870.433594 605.257812 878.121094 612.941406 C 885.804688 620.628906 898.265625 620.628906 905.949219 612.941406 L 920.710938 598.179688 C 928.398438 590.492188 928.398438 578.035156 920.710938 570.347656 Z M 920.710938 570.347656 " fill-opacity="1" fill-rule="nonzero"/><path fill="#ed1c24" d="M 1054.210938 241.980469 C 1061.78125 234.410156 1061.78125 222.144531 1054.210938 214.574219 L 1053.789062 214.148438 C 1046.21875 206.578125 1033.953125 206.578125 1026.382812 214.148438 L 1018.003906 222.527344 C 1010.4375 230.097656 998.167969 230.097656 990.597656 222.527344 C 983.03125 214.957031 983.03125 202.6875 990.597656 195.117188 L 1037.9375 147.777344 C 1045.507812 140.207031 1045.507812 127.9375 1037.9375 120.367188 L 1037.511719 119.945312 C 1029.945312 112.375 1017.675781 112.375 1010.113281 119.945312 L 997.050781 133.007812 C 990.347656 139.714844 979.496094 139.542969 972.867188 132.753906 C 972.8125 132.699219 972.753906 132.644531 972.699219 132.589844 L 972.277344 132.164062 C 964.707031 124.59375 952.441406 124.601562 944.871094 132.164062 L 921.546875 155.488281 C 918.847656 158.1875 914.976562 159.421875 914.976562 159.421875 C 908.140625 161.875 900.203125 160.382812 894.722656 154.90625 C 887.15625 147.339844 887.15625 135.070312 894.722656 127.5 L 921.230469 100.988281 C 928.800781 93.421875 928.800781 81.152344 921.230469 73.582031 L 920.808594 73.15625 C 913.238281 65.585938 900.96875 65.585938 893.402344 73.15625 L 866.449219 100.113281 C 858.878906 107.683594 846.609375 107.683594 839.042969 100.113281 L 838.617188 99.6875 C 831.046875 92.117188 818.78125 92.117188 811.210938 99.6875 L 768.339844 142.5625 C 760.859375 150.042969 748.789062 150.132812 741.207031 142.832031 C 733.378906 135.296875 733.527344 122.574219 741.207031 114.890625 L 751.859375 104.238281 C 759.425781 96.667969 759.425781 84.398438 751.859375 76.828125 L 751.433594 76.402344 C 743.863281 68.835938 731.597656 68.835938 724.035156 76.402344 L 682.238281 118.203125 C 678.648438 121.792969 673.257812 123.09375 668.53125 121.238281 C 661.46875 118.472656 653.132812 119.9375 647.429688 125.644531 L 610.132812 162.941406 C 604.425781 168.648438 602.960938 176.984375 605.726562 184.046875 C 607.582031 188.777344 606.28125 194.167969 602.691406 197.757812 L 536.429688 264.023438 C 528.859375 271.59375 528.859375 283.863281 536.429688 291.433594 L 536.851562 291.859375 C 544.421875 299.425781 544.421875 311.695312 536.851562 319.265625 L 500.488281 355.632812 C 492.917969 363.203125 492.917969 375.464844 500.480469 383.035156 C 508.050781 390.605469 508.054688 402.871094 500.488281 410.441406 L 484.871094 426.0625 C 477.300781 433.628906 477.300781 445.898438 484.871094 453.46875 L 485.292969 453.894531 C 492.863281 461.464844 505.132812 461.457031 512.699219 453.894531 L 521.078125 445.515625 C 528.648438 437.945312 540.914062 437.945312 548.484375 445.515625 C 556.050781 453.085938 556.050781 465.355469 548.484375 472.921875 L 501.144531 520.265625 C 493.574219 527.835938 493.574219 540.105469 501.144531 547.671875 L 501.570312 548.097656 C 509.136719 555.667969 521.40625 555.667969 528.976562 548.097656 L 542.03125 535.042969 C 548.738281 528.335938 559.585938 528.507812 566.21875 535.292969 C 566.273438 535.351562 566.328125 535.40625 566.382812 535.460938 L 566.804688 535.882812 C 574.375 543.453125 586.644531 543.453125 594.210938 535.882812 L 612.054688 518.039062 C 615.707031 514.386719 619.304688 510.484375 624.109375 508.621094 C 630.949219 506.167969 638.886719 507.660156 644.367188 513.132812 C 651.933594 520.703125 651.933594 532.972656 644.367188 540.542969 L 617.859375 567.050781 C 610.289062 574.621094 610.289062 586.890625 617.859375 594.460938 L 618.28125 594.886719 C 625.851562 602.453125 638.117188 602.453125 645.6875 594.886719 L 672.636719 567.9375 C 680.203125 560.367188 692.472656 560.367188 700.039062 567.9375 L 700.464844 568.359375 C 708.035156 575.929688 720.300781 575.929688 727.871094 568.359375 L 770.476562 525.753906 C 778.160156 518.066406 790.882812 517.921875 798.417969 525.753906 C 805.71875 533.34375 805.628906 545.40625 798.148438 552.886719 L 787.222656 563.8125 C 779.65625 571.382812 779.65625 583.652344 787.222656 591.214844 L 787.648438 591.636719 C 795.21875 599.207031 807.484375 599.207031 815.054688 591.636719 L 862.617188 544.070312 C 867.757812 538.933594 875.203125 537.089844 882.265625 538.796875 C 888.710938 540.351562 895.785156 538.609375 900.8125 533.582031 L 915.574219 518.820312 C 920.601562 513.792969 922.339844 506.714844 920.785156 500.269531 C 919.082031 493.207031 920.925781 485.761719 926.0625 480.625 L 1002.660156 404.015625 C 1010.230469 396.449219 1010.230469 384.179688 1002.660156 376.609375 L 1002.238281 376.183594 C 994.667969 368.613281 994.667969 356.347656 1002.238281 348.777344 L 1038.601562 312.410156 C 1046.171875 304.839844 1046.164062 292.570312 1038.59375 285 C 1031.035156 277.429688 1031.035156 265.167969 1038.601562 257.601562 Z M 1054.210938 241.980469 " fill-opacity="1" fill-rule="nonzero"/><path fill="#ed1c24" d="M 1057.019531 437.160156 C 1057.019531 437.804688 1056.988281 438.449219 1056.925781 439.09375 C 1056.863281 439.734375 1056.769531 440.375 1056.640625 441.007812 C 1056.515625 441.640625 1056.359375 442.265625 1056.171875 442.886719 C 1055.984375 443.503906 1055.765625 444.109375 1055.519531 444.707031 C 1055.273438 445.304688 1054.996094 445.886719 1054.691406 446.457031 C 1054.386719 447.027344 1054.054688 447.582031 1053.695312 448.117188 C 1053.335938 448.65625 1052.953125 449.175781 1052.542969 449.675781 C 1052.132812 450.171875 1051.699219 450.652344 1051.242188 451.109375 C 1050.785156 451.566406 1050.308594 452 1049.808594 452.410156 C 1049.308594 452.820312 1048.789062 453.203125 1048.253906 453.5625 C 1047.714844 453.921875 1047.164062 454.253906 1046.59375 454.558594 C 1046.023438 454.863281 1045.441406 455.136719 1044.84375 455.386719 C 1044.246094 455.632812 1043.640625 455.851562 1043.019531 456.039062 C 1042.402344 456.226562 1041.777344 456.382812 1041.140625 456.507812 C 1040.507812 456.632812 1039.871094 456.730469 1039.226562 456.792969 C 1038.585938 456.855469 1037.941406 456.886719 1037.292969 456.886719 C 1036.648438 456.886719 1036.003906 456.855469 1035.359375 456.792969 C 1034.71875 456.730469 1034.078125 456.632812 1033.445312 456.507812 C 1032.8125 456.382812 1032.1875 456.226562 1031.566406 456.039062 C 1030.949219 455.851562 1030.339844 455.632812 1029.746094 455.386719 C 1029.148438 455.136719 1028.5625 454.863281 1027.996094 454.558594 C 1027.425781 454.253906 1026.871094 453.921875 1026.332031 453.5625 C 1025.796875 453.203125 1025.277344 452.820312 1024.777344 452.410156 C 1024.28125 452 1023.800781 451.566406 1023.34375 451.109375 C 1022.886719 450.652344 1022.453125 450.171875 1022.042969 449.675781 C 1021.632812 449.175781 1021.25 448.65625 1020.890625 448.117188 C 1020.53125 447.582031 1020.199219 447.027344 1019.894531 446.457031 C 1019.589844 445.886719 1019.316406 445.304688 1019.066406 444.707031 C 1018.820312 444.109375 1018.605469 443.503906 1018.417969 442.886719 C 1018.230469 442.265625 1018.070312 441.640625 1017.945312 441.007812 C 1017.820312 440.375 1017.726562 439.734375 1017.660156 439.09375 C 1017.597656 438.449219 1017.566406 437.804688 1017.566406 437.160156 C 1017.566406 436.511719 1017.597656 435.867188 1017.660156 435.222656 C 1017.726562 434.582031 1017.820312 433.941406 1017.945312 433.308594 C 1018.070312 432.675781 1018.230469 432.050781 1018.417969 431.429688 C 1018.605469 430.8125 1018.820312 430.207031 1019.066406 429.609375 C 1019.316406 429.011719 1019.589844 428.429688 1019.894531 427.859375 C 1020.199219 427.289062 1020.53125 426.734375 1020.890625 426.199219 C 1021.25 425.660156 1021.632812 425.140625 1022.042969 424.644531 C 1022.453125 424.144531 1022.886719 423.664062 1023.34375 423.207031 C 1023.800781 422.75 1024.28125 422.316406 1024.777344 421.90625 C 1025.277344 421.496094 1025.796875 421.113281 1026.332031 420.753906 C 1026.871094 420.394531 1027.425781 420.0625 1027.996094 419.757812 C 1028.5625 419.453125 1029.148438 419.179688 1029.746094 418.929688 C 1030.339844 418.683594 1030.949219 418.464844 1031.566406 418.277344 C 1032.1875 418.089844 1032.8125 417.933594 1033.445312 417.808594 C 1034.078125 417.683594 1034.71875 417.589844 1035.359375 417.523438 C 1036.003906 417.460938 1036.648438 417.429688 1037.292969 417.429688 C 1037.941406 417.429688 1038.585938 417.460938 1039.226562 417.523438 C 1039.871094 417.589844 1040.507812 417.683594 1041.140625 417.808594 C 1041.777344 417.933594 1042.402344 418.089844 1043.019531 418.277344 C 1043.640625 418.464844 1044.246094 418.683594 1044.84375 418.929688 C 1045.441406 419.179688 1046.023438 419.453125 1046.59375 419.757812 C 1047.164062 420.0625 1047.714844 420.394531 1048.253906 420.753906 C 1048.789062 421.113281 1049.308594 421.496094 1049.808594 421.90625 C 1050.308594 422.316406 1050.785156 422.75 1051.242188 423.207031 C 1051.699219 423.664062 1052.132812 424.144531 1052.542969 424.640625 C 1052.953125 425.140625 1053.335938 425.660156 1053.695312 426.199219 C 1054.054688 426.734375 1054.386719 427.289062 1054.691406 427.859375 C 1054.996094 428.429688 1055.273438 429.011719 1055.519531 429.609375 C 1055.765625 430.207031 1055.984375 430.8125 1056.171875 431.429688 C 1056.359375 432.050781 1056.515625 432.675781 1056.640625 433.308594 C 1056.769531 433.941406 1056.863281 434.582031 1056.925781 435.222656 C 1056.988281 435.867188 1057.019531 436.511719 1057.019531 437.160156 Z M 1057.019531 437.160156 " fill-opacity="1" fill-rule="nonzero"/><path fill="#ed1c24" d="M 989.914062 609.160156 C 989.914062 609.808594 989.882812 610.453125 989.820312 611.09375 C 989.757812 611.738281 989.660156 612.375 989.535156 613.011719 C 989.410156 613.644531 989.253906 614.269531 989.066406 614.886719 C 988.878906 615.507812 988.660156 616.113281 988.414062 616.710938 C 988.164062 617.308594 987.890625 617.890625 987.585938 618.460938 C 987.28125 619.03125 986.949219 619.585938 986.589844 620.121094 C 986.230469 620.660156 985.847656 621.175781 985.4375 621.675781 C 985.027344 622.175781 984.59375 622.65625 984.136719 623.109375 C 983.679688 623.566406 983.203125 624 982.703125 624.410156 C 982.203125 624.820312 981.683594 625.207031 981.148438 625.566406 C 980.609375 625.921875 980.054688 626.253906 979.488281 626.558594 C 978.917969 626.863281 978.332031 627.140625 977.738281 627.386719 C 977.140625 627.636719 976.53125 627.851562 975.914062 628.039062 C 975.296875 628.226562 974.667969 628.382812 974.035156 628.511719 C 973.402344 628.636719 972.765625 628.730469 972.121094 628.792969 C 971.476562 628.859375 970.832031 628.890625 970.1875 628.890625 C 969.542969 628.890625 968.898438 628.859375 968.253906 628.792969 C 967.609375 628.730469 966.972656 628.636719 966.339844 628.511719 C 965.703125 628.382812 965.078125 628.226562 964.460938 628.039062 C 963.84375 627.851562 963.234375 627.636719 962.636719 627.386719 C 962.039062 627.140625 961.457031 626.863281 960.886719 626.558594 C 960.316406 626.253906 959.765625 625.921875 959.226562 625.566406 C 958.691406 625.207031 958.171875 624.820312 957.671875 624.410156 C 957.171875 624 956.695312 623.566406 956.238281 623.109375 C 955.78125 622.65625 955.347656 622.175781 954.9375 621.675781 C 954.527344 621.175781 954.144531 620.660156 953.785156 620.121094 C 953.425781 619.585938 953.09375 619.03125 952.789062 618.460938 C 952.484375 617.890625 952.207031 617.308594 951.960938 616.710938 C 951.714844 616.113281 951.496094 615.507812 951.308594 614.886719 C 951.121094 614.269531 950.964844 613.644531 950.839844 613.011719 C 950.714844 612.375 950.617188 611.738281 950.554688 611.09375 C 950.492188 610.453125 950.460938 609.808594 950.460938 609.160156 C 950.460938 608.515625 950.492188 607.871094 950.554688 607.226562 C 950.617188 606.585938 950.714844 605.945312 950.839844 605.3125 C 950.964844 604.679688 951.121094 604.050781 951.308594 603.433594 C 951.496094 602.816406 951.714844 602.207031 951.960938 601.609375 C 952.207031 601.015625 952.484375 600.429688 952.789062 599.859375 C 953.09375 599.292969 953.425781 598.738281 953.785156 598.199219 C 954.144531 597.664062 954.527344 597.144531 954.9375 596.644531 C 955.347656 596.144531 955.78125 595.667969 956.238281 595.210938 C 956.695312 594.753906 957.171875 594.320312 957.671875 593.910156 C 958.171875 593.5 958.691406 593.117188 959.226562 592.757812 C 959.765625 592.398438 960.316406 592.066406 960.886719 591.761719 C 961.457031 591.457031 962.039062 591.179688 962.636719 590.933594 C 963.234375 590.6875 963.84375 590.46875 964.460938 590.28125 C 965.078125 590.09375 965.703125 589.9375 966.339844 589.8125 C 966.972656 589.683594 967.609375 589.589844 968.253906 589.527344 C 968.898438 589.464844 969.542969 589.433594 970.1875 589.433594 C 970.832031 589.433594 971.476562 589.464844 972.121094 589.527344 C 972.765625 589.589844 973.402344 589.683594 974.035156 589.8125 C 974.667969 589.9375 975.296875 590.09375 975.914062 590.28125 C 976.53125 590.46875 977.140625 590.6875 977.734375 590.933594 C 978.332031 591.179688 978.917969 591.457031 979.488281 591.761719 C 980.054688 592.066406 980.609375 592.398438 981.148438 592.757812 C 981.683594 593.117188 982.203125 593.5 982.703125 593.910156 C 983.203125 594.320312 983.679688 594.753906 984.136719 595.210938 C 984.59375 595.667969 985.027344 596.144531 985.4375 596.644531 C 985.847656 597.144531 986.230469 597.664062 986.589844 598.199219 C 986.949219 598.738281 987.28125 599.292969 987.585938 599.859375 C 987.890625 600.429688 988.164062 601.015625 988.414062 601.609375 C 988.660156 602.207031 988.878906 602.816406 989.066406 603.433594 C 989.253906 604.050781 989.410156 604.679688 989.535156 605.3125 C 989.660156 605.945312 989.757812 606.585938 989.820312 607.226562 C 989.882812 607.871094 989.914062 608.515625 989.914062 609.160156 Z M 989.914062 609.160156 " fill-opacity="1" fill-rule="nonzero"/><path fill="#ed1c24" d="M 641.585938 86.996094 C 641.691406 87.636719 641.761719 88.277344 641.800781 88.921875 C 641.84375 89.566406 641.851562 90.210938 641.828125 90.855469 C 641.804688 91.503906 641.75 92.144531 641.664062 92.785156 C 641.578125 93.425781 641.460938 94.0625 641.3125 94.691406 C 641.164062 95.320312 640.984375 95.9375 640.777344 96.550781 C 640.566406 97.160156 640.328125 97.761719 640.058594 98.347656 C 639.792969 98.9375 639.496094 99.507812 639.171875 100.070312 C 638.847656 100.628906 638.496094 101.167969 638.117188 101.691406 C 637.738281 102.214844 637.335938 102.722656 636.910156 103.207031 C 636.480469 103.691406 636.03125 104.152344 635.558594 104.59375 C 635.085938 105.035156 634.59375 105.449219 634.078125 105.839844 C 633.566406 106.234375 633.035156 106.597656 632.484375 106.9375 C 631.933594 107.277344 631.371094 107.589844 630.789062 107.875 C 630.207031 108.160156 629.617188 108.414062 629.011719 108.640625 C 628.40625 108.867188 627.789062 109.0625 627.167969 109.226562 C 626.542969 109.390625 625.910156 109.527344 625.273438 109.628906 C 624.636719 109.734375 623.992188 109.804688 623.347656 109.847656 C 622.703125 109.886719 622.058594 109.894531 621.414062 109.871094 C 620.765625 109.847656 620.125 109.792969 619.484375 109.707031 C 618.84375 109.621094 618.210938 109.503906 617.582031 109.355469 C 616.953125 109.207031 616.332031 109.027344 615.71875 108.820312 C 615.109375 108.609375 614.507812 108.371094 613.921875 108.101562 C 613.335938 107.835938 612.761719 107.539062 612.203125 107.214844 C 611.644531 106.890625 611.101562 106.539062 610.578125 106.160156 C 610.054688 105.78125 609.550781 105.378906 609.066406 104.953125 C 608.582031 104.523438 608.117188 104.074219 607.679688 103.601562 C 607.238281 103.128906 606.820312 102.636719 606.429688 102.121094 C 606.039062 101.609375 605.671875 101.074219 605.332031 100.527344 C 604.992188 99.976562 604.679688 99.410156 604.398438 98.832031 C 604.113281 98.25 603.859375 97.660156 603.632812 97.054688 C 603.40625 96.449219 603.210938 95.832031 603.042969 95.207031 C 602.878906 94.582031 602.746094 93.953125 602.640625 93.316406 C 602.539062 92.675781 602.464844 92.035156 602.425781 91.390625 C 602.386719 90.746094 602.375 90.101562 602.398438 89.453125 C 602.421875 88.808594 602.476562 88.164062 602.5625 87.523438 C 602.648438 86.886719 602.765625 86.25 602.914062 85.621094 C 603.0625 84.992188 603.242188 84.371094 603.453125 83.761719 C 603.660156 83.148438 603.898438 82.550781 604.167969 81.960938 C 604.4375 81.375 604.734375 80.800781 605.058594 80.242188 C 605.382812 79.683594 605.734375 79.144531 606.113281 78.617188 C 606.488281 78.09375 606.890625 77.589844 607.320312 77.105469 C 607.746094 76.621094 608.195312 76.160156 608.667969 75.71875 C 609.140625 75.277344 609.636719 74.863281 610.148438 74.46875 C 610.664062 74.078125 611.195312 73.710938 611.746094 73.371094 C 612.292969 73.03125 612.859375 72.722656 613.4375 72.4375 C 614.019531 72.152344 614.613281 71.898438 615.21875 71.671875 C 615.824219 71.445312 616.4375 71.25 617.0625 71.085938 C 617.6875 70.917969 618.316406 70.785156 618.957031 70.679688 C 619.59375 70.578125 620.234375 70.507812 620.878906 70.464844 C 621.523438 70.425781 622.167969 70.417969 622.816406 70.441406 C 623.460938 70.460938 624.105469 70.515625 624.746094 70.601562 C 625.382812 70.6875 626.019531 70.808594 626.648438 70.957031 C 627.277344 71.105469 627.898438 71.28125 628.507812 71.492188 C 629.121094 71.703125 629.71875 71.941406 630.304688 72.207031 C 630.894531 72.476562 631.46875 72.773438 632.027344 73.097656 C 632.585938 73.421875 633.125 73.773438 633.648438 74.152344 C 634.175781 74.53125 634.679688 74.933594 635.164062 75.359375 C 635.648438 75.789062 636.109375 76.238281 636.550781 76.710938 C 636.992188 77.183594 637.40625 77.675781 637.796875 78.191406 C 638.191406 78.703125 638.554688 79.234375 638.894531 79.785156 C 639.234375 80.335938 639.546875 80.898438 639.832031 81.480469 C 640.117188 82.058594 640.371094 82.652344 640.597656 83.257812 C 640.824219 83.863281 641.019531 84.480469 641.183594 85.105469 C 641.347656 85.726562 641.484375 86.359375 641.585938 86.996094 Z M 641.585938 86.996094 " fill-opacity="1" fill-rule="nonzero"/><path fill="#ed1c24" d="M 1044.632812 356.816406 C 1044.773438 357.699219 1044.832031 358.585938 1044.796875 359.480469 C 1044.765625 360.375 1044.648438 361.257812 1044.441406 362.125 C 1044.238281 362.996094 1043.949219 363.839844 1043.578125 364.652344 C 1043.207031 365.464844 1042.757812 366.234375 1042.234375 366.960938 C 1041.714844 367.6875 1041.125 368.351562 1040.46875 368.960938 C 1039.816406 369.570312 1039.109375 370.113281 1038.347656 370.582031 C 1037.585938 371.050781 1036.789062 371.441406 1035.949219 371.753906 C 1035.113281 372.066406 1034.253906 372.296875 1033.371094 372.4375 C 1032.488281 372.582031 1031.597656 372.636719 1030.707031 372.605469 C 1029.8125 372.574219 1028.929688 372.457031 1028.058594 372.25 C 1027.191406 372.046875 1026.347656 371.757812 1025.535156 371.386719 C 1024.722656 371.015625 1023.953125 370.566406 1023.226562 370.042969 C 1022.5 369.519531 1021.835938 368.933594 1021.226562 368.277344 C 1020.617188 367.625 1020.074219 366.917969 1019.605469 366.15625 C 1019.136719 365.394531 1018.746094 364.59375 1018.433594 363.757812 C 1018.121094 362.921875 1017.890625 362.058594 1017.75 361.175781 C 1017.605469 360.292969 1017.550781 359.40625 1017.582031 358.511719 C 1017.613281 357.617188 1017.730469 356.738281 1017.9375 355.867188 C 1018.144531 354.996094 1018.429688 354.15625 1018.800781 353.339844 C 1019.171875 352.527344 1019.621094 351.757812 1020.144531 351.03125 C 1020.667969 350.308594 1021.253906 349.640625 1021.910156 349.03125 C 1022.5625 348.421875 1023.269531 347.882812 1024.03125 347.410156 C 1024.792969 346.941406 1025.589844 346.550781 1026.429688 346.238281 C 1027.265625 345.925781 1028.128906 345.699219 1029.011719 345.554688 C 1029.890625 345.410156 1030.78125 345.355469 1031.675781 345.386719 C 1032.566406 345.417969 1033.449219 345.539062 1034.320312 345.742188 C 1035.191406 345.949219 1036.03125 346.238281 1036.84375 346.609375 C 1037.660156 346.980469 1038.425781 347.425781 1039.152344 347.949219 C 1039.878906 348.472656 1040.546875 349.0625 1041.15625 349.714844 C 1041.765625 350.371094 1042.304688 351.078125 1042.773438 351.839844 C 1043.242188 352.597656 1043.636719 353.398438 1043.949219 354.234375 C 1044.261719 355.074219 1044.488281 355.933594 1044.632812 356.816406 Z M 1044.632812 356.816406 " fill-opacity="1" fill-rule="nonzero"/><path fill="#ed1c24" d="M 1100.578125 480.367188 C 1100.71875 481.25 1100.777344 482.136719 1100.742188 483.03125 C 1100.710938 483.925781 1100.59375 484.808594 1100.386719 485.679688 C 1100.183594 486.546875 1099.894531 487.390625 1099.523438 488.203125 C 1099.152344 489.015625 1098.703125 489.785156 1098.179688 490.511719 C 1097.660156 491.238281 1097.070312 491.90625 1096.414062 492.515625 C 1095.761719 493.125 1095.054688 493.664062 1094.292969 494.132812 C 1093.53125 494.601562 1092.734375 494.996094 1091.894531 495.308594 C 1091.058594 495.621094 1090.199219 495.847656 1089.316406 495.992188 C 1088.433594 496.132812 1087.542969 496.191406 1086.652344 496.15625 C 1085.757812 496.125 1084.875 496.007812 1084.003906 495.800781 C 1083.136719 495.597656 1082.292969 495.308594 1081.480469 494.9375 C 1080.667969 494.566406 1079.898438 494.117188 1079.171875 493.59375 C 1078.445312 493.074219 1077.777344 492.484375 1077.167969 491.828125 C 1076.558594 491.175781 1076.019531 490.46875 1075.550781 489.707031 C 1075.082031 488.945312 1074.6875 488.148438 1074.375 487.308594 C 1074.0625 486.472656 1073.835938 485.609375 1073.695312 484.730469 C 1073.550781 483.847656 1073.496094 482.957031 1073.527344 482.0625 C 1073.558594 481.171875 1073.675781 480.289062 1073.882812 479.417969 C 1074.085938 478.546875 1074.375 477.707031 1074.746094 476.894531 C 1075.117188 476.078125 1075.566406 475.308594 1076.089844 474.585938 C 1076.613281 473.859375 1077.199219 473.191406 1077.855469 472.582031 C 1078.507812 471.972656 1079.214844 471.433594 1079.976562 470.964844 C 1080.738281 470.492188 1081.535156 470.101562 1082.375 469.789062 C 1083.210938 469.476562 1084.070312 469.25 1084.953125 469.105469 C 1085.835938 468.960938 1086.726562 468.90625 1087.617188 468.9375 C 1088.511719 468.96875 1089.394531 469.089844 1090.265625 469.292969 C 1091.132812 469.5 1091.976562 469.789062 1092.789062 470.160156 C 1093.601562 470.53125 1094.371094 470.976562 1095.097656 471.5 C 1095.824219 472.023438 1096.492188 472.613281 1097.101562 473.265625 C 1097.710938 473.921875 1098.25 474.628906 1098.71875 475.390625 C 1099.1875 476.148438 1099.582031 476.949219 1099.894531 477.789062 C 1100.207031 478.625 1100.433594 479.484375 1100.578125 480.367188 Z M 1100.578125 480.367188 " fill-opacity="1" fill-rule="nonzero"/><path fill="#ed1c24" d="M 1109.394531 257.257812 C 1109.539062 258.140625 1109.59375 259.03125 1109.5625 259.925781 C 1109.53125 260.816406 1109.410156 261.699219 1109.207031 262.570312 C 1109 263.441406 1108.710938 264.28125 1108.339844 265.09375 C 1107.96875 265.910156 1107.523438 266.679688 1107 267.402344 C 1106.476562 268.128906 1105.886719 268.796875 1105.234375 269.40625 C 1104.578125 270.015625 1103.871094 270.554688 1103.109375 271.023438 C 1102.351562 271.496094 1101.550781 271.886719 1100.714844 272.199219 C 1099.875 272.511719 1099.015625 272.738281 1098.132812 272.882812 C 1097.25 273.027344 1096.363281 273.082031 1095.46875 273.050781 C 1094.574219 273.019531 1093.691406 272.898438 1092.824219 272.695312 C 1091.953125 272.488281 1091.109375 272.199219 1090.296875 271.828125 C 1089.484375 271.457031 1088.714844 271.011719 1087.988281 270.488281 C 1087.265625 269.964844 1086.597656 269.375 1085.988281 268.722656 C 1085.378906 268.066406 1084.839844 267.359375 1084.367188 266.597656 C 1083.898438 265.835938 1083.507812 265.039062 1083.195312 264.199219 C 1082.882812 263.363281 1082.65625 262.503906 1082.511719 261.621094 C 1082.367188 260.738281 1082.3125 259.847656 1082.34375 258.957031 C 1082.375 258.0625 1082.496094 257.179688 1082.699219 256.308594 C 1082.90625 255.441406 1083.195312 254.597656 1083.566406 253.785156 C 1083.9375 252.972656 1084.382812 252.203125 1084.90625 251.476562 C 1085.429688 250.75 1086.019531 250.082031 1086.671875 249.472656 C 1087.328125 248.863281 1088.035156 248.324219 1088.792969 247.855469 C 1089.554688 247.386719 1090.355469 246.992188 1091.191406 246.679688 C 1092.03125 246.367188 1092.890625 246.140625 1093.773438 245.996094 C 1094.65625 245.855469 1095.542969 245.796875 1096.4375 245.832031 C 1097.332031 245.863281 1098.210938 245.980469 1099.082031 246.1875 C 1099.953125 246.390625 1100.792969 246.679688 1101.609375 247.050781 C 1102.421875 247.421875 1103.191406 247.871094 1103.914062 248.394531 C 1104.640625 248.914062 1105.308594 249.503906 1105.917969 250.160156 C 1106.527344 250.8125 1107.066406 251.519531 1107.535156 252.28125 C 1108.007812 253.042969 1108.398438 253.839844 1108.710938 254.679688 C 1109.023438 255.515625 1109.25 256.375 1109.394531 257.257812 Z M 1109.394531 257.257812 " fill-opacity="1" fill-rule="nonzero"/><path fill="#ed1c24" d="M 1046.757812 554.785156 C 1047.582031 555.128906 1048.367188 555.546875 1049.109375 556.042969 C 1049.855469 556.539062 1050.542969 557.105469 1051.171875 557.738281 C 1051.804688 558.371094 1052.371094 559.058594 1052.867188 559.800781 C 1053.363281 560.542969 1053.785156 561.328125 1054.125 562.15625 C 1054.46875 562.980469 1054.726562 563.832031 1054.902344 564.710938 C 1055.074219 565.585938 1055.160156 566.472656 1055.160156 567.367188 C 1055.160156 568.261719 1055.074219 569.148438 1054.902344 570.023438 C 1054.726562 570.902344 1054.46875 571.753906 1054.125 572.578125 C 1053.785156 573.40625 1053.363281 574.1875 1052.867188 574.933594 C 1052.371094 575.675781 1051.804688 576.363281 1051.171875 576.996094 C 1050.542969 577.628906 1049.855469 578.195312 1049.109375 578.691406 C 1048.367188 579.1875 1047.582031 579.605469 1046.757812 579.949219 C 1045.929688 580.289062 1045.078125 580.550781 1044.203125 580.722656 C 1043.324219 580.898438 1042.4375 580.984375 1041.542969 580.984375 C 1040.652344 580.984375 1039.765625 580.898438 1038.886719 580.722656 C 1038.011719 580.550781 1037.160156 580.289062 1036.332031 579.949219 C 1035.507812 579.605469 1034.722656 579.1875 1033.980469 578.691406 C 1033.234375 578.195312 1032.546875 577.628906 1031.914062 576.996094 C 1031.285156 576.363281 1030.71875 575.675781 1030.222656 574.933594 C 1029.726562 574.191406 1029.304688 573.40625 1028.964844 572.578125 C 1028.621094 571.753906 1028.363281 570.902344 1028.1875 570.023438 C 1028.015625 569.148438 1027.925781 568.261719 1027.925781 567.367188 C 1027.925781 566.472656 1028.015625 565.585938 1028.1875 564.710938 C 1028.363281 563.832031 1028.621094 562.980469 1028.964844 562.15625 C 1029.304688 561.328125 1029.726562 560.542969 1030.222656 559.800781 C 1030.71875 559.058594 1031.285156 558.371094 1031.914062 557.738281 C 1032.546875 557.105469 1033.234375 556.539062 1033.980469 556.042969 C 1034.722656 555.546875 1035.507812 555.128906 1036.332031 554.785156 C 1037.160156 554.441406 1038.011719 554.183594 1038.886719 554.011719 C 1039.765625 553.835938 1040.652344 553.75 1041.542969 553.75 C 1042.4375 553.75 1043.324219 553.835938 1044.203125 554.011719 C 1045.078125 554.183594 1045.929688 554.441406 1046.757812 554.785156 Z M 1046.757812 554.785156 " fill-opacity="1" fill-rule="nonzero"/><path fill="#ed1c24" d="M 776.257812 618.519531 C 776.257812 619.414062 776.171875 620.296875 775.996094 621.175781 C 775.820312 622.050781 775.5625 622.902344 775.222656 623.730469 C 774.878906 624.554688 774.460938 625.339844 773.960938 626.085938 C 773.464844 626.828125 772.902344 627.515625 772.269531 628.148438 C 771.636719 628.78125 770.949219 629.34375 770.207031 629.839844 C 769.460938 630.339844 768.675781 630.757812 767.851562 631.101562 C 767.023438 631.441406 766.171875 631.699219 765.296875 631.875 C 764.421875 632.050781 763.535156 632.136719 762.640625 632.136719 C 761.746094 632.136719 760.859375 632.050781 759.984375 631.875 C 759.105469 631.699219 758.253906 631.441406 757.429688 631.101562 C 756.601562 630.757812 755.816406 630.339844 755.074219 629.839844 C 754.332031 629.34375 753.644531 628.78125 753.011719 628.148438 C 752.378906 627.515625 751.816406 626.828125 751.316406 626.085938 C 750.820312 625.339844 750.402344 624.554688 750.058594 623.730469 C 749.71875 622.902344 749.460938 622.050781 749.285156 621.175781 C 749.109375 620.296875 749.023438 619.414062 749.023438 618.519531 C 749.023438 617.625 749.109375 616.738281 749.285156 615.863281 C 749.460938 614.984375 749.71875 614.132812 750.058594 613.308594 C 750.402344 612.480469 750.820312 611.695312 751.316406 610.953125 C 751.816406 610.210938 752.378906 609.519531 753.011719 608.890625 C 753.644531 608.257812 754.332031 607.691406 755.074219 607.195312 C 755.816406 606.699219 756.601562 606.277344 757.429688 605.9375 C 758.253906 605.59375 759.105469 605.335938 759.984375 605.160156 C 760.859375 604.988281 761.746094 604.898438 762.640625 604.898438 C 763.535156 604.898438 764.421875 604.988281 765.296875 605.160156 C 766.171875 605.335938 767.023438 605.59375 767.851562 605.9375 C 768.675781 606.277344 769.460938 606.699219 770.207031 607.195312 C 770.949219 607.691406 771.636719 608.257812 772.269531 608.890625 C 772.902344 609.519531 773.464844 610.210938 773.960938 610.953125 C 774.460938 611.695312 774.878906 612.480469 775.222656 613.308594 C 775.5625 614.132812 775.820312 614.984375 775.996094 615.863281 C 776.171875 616.738281 776.257812 617.625 776.257812 618.519531 Z M 776.257812 618.519531 " fill-opacity="1" fill-rule="nonzero"/><g clip-path="url(#247918401c)"><path fill="#ed1c24" d="M 451.320312 436.445312 C 451.320312 437.339844 451.234375 438.226562 451.058594 439.101562 C 450.882812 439.980469 450.625 440.832031 450.285156 441.65625 C 449.941406 442.484375 449.523438 443.269531 449.023438 444.011719 C 448.527344 444.753906 447.964844 445.441406 447.332031 446.074219 C 446.699219 446.707031 446.011719 447.273438 445.269531 447.769531 C 444.523438 448.265625 443.738281 448.683594 442.914062 449.027344 C 442.085938 449.371094 441.234375 449.628906 440.359375 449.800781 C 439.480469 449.976562 438.597656 450.0625 437.703125 450.0625 C 436.808594 450.0625 435.921875 449.976562 435.046875 449.800781 C 434.167969 449.628906 433.316406 449.371094 432.492188 449.027344 C 431.664062 448.683594 430.878906 448.265625 430.136719 447.769531 C 429.394531 447.273438 428.707031 446.707031 428.074219 446.074219 C 427.441406 445.441406 426.878906 444.753906 426.378906 444.011719 C 425.882812 443.269531 425.464844 442.484375 425.121094 441.65625 C 424.78125 440.832031 424.523438 439.980469 424.347656 439.101562 C 424.171875 438.226562 424.085938 437.339844 424.085938 436.445312 C 424.085938 435.550781 424.171875 434.667969 424.347656 433.789062 C 424.523438 432.910156 424.78125 432.058594 425.121094 431.234375 C 425.464844 430.410156 425.882812 429.625 426.378906 428.878906 C 426.878906 428.136719 427.441406 427.449219 428.074219 426.816406 C 428.707031 426.183594 429.394531 425.621094 430.136719 425.121094 C 430.878906 424.625 431.664062 424.207031 432.492188 423.863281 C 433.316406 423.523438 434.167969 423.265625 435.046875 423.089844 C 435.921875 422.914062 436.808594 422.828125 437.703125 422.828125 C 438.597656 422.828125 439.480469 422.914062 440.359375 423.089844 C 441.234375 423.265625 442.085938 423.523438 442.914062 423.863281 C 443.738281 424.207031 444.523438 424.625 445.269531 425.121094 C 446.011719 425.621094 446.699219 426.183594 447.332031 426.816406 C 447.964844 427.449219 448.527344 428.136719 449.023438 428.878906 C 449.523438 429.625 449.941406 430.410156 450.285156 431.234375 C 450.625 432.058594 450.882812 432.910156 451.058594 433.789062 C 451.234375 434.667969 451.320312 435.550781 451.320312 436.445312 Z M 451.320312 436.445312 " fill-opacity="1" fill-rule="nonzero"/></g><path fill="#ed1c24" d="M 518.472656 91.191406 C 519.300781 91.53125 520.085938 91.953125 520.828125 92.449219 C 521.570312 92.945312 522.261719 93.507812 522.890625 94.140625 C 523.523438 94.773438 524.089844 95.460938 524.585938 96.207031 C 525.082031 96.949219 525.5 97.734375 525.84375 98.558594 C 526.1875 99.386719 526.445312 100.238281 526.617188 101.113281 C 526.792969 101.992188 526.878906 102.878906 526.878906 103.769531 C 526.878906 104.664062 526.792969 105.550781 526.617188 106.429688 C 526.445312 107.304688 526.1875 108.15625 525.84375 108.984375 C 525.5 109.808594 525.082031 110.59375 524.585938 111.335938 C 524.089844 112.082031 523.523438 112.769531 522.890625 113.402344 C 522.261719 114.03125 521.570312 114.597656 520.828125 115.09375 C 520.085938 115.589844 519.300781 116.011719 518.472656 116.351562 C 517.648438 116.695312 516.796875 116.953125 515.921875 117.128906 C 515.042969 117.300781 514.15625 117.390625 513.261719 117.390625 C 512.371094 117.390625 511.484375 117.300781 510.605469 117.128906 C 509.730469 116.953125 508.878906 116.695312 508.050781 116.351562 C 507.226562 116.011719 506.441406 115.589844 505.699219 115.09375 C 504.953125 114.597656 504.265625 114.03125 503.632812 113.402344 C 503.003906 112.769531 502.4375 112.082031 501.941406 111.335938 C 501.445312 110.59375 501.023438 109.808594 500.683594 108.984375 C 500.339844 108.15625 500.082031 107.304688 499.90625 106.429688 C 499.734375 105.550781 499.644531 104.664062 499.644531 103.769531 C 499.644531 102.878906 499.734375 101.992188 499.90625 101.113281 C 500.082031 100.238281 500.339844 99.386719 500.683594 98.558594 C 501.023438 97.734375 501.445312 96.949219 501.941406 96.207031 C 502.4375 95.460938 503.003906 94.773438 503.632812 94.140625 C 504.265625 93.507812 504.953125 92.945312 505.699219 92.449219 C 506.441406 91.953125 507.226562 91.53125 508.050781 91.191406 C 508.878906 90.847656 509.730469 90.589844 510.605469 90.414062 C 511.484375 90.242188 512.371094 90.152344 513.261719 90.152344 C 514.15625 90.152344 515.042969 90.238281 515.921875 90.414062 C 516.796875 90.589844 517.648438 90.847656 518.472656 91.191406 Z M 518.472656 91.191406 " fill-opacity="1" fill-rule="nonzero"/><path fill="#ed1c24" d="M 450.167969 203.996094 C 450.996094 204.339844 451.777344 204.757812 452.523438 205.253906 C 453.265625 205.753906 453.953125 206.316406 454.585938 206.949219 C 455.21875 207.582031 455.78125 208.269531 456.28125 209.011719 C 456.777344 209.757812 457.195312 210.539062 457.539062 211.367188 C 457.878906 212.191406 458.136719 213.042969 458.3125 213.921875 C 458.488281 214.796875 458.574219 215.683594 458.574219 216.578125 C 458.574219 217.472656 458.488281 218.359375 458.3125 219.234375 C 458.136719 220.113281 457.878906 220.964844 457.539062 221.789062 C 457.195312 222.617188 456.777344 223.402344 456.28125 224.144531 C 455.78125 224.886719 455.21875 225.574219 454.585938 226.207031 C 453.953125 226.839844 453.265625 227.40625 452.523438 227.902344 C 451.777344 228.398438 450.996094 228.816406 450.167969 229.160156 C 449.34375 229.503906 448.492188 229.761719 447.613281 229.933594 C 446.738281 230.109375 445.851562 230.195312 444.957031 230.195312 C 444.0625 230.195312 443.175781 230.109375 442.300781 229.933594 C 441.421875 229.761719 440.570312 229.503906 439.746094 229.160156 C 438.917969 228.816406 438.136719 228.398438 437.390625 227.902344 C 436.648438 227.40625 435.960938 226.839844 435.328125 226.207031 C 434.695312 225.574219 434.132812 224.886719 433.632812 224.144531 C 433.136719 223.402344 432.71875 222.617188 432.375 221.789062 C 432.035156 220.964844 431.777344 220.113281 431.601562 219.234375 C 431.425781 218.359375 431.339844 217.472656 431.339844 216.578125 C 431.339844 215.683594 431.425781 214.796875 431.601562 213.921875 C 431.777344 213.042969 432.035156 212.191406 432.375 211.367188 C 432.71875 210.539062 433.136719 209.757812 433.632812 209.011719 C 434.132812 208.269531 434.695312 207.582031 435.328125 206.949219 C 435.960938 206.316406 436.648438 205.753906 437.390625 205.253906 C 438.136719 204.757812 438.917969 204.339844 439.746094 203.996094 C 440.570312 203.65625 441.421875 203.394531 442.300781 203.222656 C 443.175781 203.046875 444.0625 202.960938 444.957031 202.960938 C 445.851562 202.960938 446.738281 203.046875 447.613281 203.222656 C 448.492188 203.394531 449.34375 203.65625 450.167969 203.996094 Z M 450.167969 203.996094 " fill-opacity="1" fill-rule="nonzero"/><path fill="#ed1c24" d="M 520.261719 308.210938 C 520.261719 309.105469 520.175781 309.988281 520 310.867188 C 519.828125 311.742188 519.566406 312.59375 519.226562 313.421875 C 518.882812 314.246094 518.464844 315.03125 517.96875 315.773438 C 517.472656 316.519531 516.90625 317.207031 516.273438 317.839844 C 515.640625 318.472656 514.953125 319.035156 514.210938 319.53125 C 513.46875 320.03125 512.683594 320.449219 511.855469 320.789062 C 511.03125 321.132812 510.179688 321.390625 509.300781 321.566406 C 508.425781 321.742188 507.539062 321.828125 506.644531 321.828125 C 505.75 321.828125 504.867188 321.742188 503.988281 321.566406 C 503.113281 321.390625 502.261719 321.132812 501.433594 320.789062 C 500.609375 320.449219 499.824219 320.03125 499.078125 319.53125 C 498.335938 319.035156 497.648438 318.472656 497.015625 317.839844 C 496.382812 317.207031 495.820312 316.519531 495.324219 315.773438 C 494.828125 315.03125 494.40625 314.246094 494.066406 313.421875 C 493.722656 312.59375 493.464844 311.742188 493.289062 310.867188 C 493.117188 309.988281 493.027344 309.105469 493.027344 308.210938 C 493.027344 307.316406 493.117188 306.429688 493.289062 305.550781 C 493.464844 304.675781 493.722656 303.824219 494.066406 302.996094 C 494.40625 302.171875 494.828125 301.386719 495.324219 300.644531 C 495.820312 299.898438 496.382812 299.210938 497.015625 298.578125 C 497.648438 297.949219 498.335938 297.382812 499.078125 296.886719 C 499.824219 296.390625 500.609375 295.96875 501.433594 295.628906 C 502.261719 295.285156 503.113281 295.027344 503.988281 294.851562 C 504.867188 294.679688 505.75 294.589844 506.644531 294.589844 C 507.539062 294.589844 508.425781 294.679688 509.300781 294.851562 C 510.179688 295.027344 511.03125 295.285156 511.855469 295.628906 C 512.683594 295.96875 513.46875 296.390625 514.210938 296.886719 C 514.953125 297.382812 515.640625 297.949219 516.273438 298.578125 C 516.90625 299.210938 517.472656 299.898438 517.96875 300.644531 C 518.464844 301.386719 518.882812 302.171875 519.226562 302.996094 C 519.566406 303.824219 519.828125 304.675781 520 305.550781 C 520.175781 306.429688 520.261719 307.316406 520.261719 308.210938 Z M 520.261719 308.210938 " fill-opacity="1" fill-rule="nonzero"/><path fill="#ed1c24" d="M 564.710938 558.847656 C 564.710938 559.738281 564.625 560.625 564.449219 561.503906 C 564.273438 562.378906 564.015625 563.230469 563.675781 564.058594 C 563.332031 564.882812 562.914062 565.667969 562.414062 566.410156 C 561.917969 567.15625 561.355469 567.84375 560.722656 568.476562 C 560.089844 569.109375 559.402344 569.671875 558.660156 570.167969 C 557.914062 570.664062 557.128906 571.085938 556.304688 571.425781 C 555.476562 571.769531 554.625 572.027344 553.75 572.203125 C 552.871094 572.378906 551.988281 572.464844 551.09375 572.464844 C 550.199219 572.464844 549.3125 572.378906 548.4375 572.203125 C 547.558594 572.027344 546.707031 571.769531 545.882812 571.425781 C 545.054688 571.085938 544.269531 570.664062 543.527344 570.167969 C 542.785156 569.671875 542.097656 569.109375 541.464844 568.476562 C 540.832031 567.84375 540.265625 567.15625 539.769531 566.410156 C 539.273438 565.667969 538.855469 564.882812 538.511719 564.058594 C 538.171875 563.230469 537.910156 562.378906 537.738281 561.503906 C 537.5625 560.625 537.476562 559.738281 537.476562 558.847656 C 537.476562 557.953125 537.5625 557.066406 537.738281 556.1875 C 537.910156 555.3125 538.171875 554.460938 538.511719 553.632812 C 538.855469 552.808594 539.273438 552.023438 539.769531 551.28125 C 540.265625 550.535156 540.832031 549.847656 541.464844 549.214844 C 542.097656 548.585938 542.785156 548.019531 543.527344 547.523438 C 544.269531 547.027344 545.054688 546.605469 545.882812 546.265625 C 546.707031 545.921875 547.558594 545.664062 548.4375 545.488281 C 549.3125 545.316406 550.199219 545.226562 551.09375 545.226562 C 551.988281 545.226562 552.871094 545.316406 553.75 545.488281 C 554.625 545.664062 555.476562 545.921875 556.304688 546.265625 C 557.128906 546.605469 557.914062 547.027344 558.660156 547.523438 C 559.402344 548.019531 560.089844 548.585938 560.722656 549.214844 C 561.355469 549.847656 561.917969 550.535156 562.414062 551.28125 C 562.914062 552.023438 563.332031 552.808594 563.675781 553.632812 C 564.015625 554.460938 564.273438 555.3125 564.449219 556.1875 C 564.625 557.066406 564.710938 557.953125 564.710938 558.847656 Z M 564.710938 558.847656 " fill-opacity="1" fill-rule="nonzero"/><path fill="#ed1c24" d="M 1012.605469 73.578125 C 1013.433594 73.921875 1014.214844 74.339844 1014.960938 74.839844 C 1015.703125 75.335938 1016.390625 75.898438 1017.023438 76.53125 C 1017.65625 77.164062 1018.21875 77.851562 1018.71875 78.597656 C 1019.214844 79.339844 1019.632812 80.125 1019.976562 80.949219 C 1020.316406 81.777344 1020.574219 82.628906 1020.75 83.503906 C 1020.925781 84.382812 1021.011719 85.265625 1021.011719 86.160156 C 1021.011719 87.054688 1020.925781 87.941406 1020.75 88.816406 C 1020.574219 89.695312 1020.316406 90.546875 1019.976562 91.371094 C 1019.632812 92.199219 1019.214844 92.984375 1018.71875 93.726562 C 1018.21875 94.472656 1017.65625 95.160156 1017.023438 95.792969 C 1016.390625 96.421875 1015.703125 96.988281 1014.960938 97.484375 C 1014.214844 97.980469 1013.433594 98.402344 1012.605469 98.742188 C 1011.78125 99.085938 1010.929688 99.34375 1010.050781 99.519531 C 1009.175781 99.691406 1008.289062 99.78125 1007.394531 99.78125 C 1006.5 99.78125 1005.613281 99.691406 1004.738281 99.519531 C 1003.859375 99.34375 1003.007812 99.085938 1002.183594 98.742188 C 1001.359375 98.402344 1000.574219 97.980469 999.828125 97.484375 C 999.085938 96.988281 998.398438 96.421875 997.765625 95.792969 C 997.132812 95.160156 996.570312 94.472656 996.074219 93.726562 C 995.574219 92.984375 995.15625 92.199219 994.8125 91.375 C 994.472656 90.546875 994.214844 89.695312 994.039062 88.820312 C 993.863281 87.941406 993.777344 87.054688 993.777344 86.160156 C 993.777344 85.265625 993.863281 84.382812 994.039062 83.503906 C 994.214844 82.628906 994.472656 81.777344 994.8125 80.949219 C 995.15625 80.125 995.574219 79.339844 996.074219 78.59375 C 996.570312 77.851562 997.132812 77.164062 997.765625 76.53125 C 998.398438 75.898438 999.085938 75.335938 999.828125 74.839844 C 1000.574219 74.339844 1001.359375 73.921875 1002.183594 73.578125 C 1003.007812 73.238281 1003.859375 72.980469 1004.738281 72.804688 C 1005.613281 72.628906 1006.5 72.542969 1007.394531 72.542969 C 1008.289062 72.542969 1009.175781 72.628906 1010.050781 72.804688 C 1010.929688 72.980469 1011.78125 73.238281 1012.605469 73.578125 Z M 1012.605469 73.578125 " fill-opacity="1" fill-rule="nonzero"/><g clip-path="url(#3f5878bede)"><path fill="#ed1c24" d="M 609.371094 623.019531 C 609.371094 623.664062 609.339844 624.308594 609.277344 624.953125 C 609.210938 625.597656 609.117188 626.234375 608.992188 626.867188 C 608.867188 627.5 608.707031 628.128906 608.519531 628.746094 C 608.332031 629.363281 608.117188 629.972656 607.867188 630.570312 C 607.621094 631.164062 607.347656 631.75 607.042969 632.320312 C 606.738281 632.890625 606.40625 633.441406 606.046875 633.980469 C 605.6875 634.515625 605.300781 635.035156 604.894531 635.535156 C 604.484375 636.035156 604.050781 636.511719 603.59375 636.96875 C 603.136719 637.425781 602.65625 637.859375 602.160156 638.269531 C 601.660156 638.679688 601.140625 639.0625 600.601562 639.421875 C 600.066406 639.78125 599.511719 640.113281 598.941406 640.417969 C 598.371094 640.722656 597.789062 641 597.191406 641.246094 C 596.597656 641.492188 595.988281 641.710938 595.371094 641.898438 C 594.75 642.085938 594.125 642.242188 593.492188 642.367188 C 592.859375 642.496094 592.21875 642.589844 591.578125 642.652344 C 590.933594 642.714844 590.289062 642.746094 589.644531 642.746094 C 588.996094 642.746094 588.351562 642.714844 587.710938 642.652344 C 587.066406 642.589844 586.429688 642.496094 585.792969 642.367188 C 585.160156 642.242188 584.535156 642.085938 583.917969 641.898438 C 583.296875 641.710938 582.691406 641.492188 582.09375 641.246094 C 581.496094 641 580.914062 640.722656 580.34375 640.417969 C 579.773438 640.113281 579.222656 639.78125 578.683594 639.421875 C 578.144531 639.0625 577.628906 638.679688 577.128906 638.269531 C 576.628906 637.859375 576.152344 637.425781 575.695312 636.96875 C 575.238281 636.511719 574.804688 636.035156 574.394531 635.535156 C 573.984375 635.035156 573.601562 634.515625 573.242188 633.980469 C 572.882812 633.441406 572.550781 632.890625 572.246094 632.320312 C 571.941406 631.75 571.664062 631.164062 571.417969 630.570312 C 571.171875 629.972656 570.953125 629.363281 570.765625 628.746094 C 570.578125 628.128906 570.421875 627.5 570.296875 626.867188 C 570.167969 626.234375 570.074219 625.597656 570.011719 624.953125 C 569.949219 624.308594 569.917969 623.664062 569.917969 623.019531 C 569.917969 622.371094 569.949219 621.726562 570.011719 621.085938 C 570.074219 620.441406 570.167969 619.804688 570.296875 619.171875 C 570.421875 618.535156 570.578125 617.910156 570.765625 617.292969 C 570.953125 616.671875 571.171875 616.066406 571.417969 615.46875 C 571.664062 614.871094 571.941406 614.289062 572.246094 613.71875 C 572.550781 613.148438 572.882812 612.59375 573.242188 612.058594 C 573.601562 611.519531 573.984375 611.003906 574.394531 610.503906 C 574.804688 610.003906 575.238281 609.527344 575.695312 609.070312 C 576.152344 608.613281 576.628906 608.179688 577.128906 607.769531 C 577.628906 607.359375 578.144531 606.972656 578.683594 606.613281 C 579.222656 606.257812 579.773438 605.925781 580.34375 605.621094 C 580.914062 605.316406 581.496094 605.039062 582.09375 604.792969 C 582.691406 604.542969 583.296875 604.328125 583.917969 604.140625 C 584.535156 603.953125 585.160156 603.796875 585.792969 603.667969 C 586.429688 603.542969 587.066406 603.449219 587.710938 603.386719 C 588.351562 603.320312 588.996094 603.289062 589.644531 603.289062 C 590.289062 603.289062 590.933594 603.320312 591.578125 603.386719 C 592.21875 603.449219 592.859375 603.542969 593.492188 603.667969 C 594.125 603.796875 594.75 603.953125 595.371094 604.140625 C 595.988281 604.328125 596.597656 604.542969 597.191406 604.792969 C 597.789062 605.039062 598.371094 605.316406 598.941406 605.621094 C 599.511719 605.925781 600.066406 606.257812 600.601562 606.613281 C 601.140625 606.972656 601.660156 607.359375 602.160156 607.769531 C 602.65625 608.179688 603.136719 608.613281 603.59375 609.070312 C 604.050781 609.527344 604.484375 610.003906 604.894531 610.503906 C 605.300781 611.003906 605.6875 611.519531 606.046875 612.058594 C 606.40625 612.59375 606.738281 613.148438 607.042969 613.71875 C 607.347656 614.289062 607.621094 614.871094 607.867188 615.46875 C 608.117188 616.066406 608.332031 616.671875 608.519531 617.292969 C 608.707031 617.910156 608.867188 618.535156 608.992188 619.171875 C 609.117188 619.804688 609.210938 620.441406 609.277344 621.085938 C 609.339844 621.726562 609.371094 622.371094 609.371094 623.019531 Z M 609.371094 623.019531 " fill-opacity="1" fill-rule="nonzero"/></g></svg>