<svg xmlns="http://www.w3.org/2000/svg" xmlns:xlink="http://www.w3.org/1999/xlink" width="2048" zoomAndPan="magnify" viewBox="0 0 1536 708.749996" height="945" preserveAspectRatio="xMidYMid meet" version="1.0"><defs><clipPath id="96ee2b6df1"><path d="M 388 248 L 1464.609375 248 L 1464.609375 601 L 388 601 Z M 388 248 " clip-rule="nonzero"/></clipPath><clipPath id="7b48f5d7de"><path d="M 46.109375 136 L 537 136 L 537 627.902344 L 46.109375 627.902344 Z M 46.109375 136 " clip-rule="nonzero"/></clipPath></defs><g clip-path="url(#96ee2b6df1)"><path fill="#feb500" d="M 1288.289062 600.875 L 388.660156 600.875 L 388.660156 248.035156 L 1288.289062 248.035156 C 1385.667969 248.035156 1464.617188 327.023438 1464.617188 424.453125 C 1464.617188 521.886719 1385.667969 600.875 1288.289062 600.875 Z M 1288.289062 600.875 " fill-opacity="1" fill-rule="nonzero"/></g><path fill="#fc2539" d="M 972.34375 305.035156 L 311.507812 305.035156 L 311.507812 177.320312 L 972.34375 177.320312 C 1007.59375 177.320312 1036.167969 205.910156 1036.167969 241.179688 C 1036.167969 276.449219 1007.59375 305.035156 972.34375 305.035156 Z M 972.34375 305.035156 " fill-opacity="1" fill-rule="nonzero"/><path fill="#feb500" d="M 509.863281 382.214844 C 509.863281 385.792969 509.773438 389.371094 509.597656 392.945312 C 509.421875 396.519531 509.160156 400.085938 508.808594 403.648438 C 508.460938 407.207031 508.023438 410.757812 507.496094 414.300781 C 506.972656 417.839844 506.359375 421.363281 505.664062 424.875 C 504.964844 428.382812 504.183594 431.875 503.3125 435.34375 C 502.445312 438.816406 501.488281 442.265625 500.453125 445.6875 C 499.414062 449.113281 498.292969 452.511719 497.085938 455.878906 C 495.882812 459.25 494.59375 462.585938 493.226562 465.894531 C 491.859375 469.199219 490.410156 472.46875 488.878906 475.703125 C 487.351562 478.941406 485.742188 482.136719 484.054688 485.292969 C 482.371094 488.445312 480.609375 491.558594 478.769531 494.628906 C 476.929688 497.699219 475.015625 500.722656 473.03125 503.695312 C 471.042969 506.671875 468.984375 509.597656 466.855469 512.472656 C 464.722656 515.34375 462.523438 518.164062 460.253906 520.933594 C 457.984375 523.699219 455.648438 526.40625 453.246094 529.058594 C 450.84375 531.710938 448.378906 534.300781 445.851562 536.832031 C 443.320312 539.363281 440.730469 541.828125 438.082031 544.230469 C 435.433594 546.636719 432.722656 548.972656 429.960938 551.242188 C 427.195312 553.511719 424.375 555.714844 421.503906 557.84375 C 418.628906 559.976562 415.707031 562.035156 412.734375 564.023438 C 409.757812 566.011719 406.738281 567.925781 403.671875 569.765625 C 400.601562 571.605469 397.492188 573.371094 394.335938 575.058594 C 391.183594 576.742188 387.988281 578.351562 384.753906 579.882812 C 381.523438 581.414062 378.253906 582.863281 374.949219 584.230469 C 371.644531 585.601562 368.308594 586.886719 364.941406 588.09375 C 361.574219 589.300781 358.179688 590.421875 354.753906 591.460938 C 351.332031 592.5 347.886719 593.453125 344.417969 594.324219 C 340.949219 595.191406 337.457031 595.976562 333.949219 596.675781 C 330.441406 597.371094 326.917969 597.984375 323.382812 598.507812 C 319.84375 599.035156 316.296875 599.472656 312.734375 599.824219 C 309.175781 600.175781 305.609375 600.4375 302.039062 600.613281 C 298.464844 600.789062 294.890625 600.875 291.3125 600.875 C 287.738281 600.875 284.164062 600.789062 280.589844 600.613281 C 277.019531 600.4375 273.453125 600.175781 269.894531 599.824219 C 266.332031 599.472656 262.785156 599.035156 259.246094 598.507812 C 255.707031 597.984375 252.1875 597.371094 248.675781 596.675781 C 245.167969 595.976562 241.679688 595.191406 238.210938 594.324219 C 234.742188 593.453125 231.296875 592.5 227.875 591.460938 C 224.449219 590.421875 221.054688 589.300781 217.6875 588.09375 C 214.320312 586.886719 210.984375 585.601562 207.679688 584.230469 C 204.375 582.863281 201.105469 581.414062 197.871094 579.882812 C 194.640625 578.351562 191.445312 576.742188 188.292969 575.058594 C 185.136719 573.371094 182.027344 571.605469 178.957031 569.765625 C 175.890625 567.925781 172.871094 566.011719 169.894531 564.023438 C 166.921875 562.035156 164 559.976562 161.125 557.84375 C 158.253906 555.714844 155.433594 553.511719 152.667969 551.242188 C 149.902344 548.972656 147.195312 546.636719 144.546875 544.230469 C 141.894531 541.828125 139.304688 539.363281 136.777344 536.832031 C 134.25 534.300781 131.78125 531.710938 129.378906 529.058594 C 126.980469 526.40625 124.644531 523.699219 122.375 520.933594 C 120.105469 518.164062 117.90625 515.34375 115.773438 512.472656 C 113.644531 509.597656 111.585938 506.671875 109.597656 503.695312 C 107.609375 500.722656 105.699219 497.699219 103.859375 494.628906 C 102.019531 491.558594 100.257812 488.445312 98.570312 485.292969 C 96.886719 482.136719 95.277344 478.941406 93.75 475.703125 C 92.21875 472.46875 90.769531 469.199219 89.402344 465.894531 C 88.035156 462.585938 86.746094 459.25 85.542969 455.878906 C 84.335938 452.511719 83.214844 449.113281 82.175781 445.6875 C 81.136719 442.265625 80.183594 438.816406 79.316406 435.34375 C 78.445312 431.875 77.664062 428.382812 76.964844 424.875 C 76.269531 421.363281 75.65625 417.839844 75.132812 414.300781 C 74.605469 410.757812 74.167969 407.207031 73.820312 403.648438 C 73.46875 400.085938 73.203125 396.519531 73.03125 392.945312 C 72.855469 389.371094 72.765625 385.792969 72.765625 382.214844 C 72.765625 378.636719 72.855469 375.058594 73.03125 371.484375 C 73.203125 367.910156 73.46875 364.34375 73.820312 360.78125 C 74.167969 357.222656 74.605469 353.671875 75.132812 350.128906 C 75.65625 346.589844 76.269531 343.066406 76.964844 339.554688 C 77.664062 336.046875 78.445312 332.554688 79.316406 329.085938 C 80.183594 325.613281 81.136719 322.164062 82.175781 318.742188 C 83.214844 315.316406 84.335938 311.917969 85.542969 308.550781 C 86.746094 305.179688 88.035156 301.84375 89.402344 298.535156 C 90.769531 295.230469 92.21875 291.960938 93.75 288.726562 C 95.277344 285.488281 96.886719 282.292969 98.570312 279.140625 C 100.257812 275.984375 102.019531 272.871094 103.859375 269.800781 C 105.699219 266.730469 107.609375 263.707031 109.597656 260.734375 C 111.585938 257.757812 113.644531 254.832031 115.773438 251.957031 C 117.90625 249.085938 120.105469 246.265625 122.375 243.496094 C 124.644531 240.730469 126.980469 238.023438 129.378906 235.371094 C 131.78125 232.71875 134.25 230.128906 136.777344 227.597656 C 139.304688 225.066406 141.894531 222.601562 144.546875 220.199219 C 147.195312 217.792969 149.902344 215.457031 152.667969 213.1875 C 155.433594 210.917969 158.253906 208.714844 161.125 206.585938 C 164 204.453125 166.921875 202.394531 169.894531 200.40625 C 172.871094 198.417969 175.890625 196.503906 178.957031 194.664062 C 182.027344 192.824219 185.136719 191.058594 188.292969 189.371094 C 191.445312 187.6875 194.640625 186.078125 197.871094 184.546875 C 201.105469 183.015625 204.375 181.566406 207.679688 180.199219 C 210.984375 178.828125 214.320312 177.542969 217.6875 176.335938 C 221.054688 175.128906 224.449219 174.007812 227.875 172.96875 C 231.296875 171.929688 234.742188 170.976562 238.210938 170.105469 C 241.679688 169.238281 245.167969 168.453125 248.675781 167.753906 C 252.1875 167.058594 255.707031 166.445312 259.246094 165.921875 C 262.785156 165.394531 266.332031 164.957031 269.894531 164.605469 C 273.453125 164.257812 277.019531 163.992188 280.589844 163.816406 C 284.164062 163.640625 287.738281 163.554688 291.3125 163.554688 C 294.890625 163.554688 298.464844 163.640625 302.039062 163.816406 C 305.609375 163.992188 309.175781 164.257812 312.734375 164.605469 C 316.296875 164.957031 319.84375 165.394531 323.382812 165.921875 C 326.917969 166.445312 330.441406 167.058594 333.949219 167.753906 C 337.457031 168.453125 340.949219 169.238281 344.417969 170.105469 C 347.886719 170.976562 351.332031 171.929688 354.753906 172.96875 C 358.179688 174.007812 361.574219 175.128906 364.941406 176.335938 C 368.308594 177.542969 371.644531 178.828125 374.949219 180.199219 C 378.253906 181.566406 381.523438 183.015625 384.753906 184.546875 C 387.988281 186.078125 391.183594 187.6875 394.335938 189.371094 C 397.492188 191.058594 400.601562 192.824219 403.671875 194.664062 C 406.738281 196.503906 409.757812 198.417969 412.734375 200.40625 C 415.707031 202.394531 418.628906 204.453125 421.503906 206.585938 C 424.375 208.714844 427.195312 210.917969 429.960938 213.1875 C 432.722656 215.457031 435.433594 217.792969 438.082031 220.199219 C 440.730469 222.601562 443.320312 225.066406 445.851562 227.597656 C 448.378906 230.128906 450.84375 232.71875 453.246094 235.371094 C 455.648438 238.023438 457.984375 240.730469 460.253906 243.496094 C 462.523438 246.265625 464.722656 249.085938 466.855469 251.957031 C 468.984375 254.832031 471.042969 257.757812 473.03125 260.734375 C 475.015625 263.707031 476.929688 266.730469 478.769531 269.800781 C 480.609375 272.871094 482.371094 275.984375 484.054688 279.140625 C 485.742188 282.292969 487.351562 285.488281 488.878906 288.726562 C 490.410156 291.960938 491.859375 295.230469 493.226562 298.535156 C 494.59375 301.84375 495.882812 305.179688 497.085938 308.550781 C 498.292969 311.917969 499.414062 315.316406 500.453125 318.742188 C 501.488281 322.164062 502.445312 325.613281 503.3125 329.085938 C 504.183594 332.554688 504.964844 336.046875 505.664062 339.554688 C 506.359375 343.066406 506.972656 346.589844 507.496094 350.128906 C 508.023438 353.671875 508.460938 357.222656 508.808594 360.78125 C 509.160156 364.34375 509.421875 367.910156 509.597656 371.484375 C 509.773438 375.058594 509.863281 378.636719 509.863281 382.214844 Z M 509.863281 382.214844 " fill-opacity="1" fill-rule="nonzero"/><path fill="#ffffff" d="M 469.886719 382.214844 C 469.886719 385.140625 469.816406 388.0625 469.671875 390.980469 C 469.527344 393.902344 469.3125 396.816406 469.027344 399.726562 C 468.742188 402.636719 468.382812 405.539062 467.953125 408.429688 C 467.523438 411.324219 467.027344 414.203125 466.457031 417.070312 C 465.886719 419.9375 465.246094 422.789062 464.535156 425.628906 C 463.824219 428.464844 463.046875 431.28125 462.199219 434.078125 C 461.347656 436.875 460.433594 439.652344 459.449219 442.40625 C 458.464844 445.160156 457.414062 447.886719 456.292969 450.585938 C 455.175781 453.289062 453.992188 455.960938 452.742188 458.605469 C 451.492188 461.246094 450.179688 463.859375 448.800781 466.4375 C 447.421875 469.015625 445.984375 471.558594 444.480469 474.066406 C 442.980469 476.574219 441.414062 479.042969 439.792969 481.476562 C 438.167969 483.90625 436.484375 486.296875 434.746094 488.644531 C 433.003906 490.996094 431.207031 493.296875 429.351562 495.558594 C 427.5 497.820312 425.589844 500.03125 423.628906 502.199219 C 421.664062 504.367188 419.652344 506.484375 417.585938 508.550781 C 415.519531 510.617188 413.402344 512.632812 411.234375 514.597656 C 409.070312 516.5625 406.859375 518.46875 404.597656 520.324219 C 402.339844 522.179688 400.039062 523.976562 397.691406 525.71875 C 395.34375 527.460938 392.953125 529.144531 390.523438 530.769531 C 388.09375 532.394531 385.625 533.957031 383.117188 535.460938 C 380.613281 536.964844 378.070312 538.40625 375.492188 539.785156 C 372.914062 541.160156 370.304688 542.476562 367.664062 543.726562 C 365.023438 544.976562 362.351562 546.160156 359.652344 547.28125 C 356.949219 548.398438 354.226562 549.449219 351.472656 550.4375 C 348.722656 551.421875 345.949219 552.339844 343.152344 553.1875 C 340.355469 554.035156 337.539062 554.816406 334.703125 555.527344 C 331.867188 556.238281 329.019531 556.875 326.152344 557.449219 C 323.285156 558.019531 320.40625 558.515625 317.515625 558.945312 C 314.625 559.375 311.726562 559.734375 308.816406 560.019531 C 305.910156 560.304688 302.996094 560.523438 300.078125 560.664062 C 297.15625 560.808594 294.238281 560.878906 291.3125 560.878906 C 288.390625 560.878906 285.472656 560.808594 282.550781 560.664062 C 279.632812 560.523438 276.71875 560.304688 273.8125 560.019531 C 270.902344 559.734375 268.003906 559.375 265.113281 558.945312 C 262.222656 558.515625 259.34375 558.019531 256.476562 557.449219 C 253.609375 556.875 250.757812 556.238281 247.925781 555.527344 C 245.089844 554.816406 242.273438 554.035156 239.476562 553.1875 C 236.679688 552.339844 233.90625 551.421875 231.15625 550.4375 C 228.402344 549.449219 225.675781 548.398438 222.976562 547.28125 C 220.277344 546.160156 217.605469 544.976562 214.964844 543.726562 C 212.324219 542.476562 209.714844 541.160156 207.136719 539.785156 C 204.558594 538.40625 202.015625 536.964844 199.507812 535.460938 C 197.003906 533.957031 194.535156 532.394531 192.105469 530.769531 C 189.675781 529.144531 187.285156 527.460938 184.9375 525.71875 C 182.589844 523.976562 180.289062 522.179688 178.027344 520.324219 C 175.769531 518.46875 173.558594 516.5625 171.390625 514.597656 C 169.226562 512.632812 167.109375 510.617188 165.042969 508.550781 C 162.976562 506.484375 160.964844 504.367188 159 502.199219 C 157.039062 500.03125 155.128906 497.820312 153.277344 495.558594 C 151.421875 493.296875 149.625 490.996094 147.882812 488.644531 C 146.140625 486.296875 144.460938 483.90625 142.835938 481.476562 C 141.210938 479.042969 139.648438 476.574219 138.148438 474.066406 C 136.644531 471.558594 135.203125 469.015625 133.828125 466.4375 C 132.449219 463.859375 131.136719 461.246094 129.886719 458.605469 C 128.636719 455.960938 127.453125 453.289062 126.335938 450.585938 C 125.214844 447.886719 124.164062 445.160156 123.179688 442.40625 C 122.195312 439.652344 121.277344 436.875 120.429688 434.078125 C 119.582031 431.28125 118.804688 428.464844 118.09375 425.628906 C 117.382812 422.789062 116.742188 419.9375 116.171875 417.070312 C 115.601562 414.203125 115.101562 411.324219 114.675781 408.429688 C 114.246094 405.539062 113.886719 402.636719 113.601562 399.726562 C 113.316406 396.816406 113.101562 393.902344 112.957031 390.980469 C 112.8125 388.0625 112.742188 385.140625 112.742188 382.214844 C 112.742188 379.292969 112.8125 376.367188 112.957031 373.449219 C 113.101562 370.527344 113.316406 367.613281 113.601562 364.703125 C 113.886719 361.792969 114.246094 358.890625 114.675781 356 C 115.101562 353.105469 115.601562 350.226562 116.171875 347.359375 C 116.742188 344.492188 117.382812 341.640625 118.09375 338.804688 C 118.804688 335.964844 119.582031 333.148438 120.429688 330.351562 C 121.277344 327.554688 122.195312 324.777344 123.179688 322.023438 C 124.164062 319.269531 125.214844 316.542969 126.335938 313.84375 C 127.453125 311.140625 128.636719 308.46875 129.886719 305.824219 C 131.136719 303.183594 132.449219 300.570312 133.828125 297.992188 C 135.203125 295.414062 136.644531 292.871094 138.148438 290.363281 C 139.648438 287.855469 141.210938 285.386719 142.835938 282.953125 C 144.460938 280.523438 146.140625 278.132812 147.882812 275.785156 C 149.625 273.4375 151.421875 271.132812 153.277344 268.871094 C 155.128906 266.609375 157.039062 264.398438 159 262.230469 C 160.964844 260.0625 162.976562 257.945312 165.042969 255.878906 C 167.109375 253.8125 169.226562 251.796875 171.390625 249.832031 C 173.558594 247.867188 175.769531 245.960938 178.027344 244.105469 C 180.289062 242.25 182.589844 240.453125 184.9375 238.710938 C 187.285156 236.96875 189.675781 235.285156 192.105469 233.660156 C 194.535156 232.035156 197.003906 230.472656 199.507812 228.96875 C 202.015625 227.464844 204.558594 226.023438 207.136719 224.644531 C 209.714844 223.269531 212.324219 221.953125 214.964844 220.703125 C 217.605469 219.453125 220.277344 218.269531 222.976562 217.148438 C 225.675781 216.03125 228.402344 214.980469 231.15625 213.992188 C 233.90625 213.007812 236.679688 212.089844 239.476562 211.242188 C 242.273438 210.394531 245.089844 209.613281 247.925781 208.902344 C 250.757812 208.195312 253.609375 207.554688 256.476562 206.984375 C 259.34375 206.414062 262.222656 205.914062 265.113281 205.484375 C 268.003906 205.054688 270.902344 204.695312 273.8125 204.410156 C 276.71875 204.125 279.632812 203.910156 282.550781 203.765625 C 285.472656 203.621094 288.390625 203.550781 291.3125 203.550781 C 294.238281 203.550781 297.15625 203.621094 300.078125 203.765625 C 302.996094 203.910156 305.910156 204.125 308.816406 204.410156 C 311.726562 204.695312 314.625 205.054688 317.515625 205.484375 C 320.40625 205.914062 323.285156 206.414062 326.152344 206.984375 C 329.019531 207.554688 331.867188 208.195312 334.703125 208.902344 C 337.539062 209.613281 340.355469 210.394531 343.152344 211.242188 C 345.949219 212.089844 348.722656 213.007812 351.472656 213.992188 C 354.226562 214.980469 356.949219 216.03125 359.652344 217.148438 C 362.351562 218.269531 365.023438 219.453125 367.664062 220.703125 C 370.304688 221.953125 372.914062 223.269531 375.492188 224.644531 C 378.070312 226.023438 380.613281 227.464844 383.117188 228.96875 C 385.625 230.472656 388.09375 232.035156 390.523438 233.660156 C 392.953125 235.285156 395.34375 236.96875 397.691406 238.710938 C 400.039062 240.453125 402.339844 242.25 404.597656 244.105469 C 406.859375 245.960938 409.070312 247.867188 411.234375 249.832031 C 413.402344 251.796875 415.519531 253.8125 417.585938 255.878906 C 419.652344 257.945312 421.664062 260.0625 423.628906 262.230469 C 425.589844 264.398438 427.5 266.609375 429.351562 268.871094 C 431.207031 271.132812 433.003906 273.4375 434.746094 275.785156 C 436.484375 278.132812 438.167969 280.523438 439.792969 282.953125 C 441.414062 285.386719 442.980469 287.855469 444.480469 290.363281 C 445.984375 292.871094 447.421875 295.414062 448.800781 297.992188 C 450.179688 300.570312 451.492188 303.183594 452.742188 305.824219 C 453.992188 308.46875 455.175781 311.140625 456.292969 313.84375 C 457.414062 316.542969 458.464844 319.269531 459.449219 322.023438 C 460.433594 324.777344 461.347656 327.554688 462.199219 330.351562 C 463.046875 333.148438 463.824219 335.964844 464.535156 338.804688 C 465.246094 341.640625 465.886719 344.492188 466.457031 347.359375 C 467.027344 350.226562 467.523438 353.105469 467.953125 356 C 468.382812 358.890625 468.742188 361.792969 469.027344 364.703125 C 469.3125 367.613281 469.527344 370.527344 469.671875 373.449219 C 469.816406 376.367188 469.886719 379.292969 469.886719 382.214844 Z M 469.886719 382.214844 " fill-opacity="1" fill-rule="nonzero"/><path fill="#fc2539" d="M 306.769531 382.214844 C 306.769531 374.703125 294.804688 294.148438 291.925781 274.875 C 291.820312 274.167969 290.796875 274.167969 290.695312 274.875 C 287.816406 294.148438 275.851562 374.703125 275.851562 382.214844 C 275.851562 390.757812 282.777344 397.679688 291.308594 397.679688 C 299.839844 397.679688 306.761719 390.75 306.761719 382.214844 Z M 306.769531 382.214844 " fill-opacity="1" fill-rule="nonzero"/><path fill="#feb500" d="M 299.046875 395.605469 C 305.550781 391.847656 369.296875 341.207031 384.535156 329.078125 C 385.097656 328.632812 384.585938 327.746094 383.914062 328.011719 C 365.792969 335.15625 290.089844 365.0625 283.582031 368.824219 C 276.191406 373.09375 273.660156 382.554688 277.921875 389.949219 C 282.191406 397.347656 291.644531 399.878906 299.039062 395.613281 Z M 299.046875 395.605469 " fill-opacity="1" fill-rule="nonzero"/><g clip-path="url(#7b48f5d7de)"><path fill="#98007e" d="M 291.3125 627.546875 C 258.226562 627.546875 226.113281 621.058594 195.867188 608.257812 C 166.664062 595.898438 140.441406 578.210938 117.933594 555.691406 C 95.425781 533.171875 77.75 506.9375 65.394531 477.71875 C 52.601562 447.457031 46.117188 415.328125 46.117188 382.222656 C 46.117188 349.117188 52.601562 316.984375 65.394531 286.722656 C 77.75 257.507812 95.425781 231.273438 117.933594 208.753906 C 140.441406 186.230469 166.664062 168.546875 195.867188 156.1875 C 226.113281 143.386719 258.226562 136.898438 291.3125 136.898438 C 324.402344 136.898438 356.515625 143.386719 386.761719 156.1875 C 415.964844 168.546875 442.1875 186.230469 464.695312 208.753906 C 487.203125 231.273438 504.878906 257.507812 517.234375 286.722656 C 530.027344 316.984375 536.511719 349.117188 536.511719 382.222656 C 536.511719 415.328125 530.027344 447.457031 517.234375 477.71875 C 504.878906 506.9375 487.203125 533.171875 464.695312 555.691406 C 442.1875 578.210938 415.964844 595.898438 386.761719 608.257812 C 356.515625 621.058594 324.402344 627.546875 291.3125 627.546875 Z M 291.3125 190.214844 C 185.5 190.214844 99.414062 276.347656 99.414062 382.214844 C 99.414062 488.082031 185.5 574.214844 291.3125 574.214844 C 397.125 574.214844 483.214844 488.082031 483.214844 382.214844 C 483.214844 276.347656 397.125 190.214844 291.3125 190.214844 Z M 291.3125 190.214844 " fill-opacity="1" fill-rule="nonzero"/></g><path fill="#98007e" d="M 291.3125 190.214844 C 276.59375 190.214844 264.660156 178.273438 264.660156 163.546875 L 264.660156 98.210938 C 264.660156 83.480469 276.59375 71.539062 291.3125 71.539062 C 306.035156 71.539062 317.96875 83.480469 317.96875 98.210938 L 317.96875 163.546875 C 317.96875 178.273438 306.035156 190.214844 291.3125 190.214844 Z M 291.3125 190.214844 " fill-opacity="1" fill-rule="nonzero"/><path fill="#98007e" d="M 344.351562 124.617188 L 238.269531 124.617188 C 223.550781 124.617188 211.617188 112.675781 211.617188 97.949219 C 211.617188 83.222656 223.550781 71.28125 238.269531 71.28125 L 344.351562 71.28125 C 359.070312 71.28125 371.003906 83.222656 371.003906 97.949219 C 371.003906 112.675781 359.070312 124.617188 344.351562 124.617188 Z M 344.351562 124.617188 " fill-opacity="1" fill-rule="nonzero"/><path fill="#98007e" d="M 291.3125 223.285156 C 283.949219 223.285156 277.988281 217.316406 277.988281 209.949219 L 277.988281 163.605469 C 277.988281 156.238281 283.949219 150.269531 291.3125 150.269531 C 298.675781 150.269531 304.640625 156.238281 304.640625 163.605469 L 304.640625 209.949219 C 304.640625 217.316406 298.675781 223.285156 291.3125 223.285156 Z M 291.3125 223.285156 " fill-opacity="1" fill-rule="nonzero"/><path fill="#98007e" d="M 205.242188 246.359375 C 200.632812 246.359375 196.152344 243.972656 193.6875 239.691406 L 170.53125 199.558594 C 166.851562 193.179688 169.039062 185.027344 175.40625 181.347656 C 181.78125 177.667969 189.929688 179.855469 193.609375 186.226562 L 216.765625 226.359375 C 220.441406 232.738281 218.257812 240.890625 211.890625 244.570312 C 209.792969 245.78125 207.5 246.359375 205.242188 246.359375 Z M 205.242188 246.359375 " fill-opacity="1" fill-rule="nonzero"/><path fill="#98007e" d="M 142.195312 309.417969 C 139.929688 309.417969 137.644531 308.839844 135.546875 307.628906 L 95.433594 284.457031 C 89.058594 280.777344 86.871094 272.625 90.558594 266.246094 C 94.234375 259.867188 102.386719 257.679688 108.761719 261.367188 L 148.871094 284.539062 C 155.25 288.21875 157.433594 296.371094 153.75 302.75 C 151.28125 307.027344 146.804688 309.417969 142.195312 309.417969 Z M 142.195312 309.417969 " fill-opacity="1" fill-rule="nonzero"/><path fill="#98007e" d="M 119.136719 395.542969 L 72.816406 395.542969 C 65.453125 395.542969 59.488281 389.574219 59.488281 382.207031 C 59.488281 374.839844 65.453125 368.875 72.816406 368.875 L 119.136719 368.875 C 126.5 368.875 132.464844 374.839844 132.464844 382.207031 C 132.464844 389.574219 126.5 395.542969 119.136719 395.542969 Z M 119.136719 395.542969 " fill-opacity="1" fill-rule="nonzero"/><path fill="#98007e" d="M 102.105469 504.851562 C 97.496094 504.851562 93.015625 502.460938 90.550781 498.183594 C 86.871094 491.804688 89.058594 483.652344 95.425781 479.972656 L 135.539062 456.800781 C 141.914062 453.121094 150.0625 455.308594 153.742188 461.679688 C 157.417969 468.058594 155.234375 476.210938 148.867188 479.890625 L 108.753906 503.0625 C 106.65625 504.273438 104.363281 504.851562 102.105469 504.851562 Z M 102.105469 504.851562 " fill-opacity="1" fill-rule="nonzero"/><path fill="#98007e" d="M 182.054688 584.871094 C 179.789062 584.871094 177.503906 584.292969 175.40625 583.082031 C 169.03125 579.402344 166.84375 571.25 170.53125 564.871094 L 193.6875 524.738281 C 197.367188 518.359375 205.515625 516.171875 211.890625 519.859375 C 218.265625 523.539062 220.449219 531.691406 216.765625 538.070312 L 193.609375 578.203125 C 191.140625 582.484375 186.664062 584.871094 182.054688 584.871094 Z M 182.054688 584.871094 " fill-opacity="1" fill-rule="nonzero"/><path fill="#98007e" d="M 291.3125 614.152344 C 283.949219 614.152344 277.988281 608.1875 277.988281 600.820312 L 277.988281 554.472656 C 277.988281 547.105469 283.949219 541.136719 291.3125 541.136719 C 298.675781 541.136719 304.640625 547.105469 304.640625 554.472656 L 304.640625 600.820312 C 304.640625 608.1875 298.675781 614.152344 291.3125 614.152344 Z M 291.3125 614.152344 " fill-opacity="1" fill-rule="nonzero"/><path fill="#98007e" d="M 400.574219 584.871094 C 395.964844 584.871094 391.488281 582.484375 389.019531 578.203125 L 365.863281 538.070312 C 362.183594 531.691406 364.371094 523.539062 370.738281 519.859375 C 377.113281 516.179688 385.261719 518.367188 388.941406 524.738281 L 412.097656 564.871094 C 415.777344 571.25 413.589844 579.402344 407.222656 583.082031 C 405.125 584.292969 402.832031 584.871094 400.574219 584.871094 Z M 400.574219 584.871094 " fill-opacity="1" fill-rule="nonzero"/><path fill="#98007e" d="M 480.523438 504.851562 C 478.261719 504.851562 475.972656 504.273438 473.875 503.0625 L 433.761719 479.890625 C 427.386719 476.210938 425.203125 468.058594 428.886719 461.679688 C 432.566406 455.300781 440.714844 453.117188 447.089844 456.800781 L 487.203125 479.972656 C 493.578125 483.652344 495.761719 491.804688 492.078125 498.183594 C 489.613281 502.464844 485.132812 504.851562 480.523438 504.851562 Z M 480.523438 504.851562 " fill-opacity="1" fill-rule="nonzero"/><path fill="#98007e" d="M 509.8125 395.542969 L 463.488281 395.542969 C 456.125 395.542969 450.164062 389.574219 450.164062 382.207031 C 450.164062 374.839844 456.125 368.875 463.488281 368.875 L 509.8125 368.875 C 517.175781 368.875 523.140625 374.839844 523.140625 382.207031 C 523.140625 389.574219 517.175781 395.542969 509.8125 395.542969 Z M 509.8125 395.542969 " fill-opacity="1" fill-rule="nonzero"/><path fill="#98007e" d="M 440.433594 309.417969 C 435.824219 309.417969 431.347656 307.027344 428.878906 302.75 C 425.203125 296.371094 427.386719 288.21875 433.753906 284.539062 L 473.867188 261.367188 C 480.242188 257.6875 488.390625 259.875 492.070312 266.246094 C 495.75 272.625 493.5625 280.777344 487.195312 284.457031 L 447.082031 307.628906 C 444.984375 308.839844 442.691406 309.417969 440.433594 309.417969 Z M 440.433594 309.417969 " fill-opacity="1" fill-rule="nonzero"/><path fill="#98007e" d="M 377.386719 246.359375 C 375.125 246.359375 372.835938 245.78125 370.738281 244.570312 C 364.363281 240.890625 362.179688 232.738281 365.863281 226.359375 L 389.019531 186.226562 C 392.699219 179.847656 400.847656 177.660156 407.222656 181.347656 C 413.597656 185.027344 415.785156 193.179688 412.097656 199.558594 L 388.941406 239.691406 C 386.476562 243.972656 381.996094 246.359375 377.386719 246.359375 Z M 377.386719 246.359375 " fill-opacity="1" fill-rule="nonzero"/></svg>