<svg xmlns="http://www.w3.org/2000/svg" xmlns:xlink="http://www.w3.org/1999/xlink" width="2048" zoomAndPan="magnify" viewBox="0 0 1536 708.749996" height="945" preserveAspectRatio="xMidYMid meet" version="1.0"><defs><clipPath id="ee3b3b85f9"><path d="M 484.601562 70.851562 L 1051.398438 70.851562 L 1051.398438 637.648438 L 484.601562 637.648438 Z M 484.601562 70.851562 " clip-rule="nonzero"/></clipPath></defs><g clip-path="url(#ee3b3b85f9)"><path fill="#f5ab35" d="M 750.144531 71.410156 C 756.046875 71.042969 762.003906 70.855469 767.996094 70.855469 C 773.992188 70.855469 779.945312 71.042969 785.851562 71.410156 C 789.03125 71.609375 791.449219 74.351562 791.253906 77.527344 C 791.050781 80.707031 788.308594 83.128906 785.132812 82.929688 C 779.464844 82.578125 773.75 82.398438 767.996094 82.398438 C 762.242188 82.398438 756.527344 82.578125 750.863281 82.929688 C 743.613281 83.382812 736.449219 84.117188 729.367188 85.125 C 726.210938 85.578125 723.285156 83.378906 722.835938 80.226562 C 722.386719 77.074219 724.585938 74.148438 727.738281 73.699219 C 735.117188 72.648438 742.59375 71.878906 750.144531 71.410156 Z M 893.953125 100.355469 C 904.660156 105.683594 914.980469 111.664062 924.863281 118.25 C 927.511719 120.015625 928.234375 123.601562 926.464844 126.253906 C 924.699219 128.90625 921.113281 129.625 918.460938 127.855469 C 908.980469 121.539062 899.078125 115.800781 888.8125 110.691406 C 882.382812 107.492188 875.808594 104.542969 869.101562 101.847656 C 866.144531 100.664062 864.707031 97.300781 865.894531 94.34375 C 867.082031 91.386719 870.445312 89.949219 873.402344 91.136719 C 880.394531 93.945312 887.246094 97.019531 893.953125 100.355469 Z M 1003.992188 197.378906 C 1010.582031 207.265625 1016.5625 217.585938 1021.886719 228.289062 C 1023.304688 231.144531 1022.140625 234.609375 1019.289062 236.027344 C 1016.4375 237.445312 1012.972656 236.28125 1011.554688 233.429688 C 1006.445312 223.164062 1000.703125 213.261719 994.386719 203.78125 C 990.386719 197.777344 986.152344 191.945312 981.703125 186.289062 C 979.730469 183.785156 980.164062 180.152344 982.664062 178.183594 C 985.171875 176.214844 988.800781 176.644531 990.773438 179.148438 C 995.414062 185.039062 999.824219 191.125 1003.992188 197.378906 Z M 1050.835938 336.394531 C 1051.203125 342.296875 1051.390625 348.25 1051.390625 354.246094 C 1051.390625 360.246094 1051.203125 366.195312 1050.835938 372.097656 C 1050.636719 375.28125 1047.894531 377.699219 1044.714844 377.5 C 1041.539062 377.300781 1039.117188 374.5625 1039.3125 371.382812 C 1039.667969 365.714844 1039.84375 360 1039.84375 354.246094 C 1039.84375 348.492188 1039.667969 342.78125 1039.3125 337.113281 C 1038.859375 329.867188 1038.125 322.695312 1037.117188 315.617188 C 1036.667969 312.464844 1038.863281 309.539062 1042.015625 309.089844 C 1045.171875 308.640625 1048.09375 310.835938 1048.546875 313.988281 C 1049.597656 321.371094 1050.363281 328.84375 1050.835938 336.394531 Z M 1011.554688 475.066406 L 1011.554688 475.0625 C 1014.75 468.632812 1017.703125 462.058594 1020.394531 455.351562 C 1021.582031 452.394531 1024.945312 450.960938 1027.902344 452.144531 C 1030.855469 453.332031 1032.296875 456.695312 1031.105469 459.648438 C 1028.300781 466.644531 1025.222656 473.5 1021.886719 480.203125 C 1016.5625 490.910156 1010.582031 501.230469 1003.992188 511.113281 C 1002.226562 513.765625 998.640625 514.480469 995.988281 512.71875 C 993.339844 510.949219 992.621094 507.363281 994.386719 504.714844 C 1000.707031 495.230469 1006.445312 485.332031 1011.554688 475.066406 Z M 918.460938 580.636719 C 924.464844 576.640625 930.300781 572.40625 935.957031 567.953125 C 938.457031 565.980469 942.089844 566.414062 944.058594 568.917969 C 946.03125 571.417969 945.597656 575.050781 943.097656 577.023438 C 937.203125 581.664062 931.121094 586.074219 924.863281 590.246094 C 914.980469 596.832031 904.660156 602.8125 893.953125 608.136719 C 891.105469 609.558594 887.636719 608.394531 886.214844 605.539062 C 884.796875 602.691406 885.960938 599.222656 888.8125 597.800781 C 899.078125 592.695312 908.980469 586.957031 918.460938 580.636719 Z M 785.132812 625.566406 C 792.375 625.113281 799.546875 624.375 806.628906 623.367188 C 809.78125 622.917969 812.707031 625.113281 813.15625 628.269531 C 813.605469 631.421875 811.410156 634.347656 808.257812 634.796875 C 800.875 635.847656 793.402344 636.617188 785.851562 637.085938 C 779.945312 637.453125 773.992188 637.640625 767.996094 637.640625 C 762.003906 637.640625 756.046875 637.453125 750.144531 637.085938 C 746.964844 636.886719 744.546875 634.144531 744.742188 630.96875 C 744.941406 627.785156 747.683594 625.367188 750.863281 625.566406 C 756.527344 625.917969 762.242188 626.097656 767.996094 626.097656 C 773.75 626.097656 779.464844 625.917969 785.132812 625.566406 Z M 647.183594 597.800781 C 653.613281 601.003906 660.1875 603.953125 666.894531 606.644531 C 669.847656 607.832031 671.285156 611.195312 670.097656 614.152344 C 668.914062 617.109375 665.550781 618.542969 662.59375 617.359375 C 655.601562 614.550781 648.746094 611.476562 642.039062 608.140625 C 631.335938 602.8125 621.015625 596.832031 611.128906 590.246094 C 608.480469 588.476562 607.761719 584.890625 609.527344 582.242188 C 611.292969 579.589844 614.882812 578.871094 617.53125 580.640625 C 627.011719 586.957031 636.910156 592.695312 647.183594 597.800781 Z M 541.605469 504.714844 C 545.605469 510.71875 549.839844 516.550781 554.289062 522.207031 C 556.261719 524.710938 555.828125 528.34375 553.328125 530.3125 C 550.824219 532.28125 547.191406 531.851562 545.222656 529.347656 C 540.582031 523.453125 536.167969 517.371094 532 511.113281 C 525.414062 501.230469 519.429688 490.910156 514.105469 480.207031 C 512.6875 477.351562 513.851562 473.886719 516.703125 472.464844 C 519.554688 471.046875 523.023438 472.210938 524.441406 475.066406 C 529.550781 485.332031 535.289062 495.230469 541.605469 504.714844 Z M 496.679688 371.382812 C 497.128906 378.628906 497.867188 385.796875 498.875 392.878906 C 499.324219 396.03125 497.128906 398.957031 493.976562 399.40625 C 490.824219 399.855469 487.898438 397.660156 487.449219 394.507812 C 486.394531 387.125 485.628906 379.652344 485.160156 372.097656 C 484.789062 366.195312 484.605469 360.246094 484.605469 354.246094 C 484.605469 348.25 484.789062 342.300781 485.160156 336.394531 C 485.355469 333.214844 488.097656 330.796875 491.277344 330.996094 C 494.457031 331.191406 496.878906 333.933594 496.679688 337.113281 C 496.328125 342.78125 496.148438 348.492188 496.148438 354.246094 C 496.148438 360.003906 496.328125 365.714844 496.679688 371.382812 Z M 514.105469 228.289062 C 519.429688 217.585938 525.414062 207.265625 532 197.378906 C 533.765625 194.730469 537.351562 194.015625 540.003906 195.777344 C 542.652344 197.546875 543.371094 201.132812 541.605469 203.78125 C 535.289062 213.261719 529.550781 223.164062 524.441406 233.429688 C 521.242188 239.863281 518.289062 246.4375 515.597656 253.144531 C 514.410156 256.097656 511.046875 257.535156 508.09375 256.351562 C 505.136719 255.164062 503.699219 251.800781 504.886719 248.84375 C 507.691406 241.851562 510.769531 234.996094 514.105469 228.289062 Z M 611.128906 118.25 C 621.015625 111.664062 631.335938 105.683594 642.039062 100.359375 C 644.890625 98.9375 648.359375 100.101562 649.777344 102.953125 C 651.195312 105.804688 650.03125 109.273438 647.179688 110.691406 C 636.910156 115.800781 627.011719 121.539062 617.53125 127.855469 C 611.527344 131.855469 605.691406 136.089844 600.039062 140.542969 C 597.535156 142.511719 593.902344 142.082031 591.933594 139.578125 C 589.960938 137.074219 590.394531 133.441406 592.898438 131.472656 C 598.789062 126.832031 604.871094 122.421875 611.128906 118.25 Z M 846.609375 93.957031 C 843.558594 93.035156 841.832031 89.8125 842.75 86.761719 C 843.675781 83.710938 846.894531 81.984375 849.945312 82.90625 C 852.996094 83.828125 854.726562 87.050781 853.800781 90.097656 C 852.882812 93.148438 849.65625 94.875 846.609375 93.957031 Z M 966.152344 168.214844 C 963.96875 165.890625 964.085938 162.238281 966.40625 160.058594 C 968.726562 157.875 972.382812 157.988281 974.566406 160.3125 C 976.746094 162.632812 976.632812 166.289062 974.308594 168.472656 C 971.984375 170.652344 968.332031 170.539062 966.152344 168.214844 Z M 1032.71875 292.1875 C 1031.992188 289.085938 1033.921875 285.976562 1037.023438 285.253906 C 1040.128906 284.527344 1043.234375 286.457031 1043.957031 289.558594 C 1044.683594 292.660156 1042.753906 295.769531 1039.652344 296.496094 C 1036.550781 297.21875 1033.445312 295.289062 1032.71875 292.1875 Z M 1028.289062 432.859375 C 1029.210938 429.808594 1032.433594 428.082031 1035.480469 429.003906 C 1038.53125 429.921875 1040.261719 433.148438 1039.335938 436.199219 C 1038.417969 439.246094 1035.191406 440.976562 1032.144531 440.054688 C 1029.09375 439.132812 1027.367188 435.910156 1028.289062 432.859375 Z M 954.03125 552.402344 C 956.351562 550.21875 960.007812 550.335938 962.1875 552.65625 C 964.367188 554.976562 964.253906 558.632812 961.933594 560.816406 C 959.609375 562.996094 955.953125 562.882812 953.773438 560.558594 C 951.59375 558.238281 951.707031 554.582031 954.03125 552.402344 Z M 830.058594 618.96875 C 833.15625 618.242188 836.265625 620.171875 836.992188 623.277344 C 837.71875 626.375 835.785156 629.484375 832.683594 630.207031 C 829.582031 630.933594 826.476562 629.007812 825.75 625.902344 C 825.027344 622.804688 826.953125 619.695312 830.058594 618.96875 Z M 689.382812 614.539062 C 692.433594 615.460938 694.164062 618.683594 693.238281 621.734375 C 692.320312 624.785156 689.09375 626.507812 686.046875 625.589844 C 682.996094 624.667969 681.269531 621.445312 682.1875 618.394531 C 683.113281 615.34375 686.332031 613.617188 689.382812 614.539062 Z M 569.84375 540.28125 C 572.023438 542.601562 571.910156 546.257812 569.585938 548.4375 C 567.265625 550.621094 563.609375 550.507812 561.429688 548.183594 C 559.25 545.859375 559.363281 542.207031 561.683594 540.027344 C 564.007812 537.84375 567.664062 537.957031 569.84375 540.28125 Z M 503.273438 416.308594 C 504 419.410156 502.070312 422.515625 498.96875 423.242188 C 495.867188 423.96875 492.761719 422.039062 492.035156 418.9375 C 491.308594 415.832031 493.238281 412.726562 496.339844 412 C 499.441406 411.277344 502.550781 413.203125 503.273438 416.308594 Z M 507.703125 275.636719 C 506.785156 278.683594 503.558594 280.414062 500.511719 279.492188 C 497.460938 278.570312 495.734375 275.347656 496.65625 272.296875 C 497.574219 269.246094 500.800781 267.523438 503.847656 268.441406 C 506.898438 269.359375 508.625 272.585938 507.703125 275.636719 Z M 581.964844 156.09375 C 579.640625 158.273438 575.984375 158.160156 573.804688 155.839844 C 571.625 153.515625 571.738281 149.859375 574.0625 147.679688 C 576.382812 145.5 580.039062 145.613281 582.21875 147.9375 C 584.398438 150.257812 584.285156 153.914062 581.964844 156.09375 Z M 705.9375 89.527344 C 702.835938 90.25 699.730469 88.320312 699.003906 85.21875 C 698.277344 82.117188 700.207031 79.011719 703.308594 78.285156 C 706.410156 77.558594 709.515625 79.488281 710.242188 82.589844 C 710.96875 85.691406 709.039062 88.800781 705.9375 89.527344 Z M 588.710938 202.476562 C 606.25 181.738281 627.703125 163.714844 652.738281 149.617188 C 677.777344 135.515625 704.304688 126.507812 731.132812 122.257812 C 734.277344 121.761719 737.238281 123.910156 737.734375 127.054688 C 738.230469 130.203125 736.082031 133.160156 732.9375 133.660156 C 707.433594 137.699219 682.207031 146.265625 658.40625 159.675781 C 634.597656 173.082031 614.199219 190.214844 597.527344 209.929688 C 592.394531 215.996094 587.617188 222.304688 583.203125 228.828125 C 581.417969 231.464844 577.828125 232.15625 575.1875 230.371094 C 572.550781 228.585938 571.859375 224.992188 573.644531 222.355469 C 578.289062 215.496094 583.316406 208.859375 588.710938 202.476562 Z M 856.910156 136.90625 C 904.234375 156.222656 945.617188 191.035156 972.628906 238.992188 C 974.21875 241.816406 975.746094 244.65625 977.207031 247.515625 C 978.65625 250.351562 977.527344 253.832031 974.691406 255.28125 C 971.855469 256.730469 968.375 255.601562 966.925781 252.769531 C 965.535156 250.046875 964.085938 247.34375 962.570312 244.65625 C 936.890625 199.058594 897.542969 165.960938 852.542969 147.59375 C 845.214844 144.601562 837.738281 142 830.140625 139.800781 C 827.082031 138.914062 825.316406 135.710938 826.203125 132.652344 C 827.089844 129.589844 830.292969 127.828125 833.355469 128.714844 C 841.339844 131.027344 849.199219 133.761719 856.910156 136.90625 Z M 990.683594 370.773438 C 991.277344 362.90625 991.457031 354.992188 991.210938 347.0625 C 991.113281 343.878906 993.617188 341.214844 996.800781 341.117188 C 999.988281 341.019531 1002.652344 343.523438 1002.75 346.707031 C 1003.007812 355.042969 1002.816406 363.371094 1002.195312 371.640625 C 998.023438 426.964844 974.351562 480.070312 934.179688 520.269531 C 931.925781 522.523438 928.269531 522.523438 926.011719 520.273438 C 923.761719 518.019531 923.761719 514.363281 926.011719 512.109375 C 964.214844 473.882812 986.714844 423.378906 990.683594 370.773438 Z M 821.09375 571.203125 C 828.71875 569.335938 836.296875 567.050781 843.789062 564.339844 C 846.789062 563.253906 850.097656 564.808594 851.183594 567.800781 C 852.265625 570.796875 850.714844 574.109375 847.71875 575.191406 C 839.835938 578.046875 831.863281 580.453125 823.839844 582.414062 C 768.640625 595.933594 710.953125 588.652344 661.484375 563.546875 C 658.640625 562.105469 657.503906 558.628906 658.949219 555.789062 C 660.386719 552.945312 663.867188 551.8125 666.707031 553.253906 C 713.75 577.128906 768.605469 584.0625 821.09375 571.203125 Z M 578.101562 471.769531 C 582.304688 478.570312 586.820312 485.070312 591.621094 491.261719 C 593.570312 493.777344 593.113281 497.40625 590.59375 499.359375 C 588.078125 501.308594 584.449219 500.847656 582.496094 498.332031 C 577.449219 491.820312 572.703125 484.988281 568.285156 477.839844 C 566.59375 475.105469 564.957031 472.328125 563.363281 469.503906 C 536.355469 421.550781 528.035156 368.117188 536.042969 317.628906 C 536.542969 314.484375 539.503906 312.335938 542.648438 312.835938 C 545.796875 313.332031 547.945312 316.292969 547.445312 319.4375 C 539.828125 367.441406 547.742188 418.246094 573.421875 463.839844 C 574.9375 466.527344 576.496094 469.167969 578.101562 471.769531 Z M 804.621094 133.992188 C 801.480469 133.46875 799.355469 130.492188 799.882812 127.347656 C 800.40625 124.207031 803.382812 122.082031 806.527344 122.605469 C 809.667969 123.132812 811.792969 126.109375 811.265625 129.25 C 810.742188 132.394531 807.765625 134.515625 804.621094 133.992188 Z M 988.863281 321.007812 C 988.390625 317.855469 990.566406 314.914062 993.71875 314.445312 C 996.867188 313.96875 999.804688 316.144531 1000.28125 319.296875 C 1000.75 322.445312 998.578125 325.386719 995.425781 325.859375 C 992.277344 326.332031 989.335938 324.15625 988.863281 321.007812 Z M 867.832031 554.007812 C 870.683594 552.582031 874.152344 553.734375 875.578125 556.585938 C 877.003906 559.433594 875.851562 562.902344 873 564.332031 C 870.152344 565.753906 866.683594 564.601562 865.253906 561.753906 C 863.832031 558.90625 864.984375 555.433594 867.832031 554.007812 Z M 608.839844 510.957031 C 611.074219 513.226562 611.042969 516.882812 608.773438 519.121094 C 606.5 521.351562 602.84375 521.324219 600.609375 519.054688 C 598.375 516.78125 598.40625 513.125 600.675781 510.890625 C 602.945312 508.65625 606.605469 508.6875 608.839844 510.957031 Z M 569.832031 251.320312 C 568.367188 254.148438 564.878906 255.253906 562.050781 253.792969 C 559.222656 252.324219 558.117188 248.839844 559.582031 246.007812 C 561.046875 243.179688 564.53125 242.074219 567.359375 243.539062 C 570.1875 245.003906 571.296875 248.488281 569.832031 251.320312 Z M 820.164062 180.429688 C 841.128906 186.707031 861.296875 196.902344 879.582031 211.164062 C 897.867188 225.421875 912.671875 242.5 923.871094 261.300781 C 926.429688 265.597656 925.015625 271.164062 920.71875 273.722656 C 916.421875 276.28125 910.859375 274.871094 908.300781 270.574219 C 898.222656 253.652344 884.894531 238.285156 868.4375 225.453125 C 851.984375 212.621094 833.832031 203.4375 814.964844 197.785156 C 802.808594 194.144531 790.351562 191.96875 777.859375 191.230469 C 772.867188 190.933594 769.054688 186.640625 769.351562 181.648438 C 769.648438 176.65625 773.941406 172.84375 778.933594 173.140625 C 792.8125 173.964844 806.652344 176.378906 820.164062 180.429688 Z M 924.460938 401.214844 C 928.101562 389.058594 930.273438 376.601562 931.015625 364.113281 C 931.3125 359.121094 935.605469 355.308594 940.59375 355.605469 C 945.585938 355.902344 949.398438 360.191406 949.101562 365.183594 C 948.28125 379.0625 945.863281 392.90625 941.816406 406.414062 C 935.539062 427.378906 925.339844 447.550781 911.082031 465.832031 C 896.820312 484.117188 879.746094 498.921875 860.941406 510.117188 C 856.644531 512.679688 851.078125 511.269531 848.523438 506.972656 C 845.960938 502.675781 847.375 497.109375 851.671875 494.550781 C 868.59375 484.472656 883.957031 471.144531 896.792969 454.691406 C 909.625 438.234375 918.808594 420.082031 924.460938 401.214844 Z M 721.027344 510.707031 C 733.1875 514.347656 745.644531 516.523438 758.132812 517.265625 C 763.125 517.5625 766.9375 521.855469 766.640625 526.847656 C 766.347656 531.839844 762.050781 535.652344 757.058594 535.355469 C 743.179688 534.53125 729.339844 532.113281 715.832031 528.070312 C 694.867188 521.789062 674.695312 511.589844 656.410156 497.332031 C 638.125 483.070312 623.320312 465.996094 612.125 447.195312 C 609.566406 442.898438 610.976562 437.332031 615.273438 434.773438 C 619.570312 432.214844 625.136719 433.625 627.695312 437.921875 C 637.769531 454.84375 651.097656 470.207031 667.554688 483.042969 C 684.007812 495.875 702.160156 505.058594 721.027344 510.707031 Z M 594.175781 302.078125 C 600.453125 281.117188 610.652344 260.949219 624.914062 242.664062 C 639.171875 224.378906 656.25 209.574219 675.050781 198.375 C 679.347656 195.816406 684.914062 197.226562 687.472656 201.523438 C 690.03125 205.820312 688.621094 211.382812 684.320312 213.945312 C 667.402344 224.019531 652.035156 237.347656 639.203125 253.804688 C 626.367188 270.261719 617.183594 288.410156 611.535156 307.28125 C 607.894531 319.4375 605.71875 331.890625 604.976562 344.382812 C 604.683594 349.375 600.390625 353.1875 595.398438 352.890625 C 590.40625 352.59375 586.59375 348.304688 586.890625 343.3125 C 587.714844 329.433594 590.128906 315.589844 594.175781 302.078125 Z M 928.203125 322.628906 C 927.242188 317.722656 930.441406 312.953125 935.347656 311.988281 C 940.253906 311.023438 945.019531 314.222656 945.984375 319.128906 C 946.949219 324.035156 943.75 328.804688 938.847656 329.765625 C 933.941406 330.734375 929.171875 327.535156 928.203125 322.628906 Z M 799.617188 514.457031 C 804.523438 513.492188 809.289062 516.691406 810.257812 521.597656 C 811.222656 526.503906 808.019531 531.269531 803.113281 532.234375 C 798.207031 533.203125 793.445312 530.003906 792.476562 525.097656 C 791.511719 520.1875 794.710938 515.421875 799.617188 514.457031 Z M 607.785156 385.867188 C 608.753906 390.773438 605.554688 395.542969 600.648438 396.507812 C 595.742188 397.472656 590.972656 394.273438 590.007812 389.367188 C 589.042969 384.460938 592.242188 379.691406 597.148438 378.730469 C 602.054688 377.761719 606.824219 380.960938 607.785156 385.867188 Z M 736.375 194.039062 C 731.46875 195.003906 726.703125 191.804688 725.738281 186.898438 C 724.769531 181.992188 727.96875 177.226562 732.875 176.257812 C 737.78125 175.292969 742.550781 178.492188 743.515625 183.402344 C 744.480469 188.308594 741.28125 193.070312 736.375 194.039062 Z M 850.78125 251.554688 C 858.898438 258.097656 866.359375 265.722656 872.953125 274.382812 C 879.546875 283.050781 884.902344 292.273438 889.046875 301.839844 C 890.3125 304.761719 888.96875 308.160156 886.042969 309.429688 C 883.121094 310.695312 879.722656 309.351562 878.453125 306.429688 C 874.667969 297.699219 869.78125 289.28125 863.765625 281.375 C 857.746094 273.46875 850.941406 266.511719 843.535156 260.539062 C 838.003906 256.078125 832.144531 252.164062 826.03125 248.804688 C 823.238281 247.273438 822.21875 243.757812 823.75 240.96875 C 825.285156 238.175781 828.796875 237.15625 831.589844 238.6875 C 838.292969 242.367188 844.722656 246.660156 850.78125 251.554688 Z M 880.433594 397.132812 C 882.9375 390.535156 884.855469 383.746094 886.171875 376.84375 C 886.769531 373.71875 889.796875 371.660156 892.921875 372.257812 C 896.054688 372.855469 898.109375 375.882812 897.511719 379.007812 C 896.070312 386.566406 893.972656 394.007812 891.226562 401.234375 C 883.824219 420.703125 871.742188 438.628906 855.230469 453.171875 C 852.839844 455.273438 849.1875 455.042969 847.082031 452.648438 C 844.980469 450.257812 845.207031 446.609375 847.601562 444.503906 C 862.664062 431.242188 873.6875 414.894531 880.433594 397.132812 Z M 761.972656 474.417969 C 768.984375 474.773438 776.035156 474.519531 783.039062 473.644531 C 786.203125 473.253906 789.089844 475.5 789.484375 478.660156 C 789.878906 481.820312 787.632812 484.707031 784.46875 485.101562 C 776.792969 486.058594 769.070312 486.335938 761.390625 485.945312 C 740.222656 484.871094 719.398438 478.730469 700.871094 467.796875 C 698.128906 466.175781 697.214844 462.632812 698.832031 459.890625 C 700.453125 457.144531 703.992188 456.234375 706.738281 457.851562 C 723.648438 467.832031 742.660156 473.4375 761.972656 474.417969 Z M 651.808594 385.667969 C 653.625 392.394531 656.039062 399.015625 659.066406 405.445312 C 660.425781 408.332031 659.1875 411.773438 656.304688 413.128906 C 653.421875 414.488281 649.980469 413.25 648.621094 410.363281 C 645.300781 403.3125 642.652344 396.050781 640.664062 388.671875 C 635.0625 367.898438 634.699219 346.1875 639.304688 325.503906 C 639.996094 322.394531 643.085938 320.429688 646.191406 321.125 C 649.300781 321.816406 651.261719 324.902344 650.570312 328.011719 C 646.367188 346.890625 646.695312 366.707031 651.808594 385.667969 Z M 885.0625 326.28125 C 884.324219 323.183594 886.242188 320.070312 889.339844 319.332031 C 892.4375 318.597656 895.554688 320.515625 896.292969 323.613281 C 897.03125 326.710938 895.113281 329.824219 892.011719 330.5625 C 888.914062 331.300781 885.796875 329.382812 885.0625 326.28125 Z M 830.75 456.945312 C 833.464844 455.277344 837.023438 456.132812 838.683594 458.847656 C 840.347656 461.566406 839.496094 465.121094 836.777344 466.785156 C 834.0625 468.449219 830.507812 467.59375 828.839844 464.878906 C 827.179688 462.164062 828.03125 458.605469 830.75 456.945312 Z M 689.71875 445.679688 C 692.136719 447.75 692.417969 451.398438 690.34375 453.820312 C 688.269531 456.238281 684.625 456.515625 682.207031 454.441406 C 679.785156 452.371094 679.507812 448.722656 681.578125 446.300781 C 683.652344 443.886719 687.300781 443.605469 689.71875 445.679688 Z M 656.875 308.046875 C 655.65625 310.988281 652.277344 312.390625 649.335938 311.171875 C 646.390625 309.953125 644.992188 306.574219 646.210938 303.632812 C 647.429688 300.6875 650.808594 299.289062 653.75 300.507812 C 656.695312 301.726562 658.09375 305.105469 656.875 308.046875 Z M 685.644531 266.484375 C 683.320312 268.664062 679.664062 268.542969 677.484375 266.214844 C 675.308594 263.890625 675.429688 260.238281 677.753906 258.0625 C 681.027344 254.992188 684.488281 252.066406 688.132812 249.292969 C 690.679688 247.355469 693.277344 245.523438 695.914062 243.796875 C 714.328125 231.757812 734.828125 224.890625 755.566406 222.953125 C 758.738281 222.65625 761.554688 224.988281 761.851562 228.164062 C 762.144531 231.335938 759.8125 234.148438 756.640625 234.445312 C 737.726562 236.214844 719.027344 242.476562 702.230469 253.460938 C 699.820312 255.035156 697.453125 256.707031 695.125 258.480469 C 691.792969 261.015625 688.632812 263.6875 685.644531 266.484375 Z M 777.582031 234.3125 C 774.402344 234.058594 772.035156 231.269531 772.289062 228.097656 C 772.542969 224.921875 775.328125 222.550781 778.503906 222.804688 C 781.675781 223.058594 784.050781 225.847656 783.792969 229.019531 C 783.539062 232.195312 780.753906 234.566406 777.582031 234.3125 Z M 777.582031 234.3125 " fill-opacity="1" fill-rule="evenodd"/></g></svg>