<svg width="101" height="119" viewBox="0 0 101 119" fill="none" xmlns="http://www.w3.org/2000/svg">
<path d="M49.516 49.7624V1.08105H0.57251V51.0797C0.57251 52.2474 0.602444 53.3851 0.662314 54.5527H44.7265C47.3607 54.5527 49.516 52.3971 49.516 49.7624Z" fill="#DC001E" stroke="#940008" stroke-width="0.37" stroke-miterlimit="10"/>
<path d="M20.778 26.1099V26.8284H25.0287H29.2495V26.1099H25.0287H20.778Z" fill="white"/>
<path d="M30.5667 21.2899C30.447 20.6013 29.8782 20.1222 29.2197 20.0623C27.9923 19.9725 26.9446 20.6312 25.7772 20.8408C25.6874 20.8408 25.5676 20.6611 25.4479 20.5414C25.9867 20.1222 25.9268 19.3139 25.2982 18.9546C25.2683 18.8947 25.2982 18.4456 25.2982 18.4157C25.3581 18.3857 25.7472 18.4456 25.8071 18.4157C25.867 18.3558 25.867 17.8768 25.8071 17.8169C25.7772 17.757 25.3281 17.8169 25.2982 17.8169C25.2982 17.787 25.2982 17.3379 25.2683 17.3079C25.2683 17.3079 25.1785 17.3079 25.1485 17.3079H24.9689H24.8791C24.8492 17.3379 24.8791 17.787 24.8791 17.8169C24.8791 17.8468 24.4002 17.8169 24.3702 17.8169C24.3403 17.8768 24.3104 18.3558 24.3702 18.4157C24.4301 18.4756 24.8192 18.4157 24.8791 18.4157C24.8791 18.4157 24.9091 18.8947 24.8791 18.9546C24.2505 19.3139 24.1607 20.1222 24.7294 20.5414C24.6097 20.6611 24.49 20.8707 24.4002 20.8408C23.2327 20.6312 22.155 19.9725 20.9576 20.0623C20.2691 20.1222 19.7303 20.6013 19.6106 21.2899C19.401 22.5473 20.2991 23.5054 20.7182 24.5532C20.8678 24.8826 20.9876 25.3317 20.9576 25.7209H29.3394C29.3394 25.3317 29.4292 24.8826 29.5789 24.5532C29.998 23.5054 30.896 22.5473 30.6865 21.2899M24.5498 24.0443C24.4301 24.673 24.1008 25.0622 23.8015 25.0622C23.6219 25.0622 23.4722 25.0023 23.3225 24.8826C23.1429 24.7029 22.9932 24.4335 23.0232 24.2838C23.0531 24.2239 23.5919 24.2838 23.6219 24.2838C23.6518 24.2239 23.562 23.8347 23.5021 23.7748C23.4422 23.7149 22.9932 23.7748 22.9334 23.7449C22.8735 23.685 22.8136 23.206 22.7537 23.176C22.7537 23.176 22.2748 23.1162 22.2448 23.176C22.2149 23.2359 22.3945 23.6551 22.3646 23.7449C22.3347 23.8048 21.6761 23.685 21.6761 23.7449C21.6761 23.8048 21.706 24.194 21.7659 24.2239C21.8258 24.2838 22.4245 24.2838 22.4245 24.2838C22.5442 24.3736 22.5741 24.5832 22.5741 24.7628C22.5741 25.0323 22.3646 25.152 22.0652 25.0622C21.4665 24.9125 20.7481 23.6251 20.329 22.7569C19.9997 22.0982 19.8201 21.0503 20.6583 20.721C21.1672 20.5414 21.706 20.6312 22.2448 20.8108C22.8136 20.9905 23.562 21.2 24.011 21.4994C24.1307 21.5593 23.8913 21.4994 24.2804 22.3976C24.46 22.8168 24.6396 23.685 24.5798 24.1042M29.7286 22.727C29.3095 23.5952 28.5611 24.8826 27.9923 25.0323C27.693 25.1221 27.4835 25.0023 27.4835 24.7329C27.4835 24.5233 27.5134 24.3437 27.6331 24.2539C27.6331 24.2539 28.2318 24.2539 28.2917 24.194C28.3516 24.1341 28.4114 23.7748 28.3815 23.7149C28.3815 23.6551 27.7229 23.7748 27.693 23.7149C27.6631 23.6551 27.8726 23.2359 27.8127 23.1461C27.7828 23.0862 27.3038 23.1461 27.3038 23.1461C27.244 23.176 27.1841 23.685 27.1242 23.7149C27.0644 23.7748 26.6153 23.715 26.5555 23.7449C26.4956 23.8048 26.4058 24.194 26.4357 24.2539C26.4657 24.3137 26.9746 24.2539 27.0344 24.2539C27.0943 24.4035 26.9147 24.7029 26.7351 24.8526C26.5854 24.9724 26.4357 25.0323 26.2561 25.0323C25.9568 25.0323 25.6275 24.6431 25.5077 24.0143C25.4179 23.5653 25.6275 22.697 25.8071 22.3078C26.1963 21.4396 25.9568 21.4994 26.0765 21.4096C26.5255 21.1402 27.2739 20.9006 27.8427 20.721C28.3815 20.5713 28.9203 20.4516 29.4292 20.6312C30.2674 20.9605 30.0579 22.0084 29.7585 22.6671" fill="white"/>
<path d="M33.9497 26.1099V26.8284H38.1705H42.3913V26.1099H38.1705H33.9497Z" fill="white"/>
<path d="M43.7385 21.2899C43.6188 20.6013 43.05 20.1222 42.3914 20.0623C41.1641 19.9725 40.1164 20.6312 38.9489 20.8408C38.8591 20.8408 38.7394 20.6611 38.6196 20.5414C39.1585 20.1222 39.0986 19.3139 38.47 18.9546C38.44 18.8947 38.47 18.4456 38.47 18.4157C38.5298 18.3857 38.919 18.4456 38.9789 18.4157C39.0387 18.3558 39.0387 17.8768 38.9789 17.8169C38.9489 17.757 38.4999 17.8169 38.47 17.8169C38.47 17.787 38.47 17.3379 38.44 17.3079C38.44 17.3079 38.3502 17.3079 38.3203 17.3079H38.1407H38.0509C38.0209 17.3379 38.0509 17.787 38.0509 17.8169C38.0509 17.8468 37.5719 17.8169 37.542 17.8169C37.512 17.8768 37.4821 18.3558 37.542 18.4157C37.6018 18.4756 37.991 18.4157 38.0509 18.4157C38.0509 18.4157 38.0808 18.8947 38.0509 18.9546C37.4222 19.3139 37.3324 20.1222 37.9012 20.5414C37.7815 20.6611 37.6617 20.8707 37.5719 20.8408C36.4044 20.6312 35.3268 19.9725 34.1294 20.0623C33.4409 20.1222 32.9021 20.6013 32.7823 21.2899C32.5728 22.5473 33.4708 23.5054 33.8899 24.5532C34.0396 24.8826 34.1593 25.3317 34.1294 25.7209H42.5112C42.5112 25.3317 42.601 24.8826 42.7506 24.5532C43.1697 23.5054 44.0678 22.5473 43.8582 21.2899M37.6917 24.0443C37.5719 24.673 37.2426 25.0622 36.9433 25.0622C36.7637 25.0622 36.614 25.0023 36.4643 24.8826C36.2847 24.7029 36.135 24.4335 36.165 24.2838C36.1949 24.2239 36.7337 24.2838 36.7637 24.2838C36.7936 24.2239 36.7038 23.8347 36.6439 23.7748C36.5841 23.7149 36.135 23.7748 36.0752 23.7449C36.0153 23.685 35.9554 23.206 35.8956 23.176C35.8956 23.176 35.4166 23.1162 35.3867 23.176C35.3567 23.2359 35.5363 23.6551 35.5064 23.7449C35.4765 23.8048 34.8179 23.685 34.8179 23.7449C34.8179 23.8048 34.8478 24.194 34.9077 24.2239C34.9676 24.2838 35.5663 24.2838 35.5663 24.2838C35.686 24.3736 35.7159 24.5832 35.7159 24.7628C35.7159 25.0323 35.5064 25.152 35.2071 25.0622C34.6084 24.9125 33.8899 23.6251 33.4708 22.7569C33.1415 22.0982 32.9619 21.0503 33.8001 20.721C34.309 20.5414 34.8478 20.6312 35.3867 20.8108C35.9554 20.9905 36.7038 21.2 37.1528 21.4994C37.2726 21.5593 37.0331 21.4994 37.4222 22.3976C37.6018 22.8168 37.7815 23.685 37.7216 24.1042M42.9003 22.727C42.4812 23.5952 41.7329 24.8826 41.1641 25.0323C40.8647 25.1221 40.6552 25.0023 40.6552 24.7329C40.6552 24.5233 40.6851 24.3437 40.8049 24.2539C40.8049 24.2539 41.4036 24.2539 41.4634 24.194C41.5233 24.1341 41.5832 23.7748 41.5532 23.7149C41.5532 23.6551 40.8947 23.7748 40.8647 23.7149C40.8348 23.6551 41.0444 23.2359 40.9845 23.1461C40.9546 23.0862 40.4756 23.1461 40.4756 23.1461C40.4157 23.176 40.3559 23.685 40.296 23.7149C40.2361 23.7748 39.7871 23.715 39.7272 23.7449C39.6674 23.8048 39.5775 24.194 39.6075 24.2539C39.6374 24.3137 40.1463 24.2539 40.2062 24.2539C40.2661 24.4035 40.0864 24.7029 39.9068 24.8526C39.7572 24.9724 39.6075 25.0323 39.4279 25.0323C39.1285 25.0323 38.7992 24.6431 38.6795 24.0143C38.5897 23.5653 38.7992 22.697 38.9789 22.3078C39.368 21.4396 39.1285 21.4994 39.2483 21.4096C39.6973 21.1402 40.4457 20.9006 41.0144 20.721C41.5533 20.5713 42.0921 20.4516 42.601 20.6312C43.4391 20.9605 43.2296 22.0084 42.9303 22.6671" fill="white"/>
<path d="M20.778 14.7026V15.4511H25.0287H29.2495V14.7026H25.0287H20.778Z" fill="white"/>
<path d="M30.5667 9.88263C30.447 9.19403 29.8782 8.715 29.2197 8.65512C27.9923 8.5653 26.9446 9.22396 25.7772 9.43354C25.6874 9.43354 25.5676 9.25391 25.4479 9.13415C25.9867 8.715 25.9268 7.90663 25.2982 7.54736C25.2683 7.48748 25.2982 7.03839 25.2982 7.00845C25.3581 6.97851 25.7472 7.03839 25.8071 7.00845C25.867 6.94857 25.867 6.46955 25.8071 6.40967C25.7772 6.34979 25.3281 6.40967 25.2982 6.40967C25.2982 6.37973 25.2982 5.93064 25.2683 5.9007C25.2683 5.9007 25.1785 5.9007 25.1485 5.9007H24.9689H24.8791C24.8492 5.93064 24.8791 6.37973 24.8791 6.40967C24.8791 6.43961 24.4002 6.40967 24.3702 6.40967C24.3403 6.46955 24.3104 6.94857 24.3702 7.00845C24.4301 7.06833 24.8192 7.00845 24.8791 7.00845C24.8791 7.00845 24.9091 7.48748 24.8791 7.54736C24.2505 7.90663 24.1607 8.715 24.7294 9.13415C24.6097 9.25391 24.49 9.46348 24.4002 9.43354C23.2327 9.22396 22.155 8.5653 20.9576 8.65512C20.2691 8.715 19.7303 9.19403 19.6106 9.88263C19.401 11.1401 20.2991 12.0981 20.7182 13.146C20.8678 13.4754 20.9876 13.9244 20.9576 14.3137H29.3394C29.3394 13.9244 29.4292 13.4754 29.5789 13.146C29.998 12.0981 30.896 11.1401 30.6865 9.88263M24.5498 12.6371C24.4301 13.2658 24.1008 13.655 23.8015 13.655C23.6219 13.655 23.4722 13.5951 23.3225 13.4753C23.1429 13.2957 22.9932 13.0263 23.0232 12.8766C23.0531 12.8167 23.5919 12.8766 23.6219 12.8766C23.6518 12.8167 23.562 12.4275 23.5021 12.3676C23.4422 12.3077 22.9932 12.3676 22.9334 12.3377C22.8735 12.2778 22.8136 11.7987 22.7537 11.7688C22.7537 11.7688 22.2748 11.7089 22.2448 11.7688C22.2149 11.8287 22.3945 12.2478 22.3646 12.3377C22.3347 12.3975 21.6761 12.2778 21.6761 12.3377C21.6761 12.3975 21.706 12.7867 21.7659 12.8167C21.8258 12.8766 22.4245 12.8766 22.4245 12.8766C22.5442 12.9664 22.5741 13.176 22.5741 13.3556C22.5741 13.625 22.3646 13.7448 22.0652 13.655C21.4665 13.5053 20.7481 12.2179 20.329 11.3497C19.9997 10.691 19.8201 9.64312 20.6583 9.31378C21.1672 9.13415 21.706 9.22397 22.2448 9.4036C22.8136 9.58324 23.562 9.79281 24.011 10.0922C24.1307 10.1521 23.8913 10.0922 24.2804 10.9904C24.46 11.4095 24.6396 12.2778 24.5798 12.6969M29.7286 11.3197C29.3095 12.188 28.5611 13.4754 27.9923 13.625C27.693 13.7149 27.4835 13.5951 27.4835 13.3257C27.4835 13.1161 27.5134 12.9364 27.6331 12.8466C27.6331 12.8466 28.2318 12.8466 28.2917 12.7867C28.3516 12.7269 28.4114 12.3676 28.3815 12.3077C28.3815 12.2478 27.7229 12.3676 27.693 12.3077C27.6631 12.2478 27.8726 11.8287 27.8127 11.7389C27.7828 11.679 27.3038 11.7389 27.3038 11.7389C27.244 11.7688 27.1841 12.2778 27.1242 12.3077C27.0644 12.3676 26.6153 12.3077 26.5555 12.3377C26.4956 12.3975 26.4058 12.7867 26.4357 12.8466C26.4657 12.9065 26.9746 12.8466 27.0344 12.8466C27.0943 12.9963 26.9147 13.2957 26.7351 13.4454C26.5854 13.5652 26.4357 13.625 26.2561 13.625C25.9568 13.625 25.6275 13.2358 25.5077 12.6071C25.4179 12.158 25.6275 11.2898 25.8071 10.9006C26.1963 10.0323 25.9568 10.0922 26.0765 10.0024C26.5255 9.73293 27.2739 9.49342 27.8427 9.31378C28.3815 9.16409 28.9203 9.04433 29.4292 9.22396C30.2674 9.5533 30.0579 10.6012 29.7585 11.2598" fill="white"/>
<path d="M33.9497 14.7026V15.4511H38.1705H42.3913V14.7026H38.1705H33.9497Z" fill="white"/>
<path d="M43.7385 9.88263C43.6188 9.19403 43.05 8.715 42.3914 8.65512C41.1641 8.5653 40.1164 9.22396 38.9489 9.43354C38.8591 9.43354 38.7394 9.25391 38.6196 9.13415C39.1585 8.715 39.0986 7.90663 38.47 7.54736C38.44 7.48748 38.47 7.03839 38.47 7.00845C38.5298 6.97851 38.919 7.03839 38.9789 7.00845C39.0387 6.94857 39.0387 6.46955 38.9789 6.40967C38.9489 6.34979 38.4999 6.40967 38.47 6.40967C38.47 6.37973 38.47 5.93064 38.44 5.9007C38.44 5.9007 38.3502 5.9007 38.3203 5.9007H38.1407H38.0509C38.0209 5.93064 38.0509 6.37973 38.0509 6.40967C38.0509 6.43961 37.5719 6.40967 37.542 6.40967C37.512 6.46955 37.4821 6.94857 37.542 7.00845C37.6018 7.06833 37.991 7.00845 38.0509 7.00845C38.0509 7.00845 38.0808 7.48748 38.0509 7.54736C37.4222 7.90663 37.3324 8.715 37.9012 9.13415C37.7815 9.25391 37.6617 9.46348 37.5719 9.43354C36.4044 9.22396 35.3268 8.5653 34.1294 8.65512C33.4409 8.715 32.9021 9.19403 32.7823 9.88263C32.5728 11.1401 33.4708 12.0981 33.8899 13.146C34.0396 13.4754 34.1593 13.9244 34.1294 14.3137H42.5112C42.5112 13.9244 42.601 13.4754 42.7506 13.146C43.1697 12.0981 44.0678 11.1401 43.8582 9.88263M37.6917 12.6371C37.5719 13.2658 37.2426 13.655 36.9433 13.655C36.7637 13.655 36.614 13.5951 36.4643 13.4753C36.2847 13.2957 36.135 13.0263 36.165 12.8766C36.1949 12.8167 36.7337 12.8766 36.7637 12.8766C36.7936 12.8167 36.7038 12.4275 36.6439 12.3676C36.5841 12.3077 36.135 12.3676 36.0752 12.3377C36.0153 12.2778 35.9554 11.7987 35.8956 11.7688C35.8956 11.7688 35.4166 11.7089 35.3867 11.7688C35.3567 11.8287 35.5363 12.2478 35.5064 12.3377C35.4765 12.3975 34.8179 12.2778 34.8179 12.3377C34.8179 12.3975 34.8478 12.7867 34.9077 12.8167C34.9676 12.8766 35.5663 12.8766 35.5663 12.8766C35.686 12.9664 35.7159 13.176 35.7159 13.3556C35.7159 13.625 35.5064 13.7448 35.2071 13.655C34.6084 13.5053 33.8899 12.2179 33.4708 11.3497C33.1415 10.691 32.9619 9.64312 33.8001 9.31378C34.309 9.13415 34.8478 9.22397 35.3867 9.4036C35.9554 9.58324 36.7038 9.79281 37.1528 10.0922C37.2726 10.1521 37.0331 10.0922 37.4222 10.9904C37.6018 11.4095 37.7815 12.2778 37.7216 12.6969M42.9003 11.3197C42.4812 12.188 41.7329 13.4754 41.1641 13.625C40.8647 13.7149 40.6552 13.5951 40.6552 13.3257C40.6552 13.1161 40.6851 12.9364 40.8049 12.8466C40.8049 12.8466 41.4036 12.8466 41.4634 12.7867C41.5233 12.7269 41.5832 12.3676 41.5532 12.3077C41.5532 12.2478 40.8947 12.3676 40.8647 12.3077C40.8348 12.2478 41.0444 11.8287 40.9845 11.7389C40.9546 11.679 40.4756 11.7389 40.4756 11.7389C40.4157 11.7688 40.3559 12.2778 40.296 12.3077C40.2361 12.3676 39.7871 12.3077 39.7272 12.3377C39.6674 12.3975 39.5775 12.7867 39.6075 12.8466C39.6374 12.9065 40.1463 12.8466 40.2062 12.8466C40.2661 12.9963 40.0864 13.2957 39.9068 13.4454C39.7572 13.5652 39.6075 13.625 39.4279 13.625C39.1285 13.625 38.7992 13.2358 38.6795 12.6071C38.5897 12.158 38.7992 11.2898 38.9789 10.9006C39.368 10.0323 39.1285 10.0922 39.2483 10.0024C39.6973 9.73293 40.4457 9.49342 41.0144 9.31378C41.5533 9.16409 42.0921 9.04433 42.601 9.22396C43.4391 9.5533 43.2296 10.6012 42.9303 11.2598" fill="white"/>
<path d="M20.778 37.5166V38.2352H25.0287H29.2495V37.5166H25.0287H20.778Z" fill="white"/>
<path d="M30.5667 32.6966C30.447 32.008 29.8782 31.529 29.2197 31.4691C27.9923 31.3793 26.9446 32.0379 25.7772 32.2475C25.6874 32.2475 25.5676 32.0679 25.4479 31.9481C25.9867 31.529 25.9268 30.7206 25.2982 30.3613C25.2683 30.3014 25.2982 29.8524 25.2982 29.8224C25.3581 29.7925 25.7472 29.8524 25.8071 29.8224C25.867 29.7625 25.867 29.2835 25.8071 29.2236C25.7772 29.1637 25.3281 29.2236 25.2982 29.2236C25.2982 29.1937 25.2982 28.7446 25.2683 28.7147C25.2683 28.7147 25.1785 28.7147 25.1485 28.7147H24.9689H24.8791C24.8492 28.7446 24.8791 29.1937 24.8791 29.2236C24.8791 29.2536 24.4002 29.2236 24.3702 29.2236C24.3403 29.2835 24.3104 29.7625 24.3702 29.8224C24.4301 29.8823 24.8192 29.8224 24.8791 29.8224C24.8791 29.8224 24.9091 30.3014 24.8791 30.3613C24.2505 30.7206 24.1607 31.529 24.7294 31.9481C24.6097 32.0679 24.49 32.2774 24.4002 32.2475C23.2327 32.0379 22.155 31.3793 20.9576 31.4691C20.2691 31.529 19.7303 32.008 19.6106 32.6966C19.401 33.954 20.2991 34.9121 20.7182 35.96C20.8678 36.2893 20.9876 36.7384 20.9576 37.1276H29.3394C29.3394 36.7384 29.4292 36.2893 29.5789 35.96C29.998 34.9121 30.896 33.954 30.6865 32.6966M24.5498 35.451C24.4301 36.0797 24.1008 36.469 23.8015 36.469C23.6219 36.469 23.4722 36.4091 23.3225 36.2893C23.1429 36.1097 22.9932 35.8402 23.0232 35.6905C23.0531 35.6306 23.5919 35.6905 23.6219 35.6905C23.6518 35.6306 23.562 35.2414 23.5021 35.1816C23.4422 35.1217 22.9932 35.1816 22.9334 35.1516C22.8735 35.0917 22.8136 34.6127 22.7537 34.5828C22.7537 34.5828 22.2748 34.5229 22.2448 34.5828C22.2149 34.6427 22.3945 35.0618 22.3646 35.1516C22.3347 35.2115 21.6761 35.0917 21.6761 35.1516C21.6761 35.2115 21.706 35.6007 21.7659 35.6306C21.8258 35.6905 22.4245 35.6905 22.4245 35.6905C22.5442 35.7803 22.5741 35.9899 22.5741 36.1696C22.5741 36.439 22.3646 36.5588 22.0652 36.469C21.4665 36.3193 20.7481 35.0319 20.329 34.1636C19.9997 33.505 19.8201 32.4571 20.6583 32.1277C21.1672 31.9481 21.706 32.0379 22.2448 32.2176C22.8136 32.3972 23.562 32.6068 24.011 32.9062C24.1307 32.966 23.8913 32.9062 24.2804 33.8043C24.46 34.2235 24.6396 35.0917 24.5798 35.5109M29.7286 34.1037C29.3095 34.972 28.5611 36.2594 27.9923 36.4091C27.693 36.4989 27.4835 36.3791 27.4835 36.1097C27.4835 35.9001 27.5134 35.7205 27.6331 35.6306C27.6331 35.6306 28.2318 35.6306 28.2917 35.5708C28.3516 35.5109 28.4114 35.1516 28.3815 35.0917C28.3815 35.0319 27.7229 35.1516 27.693 35.0917C27.6631 35.0319 27.8726 34.6127 27.8127 34.5229C27.7828 34.463 27.3038 34.5229 27.3038 34.5229C27.244 34.5528 27.1841 35.0618 27.1242 35.0917C27.0644 35.1516 26.6153 35.0917 26.5555 35.1217C26.4956 35.1816 26.4058 35.5708 26.4357 35.6306C26.4657 35.6905 26.9746 35.6306 27.0344 35.6306C27.0943 35.7803 26.9147 36.0797 26.7351 36.2294C26.5854 36.3492 26.4357 36.4091 26.2561 36.4091C25.9568 36.4091 25.6275 36.0199 25.5077 35.3911C25.4179 34.942 25.6275 34.0738 25.8071 33.6846C26.1963 32.8164 25.9568 32.8762 26.0765 32.7864C26.5255 32.517 27.2739 32.2774 27.8427 32.0978C28.3815 31.9481 28.9203 31.8284 29.4292 32.008C30.2674 32.3373 30.0579 33.3852 29.7585 34.0439" fill="white"/>
<path d="M33.9497 37.5166V38.2352H38.1705H42.3913V37.5166H38.1705H33.9497Z" fill="white"/>
<path d="M43.7385 32.6966C43.6188 32.008 43.05 31.529 42.3914 31.4691C41.1641 31.3793 40.1164 32.0379 38.9489 32.2475C38.8591 32.2475 38.7394 32.0679 38.6196 31.9481C39.1585 31.529 39.0986 30.7206 38.47 30.3613C38.44 30.3014 38.47 29.8524 38.47 29.8224C38.5298 29.7925 38.919 29.8524 38.9789 29.8224C39.0387 29.7625 39.0387 29.2835 38.9789 29.2236C38.9489 29.1637 38.4999 29.2236 38.47 29.2236C38.47 29.1937 38.47 28.7446 38.44 28.7147C38.44 28.7147 38.3502 28.7147 38.3203 28.7147H38.1407H38.0509C38.0209 28.7446 38.0509 29.1937 38.0509 29.2236C38.0509 29.2536 37.5719 29.2236 37.542 29.2236C37.512 29.2835 37.4821 29.7625 37.542 29.8224C37.6018 29.8823 37.991 29.8224 38.0509 29.8224C38.0509 29.8224 38.0808 30.3014 38.0509 30.3613C37.4222 30.7206 37.3324 31.529 37.9012 31.9481C37.7815 32.0679 37.6617 32.2774 37.5719 32.2475C36.4044 32.0379 35.3268 31.3793 34.1294 31.4691C33.4409 31.529 32.9021 32.008 32.7823 32.6966C32.5728 33.954 33.4708 34.9121 33.8899 35.96C34.0396 36.2893 34.1593 36.7384 34.1294 37.1276H42.5112C42.5112 36.7384 42.601 36.2893 42.7506 35.96C43.1697 34.9121 44.0678 33.954 43.8582 32.6966M37.6917 35.451C37.5719 36.0797 37.2426 36.469 36.9433 36.469C36.7637 36.469 36.614 36.4091 36.4643 36.2893C36.2847 36.1097 36.135 35.8402 36.165 35.6905C36.1949 35.6306 36.7337 35.6905 36.7637 35.6905C36.7936 35.6306 36.7038 35.2414 36.6439 35.1816C36.5841 35.1217 36.135 35.1816 36.0752 35.1516C36.0153 35.0917 35.9554 34.6127 35.8956 34.5828C35.8956 34.5828 35.4166 34.5229 35.3867 34.5828C35.3567 34.6427 35.5363 35.0618 35.5064 35.1516C35.4765 35.2115 34.8179 35.0917 34.8179 35.1516C34.8179 35.2115 34.8478 35.6007 34.9077 35.6306C34.9676 35.6905 35.5663 35.6905 35.5663 35.6905C35.686 35.7803 35.7159 35.9899 35.7159 36.1696C35.7159 36.439 35.5064 36.5588 35.2071 36.469C34.6084 36.3193 33.8899 35.0319 33.4708 34.1636C33.1415 33.505 32.9619 32.4571 33.8001 32.1277C34.309 31.9481 34.8478 32.0379 35.3867 32.2176C35.9554 32.3972 36.7038 32.6068 37.1528 32.9062C37.2726 32.966 37.0331 32.9062 37.4222 33.8043C37.6018 34.2235 37.7815 35.0917 37.7216 35.5109M42.9003 34.1037C42.4812 34.972 41.7329 36.2594 41.1641 36.4091C40.8647 36.4989 40.6552 36.3791 40.6552 36.1097C40.6552 35.9001 40.6851 35.7205 40.8049 35.6306C40.8049 35.6306 41.4036 35.6306 41.4634 35.5708C41.5233 35.5109 41.5832 35.1516 41.5532 35.0917C41.5532 35.0319 40.8947 35.1516 40.8647 35.0917C40.8348 35.0319 41.0444 34.6127 40.9845 34.5229C40.9546 34.463 40.4756 34.5229 40.4756 34.5229C40.4157 34.5528 40.3559 35.0618 40.296 35.0917C40.2361 35.1516 39.7871 35.0917 39.7272 35.1217C39.6674 35.1816 39.5775 35.5708 39.6075 35.6306C39.6374 35.6905 40.1463 35.6306 40.2062 35.6306C40.2661 35.7803 40.0864 36.0797 39.9068 36.2294C39.7572 36.3492 39.6075 36.4091 39.4279 36.4091C39.1285 36.4091 38.7992 36.0199 38.6795 35.3911C38.5897 34.942 38.7992 34.0738 38.9789 33.6846C39.368 32.8164 39.1285 32.8762 39.2483 32.7864C39.6973 32.517 40.4457 32.2774 41.0144 32.0978C41.5533 31.9481 42.0921 31.8284 42.601 32.008C43.4391 32.3373 43.2296 33.3852 42.9303 34.0439" fill="white"/>
<path d="M7.63684 37.5166V38.2352H11.8577H16.1084V37.5166H11.8577H7.63684Z" fill="white"/>
<path d="M17.4256 32.6966C17.3059 32.008 16.7371 31.529 16.0786 31.4691C14.8512 31.3793 13.8035 32.0379 12.6361 32.2475C12.5462 32.2475 12.4265 32.0679 12.3068 31.9481C12.8456 31.529 12.7857 30.7206 12.1571 30.3613C12.1272 30.3014 12.1571 29.8524 12.1571 29.8224C12.217 29.7925 12.6061 29.8524 12.666 29.8224C12.7259 29.7625 12.7259 29.2835 12.666 29.2236C12.6361 29.1637 12.187 29.2236 12.1571 29.2236C12.1571 29.1937 12.1571 28.7446 12.1272 28.7147C12.1272 28.7147 12.0374 28.7147 12.0074 28.7147H11.8278H11.738C11.7081 28.7446 11.738 29.1937 11.738 29.2236C11.738 29.2536 11.259 29.2236 11.2291 29.2236C11.1992 29.2835 11.1692 29.7625 11.2291 29.8224C11.289 29.8823 11.6781 29.8224 11.738 29.8224C11.738 29.8224 11.7679 30.3014 11.738 30.3613C11.1094 30.7206 11.0196 31.529 11.5883 31.9481C11.4686 32.0679 11.3489 32.2774 11.259 32.2475C10.0916 32.0379 9.01393 31.3793 7.81654 31.4691C7.12803 31.529 6.58921 32.008 6.46947 32.6966C6.25992 33.954 7.15797 34.9121 7.57706 35.96C7.72673 36.2893 7.84647 36.7384 7.81654 37.1276H16.1983C16.1983 36.7384 16.2881 36.2893 16.4378 35.96C16.8569 34.9121 17.7549 33.954 17.5454 32.6966M11.4087 35.451C11.289 36.0797 10.9597 36.469 10.6603 36.469C10.4807 36.469 10.3311 36.4091 10.1814 36.2893C10.0018 36.1097 9.85211 35.8402 9.88204 35.6905C9.91198 35.6306 10.4508 35.6905 10.4807 35.6905C10.5107 35.6306 10.4209 35.2414 10.361 35.1816C10.3011 35.1217 9.85211 35.1816 9.79224 35.1516C9.73237 35.0917 9.6725 34.6127 9.61263 34.5828C9.61263 34.5828 9.13367 34.5229 9.10374 34.5828C9.0738 34.6427 9.25341 35.0618 9.22348 35.1516C9.19354 35.2115 8.53497 35.0917 8.53497 35.1516C8.53497 35.2115 8.56491 35.6007 8.62478 35.6306C8.68465 35.6905 9.28334 35.6905 9.28334 35.6905C9.40308 35.7803 9.43302 35.9899 9.43302 36.1696C9.43302 36.439 9.22347 36.5588 8.92413 36.469C8.32543 36.3193 7.60699 35.0319 7.1879 34.1636C6.85862 33.505 6.67901 32.4571 7.51719 32.1277C8.02608 31.9481 8.56491 32.0379 9.10374 32.2176C9.6725 32.3972 10.4209 32.6068 10.8699 32.9062C10.9896 32.966 10.7502 32.9062 11.1393 33.8043C11.3189 34.2235 11.4985 35.0917 11.4387 35.5109M16.5875 34.1037C16.1684 34.972 15.42 36.2594 14.8512 36.4091C14.5519 36.4989 14.3423 36.3791 14.3423 36.1097C14.3423 35.9001 14.3723 35.7205 14.492 35.6306C14.492 35.6306 15.0907 35.6306 15.1506 35.5708C15.2104 35.5109 15.2703 35.1516 15.2404 35.0917C15.2404 35.0319 14.5818 35.1516 14.5519 35.0917C14.5219 35.0319 14.7315 34.6127 14.6716 34.5229C14.6417 34.463 14.1627 34.5229 14.1627 34.5229C14.1029 34.5528 14.043 35.0618 13.9831 35.0917C13.9233 35.1516 13.4742 35.0917 13.4144 35.1217C13.3545 35.1816 13.2647 35.5708 13.2946 35.6306C13.3246 35.6905 13.8334 35.6306 13.8933 35.6306C13.9532 35.7803 13.7736 36.0797 13.594 36.2294C13.4443 36.3492 13.2946 36.4091 13.115 36.4091C12.8157 36.4091 12.4864 36.0199 12.3666 35.3911C12.2768 34.942 12.4864 34.0738 12.666 33.6846C13.0551 32.8164 12.8157 32.8762 12.9354 32.7864C13.3844 32.517 14.1328 32.2774 14.7016 32.0978C15.2404 31.9481 15.7792 31.8284 16.2881 32.008C17.1263 32.3373 16.9167 33.3852 16.6174 34.0439" fill="white"/>
<path d="M20.778 48.8936V49.642H25.0287H29.2495V48.8936H25.0287H20.778Z" fill="white"/>
<path d="M30.5667 44.0731C30.447 43.3845 29.8782 42.9054 29.2197 42.8455C27.9923 42.7557 26.9446 43.4144 25.7772 43.624C25.6874 43.624 25.5676 43.4443 25.4479 43.3246C25.9867 42.9054 25.9268 42.0971 25.2982 41.7378C25.2683 41.6779 25.2982 41.2288 25.2982 41.1989C25.3581 41.1689 25.7472 41.2288 25.8071 41.1989C25.867 41.139 25.867 40.66 25.8071 40.6001C25.7772 40.5402 25.3281 40.6001 25.2982 40.6001C25.2982 40.5702 25.2982 40.1211 25.2683 40.0911C25.2683 40.0911 25.1785 40.0911 25.1485 40.0911H24.9689H24.8791C24.8492 40.1211 24.8791 40.5702 24.8791 40.6001C24.8791 40.63 24.4002 40.6001 24.3702 40.6001C24.3403 40.66 24.3104 41.139 24.3702 41.1989C24.4301 41.2588 24.8192 41.1989 24.8791 41.1989C24.8791 41.1989 24.9091 41.6779 24.8791 41.7378C24.2505 42.0971 24.1607 42.9054 24.7294 43.3246C24.6097 43.4443 24.49 43.6539 24.4002 43.624C23.2327 43.4144 22.155 42.7557 20.9576 42.8455C20.2691 42.9054 19.7303 43.3845 19.6106 44.0731C19.401 45.3305 20.2991 46.2886 20.7182 47.3364C20.8678 47.6658 20.9876 48.1149 20.9576 48.5041H29.3394C29.3394 48.1149 29.4292 47.6658 29.5789 47.3364C29.998 46.2886 30.896 45.3305 30.6865 44.0731M24.5498 46.8574C24.4301 47.4861 24.1008 47.8754 23.8015 47.8754C23.6219 47.8754 23.4722 47.8155 23.3225 47.6957C23.1429 47.5161 22.9932 47.2466 23.0232 47.0969C23.0531 47.0371 23.5919 47.0969 23.6219 47.0969C23.6518 47.0371 23.562 46.6478 23.5021 46.588C23.4422 46.5281 22.9932 46.588 22.9334 46.558C22.8735 46.4981 22.8136 46.0191 22.7537 45.9892C22.7537 45.9892 22.2748 45.9293 22.2448 45.9892C22.2149 46.049 22.3945 46.4682 22.3646 46.558C22.3347 46.6179 21.6761 46.4981 21.6761 46.558C21.6761 46.6179 21.706 47.0071 21.7659 47.0371C21.8258 47.0969 22.4245 47.0969 22.4245 47.0969C22.5442 47.1868 22.5741 47.3963 22.5741 47.576C22.5741 47.8454 22.3646 47.9652 22.0652 47.8754C21.4665 47.7257 20.7481 46.4383 20.329 45.57C19.9997 44.9114 19.8201 43.8635 20.6583 43.5341C21.1672 43.3545 21.706 43.4443 22.2448 43.624C22.8136 43.8036 23.562 44.0132 24.011 44.3126C24.1307 44.3725 23.8913 44.3126 24.2804 45.2108C24.46 45.6299 24.6396 46.4981 24.5798 46.9173M29.7286 45.5101C29.3095 46.3784 28.5611 47.6658 27.9923 47.8155C27.693 47.9053 27.4835 47.7855 27.4835 47.5161C27.4835 47.3065 27.5134 47.1269 27.6331 47.0371C27.6331 47.0371 28.2318 47.0371 28.2917 46.9772C28.3516 46.9173 28.4114 46.558 28.3815 46.4981C28.3815 46.4383 27.7229 46.558 27.693 46.4981C27.6631 46.4383 27.8726 46.0191 27.8127 45.9293C27.7828 45.8694 27.3038 45.9293 27.3038 45.9293C27.244 45.9592 27.1841 46.4682 27.1242 46.4981C27.0644 46.558 26.6153 46.4981 26.5555 46.5281C26.4956 46.588 26.4058 46.9772 26.4357 47.0371C26.4657 47.0969 26.9746 47.0371 27.0344 47.0371C27.0943 47.1868 26.9147 47.4861 26.7351 47.6358C26.5854 47.7556 26.4357 47.8155 26.2561 47.8155C25.9568 47.8155 25.6275 47.4263 25.5077 46.7975C25.4179 46.3484 25.6275 45.4802 25.8071 45.091C26.1963 44.2228 25.9568 44.2826 26.0765 44.1928C26.5255 43.9234 27.2739 43.6838 27.8427 43.5042C28.3815 43.3545 28.9203 43.2348 29.4292 43.4144C30.2674 43.7437 30.0579 44.7916 29.7585 45.4503" fill="white"/>
<path d="M33.9497 48.8936V49.642H38.1705H42.3913V48.8936H38.1705H33.9497Z" fill="white"/>
<path d="M43.7385 44.0731C43.6188 43.3845 43.05 42.9054 42.3914 42.8455C41.1641 42.7557 40.1164 43.4144 38.9489 43.624C38.8591 43.624 38.7394 43.4443 38.6196 43.3246C39.1585 42.9054 39.0986 42.0971 38.47 41.7378C38.44 41.6779 38.47 41.2288 38.47 41.1989C38.5298 41.1689 38.919 41.2288 38.9789 41.1989C39.0387 41.139 39.0387 40.66 38.9789 40.6001C38.9489 40.5402 38.4999 40.6001 38.47 40.6001C38.47 40.5702 38.47 40.1211 38.44 40.0911C38.44 40.0911 38.3502 40.0911 38.3203 40.0911H38.1407H38.0509C38.0209 40.1211 38.0509 40.5702 38.0509 40.6001C38.0509 40.63 37.5719 40.6001 37.542 40.6001C37.512 40.66 37.4821 41.139 37.542 41.1989C37.6018 41.2588 37.991 41.1989 38.0509 41.1989C38.0509 41.1989 38.0808 41.6779 38.0509 41.7378C37.4222 42.0971 37.3324 42.9054 37.9012 43.3246C37.7815 43.4443 37.6617 43.6539 37.5719 43.624C36.4044 43.4144 35.3268 42.7557 34.1294 42.8455C33.4409 42.9054 32.9021 43.3845 32.7823 44.0731C32.5728 45.3305 33.4708 46.2886 33.8899 47.3364C34.0396 47.6658 34.1593 48.1149 34.1294 48.5041H42.5112C42.5112 48.1149 42.601 47.6658 42.7506 47.3364C43.1697 46.2886 44.0678 45.3305 43.8582 44.0731M37.6917 46.8574C37.5719 47.4861 37.2426 47.8754 36.9433 47.8754C36.7637 47.8754 36.614 47.8155 36.4643 47.6957C36.2847 47.5161 36.135 47.2466 36.165 47.0969C36.1949 47.0371 36.7337 47.0969 36.7637 47.0969C36.7936 47.0371 36.7038 46.6478 36.6439 46.588C36.5841 46.5281 36.135 46.588 36.0752 46.558C36.0153 46.4981 35.9554 46.0191 35.8956 45.9892C35.8956 45.9892 35.4166 45.9293 35.3867 45.9892C35.3567 46.049 35.5363 46.4682 35.5064 46.558C35.4765 46.6179 34.8179 46.4981 34.8179 46.558C34.8179 46.6179 34.8478 47.0071 34.9077 47.0371C34.9676 47.0969 35.5663 47.0969 35.5663 47.0969C35.686 47.1868 35.7159 47.3963 35.7159 47.576C35.7159 47.8454 35.5064 47.9652 35.2071 47.8754C34.6084 47.7257 33.8899 46.4383 33.4708 45.57C33.1415 44.9114 32.9619 43.8635 33.8001 43.5341C34.309 43.3545 34.8478 43.4443 35.3867 43.624C35.9554 43.8036 36.7038 44.0132 37.1528 44.3126C37.2726 44.3725 37.0331 44.3126 37.4222 45.2108C37.6018 45.6299 37.7815 46.4981 37.7216 46.9173M42.9003 45.5101C42.4812 46.3784 41.7329 47.6658 41.1641 47.8155C40.8647 47.9053 40.6552 47.7855 40.6552 47.5161C40.6552 47.3065 40.6851 47.1269 40.8049 47.0371C40.8049 47.0371 41.4036 47.0371 41.4634 46.9772C41.5233 46.9173 41.5832 46.558 41.5532 46.4981C41.5532 46.4383 40.8947 46.558 40.8647 46.4981C40.8348 46.4383 41.0444 46.0191 40.9845 45.9293C40.9546 45.8694 40.4756 45.9293 40.4756 45.9293C40.4157 45.9592 40.3559 46.4682 40.296 46.4981C40.2361 46.558 39.7871 46.4981 39.7272 46.5281C39.6674 46.588 39.5775 46.9772 39.6075 47.0371C39.6374 47.0969 40.1463 47.0371 40.2062 47.0371C40.2661 47.1868 40.0864 47.4861 39.9068 47.6358C39.7572 47.7556 39.6075 47.8155 39.4279 47.8155C39.1285 47.8155 38.7992 47.4263 38.6795 46.7975C38.5897 46.3484 38.7992 45.4802 38.9789 45.091C39.368 44.2228 39.1285 44.2826 39.2483 44.1928C39.6973 43.9234 40.4457 43.6838 41.0144 43.5042C41.5533 43.3545 42.0921 43.2348 42.601 43.4144C43.4391 43.7437 43.2296 44.7916 42.9303 45.4503" fill="white"/>
<path d="M7.63684 48.8936V49.642H11.8577H16.1084V48.8936H11.8577H7.63684Z" fill="white"/>
<path d="M17.4256 44.0731C17.3059 43.3845 16.7371 42.9054 16.0786 42.8455C14.8512 42.7557 13.8035 43.4144 12.6361 43.624C12.5462 43.624 12.4265 43.4443 12.3068 43.3246C12.8456 42.9054 12.7857 42.0971 12.1571 41.7378C12.1272 41.6779 12.1571 41.2288 12.1571 41.1989C12.217 41.1689 12.6061 41.2288 12.666 41.1989C12.7259 41.139 12.7259 40.66 12.666 40.6001C12.6361 40.5402 12.187 40.6001 12.1571 40.6001C12.1571 40.5702 12.1571 40.1211 12.1272 40.0911C12.1272 40.0911 12.0374 40.0911 12.0074 40.0911H11.8278H11.738C11.7081 40.1211 11.738 40.5702 11.738 40.6001C11.738 40.63 11.259 40.6001 11.2291 40.6001C11.1992 40.66 11.1692 41.139 11.2291 41.1989C11.289 41.2588 11.6781 41.1989 11.738 41.1989C11.738 41.1989 11.7679 41.6779 11.738 41.7378C11.1094 42.0971 11.0196 42.9054 11.5883 43.3246C11.4686 43.4443 11.3489 43.6539 11.259 43.624C10.0916 43.4144 9.01393 42.7557 7.81654 42.8455C7.12803 42.9054 6.58921 43.3845 6.46947 44.0731C6.25992 45.3305 7.15797 46.2886 7.57706 47.3364C7.72673 47.6658 7.84647 48.1149 7.81654 48.5041H16.1983C16.1983 48.1149 16.2881 47.6658 16.4378 47.3364C16.8569 46.2886 17.7549 45.3305 17.5454 44.0731M11.4087 46.8574C11.289 47.4861 10.9597 47.8754 10.6603 47.8754C10.4807 47.8754 10.3311 47.8155 10.1814 47.6957C10.0018 47.5161 9.85211 47.2466 9.88204 47.0969C9.91198 47.0371 10.4508 47.0969 10.4807 47.0969C10.5107 47.0371 10.4209 46.6478 10.361 46.588C10.3011 46.5281 9.85211 46.588 9.79224 46.558C9.73237 46.4981 9.6725 46.0191 9.61263 45.9892C9.61263 45.9892 9.13367 45.9293 9.10374 45.9892C9.0738 46.049 9.25341 46.4682 9.22348 46.558C9.19354 46.6179 8.53497 46.4981 8.53497 46.558C8.53497 46.6179 8.56491 47.0071 8.62478 47.0371C8.68465 47.0969 9.28334 47.0969 9.28334 47.0969C9.40308 47.1868 9.43302 47.3963 9.43302 47.576C9.43302 47.8454 9.22347 47.9652 8.92413 47.8754C8.32543 47.7257 7.60699 46.4383 7.1879 45.57C6.85862 44.9114 6.67901 43.8635 7.51719 43.5341C8.02608 43.3545 8.56491 43.4443 9.10374 43.624C9.6725 43.8036 10.4209 44.0132 10.8699 44.3126C10.9896 44.3725 10.7502 44.3126 11.1393 45.2108C11.3189 45.6299 11.4985 46.4981 11.4387 46.9173M16.5875 45.5101C16.1684 46.3784 15.42 47.6658 14.8512 47.8155C14.5519 47.9053 14.3423 47.7855 14.3423 47.5161C14.3423 47.3065 14.3723 47.1269 14.492 47.0371C14.492 47.0371 15.0907 47.0371 15.1506 46.9772C15.2104 46.9173 15.2703 46.558 15.2404 46.4981C15.2404 46.4383 14.5818 46.558 14.5519 46.4981C14.5219 46.4383 14.7315 46.0191 14.6716 45.9293C14.6417 45.8694 14.1627 45.9293 14.1627 45.9293C14.1029 45.9592 14.043 46.4682 13.9831 46.4981C13.9233 46.558 13.4742 46.4981 13.4144 46.5281C13.3545 46.588 13.2647 46.9772 13.2946 47.0371C13.3246 47.0969 13.8334 47.0371 13.8933 47.0371C13.9532 47.1868 13.7736 47.4861 13.594 47.6358C13.4443 47.7556 13.2946 47.8155 13.115 47.8155C12.8157 47.8155 12.4864 47.4263 12.3666 46.7975C12.2768 46.3484 12.4864 45.4802 12.666 45.091C13.0551 44.2228 12.8157 44.2826 12.9354 44.1928C13.3844 43.9234 14.1328 43.6838 14.7016 43.5042C15.2404 43.3545 15.7792 43.2348 16.2881 43.4144C17.1263 43.7437 16.9167 44.7916 16.6174 45.4503" fill="white"/>
<path d="M7.63684 26.1099V26.8284H11.8577H16.1084V26.1099H11.8577H7.63684Z" fill="white"/>
<path d="M17.4256 21.2899C17.3059 20.6013 16.7371 20.1222 16.0786 20.0623C14.8512 19.9725 13.8035 20.6312 12.6361 20.8408C12.5462 20.8408 12.4265 20.6611 12.3068 20.5414C12.8456 20.1222 12.7857 19.3139 12.1571 18.9546C12.1272 18.8947 12.1571 18.4456 12.1571 18.4157C12.217 18.3857 12.6061 18.4456 12.666 18.4157C12.7259 18.3558 12.7259 17.8768 12.666 17.8169C12.6361 17.757 12.187 17.8169 12.1571 17.8169C12.1571 17.787 12.1571 17.3379 12.1272 17.3079C12.1272 17.3079 12.0374 17.3079 12.0074 17.3079H11.8278H11.738C11.7081 17.3379 11.738 17.787 11.738 17.8169C11.738 17.8468 11.259 17.8169 11.2291 17.8169C11.1992 17.8768 11.1692 18.3558 11.2291 18.4157C11.289 18.4756 11.6781 18.4157 11.738 18.4157C11.738 18.4157 11.7679 18.8947 11.738 18.9546C11.1094 19.3139 11.0196 20.1222 11.5883 20.5414C11.4686 20.6611 11.3489 20.8707 11.259 20.8408C10.0916 20.6312 9.01393 19.9725 7.81654 20.0623C7.12803 20.1222 6.58921 20.6013 6.46947 21.2899C6.25992 22.5473 7.15797 23.5054 7.57706 24.5532C7.72673 24.8826 7.84647 25.3317 7.81654 25.7209H16.1983C16.1983 25.3317 16.2881 24.8826 16.4378 24.5532C16.8569 23.5054 17.7549 22.5473 17.5454 21.2899M11.4087 24.0443C11.289 24.673 10.9597 25.0622 10.6603 25.0622C10.4807 25.0622 10.3311 25.0023 10.1814 24.8826C10.0018 24.7029 9.85211 24.4335 9.88204 24.2838C9.91198 24.2239 10.4508 24.2838 10.4807 24.2838C10.5107 24.2239 10.4209 23.8347 10.361 23.7748C10.3011 23.7149 9.85211 23.7748 9.79224 23.7449C9.73237 23.685 9.6725 23.206 9.61263 23.176C9.61263 23.176 9.13367 23.1162 9.10374 23.176C9.0738 23.2359 9.25341 23.6551 9.22348 23.7449C9.19354 23.8048 8.53497 23.685 8.53497 23.7449C8.53497 23.8048 8.56491 24.194 8.62478 24.2239C8.68465 24.2838 9.28334 24.2838 9.28334 24.2838C9.40308 24.3736 9.43302 24.5832 9.43302 24.7628C9.43302 25.0323 9.22347 25.152 8.92413 25.0622C8.32543 24.9125 7.60699 23.6251 7.1879 22.7569C6.85862 22.0982 6.67901 21.0503 7.51719 20.721C8.02608 20.5414 8.56491 20.6312 9.10374 20.8108C9.6725 20.9905 10.4209 21.2 10.8699 21.4994C10.9896 21.5593 10.7502 21.4994 11.1393 22.3976C11.3189 22.8168 11.4985 23.685 11.4387 24.1042M16.5875 22.727C16.1684 23.5952 15.42 24.8826 14.8512 25.0323C14.5519 25.1221 14.3423 25.0023 14.3423 24.7329C14.3423 24.5233 14.3723 24.3437 14.492 24.2539C14.492 24.2539 15.0907 24.2539 15.1506 24.194C15.2104 24.1341 15.2703 23.7748 15.2404 23.7149C15.2404 23.6551 14.5818 23.7748 14.5519 23.7149C14.5219 23.6551 14.7315 23.2359 14.6716 23.1461C14.6417 23.0862 14.1627 23.1461 14.1627 23.1461C14.1029 23.176 14.043 23.685 13.9831 23.7149C13.9233 23.7748 13.4742 23.715 13.4144 23.7449C13.3545 23.8048 13.2647 24.194 13.2946 24.2539C13.3246 24.3137 13.8334 24.2539 13.8933 24.2539C13.9532 24.4035 13.7736 24.7029 13.594 24.8526C13.4443 24.9724 13.2946 25.0323 13.115 25.0323C12.8157 25.0323 12.4864 24.6431 12.3666 24.0143C12.2768 23.5653 12.4864 22.697 12.666 22.3078C13.0551 21.4396 12.8157 21.4994 12.9354 21.4096C13.3844 21.1402 14.1328 20.9006 14.7016 20.721C15.2404 20.5713 15.7792 20.4516 16.2881 20.6312C17.1263 20.9605 16.9167 22.0084 16.6174 22.6671" fill="white"/>
<path d="M7.63672 14.7026V15.4511H11.8575H16.1083V14.7026H11.8575H7.63672Z" fill="white"/>
<path d="M17.4255 9.88263C17.3058 9.19403 16.737 8.715 16.0784 8.65512C14.8511 8.5653 13.8034 9.22396 12.6359 9.43354C12.5461 9.43354 12.4264 9.25391 12.3066 9.13415C12.8455 8.715 12.7856 7.90663 12.157 7.54736C12.127 7.48748 12.157 7.03839 12.157 7.00845C12.2168 6.97851 12.606 7.03839 12.6659 7.00845C12.7257 6.94857 12.7257 6.46955 12.6659 6.40967C12.6359 6.34979 12.1869 6.40967 12.157 6.40967C12.157 6.37973 12.157 5.93064 12.127 5.9007C12.127 5.9007 12.0372 5.9007 12.0073 5.9007H11.8277H11.7379C11.7079 5.93064 11.7379 6.37973 11.7379 6.40967C11.7379 6.43961 11.2589 6.40967 11.229 6.40967C11.1991 6.46955 11.1691 6.94857 11.229 7.00845C11.2889 7.06833 11.678 7.00845 11.7379 7.00845C11.7379 7.00845 11.7678 7.48748 11.7379 7.54736C11.1093 7.90663 11.0194 8.715 11.5882 9.13415C11.4685 9.25391 11.3487 9.46348 11.2589 9.43354C10.0915 9.22396 9.01381 8.5653 7.81641 8.65512C7.12791 8.715 6.58908 9.19403 6.46934 9.88263C6.2598 11.1401 7.15785 12.0981 7.57693 13.146C7.72661 13.4754 7.84635 13.9244 7.81641 14.3137H16.1982C16.1982 13.9244 16.288 13.4754 16.4377 13.146C16.8567 12.0981 17.7548 11.1401 17.5452 9.88263M11.4086 12.6371C11.2889 13.2658 10.9596 13.655 10.6602 13.655C10.4806 13.655 10.3309 13.5951 10.1813 13.4753C10.0017 13.2957 9.85199 13.0263 9.88192 12.8766C9.91186 12.8167 10.4507 12.8766 10.4806 12.8766C10.5106 12.8167 10.4207 12.4275 10.3609 12.3676C10.301 12.3077 9.85198 12.3676 9.79211 12.3377C9.73225 12.2778 9.67238 11.7987 9.61251 11.7688C9.61251 11.7688 9.13355 11.7089 9.10361 11.7688C9.07368 11.8287 9.25329 12.2478 9.22335 12.3377C9.19342 12.3975 8.53485 12.2778 8.53485 12.3377C8.53485 12.3975 8.56479 12.7867 8.62466 12.8167C8.68453 12.8766 9.28322 12.8766 9.28322 12.8766C9.40296 12.9664 9.4329 13.176 9.4329 13.3556C9.4329 13.625 9.22335 13.7448 8.924 13.655C8.32531 13.5053 7.60687 12.2179 7.18778 11.3497C6.8585 10.691 6.67889 9.64312 7.51707 9.31378C8.02596 9.13415 8.56479 9.22397 9.10361 9.4036C9.67238 9.58324 10.4207 9.79281 10.8698 10.0922C10.9895 10.1521 10.75 10.0922 11.1392 10.9904C11.3188 11.4095 11.4984 12.2778 11.4385 12.6969M16.5873 11.3197C16.1682 12.188 15.4199 13.4754 14.8511 13.625C14.5518 13.7149 14.3422 13.5951 14.3422 13.3257C14.3422 13.1161 14.3722 12.9364 14.4919 12.8466C14.4919 12.8466 15.0906 12.8466 15.1505 12.7867C15.2103 12.7269 15.2702 12.3676 15.2403 12.3077C15.2403 12.2478 14.5817 12.3676 14.5518 12.3077C14.5218 12.2478 14.7314 11.8287 14.6715 11.7389C14.6416 11.679 14.1626 11.7389 14.1626 11.7389C14.1027 11.7688 14.0429 12.2778 13.983 12.3077C13.9231 12.3676 13.4741 12.3077 13.4142 12.3377C13.3544 12.3975 13.2646 12.7867 13.2945 12.8466C13.3244 12.9065 13.8333 12.8466 13.8932 12.8466C13.9531 12.9963 13.7735 13.2957 13.5938 13.4454C13.4442 13.5652 13.2945 13.625 13.1149 13.625C12.8155 13.625 12.4863 13.2358 12.3665 12.6071C12.2767 12.158 12.4863 11.2898 12.6659 10.9006C13.055 10.0323 12.8155 10.0922 12.9353 10.0024C13.3843 9.73293 14.1327 9.49342 14.7014 9.31378C15.2403 9.16409 15.7791 9.04433 16.288 9.22396C17.1262 9.5533 16.9166 10.6012 16.6173 11.2598" fill="white"/>
<path d="M56.5809 56.5288C53.9167 56.5288 51.7614 58.6844 51.7614 61.349V118.024C51.7614 118.024 51.941 117.964 52.0607 117.934C52.7492 117.725 53.7071 117.425 54.9045 117.006C80.9778 107.755 98.7591 83.8335 100.705 56.5588H56.5509L56.5809 56.5288Z" fill="#DC001E" stroke="#940008" stroke-width="0.37" stroke-miterlimit="10"/>
<mask id="mask0_2028_4182" style="mask-type:luminance" maskUnits="userSpaceOnUse" x="52" y="57" width="48" height="61">
<path d="M56.9698 57.248C54.3954 57.248 52.2999 59.3438 52.2999 61.9186V117.007C52.2999 117.007 52.4795 116.947 52.5993 116.917C53.2578 116.738 54.1858 116.438 55.3533 116.019C80.6782 107.037 97.9806 83.7743 99.8964 57.248H56.9698Z" fill="white"/>
</mask>
<g mask="url(#mask0_2028_4182)">
<path d="M95.7355 85.7806L90.8561 87.7865L94.1789 88.7147L93.1311 89.7625L94.9871 91.978L91.9337 92.8463L91.9637 94.1337L86.3958 92.3074L85.2583 93.3852L83.3724 89.2835L74.0626 94.6726L73.6735 94.8822V122.786H72.8652V94.8522L72.5659 94.6726L63.4956 89.4332L61.7295 93.4451L60.6219 92.2475L54.9941 94.0439L55.024 92.7864L51.9408 92.0379L53.7368 89.7625L52.6891 88.6847L56.0718 87.8165L51.1924 85.6608L52.6891 84.7627L50.8032 81.5592L54.3954 81.649L54.6648 79.8526L58.8557 83.0561L57.9876 79.7029L59.3646 80.0921L60.3824 77.3677L62.6574 79.5832L63.795 78.8946L64.9624 84.6429L66.4891 85.092L63.8848 88.8045L72.8652 94.0139V82.8465L68.1056 83.3555L68.6145 81.649L63.795 77.3078L65.0223 76.6192L64.0344 73.266L67.1776 73.7749L67.6266 72.1582L70.3208 74.9126L69.6921 69.0445L71.3984 69.9726L73.4041 66.4697L75.29 69.9128L77.1459 69.1643L76.3975 74.9126L79.0917 72.278L79.4808 73.8049L82.6539 73.266L81.7858 76.679L83.0431 77.3377L78.2236 81.619L78.6127 83.3256L73.6735 82.8765V94.0439L83.0131 88.6548L80.4387 85.092L82.0253 84.7327L83.2526 78.9544L84.3602 79.6131L86.5455 77.3078L87.5633 80.0023L89.0301 79.643L88.1021 83.0262L92.4127 79.8526L92.4726 81.5891L96.1546 81.5592L94.2986 84.6429L95.7355 85.7806Z" fill="white"/>
</g>
</svg>
