<svg width="144" height="217" viewBox="0 0 144 217" fill="none" xmlns="http://www.w3.org/2000/svg">
<path d="M71.6571 213.67C71.6571 213.67 69.5588 213.161 66.2316 211.963C28.4631 198.58 3.10425 162.593 3.10425 122.385V43.6743H141.379V46.2192V122.415C141.379 162.623 116.02 198.61 78.2816 211.993C74.9543 213.191 72.916 213.67 72.8261 213.7L72.2266 213.85L71.6271 213.7L71.6571 213.67Z" fill="white"/>
<path d="M138.861 46.1887V122.384C138.861 161.485 114.341 196.514 77.442 209.568C74.2047 210.735 72.2264 211.214 72.2264 211.214C72.2264 211.214 70.278 210.735 67.0407 209.568C30.1715 196.514 5.62193 161.485 5.62193 122.384V46.1887H138.831M138.861 41.1289H0.556152V46.1887V122.384C0.556152 163.671 26.6044 200.616 65.3621 214.328C68.8092 215.555 70.9375 216.094 71.0274 216.094L72.2264 216.394L73.4254 216.094C73.4254 216.094 75.6735 215.526 79.1506 214.298C117.878 200.586 143.927 163.641 143.927 122.354V41.1289H138.831H138.861Z" fill="white"/>
<path d="M92.0102 39.1537C91.7105 39.1537 91.2309 39.0639 90.9311 38.9441C88.4132 37.986 85.5956 37.2974 82.3283 36.8483C79.1509 36.3693 75.8837 36.1597 72.3166 36.1597H71.2075C66.2017 36.2196 61.7055 36.7585 57.419 37.8064C55.9203 38.1657 54.7812 38.5249 53.7921 38.9142C53.4923 39.0339 52.9827 39.1537 52.653 39.1537C51.6938 39.1537 50.4049 38.5848 49.9852 36.998C49.7454 36.0699 49.4157 35.1418 49.086 34.1837C48.7862 33.3155 48.9661 32.3874 49.5656 31.6988C50.0452 31.1299 50.7646 30.8305 51.484 30.8305C51.6638 30.8305 51.8137 30.8305 51.9936 30.8904C51.9936 30.8904 53.1926 31.1299 53.4923 31.1898C53.882 31.2497 54.3016 31.3096 54.7213 31.3096C54.9311 31.3096 55.111 31.3096 55.3208 31.2796C55.5006 31.2796 55.6805 31.2497 55.9802 30.7108C56.4299 29.9324 56.7296 28.9743 56.9095 27.8067C56.9694 27.4474 57.1493 25.9205 57.1493 25.9205C57.1792 24.693 58.1085 23.9145 58.9478 23.6451C59.2175 23.5553 59.5173 23.4954 59.7871 23.4954C60.6863 23.4954 61.6755 24.0942 62.1251 24.8726C62.8146 25.8307 63.5639 26.8187 64.4332 27.627C64.703 27.8665 65.0327 28.1659 65.2725 28.2558C65.2725 28.2558 65.3025 28.2558 65.3325 28.2558C65.4224 28.2558 65.5123 28.2258 65.6921 28.0462C66.3216 27.5073 66.8312 26.7588 67.4307 25.5313C68.3299 23.7349 68.9295 21.8188 69.5889 19.4536C69.8287 17.8668 71.1176 17.0884 72.2867 17.0884C73.3658 17.0884 74.7146 17.747 75.0144 19.5733C75.524 21.4895 76.2134 23.8547 77.3225 25.9804C77.892 27.0582 78.3716 27.6869 78.9411 28.1061L80.6797 30.2916L79.3907 28.1061C80.0502 27.7168 80.5897 27.0881 81.0993 26.4893C81.3991 26.1301 81.6988 25.7408 81.9986 25.3516L82.5381 24.663C83.1976 23.6152 84.3066 23.4655 84.7563 23.4655C84.9661 23.4655 85.2059 23.4655 85.3857 23.5553C86.255 23.7649 87.2742 24.5433 87.454 26.0103C87.5739 27.0282 87.6938 28.1659 87.9936 29.1539C88.1734 29.7228 88.3832 30.2617 88.623 30.7407C88.8329 31.1299 89.0127 31.2497 89.5523 31.2497C90.3616 31.2497 91.2009 31.1299 92.1901 30.8904C92.3999 30.8305 92.7596 30.8006 92.9694 30.8006C93.8387 30.8006 94.648 31.2197 95.1276 31.9084C95.6072 32.567 95.6971 33.6748 95.3974 34.4532C95.1276 35.2616 94.8279 36.0999 94.618 36.9681C94.3183 38.2555 93.2392 39.0938 91.9802 39.0938L92.0102 39.1537Z" fill="white"/>
<path d="M53.6115 46.7284C52.1727 46.7284 51.0037 45.8002 50.7039 44.453C50.3143 42.7764 51.3034 41.2495 53.012 40.8303C54.6307 40.4411 56.2193 40.1716 57.5982 39.9321C59.4566 39.6327 61.2551 39.3932 62.9937 39.2435C64.6423 39.0938 66.2909 38.9741 67.9396 38.8843C69.1685 38.8244 70.4275 38.7944 71.6565 38.7944H72.8854C75.4633 38.7944 78.221 38.9441 81.3084 39.2136C85.0853 39.5729 88.3825 40.0818 91.44 40.7704C91.6798 40.8303 92.4891 41.0099 93.1485 41.7285C93.9878 42.6865 94.1677 44.0039 93.5682 45.1116C93.0586 46.0996 92.0395 46.6984 90.9304 46.6984C90.7505 46.6984 90.4508 46.6984 90.2709 46.6385L88.4125 46.2493C86.5241 45.8901 84.4558 45.5907 81.9379 45.3511C78.9704 45.0518 75.8829 44.932 72.4958 44.932C71.2368 44.932 69.9479 44.932 68.6889 44.9919C65.0919 45.0817 61.7647 45.3811 58.5274 45.8901C57.1186 46.0996 55.7397 46.3691 54.3609 46.6685C54.181 46.6984 53.7914 46.7583 53.6115 46.7583V46.7284Z" fill="white"/>
<path d="M53.702 45.1421C52.533 45.1421 51.2141 44.3637 51.0043 42.6272C50.7944 40.9207 50.5247 39.4237 50.1949 38.0166C49.8053 36.4597 50.6146 35.0526 52.1134 34.5736C55.1408 33.6754 58.2582 32.9868 61.4656 32.5077C65.2124 31.9688 68.8694 31.6694 72.3765 31.6694H73.6654C76.7828 31.7293 80.0201 32.0287 83.4972 32.5377C86.3448 32.9568 89.2524 33.6155 92.13 34.4837C93.8985 34.9927 94.6779 36.34 94.2582 37.9567C93.8985 39.4836 93.6587 40.9806 93.4489 42.5674C93.2391 44.2739 91.9202 45.0523 90.7511 45.0523C90.5413 45.0523 90.1816 44.9924 89.9718 44.9625C86.9443 44.1841 83.6471 43.6751 79.6304 43.3757C77.2324 43.1961 74.8944 43.1063 72.2566 43.1063H71.2074C68.8994 43.1063 66.3515 43.226 63.6537 43.4655C60.2366 43.7649 57.2391 44.2739 54.4514 44.9625C54.2416 45.0224 53.8819 45.0823 53.672 45.0823L53.702 45.1421Z" fill="white"/>
<path d="M89.2822 35.6206C87.9333 35.5607 86.0749 34.9918 84.8159 32.7763C84.3363 31.9081 84.0066 31.0099 83.7668 30.1716C83.6768 30.2614 83.6169 30.3213 83.527 30.4111C82.9574 30.95 82.3879 31.3991 81.8184 31.7284C80.9491 32.2374 80.0499 32.4769 79.1506 32.4769C78.2514 32.4769 76.8725 32.2075 75.5836 30.95C74.3546 29.7525 73.6352 28.3453 73.0057 27.028C72.7659 26.519 72.5561 26.01 72.3463 25.4711C71.9866 26.3693 71.5969 27.2375 71.1173 28.1357C70.6377 29.0339 70.1281 29.7525 69.5886 30.4111C68.1198 32.1177 66.5311 32.5069 65.482 32.5069C64.253 32.5069 63.054 32.0578 61.945 31.1596C61.5853 30.8602 61.2256 30.5608 60.8958 30.2315C60.8059 30.5009 60.716 30.7704 60.6261 31.0398C60.2664 31.9979 59.8767 32.7464 59.3971 33.4051C58.4679 34.6924 57.149 35.4409 55.5303 35.5906C55.2006 35.5906 54.9008 35.6206 54.6011 35.6206C53.7318 35.6206 52.8625 35.5008 52.0232 35.411L51.2139 35.3212C50.7643 35.2613 49.4154 34.9918 48.8759 33.3751C48.2464 31.8183 47.527 30.3213 46.7177 28.9441C46.268 28.1357 45.8484 27.4471 45.4287 26.8184C44.4096 26.6986 43.4804 26.2196 42.7909 25.4412C41.9217 24.4532 41.532 23.1059 41.7118 21.609C41.7418 21.3395 41.8018 21.07 41.8617 20.8006C41.7118 20.6509 41.562 20.5012 41.4421 20.2916C40.9924 19.603 40.9025 18.7048 41.2023 17.9564C41.3821 17.4773 41.4421 17.0582 41.3521 16.5492C41.1423 15.4714 41.6519 14.3936 42.6111 13.8547C43.0008 13.6451 43.4204 13.5253 43.8401 13.5253C44.4695 13.5253 45.069 13.7648 45.5486 14.184C45.9683 14.5732 46.328 14.7828 46.8076 14.8427C47.6469 14.9924 48.3363 15.5313 48.696 16.3097C48.7859 16.4893 48.8159 16.669 48.8759 16.8486C50.4046 17.3875 51.5436 18.5252 52.0232 19.9922C52.353 21.0102 52.323 22.088 51.9633 23.076C52.4729 23.7646 53.0124 24.4233 53.6119 24.9622C53.6119 24.9622 53.6419 24.9622 53.6719 24.9921H53.7018C54.3013 24.3334 54.6311 23.4951 54.691 22.3574C54.721 21.6988 54.691 21.0102 54.4812 20.2617C53.7618 19.9623 53.1623 19.4833 52.7127 18.8545C51.9333 17.8067 51.6935 16.4594 51.9933 15.0822C52.0532 14.8726 52.0832 14.663 52.1731 14.4535C52.0532 14.3038 51.9333 14.1541 51.8434 13.9744C51.4537 13.2559 51.4237 12.3577 51.8134 11.6092C52.0532 11.1601 52.1132 10.741 52.0532 10.2021C51.9333 9.12425 52.5328 8.07637 53.522 7.62728C53.8517 7.47759 54.2114 7.38777 54.5711 7.38777C55.2605 7.38777 55.95 7.68716 56.4296 8.19613C56.8192 8.61528 57.1789 8.8548 57.6286 8.97455C58.4379 9.18413 59.0973 9.78292 59.3671 10.5913C59.4271 10.7709 59.457 10.9505 59.487 11.1302C60.6261 11.5793 61.5253 12.4176 62.0649 13.4655C62.6644 14.663 62.6943 16.0702 62.1548 17.2977C62.0649 17.5073 61.9749 17.6869 61.855 17.8665C62.6044 19.1839 63.4437 20.1719 64.4029 20.9203C64.6427 21.1 64.7626 21.1599 64.8226 21.1599C64.8226 21.1599 64.9724 21.07 65.2122 20.8305C65.9316 20.1419 66.4712 19.1839 66.9208 17.6869C67.2206 16.7588 67.4004 15.7408 67.4604 14.6331C66.741 13.9744 66.2314 13.1062 66.0216 12.1481C65.6619 10.6811 65.9916 9.12425 66.8908 7.89674C67.1906 7.47759 67.5503 7.11831 67.91 6.78898C67.85 6.57941 67.7901 6.36983 67.7601 6.16026C67.7002 5.32196 68.0299 4.51359 68.6594 3.97468C69.3188 3.43578 69.7085 2.83699 69.9783 2.02863C70.308 0.980751 71.2672 0.262207 72.3763 0.262207C73.4554 0.262207 74.4146 0.950812 74.7743 1.96875C75.074 2.83699 75.4637 3.43578 76.0932 3.91481C76.7526 4.42377 77.1123 5.26208 77.0524 6.10038C77.0524 6.33989 76.9924 6.57941 76.9025 6.81892C77.6519 7.47759 78.4312 8.37577 78.7609 9.72304C79.2106 11.5194 78.641 13.3457 77.3821 14.5732C77.502 16.4594 77.8617 17.9264 78.5211 19.2437C78.9708 20.1419 79.4204 20.7108 79.9899 21.07C80.7093 20.6808 81.2788 20.1419 81.9683 19.2737C82.328 18.8246 82.6577 18.3456 82.9874 17.7767C82.5078 16.9384 82.268 15.9504 82.3879 14.9624C82.5678 13.4056 83.497 12.0583 84.9358 11.3098C84.9358 11.2499 84.9358 11.1901 84.9658 11.1302C85.1456 10.3218 85.7151 9.66316 86.4945 9.36377C86.9741 9.18413 87.3038 8.91468 87.6036 8.49552C88.0832 7.83686 88.8625 7.44765 89.6419 7.44765C89.8817 7.44765 90.1514 7.47759 90.4212 7.5674C91.4703 7.89674 92.1598 8.8548 92.1897 9.93261C92.1897 10.5015 92.3097 10.9206 92.5495 11.3098C93.0291 11.9984 93.089 12.8966 92.7893 13.675C92.7293 13.7948 92.6693 13.9145 92.6094 14.0044C92.7593 14.3636 92.8792 14.7528 92.9391 15.1421C93.2389 16.9085 92.6693 18.1061 92.1298 18.8246C91.7701 19.3036 91.2006 19.8425 90.3013 20.2018C90.0016 21.5191 90.0315 22.6868 90.3912 23.7646C90.631 24.4233 90.9008 24.7526 91.1406 24.9322C91.7401 24.4532 92.2197 23.8544 92.7593 23.1658C92.7893 23.1059 92.8492 23.046 92.8792 22.9862C92.4595 21.8784 92.4895 20.6509 92.9991 19.4833C93.5686 18.1061 94.6477 17.148 96.0865 16.669C96.4162 15.9205 97.1056 15.3217 97.915 15.172C98.4245 15.0822 98.8142 14.9025 99.1739 14.5433C99.6535 14.0942 100.283 13.8547 100.912 13.8547C101.332 13.8547 101.752 13.9445 102.111 14.1541C103.071 14.663 103.58 15.7408 103.4 16.8187C103.31 17.3875 103.34 17.8067 103.52 18.2258C103.85 19.0042 103.76 19.8725 103.281 20.591C103.221 20.6808 103.131 20.7707 103.071 20.8605C103.191 21.4593 103.221 22.058 103.161 22.6868C102.951 24.7526 101.392 26.3693 99.3838 26.6088C97.915 28.8243 96.7759 31.0099 95.9066 33.2254C95.3071 34.6924 94.1381 34.9918 93.6585 35.0517H93.3887C92.3096 35.2314 91.2006 35.411 90.0016 35.411C89.7917 35.411 89.5819 35.411 89.3721 35.411L89.2822 35.6206Z" fill="white"/>
<path d="M92.8193 33.4044C91.7702 33.6439 90.6911 33.8236 89.582 33.8236C88.1732 33.8236 87.124 33.2248 86.4346 31.9673C86.0749 31.3087 85.8051 30.6201 85.5953 29.9015C85.2656 28.7339 85.1157 27.5363 84.9958 26.3387C84.9958 26.219 84.9958 26.0693 84.8459 26.0393C84.726 26.0393 84.6661 26.1591 84.6061 26.2489C84.1265 26.8776 83.6469 27.5064 83.1374 28.1351C82.4479 28.9734 81.6986 29.7518 80.7693 30.3207C79.6902 30.9793 78.5212 30.9195 77.5021 30.171C76.4529 29.3925 75.7635 28.3447 75.164 27.207C73.965 24.9915 73.2456 22.5963 72.6161 20.1413C72.5562 19.9617 72.5862 19.6323 72.3464 19.6323C72.1066 19.6323 72.1365 19.9317 72.1066 20.1413C71.5071 22.3867 70.8176 24.5723 69.7685 26.6681C69.169 27.8956 68.4496 29.0632 67.4005 29.9614C66.5612 30.6799 65.602 31.0093 64.4929 30.6201C63.8335 30.3805 63.2939 29.9614 62.7843 29.4824C61.7352 28.4944 60.8959 27.3567 60.0266 26.189C59.9667 26.0992 59.9367 25.9795 59.8168 26.0094C59.7269 26.0393 59.7269 26.1591 59.7269 26.2489C59.637 26.8776 59.577 27.5363 59.4571 28.165C59.2473 29.4824 58.8876 30.7698 58.2281 31.9374C57.6586 32.9553 56.8493 33.6439 55.6503 33.7936C54.781 33.8834 53.9417 33.8236 53.1024 33.7038C52.5928 33.614 52.0833 33.4942 51.5437 33.4044C51.9034 34.4224 52.2331 35.3804 52.5029 36.3984C52.5629 36.6678 52.6528 36.7277 52.9225 36.6379C54.2115 36.1289 55.5304 35.7397 56.8793 35.4104C61.5853 34.2727 66.3813 33.7637 71.2373 33.6739C75.1041 33.614 78.9409 33.8236 82.7777 34.3924C85.8951 34.8415 88.9225 35.5301 91.8901 36.6379C92.0699 36.6977 92.1898 36.7277 92.2498 36.4882C92.4896 35.5601 92.7893 34.6319 93.0891 33.7338C93.179 33.4643 93.149 33.4344 92.8792 33.4942L92.8193 33.4044Z" fill="#143256"/>
<path d="M90.9312 43.2548C87.6939 42.5063 84.4266 42.0572 81.1293 41.7579C78.2517 41.4884 75.3741 41.3088 72.4666 41.3387C71.0278 41.3387 69.589 41.3387 68.1202 41.4285C66.5015 41.5183 64.8829 41.6381 63.2642 41.7878C61.5257 41.9375 59.7871 42.177 58.0486 42.4465C56.5798 42.686 55.111 42.9554 53.6722 43.2848C53.2826 43.3746 53.1627 43.5842 53.2226 43.8835C53.2826 44.153 53.5224 44.2428 53.8821 44.1829C55.3209 43.8536 56.7597 43.6141 58.1985 43.3746C61.6756 42.8357 65.1527 42.5662 68.6597 42.4465C73.186 42.3267 77.7122 42.3866 82.2384 42.8357C84.4865 43.0452 86.7347 43.3446 88.9528 43.7937C89.5823 43.9135 90.2118 44.0632 90.8412 44.1829C91.0511 44.2428 91.2609 44.153 91.3508 43.9434C91.4407 43.7638 91.4108 43.5842 91.2609 43.4345C91.171 43.3147 91.0211 43.2848 90.8712 43.2548H90.9312Z" fill="#143256"/>
<path d="M91.5006 36.997C88.7729 36.1887 86.0152 35.53 83.1976 35.1109C80.0502 34.6318 76.8728 34.3324 73.6955 34.2726C69.7388 34.1828 65.812 34.4821 61.8853 35.051C58.8578 35.5001 55.8603 36.1587 52.9228 37.027C52.683 37.0869 52.623 37.1767 52.683 37.4162C53.1026 39.0329 53.3724 40.6796 53.5523 42.3263C53.5823 42.5957 53.6722 42.6256 53.912 42.5658C57.0593 41.7574 60.2667 41.2784 63.534 40.979C66.5015 40.7095 69.469 40.5598 72.1368 40.6197C74.9245 40.6197 77.4424 40.7095 79.9303 40.8892C83.5573 41.1586 87.1543 41.6376 90.6913 42.5358C90.9311 42.5957 90.9911 42.5358 91.021 42.3263C91.2009 40.7395 91.4707 39.1227 91.8304 37.5659C91.9503 37.027 92.0102 37.1168 91.4707 36.9671L91.5006 36.997ZM56.2201 39.1227C56.1301 39.4221 55.8604 39.6617 55.6206 39.9012C55.6206 39.9012 55.5906 39.9012 55.5306 39.9012C55.3208 39.7515 54.9911 39.6317 54.9311 39.4221C54.8412 39.1826 55.2009 39.0329 55.3508 38.8234C55.4107 38.7036 55.5007 38.6437 55.6206 38.7335C55.6505 38.7335 55.7105 38.7635 55.7405 38.7934C55.8903 38.9132 56.28 38.9431 56.2201 39.1227ZM62.0052 38.494C61.5556 38.8233 61.106 39.1826 60.6563 39.5419C60.5364 39.6317 60.4465 39.6617 60.2967 39.5718C59.7871 39.2425 59.3075 38.9132 58.7679 38.5539C59.3075 38.1347 59.847 37.7455 60.3566 37.3563C60.4765 37.2665 60.5364 37.2964 60.6563 37.3563C61.106 37.6258 61.5256 37.9252 61.9753 38.1946C62.1551 38.2844 62.1851 38.3743 61.9753 38.494H62.0052ZM66.9511 37.7755C66.6813 37.985 66.4115 38.1946 66.1418 38.3743C65.9919 38.4641 65.902 38.2844 65.7821 38.2246C65.1826 37.8054 65.1826 37.8354 65.7521 37.3563C66.0219 37.1168 66.2017 37.0869 66.4715 37.3563C66.6214 37.506 66.8312 37.5659 66.9811 37.7455V37.7755H66.9511ZM72.0169 39.6317C71.2375 38.4042 70.0086 37.8952 68.6597 37.4461C70.0086 36.9971 71.2375 36.4881 72.0169 35.2606C72.9761 36.3084 74.1451 37.027 75.5839 37.4461C74.1451 37.8952 72.9461 38.5838 72.0169 39.6317ZM78.9411 38.1048C78.7912 38.2246 78.6114 38.3144 78.4615 38.4341C78.2817 38.3144 78.1318 38.1946 77.9819 38.0749C77.7021 37.8553 77.7021 37.6557 77.9819 37.4761C78.2617 37.2964 78.5914 37.3064 78.9711 37.506C79.3508 37.7056 79.3508 37.9052 78.9711 38.1048H78.9411ZM84.2467 39.6018C84.2467 39.6018 84.0668 39.6317 83.9769 39.5718C83.4973 39.1826 83.0477 38.8233 82.5681 38.4641C82.4182 38.3443 82.4482 38.2844 82.5681 38.1946C83.0477 37.9252 83.5273 37.6258 83.9769 37.3264C84.0668 37.2665 84.1568 37.2366 84.2467 37.3264C84.7563 37.7455 85.2958 38.1347 85.8653 38.5838C85.2958 38.9431 84.7563 39.2724 84.2467 39.6018ZM89.3724 39.6617C89.1026 39.8712 88.9528 39.8712 88.7429 39.6018C88.2933 39.003 88.2633 39.003 88.9827 38.7335C89.0127 38.7335 89.0727 38.7036 89.1026 38.6737C89.2825 38.7335 89.3424 38.8832 89.4623 39.003C89.7621 39.3623 89.7621 39.3623 89.3724 39.6617Z" fill="#DC001E"/>
<path d="M101.063 19.3932C100.673 18.4651 100.613 17.5669 100.793 16.549C100.043 17.2376 99.2341 17.6568 98.2449 17.8364C98.5147 18.2555 98.6346 18.7046 98.6646 19.1238C98.215 19.0938 97.7953 19.0639 97.3457 19.1238C96.3865 19.2735 95.6071 19.6926 95.2175 20.6208C94.8278 21.5189 95.0076 22.3872 95.6671 23.1357C95.787 23.2854 95.757 23.3452 95.6671 23.465C95.3074 23.944 95.0076 24.423 94.6479 24.8721C93.9585 25.7404 93.2691 26.6086 92.3698 27.2373C91.4706 27.8661 90.6313 27.8661 89.7021 27.2373C88.8028 26.6086 88.2333 25.7404 87.9036 24.7224C87.1542 22.5668 87.394 20.4411 88.1434 18.3454C88.2033 18.1657 88.3232 18.1657 88.4431 18.1657C89.8819 18.016 90.5713 17.1178 90.3315 15.7107C90.2116 14.9323 89.762 14.3634 89.1925 13.8545C89.1026 13.7646 89.0126 13.6748 88.8927 13.585C89.2824 13.2257 89.732 12.9563 90.3315 12.8365C89.792 11.9982 89.5522 11.1 89.5222 10.112C88.9227 10.9204 88.2033 11.4893 87.2741 11.8485C87.6937 12.2976 87.8736 12.7766 87.9935 13.3156C87.334 13.3156 86.7046 13.3455 86.1051 13.6149C84.5164 14.3036 84.2766 16.3095 85.6854 17.3274C85.8653 17.4771 85.8952 17.5669 85.8053 17.7466C85.2358 18.8843 84.6363 19.9621 83.827 20.98C83.0776 21.9081 82.2683 22.7764 81.2491 23.3752C80.3199 23.9141 79.3907 23.9141 78.4914 23.3153C77.4123 22.6267 76.6929 21.6087 76.1534 20.501C75.0743 18.3154 74.7445 15.9802 74.7146 13.585C74.7146 13.3754 74.8345 13.3455 74.9544 13.2856C75.9735 12.7467 76.5131 11.5791 76.2133 10.4713C75.9735 9.57314 75.344 8.97435 74.6246 8.46538C74.1151 8.10611 73.5455 7.83666 72.946 7.59714C73.3057 6.99835 73.7554 6.45944 74.4448 6.07023C73.3957 5.26187 72.7362 4.21399 72.3166 2.95654C71.8969 4.24393 71.2075 5.23193 70.1883 6.10017C70.8778 6.48938 71.3274 6.99835 71.6571 7.59714C71.5972 7.59714 71.5372 7.62708 71.5072 7.65702C70.4581 8.10611 69.4989 8.61508 68.8095 9.5432C67.8503 10.8605 68.2699 12.6569 69.7387 13.3754C69.9186 13.4652 69.9485 13.5551 69.9485 13.7048C69.9485 15.3514 69.7387 16.9981 69.2291 18.5849C68.7495 20.1717 68.0601 21.6387 66.8311 22.8063C65.4823 24.0937 64.1933 24.1536 62.7246 23.0458C60.8961 21.6387 59.6671 19.7824 58.7079 17.7466C58.618 17.5969 58.648 17.5071 58.8278 17.3873C59.2175 17.1478 59.4873 16.8185 59.6671 16.4292C60.2067 15.2017 59.4573 13.8245 58.0485 13.4653C57.4789 13.3156 56.8794 13.3156 56.2799 13.3156C56.2799 13.3156 56.25 13.3156 56.22 13.3156C56.22 12.6868 56.3998 12.088 56.8195 11.5192C55.8603 11.2797 55.0809 10.7707 54.3915 10.0222C54.5114 11.0402 54.3316 11.9383 53.8819 12.8066C54.6013 12.8665 55.1709 13.1958 55.6505 13.6149C54.991 14.1539 54.4814 14.8125 54.3016 15.6508C54.0018 16.9981 54.7512 18.016 56.1001 18.1358C56.2799 18.1358 56.3699 18.1957 56.4298 18.3753C56.8794 19.7226 57.1492 21.0998 57.0593 22.5369C56.9694 24.1237 56.4898 25.5607 55.3507 26.7284C54.1817 27.9259 52.9827 27.9559 51.7237 26.8481C50.6147 25.8302 49.7454 24.6326 48.9061 23.4051C48.8162 23.2554 48.8162 23.1955 48.9061 23.0758C50.0751 21.6087 49.4756 19.6926 47.6771 19.1837C47.0476 19.004 46.3882 19.034 45.7587 19.1238C45.7587 18.525 45.8486 17.9561 46.2083 17.3574C45.2192 17.1777 44.4098 16.7286 43.6904 16.04C43.8703 17.028 43.7804 17.9561 43.4207 18.8543C44.1401 18.8543 44.6796 19.1238 45.1892 19.4831C44.5897 20.1417 44.2 20.9201 44.1101 21.8183C43.9003 23.6147 45.0693 24.453 46.3582 24.1835C46.568 24.1536 46.658 24.2434 46.7779 24.3931C47.4973 25.411 48.1867 26.4889 48.7862 27.5966C49.6854 29.1535 50.4648 30.7702 51.1242 32.4168C51.1842 32.5366 51.1842 32.6863 51.364 32.7162C52.653 32.8659 53.9119 33.1055 55.2008 32.9857C56.0401 32.8959 56.7296 32.5366 57.2391 31.848C57.6288 31.3091 57.8986 30.7103 58.1384 30.0816C58.7679 28.3152 58.9177 26.4889 58.9477 24.6626C58.9477 24.453 58.9477 24.2733 58.9777 24.0638C59.1276 24.0937 59.1575 24.1835 59.2175 24.2733C59.6671 24.8422 60.0868 25.441 60.5364 26.0098C61.4057 27.1176 62.3049 28.2253 63.414 29.0936C64.9127 30.2912 66.3216 30.1415 67.5505 28.7044C68.0301 28.1355 68.4198 27.5068 68.7795 26.8781C69.7987 24.9919 70.4581 22.956 71.0876 20.9201C71.3873 19.9321 71.6571 18.9142 71.9569 17.8963C72.0168 17.7466 72.0168 17.537 72.2266 17.5071C72.4664 17.5071 72.4664 17.7166 72.4964 17.8663C72.6163 18.3154 72.7362 18.7346 72.8561 19.1837C73.4856 21.4591 74.175 23.7344 75.1642 25.8901C75.7037 27.0278 76.2733 28.1655 77.2025 29.0636C78.1617 29.9918 79.2708 30.1415 80.4398 29.4828C80.8894 29.2133 81.2791 28.9139 81.6388 28.5547C82.9877 27.2373 84.1267 25.7404 85.2358 24.2434C85.2957 24.1536 85.3557 24.0039 85.4756 24.0638C85.5655 24.0937 85.5355 24.2434 85.5355 24.3332C85.5355 25.5009 85.5355 26.6386 85.7454 27.8062C85.9552 29.0936 86.2549 30.351 86.9144 31.4887C87.4539 32.4168 88.2033 32.9857 89.3124 33.0456C90.6013 33.1055 91.8603 32.9258 93.1192 32.7462C93.2691 32.7462 93.2991 32.6264 93.359 32.5067C94.4681 29.6924 95.9069 27.0577 97.6155 24.5727C97.8253 24.3033 98.0051 24.2135 98.3349 24.2733C99.414 24.453 100.343 23.7344 100.433 22.6566C100.553 21.5189 100.193 20.5609 99.5339 19.7824C99.9535 19.5429 100.403 19.3932 100.973 19.3932H101.063Z" fill="#143256"/>
<path d="M139.221 122.355V45.7705H5.29248V122.325C5.29248 161.636 29.9619 196.844 67.041 209.988C70.3083 211.155 72.2566 211.634 72.2566 211.634C72.2566 211.634 74.235 211.125 77.5023 209.988C114.581 196.844 139.221 161.636 139.221 122.355ZM77.3824 208.191C74.175 209.329 72.2566 209.808 72.2566 209.808C72.2566 209.808 70.3382 209.329 67.1309 208.191C30.8612 195.347 6.76126 160.917 6.76126 122.475V47.6267H137.692V122.505C137.692 160.947 113.592 195.377 77.3224 208.221L77.3824 208.191Z" fill="#143256"/>
<path d="M82.9583 201.844L82.8684 201.634L83.4079 201.245C83.4079 201.245 83.4979 201.155 83.5278 201.065C83.5278 201.006 83.5278 200.916 83.5278 200.856L81.1298 195.587C81.1298 195.587 81.0399 195.467 80.98 195.437C80.92 195.407 80.8601 195.407 80.7701 195.437L80.1107 195.587L80.0208 195.377L82.5387 194.239L82.6286 194.479L82.089 194.868C82.089 194.868 81.9991 194.958 81.9691 195.048C81.9691 195.107 81.9691 195.197 81.9691 195.257L84.3671 200.527C84.3671 200.527 84.4571 200.646 84.517 200.676C84.577 200.676 84.6669 200.706 84.7268 200.676L85.3863 200.527L85.4762 200.736L82.9583 201.874V201.844Z" fill="black"/>
<path d="M87.4248 199.808L87.3049 199.599L87.8145 199.12C87.8145 199.12 87.9044 199 87.9044 198.94C87.9044 198.88 87.9044 198.79 87.8744 198.731L85.0868 193.701C85.0868 193.701 84.9968 193.581 84.9369 193.551C84.8769 193.521 84.787 193.551 84.7271 193.551L84.0376 193.761L83.9177 193.551L85.4465 192.713L90.8719 195.377L91.6513 195.767L89.2533 191.455C89.2533 191.455 89.1634 191.336 89.1034 191.306C89.0435 191.306 88.9535 191.306 88.8936 191.306L88.2341 191.485L88.1142 191.276L90.0926 190.168L90.2125 190.378L89.7029 190.857C89.7029 190.857 89.613 190.976 89.613 191.036C89.613 191.096 89.613 191.186 89.6429 191.246L92.1908 195.856L92.6405 197.024L92.4007 197.174L86.5555 194.3L85.6863 193.88L88.2941 198.581C88.2941 198.581 88.384 198.701 88.444 198.731C88.5039 198.731 88.5938 198.731 88.6538 198.731L89.3132 198.551L89.4331 198.761L87.4548 199.868L87.4248 199.808Z" fill="black"/>
<path d="M96.4768 194.509L96.3269 194.3L96.8665 193.761C96.8665 193.761 96.9564 193.641 96.9564 193.581C96.9564 193.492 96.9564 193.432 96.8964 193.372L93.4493 188.342L92.0705 189.27C92.0705 189.27 91.9805 189.36 91.9805 189.39C91.9805 189.42 91.9805 189.48 91.9805 189.54L92.3103 190.707L92.0705 190.857L91.0813 189.45L96.0571 186.037L97.0463 187.444L96.8065 187.593L95.8473 186.845C95.8473 186.845 95.7574 186.785 95.7274 186.785C95.6974 186.785 95.6375 186.785 95.5775 186.815L94.1987 187.773L97.6458 192.803C97.6458 192.803 97.7357 192.923 97.8257 192.923C97.8856 192.923 97.9755 192.923 98.0355 192.923L98.7549 192.593L98.9048 192.803L96.4468 194.48L96.4768 194.509Z" fill="black"/>
<path d="M101.873 190.676L101.723 190.497L102.142 189.958C102.142 189.958 102.202 189.838 102.202 189.748C102.202 189.688 102.202 189.598 102.142 189.538L98.4555 185.078C98.4555 185.078 98.3356 184.988 98.2756 184.958C98.2157 184.958 98.1257 184.958 98.0658 184.958L97.4663 185.287L97.3164 185.107L101.363 181.784L102.442 183.072L102.232 183.251L101.243 182.622C101.243 182.622 101.153 182.563 101.093 182.563C101.033 182.563 101.003 182.563 100.943 182.622L98.995 184.209L100.823 186.395L102.082 185.347C102.082 185.347 102.172 185.257 102.172 185.227C102.172 185.197 102.172 185.137 102.172 185.078L101.843 184.239L102.052 184.09L103.611 185.976L103.401 186.125L102.622 185.676C102.622 185.676 102.532 185.616 102.472 185.616C102.412 185.616 102.382 185.616 102.322 185.676L101.063 186.724L103.072 189.149L105.35 187.263C105.35 187.263 105.41 187.173 105.44 187.143C105.47 187.113 105.44 187.053 105.44 186.994L104.9 185.796L105.14 185.616L106.309 187.024L101.933 190.616L101.873 190.676Z" fill="black"/>
<path d="M107.868 185.617L107.688 185.437L108.048 184.868C108.048 184.868 108.108 184.748 108.108 184.658C108.108 184.599 108.078 184.539 108.018 184.479L103.941 180.377C103.941 180.377 103.821 180.287 103.761 180.287C103.701 180.287 103.611 180.287 103.551 180.347L102.982 180.706L102.802 180.527L104.66 178.671C105.05 178.311 105.38 178.012 105.71 177.862C106.039 177.683 106.309 177.623 106.579 177.593C106.849 177.593 107.058 177.623 107.268 177.713C107.478 177.802 107.628 177.922 107.808 178.102C108.078 178.371 108.257 178.671 108.317 179C108.377 179.329 108.377 179.629 108.317 179.928C108.257 180.227 108.138 180.467 108.018 180.677L107.598 181.395L106.759 181.964L106.549 181.694C106.549 181.694 106.639 181.635 106.729 181.575C106.819 181.515 106.909 181.425 106.998 181.335C107.088 181.245 107.148 181.185 107.208 181.126C107.478 180.886 107.628 180.617 107.688 180.347C107.748 180.078 107.748 179.808 107.658 179.569C107.568 179.329 107.418 179.09 107.238 178.91C106.849 178.521 106.459 178.341 106.069 178.371C105.68 178.401 105.29 178.611 104.9 179L104.391 179.479L108.677 183.82C108.677 183.82 108.797 183.91 108.857 183.91C108.917 183.91 108.977 183.91 109.037 183.88L109.696 183.431L109.876 183.611L107.868 185.617ZM112.664 180.886L111.884 181.665C111.884 181.665 111.615 181.904 111.495 181.964C111.375 182.024 111.255 182.024 111.135 182.024C111.015 182.024 110.835 182.024 110.655 181.964L107.478 181.455L107.988 180.647L111.315 181.126C111.315 181.126 111.555 181.126 111.675 181.126C111.824 181.126 111.914 181.096 112.004 181.036L112.514 180.706L112.694 180.886H112.664Z" fill="black"/>
<path d="M113.712 179.688L113.533 179.539L113.832 178.91C113.832 178.91 113.862 178.79 113.832 178.7C113.832 178.641 113.772 178.581 113.742 178.521L109.306 174.868C109.306 174.868 109.186 174.778 109.096 174.778C109.036 174.778 108.946 174.778 108.916 174.838L108.347 175.287L108.167 175.138L109.276 173.79L115.301 174.299L116.17 174.389L112.363 171.246C112.363 171.246 112.244 171.156 112.154 171.186C112.094 171.186 112.004 171.186 111.974 171.246L111.404 171.635L111.224 171.485L112.663 169.749L112.843 169.898L112.543 170.527C112.543 170.527 112.513 170.647 112.543 170.737C112.543 170.796 112.603 170.856 112.663 170.916L116.71 174.269L117.579 175.197L117.399 175.437L110.895 174.898L109.936 174.808L114.072 178.221C114.072 178.221 114.192 178.311 114.282 178.281C114.342 178.281 114.402 178.281 114.462 178.221L115.031 177.832L115.211 177.982L113.772 179.718L113.712 179.688Z" fill="black"/>
<path d="M118.989 173.222L118.779 173.073L118.929 172.623C118.929 172.623 118.929 172.354 118.839 172.204L115.511 167.474L114.852 166.276L114.972 166.097L121.866 167.654C121.866 167.654 122.016 167.654 122.106 167.654C122.196 167.654 122.256 167.624 122.316 167.564L122.676 167.264L122.885 167.414L121.477 169.51L121.267 169.36L121.626 168.522L116.561 167.384L115.841 167.204L119.288 171.995L119.948 171.366L120.158 171.516L119.019 173.192L118.989 173.222ZM117.82 170.198L117.58 169.839L118.899 167.893L119.318 167.983L117.82 170.198Z" fill="black"/>
<path d="M124.174 165.168L123.964 165.048L124.204 164.3C124.204 164.3 124.204 164.15 124.204 164.09C124.204 164.03 124.114 163.971 124.054 163.941L118.718 161.007L117.909 162.474C117.909 162.474 117.879 162.593 117.909 162.623C117.939 162.653 117.939 162.713 117.999 162.743L118.838 163.611L118.718 163.851L117.219 163.012L120.127 157.743L121.626 158.581L121.506 158.821L120.307 158.611C120.307 158.611 120.217 158.611 120.157 158.611C120.127 158.611 120.067 158.641 120.037 158.701L119.228 160.168L124.563 163.102C124.563 163.102 124.713 163.162 124.773 163.132C124.833 163.132 124.893 163.072 124.953 163.042L125.433 162.444L125.642 162.563L124.234 165.168H124.174Z" fill="black"/>
<path d="M127.172 159.389L126.962 159.299L127.112 158.641C127.112 158.641 127.112 158.491 127.112 158.431C127.112 158.371 127.022 158.311 126.962 158.281L121.686 155.916C121.686 155.916 121.536 155.886 121.476 155.916C121.416 155.916 121.356 155.976 121.296 156.036L120.907 156.575L120.667 156.485L121.776 153.97L121.986 154.06L121.836 154.719C121.836 154.719 121.836 154.868 121.836 154.928C121.866 154.988 121.926 155.048 121.986 155.078L127.261 157.443C127.261 157.443 127.411 157.473 127.471 157.443C127.531 157.413 127.591 157.383 127.651 157.323L128.041 156.785L128.281 156.874L127.172 159.389Z" fill="black"/>
<path d="M130.409 151.756C130.169 152.415 129.839 152.954 129.359 153.313C128.91 153.672 128.37 153.882 127.741 153.942C127.111 154.002 126.482 153.942 125.762 153.672C125.103 153.463 124.563 153.133 124.114 152.684C123.664 152.235 123.364 151.756 123.215 151.157C123.065 150.559 123.095 149.96 123.304 149.301C123.544 148.583 123.904 148.074 124.384 147.714C124.863 147.355 125.403 147.175 126.032 147.116C126.632 147.086 127.261 147.145 127.921 147.385C128.34 147.535 128.76 147.744 129.12 148.014C129.509 148.283 129.809 148.583 130.079 148.972C130.349 149.361 130.498 149.75 130.558 150.229C130.618 150.708 130.558 151.217 130.379 151.756H130.409ZM130.079 151.547C130.229 151.097 130.229 150.648 130.079 150.259C129.929 149.87 129.629 149.511 129.24 149.211C128.82 148.912 128.34 148.642 127.771 148.463C127.111 148.223 126.512 148.133 125.942 148.104C125.373 148.104 124.893 148.193 124.503 148.433C124.114 148.672 123.814 149.032 123.634 149.541C123.454 150.02 123.484 150.469 123.634 150.858C123.784 151.247 124.114 151.606 124.533 151.906C124.953 152.205 125.403 152.445 125.942 152.624C126.572 152.834 127.201 152.954 127.741 152.984C128.31 152.984 128.79 152.894 129.21 152.654C129.629 152.415 129.899 152.056 130.079 151.547Z" fill="black"/>
<path d="M131.997 146.157L131.758 146.097V145.408C131.758 145.408 131.698 145.259 131.638 145.229C131.578 145.199 131.518 145.139 131.458 145.109L125.823 143.971C125.823 143.971 125.673 143.971 125.613 143.971C125.553 144.001 125.493 144.061 125.463 144.121L125.163 144.78L124.923 144.72L125.283 143.013L130.828 140.618L131.638 140.289L126.782 139.301C126.782 139.301 126.632 139.301 126.572 139.301C126.512 139.331 126.452 139.391 126.422 139.451L126.122 140.049L125.883 139.989L126.332 137.774L126.572 137.834V138.522C126.572 138.522 126.632 138.672 126.692 138.702C126.722 138.762 126.782 138.792 126.872 138.822L132.027 139.87L133.226 140.259L133.166 140.558L127.171 143.163L126.272 143.552L131.548 144.6C131.548 144.6 131.698 144.6 131.758 144.6C131.818 144.57 131.878 144.51 131.908 144.45L132.207 143.822L132.447 143.882L131.997 146.097V146.157Z" fill="black"/>
<path d="M133.616 137.713H133.376L133.286 137.234C133.256 137.085 133.167 136.995 132.987 136.905L127.741 134.48L126.572 133.761V133.552L133.346 131.456C133.406 131.456 133.496 131.396 133.556 131.336C133.616 131.276 133.646 131.216 133.676 131.157L133.826 130.708H134.066L133.886 133.252H133.646L133.526 132.324L128.55 133.881L127.831 134.091L133.196 136.516L133.436 135.648H133.676L133.526 137.683L133.616 137.713ZM131.068 135.677L130.679 135.498L130.828 133.163L131.248 133.043L131.068 135.707V135.677Z" fill="black"/>
<path d="M133.976 129.33H133.736L133.587 128.672C133.587 128.672 133.527 128.552 133.467 128.492C133.407 128.432 133.347 128.432 133.257 128.432H127.472C127.472 128.432 127.322 128.432 127.262 128.492C127.202 128.522 127.172 128.582 127.142 128.672L126.992 129.33H126.752V126.546H126.992L127.142 127.235C127.142 127.235 127.202 127.354 127.262 127.414C127.322 127.474 127.382 127.474 127.472 127.474H133.557V124.839C133.557 124.839 133.527 124.72 133.467 124.69C133.407 124.66 133.347 124.63 133.287 124.63L131.908 124.241V123.971H133.946V129.33H133.976Z" fill="black"/>
<path d="M133.676 118.402L131.818 118.522V118.253L132.867 117.834C132.867 117.834 132.957 117.774 133.017 117.744C133.077 117.684 133.107 117.654 133.137 117.624C133.227 117.444 133.347 117.265 133.406 117.085C133.496 116.876 133.556 116.696 133.586 116.516C133.616 116.337 133.646 116.157 133.646 116.037C133.646 115.588 133.526 115.259 133.287 114.989C133.047 114.72 132.687 114.6 132.237 114.6C131.908 114.6 131.668 114.69 131.458 114.87C131.248 115.049 131.098 115.289 130.979 115.558C130.859 115.828 130.799 116.067 130.739 116.337C130.679 116.606 130.619 116.846 130.499 117.115C130.349 117.504 130.109 117.804 129.839 118.013C129.54 118.223 129.18 118.343 128.79 118.343C128.401 118.343 128.041 118.253 127.711 118.043C127.382 117.834 127.142 117.564 126.932 117.235C126.752 116.905 126.662 116.516 126.662 116.067C126.662 115.828 126.662 115.588 126.722 115.379C126.752 115.139 126.812 114.93 126.842 114.72C126.902 114.51 126.962 114.301 127.022 114.121H128.73V114.391L127.771 114.75C127.771 114.75 127.681 114.81 127.621 114.84C127.561 114.87 127.531 114.93 127.531 114.959C127.441 115.079 127.382 115.199 127.322 115.349C127.262 115.498 127.232 115.648 127.202 115.828C127.202 115.977 127.172 116.127 127.172 116.217C127.172 116.636 127.292 116.935 127.501 117.175C127.711 117.414 127.981 117.534 128.341 117.534C128.64 117.534 128.91 117.474 129.15 117.325C129.39 117.205 129.6 116.935 129.75 116.546C129.839 116.307 129.929 116.037 129.989 115.798C130.049 115.558 130.139 115.289 130.259 115.019C130.349 114.81 130.469 114.6 130.589 114.391C130.739 114.181 130.919 114.031 131.128 113.912C131.338 113.792 131.638 113.732 131.968 113.732C132.327 113.732 132.687 113.822 133.017 114.001C133.377 114.181 133.646 114.48 133.856 114.84C134.066 115.229 134.186 115.738 134.186 116.337C134.186 116.546 134.186 116.756 134.126 116.995C134.066 117.235 134.036 117.474 133.946 117.714C133.886 117.953 133.796 118.193 133.736 118.432L133.676 118.402Z" fill="black"/>
<path d="M132.567 105.859V105.769H133.017C133.167 105.949 133.347 106.188 133.526 106.458C133.706 106.727 133.856 107.026 133.976 107.326C134.096 107.625 134.156 107.985 134.156 108.314C134.156 109.002 134.006 109.631 133.706 110.14C133.407 110.649 132.987 111.038 132.417 111.338C131.848 111.607 131.188 111.757 130.439 111.757C129.69 111.757 129.03 111.607 128.491 111.308C127.921 111.008 127.501 110.589 127.172 110.08C126.842 109.571 126.692 108.973 126.692 108.314C126.692 108.074 126.692 107.835 126.752 107.535C126.782 107.266 126.842 106.997 126.902 106.727C126.962 106.458 127.022 106.248 127.082 106.068H128.76V106.338L127.801 106.697C127.801 106.697 127.741 106.727 127.711 106.757C127.711 106.787 127.651 106.847 127.621 106.907C127.501 107.116 127.382 107.386 127.292 107.715C127.202 108.044 127.142 108.344 127.142 108.613C127.142 109.242 127.412 109.751 127.921 110.14C128.431 110.529 129.24 110.739 130.259 110.739C131.278 110.739 132.178 110.499 132.717 110.05C133.257 109.601 133.526 108.943 133.526 108.074C133.526 107.685 133.466 107.356 133.377 107.086C133.287 106.817 133.137 106.577 133.017 106.368C132.867 106.188 132.747 106.009 132.627 105.859H132.567Z" fill="black"/>
<path d="M133.976 104.182H133.736L133.587 103.523C133.587 103.523 133.527 103.403 133.467 103.343C133.407 103.283 133.347 103.283 133.257 103.283H127.472C127.472 103.283 127.322 103.283 127.262 103.343C127.202 103.403 127.172 103.433 127.142 103.523L126.992 104.182H126.752V101.427H126.992L127.142 102.086C127.142 102.086 127.202 102.206 127.262 102.265C127.322 102.325 127.382 102.325 127.472 102.325H130.019V98.8523H127.472C127.472 98.8523 127.322 98.8523 127.262 98.9122C127.202 98.9421 127.172 99.002 127.142 99.0918L126.992 99.7505H126.752V96.9961H126.992L127.142 97.6548C127.142 97.6548 127.202 97.7745 127.262 97.8344C127.322 97.8943 127.382 97.8943 127.472 97.8943H133.257C133.257 97.8943 133.407 97.8943 133.467 97.8344C133.527 97.7745 133.557 97.7146 133.587 97.6548L133.736 96.9961H133.976V99.7505H133.736L133.587 99.0918C133.587 99.0918 133.527 98.9721 133.467 98.9122C133.407 98.8523 133.347 98.8523 133.257 98.8523H130.409V102.325H133.257C133.257 102.325 133.407 102.325 133.467 102.265C133.527 102.206 133.557 102.176 133.587 102.086L133.736 101.427H133.976V104.182Z" fill="black"/>
<path d="M134.156 91.9372C134.156 92.6558 134.006 93.2545 133.676 93.7336C133.347 94.2126 132.897 94.6018 132.357 94.8713C131.788 95.1407 131.158 95.2605 130.409 95.2605C129.72 95.2605 129.09 95.1407 128.521 94.8713C127.951 94.6018 127.501 94.2126 127.172 93.7336C126.842 93.2246 126.662 92.6558 126.662 91.9672C126.662 91.2187 126.842 90.59 127.172 90.1109C127.501 89.6319 127.981 89.2726 128.521 89.0331C129.09 88.7936 129.72 88.6738 130.379 88.6738C130.829 88.6738 131.278 88.7337 131.728 88.8535C132.178 88.9732 132.567 89.1828 132.927 89.4523C133.287 89.7217 133.586 90.081 133.796 90.4702C134.006 90.8893 134.126 91.3983 134.126 91.9672L134.156 91.9372ZM133.766 91.8175C133.766 91.3384 133.616 90.9193 133.347 90.6199C133.077 90.3205 132.687 90.051 132.178 89.9013C131.698 89.7516 131.158 89.6618 130.559 89.6618C129.869 89.6618 129.24 89.7516 128.73 89.9013C128.191 90.081 127.771 90.3205 127.471 90.6798C127.172 91.039 127.022 91.4881 127.022 92.027C127.022 92.536 127.172 92.9552 127.471 93.2845C127.771 93.6138 128.161 93.8533 128.64 94.003C129.12 94.1527 129.63 94.2126 130.199 94.2126C130.889 94.2126 131.488 94.1228 132.028 93.9731C132.567 93.7935 132.987 93.5539 133.317 93.1947C133.616 92.8354 133.796 92.3863 133.796 91.8474L133.766 91.8175Z" fill="black"/>
<path d="M134.156 83.494C134.156 84.2126 134.006 84.7814 133.676 85.2904C133.347 85.7694 132.897 86.1586 132.357 86.3981C131.788 86.6676 131.158 86.7873 130.409 86.7873C129.72 86.7873 129.09 86.6676 128.521 86.3981C127.951 86.1287 127.501 85.7395 127.172 85.2604C126.842 84.7515 126.662 84.1826 126.662 83.494C126.662 82.7455 126.842 82.1168 127.172 81.6378C127.501 81.1587 127.981 80.7995 128.521 80.56C129.06 80.3204 129.72 80.2007 130.379 80.2007C130.829 80.2007 131.278 80.2606 131.728 80.3803C132.178 80.5001 132.567 80.7097 132.927 80.9791C133.287 81.2486 133.586 81.5779 133.796 81.997C134.006 82.4162 134.126 82.9252 134.126 83.494H134.156ZM133.766 83.4042C133.766 82.9252 133.616 82.506 133.347 82.1767C133.077 81.8474 132.687 81.6078 132.178 81.4581C131.668 81.3084 131.158 81.2186 130.559 81.2186C129.869 81.2186 129.24 81.3084 128.73 81.4881C128.191 81.6677 127.771 81.9072 127.471 82.2665C127.172 82.6258 127.022 83.0749 127.022 83.6138C127.022 84.1527 127.172 84.5419 127.471 84.8712C127.771 85.2006 128.161 85.4401 128.64 85.5598C129.12 85.7095 129.63 85.7694 130.199 85.7694C130.889 85.7694 131.488 85.6796 132.028 85.5299C132.567 85.3503 132.987 85.1107 133.317 84.7515C133.616 84.3922 133.796 83.9431 133.796 83.4042H133.766Z" fill="black"/>
<path d="M133.976 78.4041H133.736L133.587 77.7454C133.587 77.7454 133.527 77.6256 133.467 77.5658C133.407 77.5059 133.347 77.5059 133.257 77.5059H127.472C127.472 77.5059 127.322 77.5059 127.262 77.5658C127.202 77.6256 127.172 77.6556 127.142 77.7454L126.992 78.4041H126.752V75.6197H126.992L127.142 76.3083C127.142 76.3083 127.202 76.4281 127.262 76.4879C127.322 76.5478 127.382 76.5478 127.472 76.5478H133.557V73.9132C133.557 73.9132 133.527 73.7934 133.467 73.7635C133.407 73.7335 133.347 73.7036 133.287 73.7036L131.908 73.3144V73.0449H133.946V78.4041H133.976Z" fill="black"/>
<path d="M9.39966 72.7751H9.66943L9.81931 73.2541C9.84928 73.4038 9.96918 73.5235 10.149 73.5834L16.0541 75.8289L17.373 76.5175V76.727L10.179 79.5413C10.179 79.5413 10.0291 79.6312 9.96918 79.6611C9.90923 79.721 9.87926 79.7809 9.84928 79.8707L9.69941 80.3497H9.42963V77.5953H9.69941L9.87926 78.5833L15.1549 76.5175L15.9342 76.2181L9.90923 74.0026L9.69941 74.9606H9.42963V72.7451L9.39966 72.7751ZM12.3072 74.8109L12.7269 74.9906V77.5654L12.3072 77.745V74.8409V74.8109Z" fill="black"/>
<path d="M10.9581 89.3312V89.421H10.4785C10.2986 89.2114 10.1188 88.9719 9.93894 88.6725C9.75909 88.3731 9.57924 88.0737 9.45934 87.7144C9.33944 87.3552 9.24951 86.9959 9.24951 86.6366C9.24951 85.8881 9.39939 85.2295 9.72911 84.6606C10.0588 84.0918 10.5085 83.6726 11.1379 83.3433C11.7374 83.0439 12.4568 82.8942 13.2961 82.8643C14.1055 82.8643 14.8249 83.014 15.4543 83.3433C16.0838 83.6726 16.5634 84.1217 16.8931 84.6906C17.2528 85.2594 17.4027 85.8881 17.4027 86.6067C17.4027 86.8462 17.4027 87.1456 17.3428 87.445C17.3128 87.7444 17.2528 88.0438 17.1629 88.3432C17.073 88.6425 17.043 88.8821 16.9531 89.0916H15.1546V88.7922L16.2037 88.403C16.2037 88.403 16.2637 88.3731 16.2936 88.3132C16.2936 88.2833 16.3536 88.2234 16.3836 88.1635C16.5035 87.924 16.6234 87.6546 16.7433 87.2953C16.8332 86.936 16.8931 86.6067 16.8931 86.3073C16.8931 85.6187 16.5934 85.0798 16.0239 84.6606C15.4543 84.2415 14.615 84.002 13.476 84.0319C12.277 84.0319 11.4077 84.3013 10.8082 84.8103C10.2087 85.3193 9.90896 86.0378 9.90896 86.9659C9.90896 87.3851 9.96891 87.7444 10.0888 88.0438C10.2087 88.3432 10.3286 88.6126 10.4785 88.8222C10.6284 89.0318 10.7782 89.2114 10.9281 89.3611L10.9581 89.3312Z" fill="black"/>
<path d="M9.45947 91.7868H9.72925L9.87912 92.2658C9.9091 92.4155 10.029 92.5353 10.2088 92.5951L16.1139 94.8406L17.4328 95.5292V95.7388L10.2388 98.5531C10.2388 98.5531 10.0889 98.6429 10.029 98.6728C9.96905 98.7327 9.93907 98.7926 9.9091 98.8824L9.75922 99.3614H9.48945V96.607H9.75922L9.93907 97.595L15.2147 95.5292L15.994 95.2298L9.96905 93.0143L9.75922 93.9723H9.48945V91.7568L9.45947 91.7868ZM12.367 93.8227L12.7867 94.0023V96.5771L12.367 96.7567V93.8526V93.8227Z" fill="black"/>
<path d="M9.4895 101.787H9.75928L9.90915 102.505C9.90915 102.565 9.9691 102.655 10.0291 102.685C10.089 102.745 10.149 102.775 10.2389 102.775H16.5636C16.5636 102.775 16.7135 102.715 16.8034 102.685C16.8634 102.625 16.8933 102.565 16.9233 102.505L17.0732 101.787H17.343V105.02C17.343 105.319 17.343 105.649 17.253 106.008C17.1931 106.367 17.0432 106.697 16.8933 107.056C16.7435 107.415 16.4737 107.715 16.1739 107.984C15.8742 108.254 15.5145 108.493 15.0649 108.673C14.6152 108.852 14.0757 108.942 13.4462 108.942C12.547 108.942 11.8276 108.762 11.258 108.433C10.6885 108.074 10.2689 107.595 9.9691 107.026C9.66935 106.457 9.54945 105.769 9.54945 105.08V101.876L9.4895 101.787ZM16.8933 103.763H9.90915V105.08C9.90915 105.978 10.2089 106.667 10.7784 107.086C11.348 107.535 12.1573 107.745 13.2064 107.745C13.9558 107.745 14.6152 107.625 15.1848 107.355C15.7543 107.086 16.1739 106.757 16.4737 106.278C16.7734 105.828 16.9233 105.29 16.9233 104.691V103.733L16.8933 103.763Z" fill="black"/>
<path d="M9.51953 112.055H9.78931L9.93918 112.774C9.93918 112.774 9.99913 112.923 10.0591 112.953C10.119 113.013 10.179 113.043 10.2689 113.043H16.5936C16.5936 113.043 16.7435 112.983 16.8334 112.953C16.8934 112.893 16.9234 112.834 16.9533 112.774L17.1032 112.055H17.373V117.744H15.5445V117.444L16.7435 117.025C16.7435 117.025 16.8334 116.995 16.8934 116.935C16.9234 116.905 16.9533 116.845 16.9533 116.786V114.061H13.8359V115.857C13.8359 115.857 13.8359 115.977 13.8959 116.037C13.9558 116.097 13.9858 116.097 14.0158 116.127L14.945 116.456V116.726H12.2772V116.456L13.2065 116.127C13.2065 116.127 13.3264 116.067 13.3563 116.037C13.3863 116.007 13.4163 115.947 13.4163 115.857V114.061H9.96916V117.295C9.96916 117.295 9.96916 117.414 10.0291 117.444C10.0591 117.474 10.119 117.504 10.179 117.534L11.5578 117.923V118.253H9.54951V112.085L9.51953 112.055Z" fill="black"/>
<path d="M9.54956 121.306H9.81934L9.99919 122.025C9.99919 122.025 10.0591 122.175 10.1191 122.204C10.179 122.264 10.239 122.294 10.3289 122.294H16.6237C16.6237 122.294 16.7735 122.234 16.8635 122.204C16.9234 122.145 16.9534 122.085 16.9834 122.025L17.1332 121.306H17.403V123.642L12.3672 125.468L11.1982 125.857L17.403 128.073V130.378H17.1332L16.9834 129.659C16.9834 129.659 16.9234 129.51 16.8635 129.48C16.8035 129.42 16.7136 129.39 16.6536 129.39H10.3289C10.3289 129.39 10.179 129.45 10.1191 129.48C10.0591 129.54 10.0292 129.6 9.99919 129.659L9.84931 130.378H9.57954V127.384H9.84931L9.99919 128.103C9.99919 128.103 10.0591 128.252 10.1191 128.282C10.179 128.342 10.239 128.372 10.3289 128.372H16.8635L15.9942 128.043L10.8685 126.216L9.57954 125.618V125.378L15.9942 123.043L16.8934 122.743H10.3889C10.3889 122.743 10.239 122.803 10.179 122.833C10.1191 122.893 10.0891 122.953 10.0591 123.013L9.87929 123.731H9.60951V121.276L9.54956 121.306Z" fill="black"/>
<path d="M9.93896 134.12H10.2087L10.4485 134.779C10.4485 134.839 10.5385 134.899 10.5984 134.958C10.6584 134.988 10.7483 135.018 10.8382 135.018L17.103 134.15C17.103 134.15 17.2529 134.09 17.3128 134.03C17.3728 133.97 17.4027 133.911 17.4027 133.821L17.4627 133.072H17.7325L18.1521 136.006H17.8823L17.6425 135.348C17.6425 135.288 17.5826 135.228 17.4927 135.168C17.4027 135.108 17.3428 135.108 17.2529 135.108L10.9881 135.976C10.9881 135.976 10.8382 136.036 10.7783 136.066C10.7183 136.126 10.6883 136.186 10.6883 136.276L10.6284 136.994H10.3586L9.93896 134.06V134.12Z" fill="black"/>
<path d="M14.0753 146.635V146.724L13.6257 146.844C13.4158 146.694 13.176 146.485 12.9063 146.245C12.6365 146.006 12.4267 145.736 12.2168 145.437C12.007 145.138 11.8571 144.808 11.7672 144.419C11.5874 143.671 11.5874 143.012 11.7672 142.383C11.9471 141.754 12.2768 141.215 12.8163 140.766C13.3259 140.317 13.9854 139.988 14.7947 139.778C15.574 139.569 16.3234 139.569 16.9829 139.719C17.6723 139.898 18.2418 140.198 18.7214 140.677C19.201 141.156 19.5307 141.724 19.7106 142.413C19.7705 142.653 19.8305 142.922 19.8605 143.251C19.8904 143.581 19.9204 143.85 19.9204 144.15C19.9204 144.449 19.9204 144.688 19.9204 144.928L18.1519 145.377L18.0919 145.078L19.0212 144.449C19.0212 144.449 19.0811 144.389 19.1111 144.359C19.1111 144.329 19.1411 144.269 19.171 144.179C19.231 143.91 19.2909 143.611 19.2909 143.251C19.2909 142.892 19.2909 142.563 19.201 142.263C19.0212 141.605 18.6315 141.156 17.972 140.856C17.3126 140.587 16.4433 140.587 15.3342 140.856C14.1952 141.156 13.3859 141.605 12.9362 142.263C12.4866 142.892 12.3667 143.671 12.6065 144.569C12.6964 144.958 12.8463 145.287 13.0262 145.557C13.206 145.826 13.3859 146.036 13.5957 146.215C13.8055 146.395 13.9854 146.515 14.1652 146.635H14.0753Z" fill="black"/>
<path d="M19.9209 161.186V161.275L19.5313 161.485C19.2915 161.365 19.0217 161.216 18.7219 161.036C18.4222 160.856 18.1524 160.617 17.8826 160.377C17.6129 160.108 17.403 159.808 17.2532 159.479C16.9234 158.79 16.8035 158.132 16.8635 157.473C16.9234 156.814 17.1632 156.246 17.5829 155.707C18.0025 155.168 18.602 154.719 19.3514 154.389C20.1008 154.06 20.7902 153.91 21.5096 153.94C22.199 153.97 22.8285 154.18 23.398 154.569C23.9376 154.928 24.3872 155.437 24.687 156.096C24.7769 156.335 24.8968 156.575 24.9867 156.874C25.0766 157.174 25.1366 157.473 25.2265 157.743C25.2865 158.042 25.3164 158.281 25.3464 158.491L23.6978 159.269L23.5779 159L24.3872 158.222C24.3872 158.222 24.4472 158.162 24.4472 158.102C24.4472 158.042 24.4472 157.982 24.4472 157.922C24.4472 157.653 24.4472 157.353 24.3872 156.994C24.3273 156.635 24.2373 156.305 24.1174 156.036C23.8477 155.437 23.3381 155.048 22.6487 154.898C21.9592 154.749 21.09 154.898 20.0408 155.377C18.9617 155.886 18.2723 156.485 17.9426 157.174C17.6129 157.892 17.6428 158.671 18.0325 159.509C18.2124 159.868 18.3922 160.168 18.632 160.407C18.8718 160.617 19.0816 160.796 19.3214 160.946C19.5612 161.066 19.7711 161.186 19.9509 161.245L19.9209 161.186Z" fill="black"/>
<path d="M22.0489 168.311C21.6592 167.652 21.4494 167.023 21.4794 166.365C21.4794 165.736 21.6892 165.107 22.0789 164.568C22.4686 164 22.9781 163.521 23.6676 163.101C24.327 162.712 24.9865 162.473 25.6459 162.383C26.3353 162.293 26.9648 162.383 27.5643 162.682C28.1638 162.982 28.6434 163.401 29.0331 164.059C29.4527 164.748 29.6626 165.437 29.6026 166.065C29.5726 166.724 29.3628 167.323 28.9432 167.862C28.5535 168.401 28.0439 168.88 27.4144 169.269C26.9948 169.538 26.5452 169.718 26.0656 169.868C25.586 170.017 25.1064 170.047 24.5968 170.017C24.1172 169.987 23.6376 169.808 23.188 169.568C22.7383 169.329 22.3487 168.91 22.0189 168.371L22.0489 168.311ZM22.4686 168.191C22.7383 168.64 23.098 168.94 23.5477 169.089C23.9973 169.239 24.4769 169.239 25.0464 169.089C25.6159 168.94 26.1555 168.73 26.695 168.401C27.3545 168.011 27.8641 167.562 28.2537 167.113C28.6434 166.664 28.8832 166.185 28.9731 165.676C29.0631 165.167 28.9432 164.688 28.6134 164.179C28.3137 163.7 27.954 163.401 27.4744 163.281C27.0248 163.161 26.5152 163.161 25.9756 163.281C25.4361 163.431 24.9265 163.64 24.387 163.97C23.7575 164.359 23.2479 164.778 22.8283 165.257C22.4086 165.706 22.1688 166.215 22.0789 166.694C21.989 167.203 22.0789 167.712 22.4086 168.221L22.4686 168.191Z" fill="black"/>
<path d="M26.2151 174.299L26.4249 174.149L26.9944 174.628C26.9944 174.628 27.1143 174.718 27.2043 174.718C27.2942 174.718 27.3541 174.718 27.4141 174.658L32.4199 170.796C32.4199 170.796 32.5398 170.676 32.5398 170.586C32.5398 170.496 32.5398 170.437 32.5398 170.377L32.2101 169.718L32.4199 169.568L34.2784 171.964L34.0685 172.143L33.499 171.634C33.499 171.634 33.3791 171.544 33.2892 171.544C33.1993 171.544 33.1393 171.544 33.0794 171.604L27.8337 175.676L29.6023 177.951C29.6023 177.951 29.7222 178.041 29.7821 178.011C29.872 178.011 29.932 177.981 29.962 177.951L31.4008 177.383L31.5806 177.622L29.8121 178.999L26.2151 174.359V174.299Z" fill="black"/>
<path d="M32.0307 181.485L32.2106 181.305L32.8101 181.724C32.8101 181.724 32.9599 181.784 33.0199 181.784C33.0798 181.784 33.1698 181.754 33.2297 181.694L37.7859 177.323C37.7859 177.323 37.8758 177.203 37.9058 177.114C37.9058 177.024 37.9058 176.964 37.8459 176.904L37.4562 176.275L37.636 176.096L39.7343 178.281L39.5544 178.461L38.925 178.012C38.925 178.012 38.7751 177.952 38.7151 177.952C38.6252 177.952 38.5653 177.982 38.5053 178.042L33.7093 182.622L35.6877 184.688C35.6877 184.688 35.8076 184.748 35.8975 184.718C35.9874 184.718 36.0474 184.658 36.0773 184.628L37.4562 183.91L37.666 184.119L36.0474 185.676L32.0007 181.455L32.0307 181.485Z" fill="black"/>
<path d="M38.5652 188.041L38.745 187.831L39.4045 188.19C39.4045 188.19 39.5544 188.22 39.6143 188.22C39.7042 188.22 39.7642 188.16 39.8241 188.1L43.8708 183.25C43.8708 183.25 43.9607 183.101 43.9607 183.041C43.9607 182.981 43.9607 182.891 43.9007 182.831L43.4511 182.262L43.631 182.053L48.0073 185.705L46.8383 187.112L46.5985 186.903L47.0781 185.705C47.0781 185.705 47.1081 185.586 47.1081 185.556C47.1081 185.496 47.1081 185.466 47.0181 185.406L44.9199 183.64L42.9116 186.035L44.2904 187.172C44.2904 187.172 44.4103 187.232 44.4403 187.232C44.5002 187.232 44.5302 187.232 44.5902 187.172L45.4295 186.663L45.6393 186.843L43.9307 188.879L43.7209 188.699L44.0506 187.771C44.0506 187.771 44.0806 187.651 44.0806 187.621C44.0806 187.592 44.0506 187.532 43.9907 187.472L42.6118 186.334L40.4236 188.969L42.9116 191.035C42.9116 191.035 43.0015 191.094 43.0614 191.094C43.1214 191.094 43.1514 191.094 43.2113 191.035L44.3803 190.226L44.6201 190.436L43.3312 191.963L38.5952 188.011L38.5652 188.041Z" fill="black"/>
<path d="M51.4243 196.574L52.4434 194.987C52.4434 194.987 52.5034 194.837 52.5034 194.747C52.5034 194.658 52.4734 194.598 52.4134 194.538L51.8439 193.999L51.9938 193.759L54.5417 195.376L54.3918 195.616L53.7024 195.346C53.7024 195.346 53.5525 195.346 53.4626 195.346C53.3726 195.346 53.3127 195.406 53.2827 195.496L52.8031 196.244C52.6532 196.484 52.5034 196.723 52.3535 196.933C52.2336 197.143 52.1137 197.292 52.0537 197.412C51.6641 197.352 51.2144 197.232 50.7348 197.053C50.2253 196.873 49.7756 196.634 49.326 196.364C48.7865 196.005 48.3668 195.556 48.0671 194.987C47.7673 194.418 47.6774 193.789 47.7074 193.101C47.7673 192.412 48.0071 191.694 48.4867 190.975C48.9363 190.286 49.4459 189.777 50.0454 189.448C50.6449 189.119 51.2744 188.939 51.9338 188.969C52.5933 188.969 53.2228 189.179 53.8223 189.568C54.182 189.807 54.4817 190.017 54.7215 190.227C54.9613 190.436 55.1711 190.646 55.351 190.825C55.5308 191.005 55.6807 191.185 55.8006 191.364L54.8114 192.891L54.5417 192.711L54.7815 191.664C54.7815 191.664 54.7815 191.544 54.7815 191.484C54.7815 191.424 54.7515 191.394 54.7215 191.334C54.6016 191.095 54.3918 190.825 54.122 190.526C53.8522 190.227 53.5525 189.987 53.2527 189.807C52.893 189.568 52.4734 189.478 52.0537 189.508C51.6341 189.538 51.1845 189.718 50.7648 190.017C50.3152 190.346 49.8955 190.825 49.4759 191.454C49.0862 192.053 48.8164 192.652 48.6666 193.25C48.5167 193.849 48.5167 194.358 48.6666 194.837C48.8164 195.316 49.1162 195.675 49.5658 195.975C49.7756 196.095 49.9855 196.214 50.2253 196.304C50.4651 196.394 50.6749 196.454 50.8847 196.484C51.0945 196.514 51.2444 196.544 51.3343 196.574H51.4243Z" fill="black"/>
<path d="M55.8308 199.987L55.9507 199.747L56.6701 199.927C56.6701 199.927 56.82 199.927 56.8799 199.927C56.9399 199.897 56.9998 199.837 57.0298 199.777L59.6976 194.059C59.6976 194.059 59.7276 193.909 59.6976 193.819C59.6976 193.73 59.6376 193.67 59.5777 193.64L58.9782 193.191L59.0981 192.951L64.2538 195.346L63.4744 197.023L63.1747 196.903L63.3246 195.646C63.3246 195.646 63.3246 195.526 63.3246 195.496C63.3246 195.436 63.2646 195.406 63.2047 195.376L60.7167 194.209L59.3978 197.023L61.0165 197.771C61.0165 197.771 61.1364 197.801 61.1963 197.771C61.2263 197.771 61.2863 197.741 61.3162 197.682L62.0057 196.963L62.2455 197.083L61.1364 199.508L60.8966 199.388L60.9865 198.43C60.9865 198.43 60.9865 198.31 60.9865 198.25C60.9865 198.191 60.9266 198.161 60.8666 198.131L59.248 197.382L57.8092 200.496L60.7467 201.843C60.7467 201.843 60.8666 201.873 60.9266 201.843C60.9865 201.843 61.0165 201.783 61.0465 201.753L61.9757 200.676L62.2754 200.795L61.4361 202.592L55.8308 199.987Z" fill="black"/>
<path d="M75.0451 201.395L77.2033 201.544L75.0451 201.694C73.6362 201.814 72.5272 202.922 72.4073 204.329L72.2574 206.484L72.1075 204.329C71.9876 202.922 70.8785 201.814 69.4697 201.694L67.3115 201.544L69.4697 201.395C70.8785 201.275 71.9876 200.167 72.1075 198.76L72.2574 196.604L72.4073 198.76C72.5272 200.167 73.6362 201.275 75.0451 201.395Z" fill="#DC001E"/>
<path d="M70.6388 123.762V75.0811H21.6296V125.08C21.6296 126.247 21.6596 127.385 21.7196 128.553H65.8428C68.4806 128.553 70.6388 126.397 70.6388 123.762Z" fill="#DC001E" stroke="#940008" stroke-width="0.37" stroke-miterlimit="10"/>
<path d="M77.7132 130.529C75.0454 130.529 72.8872 132.684 72.8872 135.349V192.024C72.8872 192.024 73.0671 191.964 73.187 191.934C73.8764 191.725 74.8356 191.425 76.0346 191.006C102.143 181.755 119.948 157.833 121.896 130.559H77.6832L77.7132 130.529Z" fill="#DC001E" stroke="#940008" stroke-width="0.37" stroke-miterlimit="10"/>
<path d="M77.7723 128.553H121.896C121.955 127.415 121.985 126.247 121.985 125.08V75.0811H72.9763V123.762C72.9763 126.397 75.1345 128.553 77.7723 128.553Z" fill="#143256" stroke="#002235" stroke-width="0.37" stroke-miterlimit="10"/>
<path d="M66.0527 130.469H21.8096C23.7579 157.803 41.623 181.755 67.7613 191.006C69.1701 191.515 70.2192 191.844 70.9086 192.024V135.289C70.9086 132.624 68.7504 130.469 66.0827 130.469H66.0527Z" fill="#143256" stroke="#002235" stroke-width="0.37" stroke-miterlimit="10"/>
<path d="M19.7708 72.9849H123.814V128.852C121.566 160.408 102.082 185.138 71.7774 194.359C42.8815 185.317 22.0189 161.965 19.9506 130.169L19.7708 72.9849Z" stroke="#143256" stroke-width="0.18" stroke-miterlimit="10"/>
<path d="M19.4707 63.1948V62.8056L20.1901 62.5961C20.4299 62.5362 20.5798 62.3565 20.6997 62.0871L24.0569 53.2849L25.076 51.3389H25.4058L29.5723 62.0871C29.5723 62.0871 29.6922 62.2967 29.7821 62.3865C29.872 62.4763 29.962 62.5362 30.0819 62.5661L30.8013 62.7757V63.1649H26.6647V62.7757L28.1335 62.5062L25.076 54.6322L24.6564 53.4945L21.3292 62.4763L22.768 62.7757V63.1649H19.4707V63.1948ZM22.5282 58.8536L22.7979 58.195H26.6347L26.9045 58.8536H22.5581H22.5282Z" fill="#143256"/>
<path d="M33.6189 63.1941V62.8049L34.698 62.5653C34.698 62.5653 34.9078 62.4755 34.9977 62.3857C35.0877 62.2959 35.1176 62.1761 35.1176 62.0564V52.6255C35.1176 52.6255 35.0877 52.386 34.9977 52.2962C34.9078 52.2063 34.8179 52.1465 34.698 52.1165L33.6189 51.9069V51.5177H38.0852V51.9069L37.0061 52.1165C37.0061 52.1165 36.7962 52.2063 36.7063 52.2962C36.6164 52.386 36.5864 52.5057 36.5864 52.6255V57.5056L41.5023 52.1165L40.3033 51.877V51.4878H43.7504V51.877L42.8812 52.1165C42.8812 52.1165 42.6114 52.2363 42.4315 52.356C42.2817 52.4758 42.1318 52.5955 42.0119 52.7153L38.5947 56.338L42.7313 61.8767C42.7313 61.8767 42.9711 62.1761 43.121 62.2959C43.2708 62.4456 43.3907 62.5354 43.5106 62.5653L44.29 62.7749V63.1641H40.0635V62.7749L41.3524 62.5354L37.5756 57.4158L36.5864 58.3738V62.0564C36.5864 62.0564 36.6164 62.2959 36.7063 62.3857C36.7962 62.4755 36.8862 62.5354 37.0061 62.5653L38.0852 62.8049V63.1941H33.6189Z" fill="#143256"/>
<path d="M46.4783 63.1948V62.8056L47.1977 62.5961C47.4375 62.5362 47.5873 62.3565 47.7072 62.0871L51.0644 53.2849L52.0836 51.3389H52.4133L56.5799 62.0871C56.5799 62.0871 56.6997 62.2967 56.7897 62.3865C56.8796 62.4763 56.9695 62.5362 57.0894 62.5661L57.8088 62.7757V63.1649H53.6723V62.7757L55.141 62.5062L52.0836 54.6322L51.6639 53.4945L48.3367 62.4763L49.7755 62.7757V63.1649H46.4783V63.1948ZM49.5357 58.8536L49.8055 58.195H53.6423L53.9121 58.8536H49.5657H49.5357Z" fill="#143256"/>
<path d="M60.6265 63.1949V62.8057L61.7056 62.5662C61.7056 62.5662 61.9154 62.4764 62.0053 62.3865C62.0952 62.2967 62.1252 62.177 62.1252 62.0572V52.6263C62.1252 52.6263 62.0952 52.3868 62.0053 52.297C61.9154 52.2072 61.8255 52.1473 61.7056 52.1173L60.6265 51.9078V51.5186H65.4824C65.932 51.5186 66.4116 51.5784 66.9512 51.6982C67.4907 51.818 68.0003 51.9976 68.5099 52.267C69.0195 52.5365 69.4991 52.8658 69.9187 53.3149C70.3384 53.764 70.6681 54.3329 70.9379 54.9915C71.2076 55.6502 71.3275 56.4585 71.3275 57.4166C71.3275 58.7339 71.0578 59.8417 70.5482 60.68C70.0386 61.5183 69.3192 62.177 68.42 62.5961C67.5207 63.0153 66.5615 63.2248 65.4824 63.2248H60.6864L60.6265 63.1949ZM63.624 52.1473V62.5662H65.5723C66.9212 62.5662 67.9404 62.147 68.5998 61.2788C69.2593 60.4105 69.589 59.213 69.589 57.6561C69.589 56.5184 69.4091 55.5304 69.0195 54.7221C68.6298 53.8838 68.1202 53.255 67.4308 52.8059C66.7414 52.3569 65.962 52.1473 65.0628 52.1473H63.624Z" fill="#143256"/>
<path d="M75.0745 63.1949V62.8057L76.1536 62.5662C76.1536 62.5662 76.3634 62.4764 76.4533 62.3865C76.5432 62.2967 76.5732 62.177 76.5732 62.0572V52.6263C76.5732 52.6263 76.5432 52.3868 76.4533 52.297C76.3634 52.2072 76.2735 52.1473 76.1536 52.1173L75.0745 51.9078V51.5186H83.5874V54.243H83.1078L82.5083 52.4467C82.5083 52.4467 82.4483 52.297 82.3884 52.2371C82.3284 52.1772 82.2685 52.1473 82.1486 52.1473H78.072V56.7879H80.7397C80.7397 56.7879 80.9196 56.7879 80.9795 56.6981C81.0395 56.6382 81.0695 56.5783 81.0994 56.5184L81.579 55.1412H81.9987V59.1231H81.579L81.0994 57.7459C81.0994 57.7459 81.0395 57.5962 80.9795 57.5364C80.9196 57.4765 80.8596 57.4465 80.7397 57.4465H78.072V62.5662H82.8979C82.8979 62.5662 83.0778 62.5662 83.1377 62.4764C83.1977 62.4165 83.2277 62.3566 83.2576 62.2668L83.8272 60.2309H84.3068V63.2248H75.1044L75.0745 63.1949Z" fill="#143256"/>
<path d="M88.0239 63.1943V62.805L89.103 62.5356C89.103 62.5356 89.3128 62.4458 89.4028 62.356C89.4927 62.2661 89.5227 62.1464 89.5227 62.0266V52.6556C89.5227 52.6556 89.4927 52.4161 89.4028 52.3263C89.3128 52.2365 89.2229 52.1766 89.103 52.1466L88.0239 51.9371V51.5479H91.501L94.2288 59.0926L94.8283 60.829L98.1855 51.5778H101.633V51.967L100.553 52.1766C100.553 52.1766 100.344 52.2664 100.284 52.3562C100.224 52.446 100.164 52.5658 100.164 52.6855V62.1164C100.164 62.1164 100.194 62.356 100.284 62.4458C100.374 62.5356 100.464 62.5955 100.553 62.6254L101.633 62.8649V63.2541H97.1363V62.8649L98.2154 62.6254C98.2154 62.6254 98.4252 62.5356 98.4852 62.4458C98.5451 62.356 98.6051 62.2362 98.6051 62.1164V52.3862L98.1555 53.6735L95.3978 61.3081L94.5285 63.2541H94.1688L90.7217 53.7035L90.2421 52.3862V62.0865C90.2421 62.0865 90.272 62.326 90.362 62.4158C90.4519 62.5057 90.5418 62.5655 90.6317 62.5955L91.7109 62.8649V63.2541H88.0239V63.1943Z" fill="#143256"/>
<path d="M105.26 63.1949V62.8057L106.339 62.5662C106.339 62.5662 106.548 62.4764 106.638 62.3865C106.728 62.2967 106.758 62.177 106.758 62.0572V52.6263C106.758 52.6263 106.728 52.3868 106.638 52.297C106.548 52.2072 106.459 52.1473 106.339 52.1173L105.26 51.9078V51.5186H109.726V51.9078L108.647 52.1173C108.647 52.1173 108.437 52.2072 108.347 52.297C108.257 52.3868 108.227 52.5066 108.227 52.6263V62.0572C108.227 62.0572 108.257 62.2967 108.347 62.3865C108.437 62.4764 108.527 62.5362 108.647 62.5662L109.726 62.8057V63.1949H105.26Z" fill="#143256"/>
<path d="M107.477 51.1291C107.298 51.1291 107.118 51.0693 106.968 50.9794C106.818 50.8896 106.698 50.7699 106.608 50.6202C106.518 50.4705 106.488 50.2908 106.488 50.1112C106.488 49.8417 106.578 49.6022 106.788 49.3927C106.998 49.1831 107.238 49.0933 107.507 49.0933C107.777 49.0933 108.047 49.1831 108.257 49.3927C108.467 49.6022 108.557 49.8417 108.557 50.1112C108.557 50.3807 108.467 50.6501 108.257 50.8297C108.047 51.0393 107.807 51.1291 107.507 51.1291H107.477Z" fill="#143256"/>
<path d="M113.413 63.1941V62.8049L114.492 62.5653C114.492 62.5653 114.702 62.4755 114.791 62.3857C114.881 62.2959 114.911 62.1761 114.911 62.0564V52.6255C114.911 52.6255 114.881 52.386 114.791 52.2962C114.702 52.2063 114.612 52.1465 114.492 52.1165L113.413 51.9069V51.5177H117.879V51.9069L116.8 52.1165C116.8 52.1165 116.59 52.2063 116.5 52.2962C116.41 52.386 116.38 52.5057 116.38 52.6255V57.5056L121.296 52.1165L120.097 51.877V51.4878H123.544V51.877L122.675 52.1165C122.675 52.1165 122.405 52.2363 122.225 52.356C122.075 52.4758 121.925 52.5955 121.806 52.7153L118.388 56.338L122.525 61.8767C122.525 61.8767 122.765 62.1761 122.915 62.2959C123.065 62.4456 123.184 62.5354 123.304 62.5653L124.084 62.7749V63.1641H119.857V62.7749L121.146 62.5354L117.369 57.4158L116.38 58.3738V62.0564C116.38 62.0564 116.41 62.2959 116.5 62.3857C116.59 62.4755 116.68 62.5354 116.8 62.5653L117.879 62.8049V63.1941H113.413Z" fill="#143256"/>
<path d="M19.4706 70.14V69.9304L19.8902 69.8106C19.8902 69.8106 19.9802 69.7807 20.0101 69.7507C20.0401 69.7208 20.0401 69.6609 20.0401 69.631V66.0383C20.0401 66.0383 20.0401 65.9485 19.9802 65.9185C19.9202 65.8886 19.9202 65.8586 19.8603 65.8586L19.4406 65.7389V65.5293H21.5688V65.7389L21.1492 65.8586C21.1492 65.8586 21.0593 65.8886 21.0293 65.9185C20.9993 65.9485 20.9693 66.0083 20.9693 66.0383V69.631C20.9693 69.631 20.9693 69.7208 20.9993 69.7507C21.0293 69.7807 21.0593 69.8106 21.1192 69.8106L21.5389 69.9304V70.14H19.4106H19.4706Z" fill="#143256"/>
<path d="M23.0075 70.1409V69.9313L23.4271 69.7816C23.4271 69.7816 23.517 69.7517 23.547 69.6918C23.547 69.6619 23.577 69.602 23.577 69.5721V66.0093C23.577 66.0093 23.577 65.9195 23.517 65.8895C23.4871 65.8596 23.4571 65.8296 23.3971 65.8296L22.9475 65.6799V65.4704H24.4163L26.4546 68.3745L26.7843 68.8236V66.0093C26.7843 66.0093 26.7843 65.9195 26.7543 65.8895C26.7244 65.8596 26.6944 65.8296 26.6344 65.7997L26.2148 65.65V65.4404H27.8634V65.65L27.4438 65.7997C27.4438 65.7997 27.3538 65.8296 27.3239 65.8895C27.2939 65.9195 27.2939 65.9793 27.2939 66.0093V69.3325L27.204 70.1409H26.6644L24.4463 66.9673L24.0866 66.4584V69.5721C24.0866 69.5721 24.0866 69.6619 24.1165 69.6918C24.1165 69.7218 24.1765 69.7517 24.2364 69.7816L24.6561 69.9313V70.1409H23.0075Z" fill="#143256"/>
<path d="M30.1117 70.14V69.9304L30.6213 69.8106C30.6213 69.8106 30.7112 69.7807 30.7412 69.7507C30.7712 69.7208 30.7712 69.6609 30.7712 69.631V65.8886H29.782C29.782 65.8886 29.6921 65.8886 29.6921 65.9185C29.6921 65.9185 29.6621 65.9784 29.6321 66.0083L29.3624 66.7568H29.1226V65.5293H33.379V66.7568H33.1392L32.8694 66.0083C32.8694 66.0083 32.8694 65.9485 32.8395 65.9185C32.8395 65.9185 32.7795 65.8886 32.7495 65.8886H31.7304V69.631C31.7304 69.631 31.7304 69.7208 31.7903 69.7507C31.8203 69.7807 31.8503 69.8106 31.9102 69.8106L32.4198 69.9304V70.14H30.1417H30.1117Z" fill="#143256"/>
<path d="M34.728 70.14V69.9304L35.1477 69.8106C35.1477 69.8106 35.2376 69.7807 35.2676 69.7507C35.2676 69.7208 35.2976 69.6609 35.2976 69.631V66.0383C35.2976 66.0383 35.2976 65.9485 35.2676 65.9185C35.2376 65.8886 35.2076 65.8586 35.1477 65.8586L34.728 65.7389V65.5293H38.4749V66.7269H38.2351L37.9653 66.0083C37.9653 66.0083 37.9653 65.9485 37.9054 65.9185C37.9054 65.9185 37.8454 65.8886 37.8155 65.8886H36.2867V67.5652H37.2759C37.2759 67.5652 37.3658 67.5652 37.3658 67.5352C37.3658 67.5352 37.3958 67.4754 37.4258 67.4454L37.6656 66.9065H37.8754V68.6131H37.6656L37.4258 68.0741C37.4258 68.0741 37.4258 68.0143 37.3658 67.9843C37.3658 67.9843 37.3059 67.9544 37.2759 67.9544H36.2867V69.8106H38.1152C38.1152 69.8106 38.1752 69.8106 38.2051 69.7807C38.2051 69.7807 38.2351 69.7208 38.2651 69.6909L38.5349 68.8825H38.7747V70.1998H34.758L34.728 70.14Z" fill="#143256"/>
<path d="M40.153 70.14V69.9304L40.5727 69.8106C40.5727 69.8106 40.6626 69.7807 40.6926 69.7507C40.6926 69.7208 40.7225 69.6609 40.7225 69.631V66.0383C40.7225 66.0383 40.7225 65.9485 40.6626 65.9185C40.6026 65.8886 40.6026 65.8586 40.5427 65.8586L40.123 65.7389V65.5293H42.1613C42.521 65.5293 42.8208 65.5592 43.0606 65.6191C43.3004 65.679 43.4802 65.7688 43.6001 65.8886C43.72 66.0083 43.81 66.1281 43.8699 66.2478C43.9299 66.3975 43.9598 66.5173 43.9598 66.667C43.9598 66.9065 43.8999 67.146 43.78 67.2957C43.6601 67.4454 43.5402 67.5951 43.3603 67.6849C43.2105 67.7748 43.0306 67.8646 42.8807 67.8945L42.3712 68.2538L41.6218 68.0442V67.7149C41.6218 67.7149 41.7117 67.7149 41.7717 67.7149C41.8316 67.7149 41.8916 67.7149 41.9815 67.7149C42.0414 67.7149 42.1014 67.7149 42.1314 67.7149C42.3112 67.7149 42.4611 67.655 42.581 67.5652C42.7009 67.4754 42.7908 67.3556 42.8508 67.2059C42.9107 67.0562 42.9407 66.9065 42.9407 66.7269C42.9407 66.3975 42.8807 66.158 42.7309 66.0083C42.581 65.8586 42.3712 65.7988 42.1014 65.7988H41.7117V69.5412C41.7117 69.5412 41.7117 69.631 41.7417 69.6609C41.7417 69.6909 41.8016 69.7208 41.8616 69.7208L42.3712 69.8406V70.0501H40.183L40.153 70.14ZM44.919 70.14H43.8399C43.8399 70.14 43.6001 70.14 43.5102 70.11C43.4203 70.11 43.3603 70.0501 43.3004 69.9903C43.2404 69.9304 43.1805 69.8406 43.1205 69.7507L42.1314 68.164L42.9707 67.8646L44.1397 69.5711C44.1397 69.5711 44.2296 69.6909 44.2896 69.7507C44.3495 69.8106 44.4394 69.8406 44.4694 69.8705L44.919 69.9903V70.1998V70.14Z" fill="#143256"/>
<path d="M45.8788 70.1409V69.9313L46.2984 69.7816C46.2984 69.7816 46.3884 69.7517 46.4183 69.6918C46.4183 69.6619 46.4483 69.602 46.4483 69.5721V66.0093C46.4483 66.0093 46.4483 65.9195 46.3884 65.8895C46.3584 65.8596 46.3284 65.8296 46.2685 65.8296L45.8188 65.6799V65.4704H47.2876L49.3259 68.3745L49.6556 68.8236V66.0093C49.6556 66.0093 49.6556 65.9195 49.6257 65.8895C49.5957 65.8596 49.5657 65.8296 49.5058 65.7997L49.0861 65.65V65.4404H50.7347V65.65L50.3151 65.7997C50.3151 65.7997 50.2252 65.8296 50.1952 65.8895C50.1652 65.9195 50.1652 65.9793 50.1652 66.0093V69.3325L50.0753 70.1409H49.5357L47.3176 66.9673L46.9579 66.4584V69.5721C46.9579 69.5721 46.9579 69.6619 46.9879 69.6918C46.9879 69.7218 47.0478 69.7517 47.1078 69.7816L47.5274 69.9313V70.1409H45.8788Z" fill="#143256"/>
<path d="M51.5437 70.1401V69.9305L51.8435 69.8107C51.8435 69.8107 51.9933 69.7209 52.0533 69.6012L53.4021 66.1881L53.8218 65.4097H54.2415L55.8901 69.6012C55.8901 69.6012 55.9201 69.691 55.98 69.7209C56.01 69.7509 56.0699 69.7808 56.0999 69.8107L56.3996 69.9305V70.1401H54.3614V69.9305L54.9608 69.7808L53.8518 66.9964L53.7019 66.5474H53.6719L52.4429 69.7509L53.0125 69.9006V70.1101H51.5437V70.1401ZM52.8926 68.4934L53.0425 68.1341H54.3314L54.4813 68.4934H52.8926Z" fill="#143256"/>
<path d="M58.0185 70.14V69.9304L58.528 69.8106C58.528 69.8106 58.618 69.7807 58.6479 69.7507C58.6779 69.7208 58.6779 69.6609 58.6779 69.631V65.8886H57.6887C57.6887 65.8886 57.5988 65.8886 57.5988 65.9185C57.5988 65.9185 57.5688 65.9784 57.5389 66.0083L57.2691 66.7568H57.0293V65.5293H61.2857V66.7568H61.0459L60.7762 66.0083C60.7762 66.0083 60.7762 65.9485 60.7462 65.9185C60.7462 65.9185 60.6862 65.8886 60.6563 65.8886H59.6371V69.631C59.6371 69.631 59.6371 69.7208 59.6971 69.7507C59.727 69.7807 59.757 69.8106 59.817 69.8106L60.3265 69.9304V70.14H58.0484H58.0185Z" fill="#143256"/>
<path d="M62.6342 70.14V69.9304L63.0538 69.8106C63.0538 69.8106 63.1437 69.7807 63.1737 69.7507C63.2037 69.7208 63.2037 69.6609 63.2037 69.631V66.0383C63.2037 66.0383 63.2037 65.9485 63.1437 65.9185C63.0838 65.8886 63.0838 65.8586 63.0238 65.8586L62.6042 65.7389V65.5293H64.7324V65.7389L64.3128 65.8586C64.3128 65.8586 64.2228 65.8886 64.1929 65.9185C64.1629 65.9485 64.1329 66.0083 64.1329 66.0383V69.631C64.1329 69.631 64.1329 69.7208 64.1629 69.7507C64.1929 69.7807 64.2228 69.8106 64.2828 69.8106L64.7024 69.9304V70.14H62.5742H62.6342Z" fill="#143256"/>
<path d="M68.45 70.2305C67.9704 70.2305 67.5507 70.1407 67.221 69.9312C66.8913 69.7216 66.6215 69.4222 66.4417 69.0629C66.2618 68.7036 66.1719 68.2845 66.1719 67.8055C66.1719 67.3264 66.2618 66.9372 66.4417 66.5779C66.6215 66.2187 66.8913 65.9193 67.221 65.7097C67.5507 65.5001 67.9704 65.3804 68.45 65.3804C68.9596 65.3804 69.3792 65.5001 69.7389 65.7097C70.0986 65.9193 70.3084 66.2187 70.4883 66.5779C70.6382 66.9372 70.7281 67.3564 70.7281 67.7755C70.7281 68.0749 70.6981 68.3444 70.6082 68.6438C70.5183 68.9432 70.3984 69.1827 70.2185 69.4222C70.0387 69.6617 69.7989 69.8413 69.5291 69.991C69.2593 70.1407 68.8996 70.2006 68.5099 70.2006L68.45 70.2305ZM68.5099 69.8713C68.7797 69.8713 68.9895 69.7815 69.1694 69.6018C69.3492 69.4222 69.4691 69.1827 69.5591 68.8833C69.649 68.5839 69.679 68.2545 69.679 67.8953C69.679 67.4761 69.619 67.0869 69.5291 66.7576C69.4392 66.4282 69.2893 66.1887 69.1094 65.9792C68.9296 65.7995 68.6898 65.7097 68.39 65.7097C68.0903 65.7097 67.8805 65.7995 67.7006 65.9792C67.5208 66.1588 67.4009 66.3983 67.3109 66.6977C67.221 66.9971 67.191 67.3264 67.191 67.6558C67.191 68.0749 67.221 68.4342 67.3109 68.7635C67.4009 69.0928 67.5507 69.3623 67.7306 69.5419C67.9104 69.7216 68.1502 69.8413 68.45 69.8413L68.5099 69.8713Z" fill="#143256"/>
<path d="M72.1368 70.1409V69.9313L72.5565 69.7816C72.5565 69.7816 72.6464 69.7517 72.6764 69.6918C72.6764 69.6619 72.7064 69.602 72.7064 69.5721V66.0093C72.7064 66.0093 72.7064 65.9195 72.6464 65.8895C72.6165 65.8596 72.5865 65.8296 72.5265 65.8296L72.0769 65.6799V65.4704H73.5457L75.584 68.3745L75.9137 68.8236V66.0093C75.9137 66.0093 75.9137 65.9195 75.8837 65.8895C75.8538 65.8596 75.8238 65.8296 75.7638 65.7997L75.3442 65.65V65.4404H76.9928V65.65L76.5732 65.7997C76.5732 65.7997 76.4832 65.8296 76.4533 65.8895C76.4233 65.9195 76.4233 65.9793 76.4233 66.0093V69.3325L76.3334 70.1409H75.7938L73.5757 66.9673L73.216 66.4584V69.5721C73.216 69.5721 73.216 69.6619 73.2459 69.6918C73.2459 69.7218 73.3059 69.7517 73.3658 69.7816L73.7855 69.9313V70.1409H72.1368Z" fill="#143256"/>
<path d="M77.8318 70.1401V69.9305L78.1315 69.8107C78.1315 69.8107 78.2814 69.7209 78.3414 69.6012L79.6902 66.1881L80.1099 65.4097H80.5295L82.1782 69.6012C82.1782 69.6012 82.2081 69.691 82.2681 69.7209C82.2981 69.7509 82.358 69.7808 82.388 69.8107L82.6877 69.9305V70.1401H80.6494V69.9305L81.2489 69.7808L80.1399 66.9964L79.99 66.5474H79.96L78.731 69.7509L79.3006 69.9006V70.1101H77.8318V70.1401ZM79.1507 68.4934L79.3006 68.1341H80.5895L80.7394 68.4934H79.1507Z" fill="#143256"/>
<path d="M83.6768 70.14V69.9304L84.0964 69.8106C84.0964 69.8106 84.1863 69.7807 84.2163 69.7507C84.2463 69.7208 84.2463 69.6609 84.2463 69.631V66.0383C84.2463 66.0383 84.2463 65.9485 84.2163 65.9185C84.1863 65.8886 84.1564 65.8586 84.0964 65.8586L83.6768 65.7389V65.5293H85.835V65.7389L85.3853 65.8586C85.3853 65.8586 85.2954 65.8886 85.2654 65.9485C85.2654 65.9784 85.2355 66.0383 85.2355 66.0682V69.8106H86.8541C86.8541 69.8106 86.944 69.8106 86.944 69.7507C86.944 69.7208 86.974 69.6609 87.004 69.631L87.3037 68.7328H87.5136V70.1699H83.6768V70.14Z" fill="#143256"/>
<path d="M91.8005 69.9611L91.7106 68.6438H91.9204L92.2202 69.3024C92.2202 69.3024 92.2501 69.3623 92.2801 69.3922C92.3101 69.4222 92.3401 69.4521 92.37 69.4821C92.4899 69.5419 92.6098 69.6018 92.7297 69.6617C92.8796 69.7216 92.9995 69.7515 93.1194 69.7815C93.2393 69.7815 93.3592 69.8114 93.4491 69.8114C93.7189 69.8114 93.8988 69.7216 94.0486 69.5719C94.1985 69.4222 94.2585 69.2425 94.2585 69.033C94.2585 68.8533 94.1985 68.7036 94.1086 68.6138C94.0187 68.4941 93.8688 68.4042 93.659 68.3144C93.4791 68.2545 93.3292 68.1947 93.1494 68.1647C92.9695 68.1348 92.8197 68.0749 92.6398 68.015C92.37 67.8953 92.1602 67.7456 92.0103 67.5061C91.8605 67.2965 91.8005 67.027 91.8005 66.7576C91.8005 66.4881 91.8605 66.2785 92.0103 66.069C92.1602 65.8594 92.37 65.7097 92.6098 65.56C92.8496 65.4402 93.1494 65.3804 93.4491 65.3804C93.629 65.3804 93.8088 65.3804 93.9887 65.4103C94.1685 65.4103 94.3184 65.4702 94.4983 65.5001C94.6481 65.5301 94.798 65.56 94.9179 65.6199V66.8474H94.6781L94.4083 66.2187C94.4083 66.2187 94.3784 66.1588 94.3484 66.1289C94.3184 66.0989 94.2884 66.069 94.2585 66.069C94.1985 66.0091 94.1086 65.9792 93.9887 65.9492C93.8688 65.9193 93.7789 65.8893 93.659 65.8594C93.5391 65.8295 93.4491 65.8594 93.3892 65.8594C93.1794 65.8594 92.9995 65.9193 92.8496 66.069C92.6998 66.2187 92.6398 66.3384 92.6398 66.5181C92.6398 66.6977 92.6698 66.8474 92.7597 66.9672C92.8496 67.0869 92.9995 67.2067 93.2393 67.2665C93.3892 67.3264 93.569 67.3863 93.7189 67.4162C93.8688 67.4462 94.0486 67.5061 94.2285 67.5959C94.3784 67.6558 94.5282 67.7456 94.6481 67.8354C94.768 67.9552 94.8879 68.0749 94.9779 68.2545C95.0678 68.4342 95.0978 68.6138 95.0978 68.8234C95.0978 69.0629 95.0378 69.3024 94.8879 69.512C94.768 69.7216 94.5582 69.9311 94.2585 70.0509C93.9887 70.2006 93.599 70.2605 93.1794 70.2605C92.9995 70.2605 92.8197 70.2605 92.6398 70.2305C92.46 70.2305 92.2801 70.1707 92.1302 70.1108C91.9804 70.0509 91.8005 70.021 91.6506 69.9611H91.8005Z" fill="#143256"/>
<path d="M100.523 69.1527H100.673V69.512C100.673 69.512 100.403 69.7216 100.223 69.8413C100.044 69.9611 99.8338 70.0509 99.6239 70.1108C99.4141 70.2006 99.1743 70.2305 98.9645 70.2305C98.5149 70.2305 98.1252 70.1407 97.7955 69.9312C97.4657 69.7216 97.196 69.4521 97.0161 69.0928C96.8363 68.7336 96.7463 68.3144 96.7463 67.8055C96.7463 67.2965 96.8363 66.9073 97.0461 66.548C97.2559 66.1887 97.4957 65.8893 97.8554 65.6798C98.1851 65.4702 98.5748 65.3804 98.9945 65.3804C99.1443 65.3804 99.3242 65.3804 99.504 65.4103C99.6839 65.4103 99.8937 65.4702 100.074 65.5001C100.253 65.5301 100.403 65.5899 100.523 65.6199V66.7576H100.283L100.044 66.1588C100.044 66.1588 100.014 66.0989 99.9836 66.069C99.9537 66.039 99.9237 66.039 99.8937 66.0091C99.7738 65.9492 99.6239 65.8893 99.4741 65.8295C99.3242 65.7995 99.1743 65.7696 99.0244 65.7696C98.6647 65.7696 98.365 65.9193 98.1552 66.2486C97.9453 66.5779 97.8254 67.057 97.8254 67.6558C97.8254 68.2545 97.9453 68.7935 98.2151 69.1228C98.4849 69.4521 98.8446 69.6318 99.3542 69.6318C99.534 69.6318 99.7139 69.6318 99.8338 69.5719C99.9836 69.512 100.104 69.4521 100.223 69.3623C100.343 69.2725 100.463 69.1827 100.583 69.0629L100.523 69.1527Z" fill="#143256"/>
<path d="M101.962 70.14V69.9304L102.382 69.8106C102.382 69.8106 102.471 69.7807 102.501 69.7507C102.501 69.7208 102.531 69.6609 102.531 69.631V66.0383C102.531 66.0383 102.531 65.9485 102.501 65.9185C102.471 65.8886 102.442 65.8586 102.382 65.8586L101.962 65.7389V65.5293H104.09V65.7389L103.67 65.8586C103.67 65.8586 103.581 65.8886 103.551 65.9485C103.521 65.9784 103.491 66.0383 103.491 66.0682V67.5652H105.409V66.0682C105.409 66.0682 105.409 65.9784 105.349 65.9485C105.349 65.9185 105.289 65.8886 105.229 65.8886L104.81 65.7688V65.5592H106.938V65.7688L106.518 65.8886C106.518 65.8886 106.428 65.9185 106.398 65.9485C106.368 65.9784 106.338 66.0383 106.338 66.0682V69.6609C106.338 69.6609 106.338 69.7507 106.398 69.7807C106.398 69.8106 106.458 69.8406 106.518 69.8406L106.938 69.9603V70.1699H104.81V69.9603L105.229 69.8406C105.229 69.8406 105.319 69.8106 105.349 69.7807C105.379 69.7507 105.409 69.6909 105.409 69.6609V67.9544H103.491V69.6609C103.491 69.6609 103.491 69.7507 103.551 69.7807C103.581 69.8106 103.611 69.8406 103.67 69.8406L104.09 69.9603V70.1699H101.962V70.14Z" fill="#143256"/>
<path d="M110.624 70.2305C110.145 70.2305 109.725 70.1407 109.395 69.9312C109.066 69.7216 108.796 69.4222 108.616 69.0629C108.436 68.7036 108.346 68.2845 108.346 67.8055C108.346 67.3264 108.436 66.9372 108.616 66.5779C108.796 66.2187 109.066 65.9193 109.395 65.7097C109.725 65.5001 110.145 65.3804 110.624 65.3804C111.134 65.3804 111.554 65.5001 111.913 65.7097C112.273 65.9193 112.483 66.2187 112.663 66.5779C112.812 66.9372 112.902 67.3564 112.902 67.7755C112.902 68.0749 112.872 68.3444 112.782 68.6438C112.693 68.9432 112.573 69.1827 112.393 69.4222C112.213 69.6617 111.973 69.8413 111.703 69.991C111.434 70.1407 111.074 70.2006 110.684 70.2006L110.624 70.2305ZM110.684 69.8713C110.954 69.8713 111.164 69.7815 111.344 69.6018C111.524 69.4222 111.643 69.1827 111.733 68.8833C111.823 68.5839 111.853 68.2545 111.853 67.8953C111.853 67.4761 111.793 67.0869 111.703 66.7576C111.613 66.4282 111.464 66.1887 111.284 65.9792C111.104 65.7995 110.864 65.7097 110.564 65.7097C110.265 65.7097 110.055 65.7995 109.875 65.9792C109.695 66.1588 109.575 66.3983 109.485 66.6977C109.395 66.9971 109.365 67.3264 109.365 67.6558C109.365 68.0749 109.395 68.4342 109.485 68.7635C109.575 69.0928 109.725 69.3623 109.905 69.5419C110.085 69.7216 110.325 69.8413 110.624 69.8413L110.684 69.8713Z" fill="#143256"/>
<path d="M116.589 70.2305C116.11 70.2305 115.69 70.1407 115.36 69.9312C115.031 69.7216 114.761 69.4222 114.581 69.0629C114.401 68.7036 114.311 68.2845 114.311 67.8055C114.311 67.3264 114.401 66.9372 114.581 66.5779C114.761 66.2187 115.031 65.9193 115.36 65.7097C115.69 65.5001 116.11 65.3804 116.589 65.3804C117.099 65.3804 117.519 65.5001 117.878 65.7097C118.238 65.9193 118.448 66.2187 118.628 66.5779C118.778 66.9372 118.867 67.3564 118.867 67.7755C118.867 68.0749 118.838 68.3444 118.748 68.6438C118.658 68.9432 118.538 69.1827 118.358 69.4222C118.178 69.6617 117.938 69.8413 117.668 69.991C117.399 70.1407 117.039 70.2006 116.649 70.2006L116.589 70.2305ZM116.649 69.8713C116.919 69.8713 117.129 69.7815 117.309 69.6018C117.489 69.4222 117.609 69.1827 117.698 68.8833C117.788 68.5839 117.818 68.2545 117.818 67.8953C117.818 67.4761 117.758 67.0869 117.668 66.7576C117.579 66.4282 117.429 66.1887 117.249 65.9792C117.069 65.7995 116.829 65.7097 116.529 65.7097C116.23 65.7097 116.02 65.7995 115.84 65.9792C115.66 66.1588 115.54 66.3983 115.45 66.6977C115.36 66.9971 115.33 67.3264 115.33 67.6558C115.33 68.0749 115.36 68.4342 115.45 68.7635C115.54 69.0928 115.69 69.3623 115.87 69.5419C116.05 69.7216 116.29 69.8413 116.589 69.8413L116.649 69.8713Z" fill="#143256"/>
<path d="M120.276 70.14V69.9304L120.696 69.8106C120.696 69.8106 120.786 69.7807 120.816 69.7507C120.846 69.7208 120.846 69.6609 120.846 69.631V66.0383C120.846 66.0383 120.846 65.9485 120.816 65.9185C120.786 65.8886 120.756 65.8586 120.696 65.8586L120.276 65.7389V65.5293H122.434V65.7389L121.985 65.8586C121.985 65.8586 121.895 65.8886 121.865 65.9485C121.865 65.9784 121.835 66.0383 121.835 66.0682V69.8106H123.453C123.453 69.8106 123.543 69.8106 123.543 69.7507C123.543 69.7208 123.573 69.6609 123.603 69.631L123.903 68.7328H124.113V70.1699H120.276V70.14Z" fill="#143256"/>
</svg>
