<svg width="101" height="119" viewBox="0 0 101 119" fill="none" xmlns="http://www.w3.org/2000/svg">
<path d="M56.64 54.5527H100.704C100.764 53.415 100.794 52.2474 100.794 51.0797V1.08105H51.8505V49.7624C51.8505 52.3971 54.0058 54.5527 56.64 54.5527Z" fill="#143256" stroke="#002235" stroke-width="0.37" stroke-miterlimit="10"/>
<mask id="mask0_2028_4869" style="mask-type:luminance" maskUnits="userSpaceOnUse" x="51" y="1" width="49" height="53">
<path d="M56.6401 53.5351H99.8062C99.8661 52.3974 99.896 51.2897 99.896 50.152V1.20117H51.9703V48.8646C51.9703 51.4693 54.0657 53.5651 56.6701 53.5651L56.6401 53.5351Z" fill="white"/>
</mask>
<g mask="url(#mask0_2028_4869)">
<path d="M96.5433 48.8644C96.5433 48.8644 96.0344 49.8524 95.0166 49.7027C93.9988 49.523 92.6817 48.2057 90.9155 48.4752C89.1494 48.7446 87.9221 50.032 87.9221 50.032C87.9221 50.032 90.0474 49.1638 91.0652 49.4931C92.083 49.8224 93.2505 50.7506 94.5975 50.6009C95.9446 50.4512 96.5433 48.8644 96.5433 48.8644Z" fill="white"/>
<path d="M66.7584 33.6858C66.7584 33.6858 66.489 34.584 66.7883 35.9612C67.0877 37.3084 67.417 38.6258 67.417 38.6258C67.417 38.6258 67.387 37.3084 67.6864 36.7695C67.9857 36.2306 68.6443 36.1408 68.6443 36.1408C68.6443 36.1408 68.6443 36.9192 68.8538 37.6977C69.0634 38.4761 69.243 39.7036 69.243 39.7036C69.243 39.7036 69.722 38.2964 70.3506 38.6857C70.7996 38.9551 71.5779 40.512 72.0569 41.47C72.3562 41.0808 72.6556 40.6617 72.9849 40.2425C73.853 39.0749 75.23 38.4162 76.3376 37.4881C76.5172 37.3384 76.7267 37.6078 76.577 37.7875C75.2898 39.015 73.853 39.8832 72.8951 41.4401C72.7454 41.7095 72.5658 41.979 72.3862 42.2484C72.3263 42.4281 72.0569 43.2065 71.4582 44.4639C70.7996 45.901 69.7519 47.1286 69.1831 47.0986C68.6144 47.0986 66.5788 44.4639 65.6807 44.4639C64.7528 44.4639 64.7528 44.9729 64.7528 44.9729C64.7528 44.9729 64.0044 44.8232 63.256 45.5717C62.5076 46.3202 62.1784 47.4579 62.1784 47.4579C62.1784 47.4579 62.9866 46.7693 63.6152 46.7094C64.2439 46.6795 64.7228 46.9489 64.7228 46.9489C64.7228 46.9489 63.5853 47.6974 62.9267 49.2243C62.2682 50.7512 62.4178 52.3679 62.4178 52.3679C62.4178 52.3679 62.8369 50.9907 64.3037 51.0506C65.7406 51.0805 66.3992 51.2302 66.3992 51.2302C66.3992 51.2302 65.5311 51.6494 65.4413 52.9967C65.3515 54.3739 66.0699 56.1403 66.0699 56.1403C66.0699 56.1403 66.489 53.5655 67.1176 53.6853C67.7463 53.7751 68.7042 54.7631 69.9914 53.1464C71.2486 51.5296 71.1588 51.2302 71.9671 50.4219C72.7753 49.5836 73.7332 49.2542 73.7332 49.2542C73.7332 49.2542 73.5237 49.8231 73.6434 50.4219C73.7931 51.0207 74.2421 52.1584 74.2421 52.1584C74.2421 52.1584 74.0625 50.6015 74.4217 49.7333C74.7809 48.865 75.6491 47.5477 75.6491 47.5477C75.6491 47.5477 75.4395 48.0267 75.6491 48.895C75.8586 49.7932 76.4872 50.6913 76.4872 50.6913C76.4872 50.6913 76.3076 48.6555 76.8464 47.7872C77.4152 46.9489 77.954 46.1406 77.954 46.1406C77.954 46.1406 77.954 46.5597 78.4629 47.2782C78.9419 47.9668 79.8998 48.5656 79.8998 48.5656C79.8998 48.5656 78.7922 46.2603 79.361 45.3621C79.8998 44.4639 80.6482 43.5358 80.6482 43.5358C80.6482 43.5358 79.9597 45.8112 81.2169 47.2483C82.4742 48.7153 83.971 49.374 83.971 49.374C83.971 49.374 80.3788 50.8111 78.7623 52.6673C77.1458 54.5236 77.0261 55.3319 77.7146 56.4397C78.4031 57.5474 79.4208 58.3259 79.4208 58.3259C79.4208 58.3259 78.5228 58.4157 77.8044 58.1163C77.0859 57.8468 75.679 56.9786 75.679 56.9786C75.679 56.9786 76.3974 59.3438 78.9718 60.1821C81.5462 61.0204 83.7315 61.3797 83.7315 61.3797C83.7315 61.3797 84.6894 62.2479 82.3245 63.0263C79.9896 63.8048 77.8942 63.7449 77.8942 63.7449C77.8942 63.7449 78.0438 61.1102 76.0083 60.8707C73.9428 60.6312 73.5836 61.7389 73.5836 61.7389C73.5836 61.7389 71.9371 61.5892 71.2187 62.0383C70.5003 62.4874 69.9914 63.5652 69.9914 63.5652C69.9914 63.5652 71.1588 62.7269 71.9671 62.8467C72.7454 62.9665 73.6135 63.4754 73.6135 63.4754C73.6135 63.4754 72.7154 63.8347 71.7875 64.6131C70.8894 65.3616 70.6799 66.5891 70.6799 66.5891C70.6799 66.5891 71.6079 65.6909 72.3862 65.7808C73.1645 65.8706 73.9727 66.0802 73.9727 66.0802C73.9727 66.0802 72.9549 67.0382 72.2964 67.8466C71.6378 68.6549 71.2786 70.1519 71.2786 70.1519C71.2786 70.1519 72.446 68.4454 73.2842 68.6549C74.1224 68.8645 74.5714 69.9124 75.6491 69.6729C76.7267 69.4334 77.6547 68.625 77.6547 68.625C77.6547 68.625 78.0738 69.583 79.1215 69.104C80.1692 68.625 81.9054 67.9963 81.9054 67.9963C81.9054 67.9963 81.9054 68.625 82.115 69.5232C82.3245 70.4213 82.8933 71.5291 82.8933 71.5291C82.8933 71.5291 82.9532 69.5531 83.4321 68.9543C83.9111 68.3555 84.5996 67.3376 84.5996 67.3376C84.5996 67.3376 84.4798 67.5472 84.9289 68.5951C85.3779 69.6429 86.5753 70.7207 86.5753 70.7207C86.5753 70.7207 85.7671 68.6549 86.0365 67.9663C86.3059 67.2478 86.8447 66.5592 86.8447 66.5592C86.8447 66.5592 87.174 66.8586 87.7727 67.6669C88.3714 68.5052 89.0898 69.134 89.0898 69.134C89.0898 69.134 87.9523 66.8286 88.5809 66.17C89.2096 65.5113 90.4968 64.4035 90.4668 63.5054C90.4369 62.6072 88.0122 60.0923 87.0842 59.1043C86.1861 58.1163 85.5575 56.4397 85.5575 56.4397L89 56.9487C89 56.9487 88.4612 58.5354 89.3892 59.9725C90.3172 61.4396 92.2928 63.1162 92.2928 63.1162C92.2928 63.1162 92.3228 63.3856 91.9636 63.8946C91.6044 64.3736 90.5267 64.9724 90.5267 64.9724C90.5267 64.9724 91.4247 65.2718 92.5323 64.8227C93.6399 64.3736 95.2265 63.3856 95.2265 63.3856C95.2265 63.3856 95.1067 63.9245 94.6577 64.2239C94.2087 64.5233 93.0412 65.4514 93.0412 65.4514C93.0412 65.4514 95.7653 65.2718 97.0525 64.4934C98.3397 63.7449 99.3874 63.206 99.3874 63.206C99.3874 63.206 99.9861 65.4215 99.8664 66.8885C99.7466 68.3555 99.0282 69.8525 97.5913 69.9124C96.1544 69.9723 94.8373 69.8226 94.1488 70.4513C93.4603 71.08 93.7297 72.1578 93.7297 72.1578C93.7297 72.1578 92.682 72.6967 92.5024 73.7446C92.3228 74.7925 92.5024 76.4092 92.5024 76.4092C92.5024 76.4092 92.8916 75.7206 93.7297 75.2116C94.5679 74.7027 95.5258 74.5829 95.5258 74.5829C95.5258 74.5829 94.7774 75.4212 94.6278 76.4092C94.4781 77.3972 94.987 78.6846 94.987 78.6846C94.987 78.6846 96.3939 75.6907 97.3518 75.9901C98.3098 76.2895 99.118 76.7984 100.046 76.3793C101.004 75.9601 101.333 75.9901 101.483 77.008C101.633 78.0259 101.513 79.9421 101.513 79.9421C101.513 79.9421 102.351 79.4331 102.92 77.996C103.488 76.5589 103.548 72.8464 103.548 72.8464C103.548 72.8464 103.548 71.6489 104.357 71.6788C105.135 71.7087 106.183 73.056 106.183 73.056C106.183 73.056 106.452 72.3075 106.392 70.4214C106.332 68.5651 105.614 67.0083 105.614 67.0083C105.614 67.0083 106.183 66.649 106.662 67.3077C107.141 67.9663 108.039 68.9543 108.039 68.9543C108.039 68.9543 107.979 66.4993 107.29 65.4514C106.602 64.4035 106.003 63.5652 106.003 63.5652C106.003 63.5652 106.452 63.2658 106.961 63.4754C107.47 63.685 108.278 64.673 108.278 64.673C108.278 64.673 107.919 62.5174 107.47 61.7389C107.021 60.9905 106.721 60.3019 106.721 60.3019C106.721 60.3019 107.649 60.6611 108.547 59.5534C109.446 58.4456 109.805 57.0984 109.805 57.0984C109.805 57.0984 109.475 57.9067 108.488 58.1163C107.5 58.2959 106.751 58.5055 106.751 58.5055C106.751 58.5055 106.213 56.799 105.015 56.5295C103.818 56.26 99.0881 57.8468 98.9085 56.6792C98.7289 55.5116 100.256 54.5535 100.525 52.847C100.705 51.829 100.734 50.2422 100.315 48.9249C101.543 48.386 103.01 47.7273 104.476 47.0387C108.069 45.3921 110.763 44.4939 111.331 41.5898C111.9 38.6857 111.122 36.8294 107.679 32.5181C104.686 28.7757 94.3584 22.0693 94.6278 20.0035C94.8972 17.9377 95.8551 16.8599 97.292 17.0395C98.7288 17.2192 101.872 20.0035 105.823 18.9257C109.775 17.8479 110.254 16.291 110.254 16.291C110.254 16.291 108.218 16.9198 106.153 16.6503C104.087 16.3809 103.878 13.8959 101.243 13.0276C98.6091 12.1594 95.6456 11.7702 92.7119 17.0695C89.7484 22.3687 103.159 30.9014 106.841 35.1828C110.493 39.494 108.787 41.47 105.973 43.476C103.878 44.9729 100.525 46.2603 98.9085 46.8292C98.8187 46.7693 98.7588 46.7393 98.669 46.7094C96.6035 45.7813 92.3827 44.1646 91.6043 42.8472C90.826 41.5 89.8981 38.2665 89.8981 38.2665C89.8981 38.2665 90.377 38.6857 91.305 38.5958C92.203 38.506 93.161 38.4162 93.161 38.4162C93.161 38.4162 91.6043 37.6378 91.0655 36.8893C90.5267 36.1408 90.1974 35.2426 90.1974 35.2426C90.1974 35.2426 90.7662 35.542 91.6642 35.7516C92.5623 35.9612 93.4304 35.6917 93.4304 35.6917C93.4304 35.6917 92.3228 34.9732 91.8139 34.1049C91.305 33.2068 90.826 31.9793 90.826 31.9793C90.826 31.9793 91.4846 32.8175 92.3527 32.8175C93.2208 32.8175 93.7896 32.3685 93.7896 32.3685C93.7896 32.3685 91.4247 30.3326 90.9158 28.7757C90.4069 27.2189 90.3171 26.3507 90.3171 26.3507C90.3171 26.3507 90.9757 27.2788 91.9935 27.3686C93.0113 27.4584 93.9393 27.1291 93.9393 27.1291C93.9393 27.1291 91.6942 25.5722 90.7362 23.237C89.7783 20.9017 89.6586 16.5904 89.6586 16.5904C89.6586 16.5904 89.928 14.6743 90.4369 14.2252C90.9458 13.7761 91.6043 12.9079 91.6043 12.9079C91.6043 12.9079 89.8083 12.8181 87.9523 13.0875C86.0963 13.357 84.8989 13.9558 84.8989 13.9558C84.8989 13.9558 80.6781 12.4289 78.9718 12.5786C77.2655 12.7283 77.6248 14.0156 77.6248 14.0156C77.6248 14.0156 75.23 13.836 74.0924 14.6144C72.9549 15.3929 73.6734 16.3509 73.6734 16.3509L74.0026 16.6802C74.4816 16.5904 74.9905 16.5904 75.4694 16.6802C75.5293 16.6802 75.5293 16.7701 75.4694 16.7701C75.0803 16.8 74.8408 16.8599 74.4517 16.9497L74.3319 17.0395C74.3319 17.0395 74.2421 17.8179 74.6612 18.297C75.0803 18.776 75.679 18.6862 75.679 18.6862C75.679 18.6862 75.7987 18.7461 76.0382 19.1652C76.2777 19.5544 76.9363 19.8239 76.9363 19.8239C76.9363 19.8239 76.3376 19.4347 76.4274 18.9257C76.4872 18.4467 76.9662 18.0275 76.9662 18.0275C76.9662 18.0275 77.4751 17.2192 78.4031 17.5485C79.3011 17.8479 80.1094 19.6143 79.331 20.6622C78.5527 21.6801 76.3675 22.249 75.1402 21.9795C73.9128 21.7101 73.4039 21.6801 73.3441 22.5184C73.2543 23.3567 73.823 23.8357 74.6612 24.0753C75.4994 24.2848 76.0981 24.1052 76.0981 24.1052C76.0981 24.1052 76.0083 24.7339 75.4096 25.6022C74.8109 26.4704 74.0026 27.3087 74.0026 27.3087C74.0026 27.3087 75.0204 26.9195 76.0681 26.9195C76.2178 26.9195 76.3376 26.9195 76.4573 26.9195C78.4629 26.3207 80.5284 25.7818 82.564 26.201C82.7436 26.2309 83.941 26.6201 82.5341 26.5003C79.9896 26.2908 78.2534 26.8596 76.6369 27.5782C75.8586 28.0273 74.9007 28.626 74.3918 29.0452C73.4039 29.8236 72.0269 31.8295 72.0269 31.8295C72.0269 31.8295 69.9016 30.7218 68.9436 30.1829C67.9857 29.644 66.7584 28.8057 66.7584 28.8057C66.7584 28.8057 66.04 24.0453 64.5432 23.1471C63.0764 22.249 61.9389 23.0873 61.9389 23.0873C61.9389 23.0873 60.981 22.7879 60.023 23.1172C59.0651 23.4465 58.7658 24.0753 58.7658 24.0753C58.7658 24.0753 60.2326 23.5663 60.6517 24.0753C61.0708 24.5842 61.4899 25.7219 61.4899 25.7219C61.4899 25.7219 59.7836 25.4525 58.9454 26.201C58.0773 26.9494 57.5684 28.7458 57.5684 28.7458C57.5684 28.7458 59.0053 26.8896 59.9332 27.4285C60.8912 27.9674 61.6096 29.5242 61.6096 29.5242C61.6096 29.5242 59.6638 30.0931 59.3046 31.62C58.9454 33.1768 59.7536 34.0151 59.7536 34.0151C59.7536 34.0151 59.8135 32.0092 60.5619 31.7397C61.2803 31.4403 61.6695 32.099 62.5076 31.7996C63.3458 31.5002 63.8248 31.59 64.4235 31.7996C65.0222 32.0092 66.7883 33.7756 66.7883 33.7756L66.7584 33.6858ZM102.71 71.6788C102.83 70.7507 103.249 69.9124 103.369 68.9843C103.369 68.9543 103.399 68.8944 103.459 68.8944C103.848 68.8346 104.297 69.3136 104.656 69.7028C104.626 68.0861 104.476 66.3496 103.938 64.8526C103.908 64.7329 103.967 64.6431 104.087 64.6431C104.566 64.6431 104.985 64.7928 105.374 65.0023C104.985 63.9545 104.686 62.8467 104.327 61.7689C104.327 61.709 104.327 61.6491 104.387 61.6491C105.075 61.5294 105.674 61.6491 106.243 61.9485C105.614 61.0803 104.955 60.2719 104.027 59.6432C103.908 59.5534 104.027 59.4037 104.147 59.4636C105.344 60.242 106.213 61.3198 107.051 62.4575C107.17 62.6371 106.961 62.8467 106.811 62.7269C106.302 62.3377 104.297 61.2 104.865 62.6072C105.285 63.6551 105.734 64.673 106.213 65.6909C106.332 65.9305 105.973 66.17 105.793 65.9305C105.793 65.9305 104.207 64.5532 104.327 65.2718C104.416 65.9305 104.686 66.6191 104.836 67.2777C105.075 68.2957 105.195 69.3435 105.195 70.3914C105.195 70.6309 104.806 70.6908 104.716 70.4513C104.476 69.7926 103.698 68.6849 103.488 69.9124C103.369 70.5411 103.129 71.1399 102.89 71.7087C102.86 71.7986 102.71 71.7686 102.74 71.6788H102.71ZM88.6109 14.9138C88.4612 15.3929 88.4612 15.9018 88.3714 16.3809C88.3414 16.5904 87.9822 16.6204 87.9822 16.3809C87.9822 16.0515 87.5931 15.7222 87.3835 15.4827C87.144 15.2132 86.8746 14.9737 86.6052 14.7641C86.6052 14.7641 86.6052 14.7042 86.6352 14.7342C86.9046 14.8839 87.1441 15.0935 87.3536 15.303C87.5332 15.4827 87.7427 15.812 87.9822 16.0216C87.9822 15.2132 88.3115 13.9558 89 13.7761C88.9401 14.1653 88.7306 14.5246 88.6109 14.8839V14.9138ZM95.9748 64.0443C96.4239 63.5054 96.5137 62.7868 96.6035 62.1282C96.6035 62.0683 96.7232 62.0383 96.7531 62.1282C96.9627 62.7269 96.6933 63.2658 96.4837 63.8048C97.5015 63.2359 98.1302 62.2479 98.5792 61.1701C98.639 61.0204 98.8785 61.0803 98.8785 61.2599C98.7288 62.5473 97.4416 64.1042 96.1544 64.4035C95.9748 64.4335 95.8551 64.2239 95.9748 64.0742V64.0443ZM93.3705 62.9964C94.059 62.6671 94.0889 61.9485 94.3584 61.3198C94.4182 61.2 94.538 61.23 94.5679 61.3198C94.6577 61.6791 94.6278 62.1282 94.4781 62.4874C94.6577 62.4276 94.8373 62.3677 95.0469 62.3078C95.5258 62.1282 96.1245 61.8288 96.6334 61.7988C96.4538 62.1581 95.915 62.3377 95.5557 62.4874C95.0469 62.697 94.538 62.8766 94.059 63.0862C93.9093 63.2359 93.6998 63.3257 93.4902 63.3557C93.2508 63.4156 93.161 63.0563 93.3705 62.9365V62.9964ZM87.0542 35.6318C87.9822 35.9013 88.8503 36.2007 89.7783 36.2905C89 35.3325 88.5211 34.2247 88.102 33.0571C88.0421 32.9373 88.1918 32.8175 88.3115 32.9074C88.9701 33.3565 89.6586 33.566 90.407 33.6858C89.5388 32.4882 88.8803 31.1409 88.3414 29.7937C88.3414 29.7338 88.3714 29.6739 88.4313 29.7039C88.6707 29.8835 90.1375 30.3026 90.1375 30.3026C89.8083 30.0033 89.5688 29.7039 89.3293 29.3446C88.7905 28.5362 88.5809 27.4883 88.5211 26.5303C88.5211 26.2908 88.8204 26.2608 88.8803 26.4704C89.2395 27.9075 89.7783 29.5542 91.0356 30.4523C91.1553 30.5422 91.0655 30.7517 90.9158 30.7218C90.4069 30.6619 88.9401 30.5122 88.6707 30.0931C89.4191 31.3505 90.0777 32.6679 91.0057 33.8355C91.1553 34.0151 90.9458 34.2247 90.7662 34.1648C90.3171 34.0151 88.6408 33.7457 88.4612 33.3265C88.9401 34.4642 89.6286 35.542 90.4968 36.4103C90.6464 36.5899 90.4668 36.7995 90.2872 36.7995C89.1198 36.7695 87.8924 36.56 86.9046 35.9013C86.7549 35.8115 86.9046 35.6019 87.0542 35.6618V35.6318ZM81.7258 14.7342C81.7258 14.7342 80.4087 14.6144 79.5705 15.0036C79.6005 14.6743 79.7801 14.5845 79.7801 14.4947C79.7801 14.4049 79.5107 14.2552 78.9718 14.3749C80.0794 13.4767 81.7258 14.7641 81.7258 14.7641V14.7342ZM86.6651 64.9724C86.6651 64.9724 86.8746 64.9724 86.9046 65.0622C87.0243 65.4215 87.2339 65.6909 87.5332 65.8706C87.5931 65.4514 87.7427 65.0922 88.102 64.7928C88.2217 64.673 88.4313 64.8227 88.3714 64.9724C88.1918 65.3915 88.072 65.8107 88.0421 66.2598C88.0421 66.4993 87.7128 66.5592 87.5931 66.3795C87.5033 66.2897 86.8148 65.3616 86.725 65.4215C86.1861 65.9604 85.797 66.4394 85.6473 67.2178C85.6174 67.4274 85.2881 67.5172 85.1983 67.2777C85.0486 66.9484 84.9887 66.649 84.9588 66.2897C84.9289 65.9903 84.4798 66.4394 84.42 66.4993C83.7315 66.9484 83.4022 67.3975 82.9831 68.0561C82.9232 68.146 82.7736 68.116 82.7736 68.0561C82.5041 67.2178 83.3723 66.6789 84.0308 66.3197C85.318 65.6011 84.7792 65.9005 85.348 66.7089C85.5874 65.9903 86.0664 65.3317 86.7848 64.9724H86.6651ZM77.8942 43.1766C77.8942 43.1766 78.1037 43.1766 78.1037 43.2664C78.1636 43.6855 78.2534 44.1346 78.3432 44.5538C78.5527 43.5059 79.1215 42.3682 80.259 42.3083C80.3788 42.3083 80.4087 42.4879 80.259 42.5179C78.9419 42.7275 78.6725 44.1945 78.4629 45.3022C78.4629 45.4519 78.2235 45.4519 78.1935 45.3022C78.0738 44.8831 77.984 44.434 77.8942 44.0149C77.7445 43.2664 77.4751 43.8951 77.1458 44.2843C76.5172 45.0328 76.1879 45.9609 76.0083 46.889C76.0083 47.0387 75.7688 47.0088 75.7688 46.8591C75.8287 45.3921 76.6968 44.1047 77.8343 43.2065L77.8942 43.1766ZM69.9614 37.8174C70.0512 37.1587 69.8716 36.6797 69.7818 36.051C69.7818 36.051 69.8118 36.0211 69.8118 36.051C69.9914 36.56 70.0512 37.0989 70.2009 37.5779C70.5003 37.2486 70.8295 36.9791 71.2486 36.7995C71.3384 36.7695 71.4582 36.7995 71.4582 36.9192C71.518 37.3983 71.6378 37.8474 71.8473 38.2964C71.9072 38.4761 72.1467 39.2844 72.2365 38.8653C72.2963 38.6557 72.3862 38.4761 72.476 38.2964C72.7454 37.7276 73.0747 37.3683 73.6434 37.0989C73.6434 37.0989 73.6734 37.0989 73.6434 37.1288C72.9849 37.6078 72.7454 38.4461 72.446 39.1647C72.446 39.2246 72.3562 39.2545 72.2964 39.2545C72.2964 39.2545 72.2664 39.2545 72.2365 39.2545C72.1766 39.2545 71.8473 39.2545 71.8174 39.1647C71.7276 38.8054 71.6078 38.4761 71.4582 38.1467C71.3085 37.8474 71.3684 37.518 71.2486 37.2186C70.9193 37.518 70.5901 37.6078 70.3206 37.9971C70.2009 38.1767 69.8716 38.0569 69.9315 37.8474L69.9614 37.8174Z" fill="white"/>
</g>
<path d="M44.936 56.4688H0.752167C2.69793 83.8034 20.5391 107.755 46.6423 117.006C48.0493 117.515 49.097 117.844 49.7855 118.024V61.289C49.7855 58.6244 47.6302 56.4688 44.966 56.4688H44.936Z" fill="#143256" stroke="#002235" stroke-width="0.37" stroke-miterlimit="10"/>
<mask id="mask1_2028_4869" style="mask-type:luminance" maskUnits="userSpaceOnUse" x="1" y="56" width="49" height="61">
<path d="M44.8463 56.6784H1.56049C3.47632 83.4442 20.9283 106.917 46.5227 115.988C47.8997 116.467 48.9474 116.797 49.606 116.976V61.3789C49.606 58.7741 47.4806 56.6484 44.8762 56.6484L44.8463 56.6784Z" fill="white"/>
</mask>
<g mask="url(#mask1_2028_4869)">
<path d="M18.6831 76.8866C18.6831 76.8866 18.7729 78.2638 18.9525 78.3237C16.7373 80.1799 17.9048 81.2278 17.7252 83.9523C17.0068 85.6588 17.7252 86.4971 17.9048 86.6169C17.7551 87.7845 17.6354 88.4132 16.887 89.3413C16.3482 90.0299 16.887 91.1078 16.3182 91.8263C15.8692 90.0599 15.3304 90.7784 15.2406 88.3234C15.061 87.9043 14.2527 87.1558 13.7738 87.0959C13.7438 88.5629 13.1751 89.9102 13.2649 90.5389C13.2649 90.5389 12.0376 90.2695 11.6484 90.4192C11.3491 90.509 11.0796 90.8982 11.0796 91.1676C11.4987 91.4371 11.4987 91.3473 12.1274 91.8263C13.235 92.6646 13.684 94.3412 13.684 94.3412C13.684 94.3412 11.1096 92.1856 10.93 91.7964C10.7803 91.497 10.6606 91.0179 10.5408 90.5389C10.5408 90.479 11.9178 89.7306 12.307 89.012C13.5343 86.7666 10.451 90.3293 10.3911 90C10.2415 89.1916 9.70264 88.4432 9.70264 88.4432C9.91218 88.2336 10.3612 88.0839 11.1096 86.8564C12.8159 84.0121 9.16381 88.054 9.16381 88.054C8.23583 87.4851 8.2059 88.2036 8.08616 88.9521C8.08616 89.012 6.46967 90.1497 6.37987 90.2096C5.93085 89.7904 5.6315 89.2216 5.45189 88.8024C5.45189 88.7426 8.38551 86.2576 8.8944 85.4492C13.0553 78.7428 5.60156 88.3833 5.27228 88.1138C5.09267 87.5749 5.06273 86.8564 5.09267 85.8384C5.09267 85.8384 6.46967 84.9103 7.36772 83.5032C10.8402 78.0842 5.1226 85.09 5.1226 85.0301C5.21241 83.8624 6.32 78.7728 5.60156 80.2697C5.24234 81.0481 4.07488 84.2816 4.19462 87.6348C3.8354 87.0061 2.30873 86.3773 1.73996 86.1977C2.00938 81.2577 5.18247 75.8686 4.31436 76.8566C2.18899 79.3416 1.38074 84.8804 -0.175868 89.5809C-0.175868 89.5809 -1.10385 90.0299 -0.744631 83.9822C-0.684762 82.7547 -0.115999 81.138 0.512634 80.0302C1.7699 77.8147 4.31436 74.1022 4.22456 74.0723C3.6558 73.5932 2.12912 76.7968 0.871852 78.0542C0.0336753 78.8626 -2.21144 79.6111 -2.36111 79.4913C-0.475217 76.0782 3.95514 72.9046 3.50612 72.4855C0.24322 75.3896 -0.774566 75.5094 -0.92424 75.3597L2.03931 72.6352C2.87749 71.5574 3.98508 70.749 3.8354 70.779C2.5482 71.0185 4.52391 69.7311 6.05058 69.3718C6.32 69.3119 6.76902 69.282 6.76902 69.1622C6.79896 68.9227 6.4098 69.0125 6.11046 68.9227C5.90091 68.8628 5.69137 68.6832 5.69137 68.3838C6.26013 68.5335 6.85883 68.3838 7.36772 68.2042C8.38551 67.7551 10.2415 67.2461 11.0796 67.6054C11.5586 67.815 11.6484 67.785 12.1872 68.2042C12.4267 68.1144 13.0853 67.7251 13.9534 68.8329C14.2228 69.1922 14.5521 69.5814 14.5521 69.8808C14.5521 70.6293 14.5521 69.9107 14.3425 70.5993C14.2527 70.8987 14.582 71.4376 15.8992 71.9167C16.4081 72.0963 16.2584 72.6053 16.2584 72.6053C16.0189 72.4855 15.5998 72.1861 14.9712 72.4555C13.7438 72.9945 13.5044 72.0963 12.7859 71.4077C12.7859 71.4077 12.9655 72.216 12.7859 72.2759C11.828 72.4556 12.1274 73.1741 12.2471 73.2639C13.4146 74.3717 12.9057 74.7609 13.3248 75.4195C13.7139 76.0483 14.3126 76.3177 15.2406 76.2878C16.5278 76.2878 13.6241 74.2818 16.4679 73.5334C16.0189 74.2519 15.8094 74.8507 16.7972 75.4495C17.3959 75.8387 17.0367 77.665 18.6532 76.8566L18.6831 76.8866Z" fill="white"/>
<path d="M6.64932 90.5398C6.64932 90.5398 8.14607 89.3422 8.14607 89.3721C8.14607 89.5218 8.14606 89.5218 8.176 89.7015C8.23587 90.1506 8.20594 90.5098 8.35561 91.0188C8.35561 91.0787 7.84672 91.2583 7.60724 91.4679C7.27795 91.1386 6.97861 90.9889 6.64932 90.5398Z" fill="white"/>
<path d="M35.2369 90.8385C35.4464 90.1199 35.4165 89.611 35.4464 88.9224C36.1948 89.7008 36.4642 89.7307 36.4043 90.0601C36.2247 90.5092 35.8655 90.8385 35.5063 91.2277C35.0573 91.587 34.8777 91.9163 35.2369 90.8385Z" fill="white"/>
<path d="M8.47511 91.468C8.56491 91.7076 8.65471 91.977 8.80439 92.2764C8.92413 92.5459 8.53497 92.3363 7.90634 91.7674C7.90634 91.7674 8.44517 91.3782 8.47511 91.468Z" fill="white"/>
<path d="M40.6254 93.2935C40.2363 94.4312 39.9669 95.4491 39.2784 96.6467C38.8892 97.3353 38.2905 95.6287 39.0089 93.9521C39.5478 93.7425 40.1165 93.6228 40.6254 93.2935Z" fill="white"/>
<path d="M1.88937 86.8268C2.54794 86.9466 4.25423 88.0244 4.58351 88.6232C5.72103 90.21 5.6013 91.6471 10.4507 93.9524C10.6902 93.9524 9.58263 93.0842 9.25335 92.1261C9.10368 91.677 8.53491 89.5513 8.98394 88.5633C9.97179 89.6112 9.76224 89.9405 10.0317 90.719C10.7202 92.7548 11.1093 92.9345 12.9054 94.2218C13.1449 94.4015 14.492 96.5871 16.288 96.7368C16.1084 96.6769 16.2282 96.2278 15.6295 95.8086C13.6238 94.4314 14.492 91.5572 11.8277 91.0183C13.1748 90.5693 14.0429 91.8866 14.2824 91.7668C13.2646 90.2399 14.2225 89.0124 14.1028 87.8148C14.462 88.0244 14.7913 88.4735 14.8212 88.8328C14.9709 90.9884 15.9588 91.4076 16.0486 92.3357C15.7792 93.8626 17.0065 95.0901 17.8746 96.1978C18.0841 95.2997 17.8746 94.4913 16.7371 93.7428C16.1384 93.3237 16.8269 92.0962 16.8269 92.0962C17.0364 93.4434 17.7848 93.8626 18.2637 93.9524C18.6828 94.0123 16.8867 92.0363 17.1262 90.2699C17.246 89.4914 17.4555 89.8507 17.6052 88.9525C19.1618 90.7788 17.9644 91.8267 19.5509 93.9225C20.2993 94.9105 20.5388 96.617 20.6585 96.6769C20.7184 94.132 20.5987 94.8805 19.521 92.7848C18.6529 91.0782 19.6707 89.5214 19.8204 88.5034C21.826 89.9405 21.5865 92.6351 21.6464 92.0662C21.7063 91.4974 22.0056 90.4794 21.7362 89.5813C21.3171 88.0543 22.3349 85.749 22.3349 85.749C25.059 90.2998 22.5444 95.4194 22.724 95.3595C24.0112 93.4734 24.9093 93.4135 25.2086 91.9465C25.3882 91.1381 26.9449 86.767 29.639 86.767C28.262 87.9047 28.5613 88.0544 28.4416 89.9705C29.19 94.7907 22.4546 95.0901 22.8438 97.605C23.8017 96.1679 25.2086 95.5691 27.3639 94.4913C28.3219 93.7728 29.3696 93.4734 29.4594 92.3057C29.3696 91.4674 29.3097 91.6471 29.4893 90.5393C29.6091 89.7609 30.3574 90.2399 30.9861 88.6232C32.1535 89.7609 31.7045 90.9884 31.5848 91.677C31.5548 91.8866 31.4052 92.6051 31.5848 93.0542C32.0338 92.7548 32.3331 92.156 32.842 91.5573C33.7401 90.4794 33.77 89.1322 34.219 88.204C34.4286 87.7849 34.7279 87.1861 34.9075 87.1861H34.9375C35.1171 88.9525 34.9375 90.4794 34.1292 91.7668C34.1292 91.7668 34.3388 92.156 34.5184 92.2459C35.2668 92.0662 36.3444 91.4674 36.8234 90.2399C37.7214 91.0483 37.0329 92.0363 37.0928 92.0363C39.2182 91.0183 37.2125 86.7969 40.206 87.0065C39.4576 87.7849 39.8767 88.8328 39.9366 89.7908C39.9366 91.3477 37.901 92.5153 37.901 92.5153C40.1461 91.8267 40.5652 92.8746 40.5353 92.8746C40.5353 92.8746 37.2425 94.1919 32.0637 94.6111C31.4052 94.6709 30.4472 95.4194 30.5969 95.4194C31.2555 95.3895 32.6026 94.5811 34.4286 96.2877C33.321 96.2877 32.5128 98.084 30.7167 96.9763C26.1067 95.5392 24.3106 97.8146 23.5323 98.3834C23.682 98.6828 27.1843 96.3176 29.8485 98.0241C31.2555 98.9223 33.6203 98.2038 35.4464 96.8864C34.6681 98.7427 31.495 100.749 30.4472 100.749C29.19 100.719 27.6034 99.0122 25.7774 99.072C22.8438 99.1319 22.3648 101.767 22.6941 101.557C22.6941 101.557 25.1188 97.7846 27.9626 101.946C26.5856 101.258 24.7297 101.377 23.0833 102.126C22.8737 102.216 23.4724 102.934 23.8915 103.443C24.1609 103.773 25.3583 105.659 26.7353 103.862C26.9449 103.593 27.6334 101.946 31.8242 102.395C30.2078 103.054 28.4117 104.88 27.5436 105.719C25.2984 107.844 22.0954 102.934 21.9457 103.473C21.9457 104.551 21.347 105.06 21.0477 105.629C20.2694 107.066 21.9457 106.886 22.8737 106.527C22.8737 106.527 21.0776 109.192 19.6707 107.635C18.1141 105.928 21.8559 104.76 20.7184 103.413C20.0598 102.635 17.6651 105 16.6173 104.97C13.7735 105.21 13.9831 102.515 12.4863 102.545C13.9531 101.138 15.4199 101.976 15.7193 102.335C16.6473 103.473 17.7549 102.755 18.5332 102.186C18.9522 101.647 19.6707 101.587 20.2694 101.767C20.5687 101.797 19.7006 100.719 18.5332 100.898C15.8989 101.347 13.2946 100.329 12.6659 99.9403C11.6182 99.3115 11.0494 98.2936 9.91192 97.1559C10.2711 97.2457 12.4264 98.5032 13.115 98.8924C15.1805 100 16.5275 98.6828 16.767 98.6828C17.1562 98.6828 17.0664 98.3834 16.4377 98.1738C14.2824 97.6349 12.8455 95.6889 10.81 94.8805C8.56485 93.8027 5.66116 94.4015 3.8052 92.4554C3.2065 91.9165 2.87722 91.0183 2.09891 90.7489C2.69761 90.21 3.26637 91.3177 3.59566 90.9585C3.05683 90.0902 2.72755 89.4016 2.69761 88.3238C2.69761 87.725 2.00911 87.1861 1.85944 86.8568L1.88937 86.8268Z" fill="white"/>
<path d="M4.94315 93.7131C5.4221 95.3598 5.12275 97.0663 4.55399 96.1681C3.71581 94.9107 3.26679 93.5933 3.02731 92.1562C3.50627 92.8149 4.22471 93.4137 4.94315 93.7131Z" fill="white"/>
<path d="M21.437 68.6836C21.6465 68.5639 22.2153 68.2645 22.4548 68.2046C22.4548 68.2046 22.1854 68.4142 22.1554 68.7136C22.1554 68.9231 22.4248 69.2225 22.4248 69.2225L21.437 68.6836Z" fill="white"/>
<path d="M47.3008 79.5812C44.3372 80.5093 41.6431 77.725 41.9724 78.3836C42.3615 79.1621 45.834 82.3356 47.3606 84.0422C46.1333 84.3416 45.0557 83.3236 44.1875 82.5751C43.2596 81.7368 41.703 79.6411 41.9125 80.659C44.427 83.9224 46.283 90.6588 45.0257 91.048C44.3372 89.5211 41.5533 81.7368 41.3737 81.7668C41.1641 81.7967 41.5533 83.8027 41.5832 85.12C41.6431 88.0241 41.6431 89.4013 40.9246 92.2456C40.6253 91.7965 40.296 91.7965 39.7871 91.8264C39.7272 91.5569 39.7572 91.6168 40.0865 91.1977C40.9546 90.1199 40.0266 88.5929 40.4457 87.6948C40.8049 86.9463 40.9845 87.5451 41.1342 86.7667C40.8947 86.5571 40.296 86.4673 40.0266 86.4074C39.847 83.4134 38.8891 81.8865 39.1884 83.7727C39.368 84.7308 39.6075 86.3176 39.4578 86.3475C39.3082 86.3774 39.3082 86.3774 39.1884 86.4373C39.1286 86.4373 34.3988 78.204 37.0032 83.8925C37.3325 84.641 38.7394 86.6768 38.7394 86.6768C38.3502 87.066 37.9611 87.5151 37.9012 87.7846C37.9012 87.8744 31.4952 78.8926 35.8357 86.108C36.1051 86.5571 37.4223 88.0241 37.7515 88.4732C37.7815 88.5331 37.5719 90.1199 37.5719 90.1199C36.8834 89.6109 35.9255 88.6229 35.5064 88.0241C35.5962 87.1259 35.3867 87.2457 35.3568 86.3475C35.1472 86.1978 34.8778 86.587 34.5186 86.8565C34.3689 87.0062 30.178 79.2219 32.7824 85.0302C33.2014 85.9583 34.1594 87.066 34.1893 87.1559C34.0097 87.3355 33.7103 87.9642 33.3811 88.6828C33.3811 88.6828 27.7533 80.0902 31.1359 86.587C31.4054 87.096 33.1116 89.2816 33.0817 89.3115C32.6327 90.3594 32.2136 91.3773 32.2136 91.3773C32.3333 90.539 32.5429 88.9223 30.8665 87.5451C30.5971 89.0121 30.208 89.072 29.6991 89.4911C29.4596 89.6708 29.0405 90.5091 29.0106 89.7905C28.9208 87.6948 29.6093 87.7547 30.1182 86.8864C30.2379 86.6768 30.2379 86.1978 30.1182 86.2277C25.8973 86.2277 25.9273 90.2097 25.2388 90.1797C25.598 89.1917 25.6878 88.2037 25.3286 87.3654C26.4661 86.587 26.2266 85.2098 26.047 84.611C27.3641 83.3236 26.7056 80.5093 26.1069 79.9105C26.9451 78.7429 25.9572 77.9046 26.1967 77.1861C26.6158 74.6113 28.8908 75.4496 29.4596 72.9946C29.8188 73.4436 30.4175 74.9406 30.1182 75.4196C29.7589 75.9885 28.9806 76.0184 28.9208 76.4076C28.9208 76.5873 28.831 77.0663 28.9208 77.1861C29.3398 77.2759 29.6691 76.8867 30.1182 76.707C31.0162 76.3777 33.1416 77.9046 33.3212 76.6172C33.4409 75.8089 33.0518 76.3777 33.1116 75.6292C33.1715 74.8508 33.5607 75.4196 33.5906 74.4017C33.5906 73.6532 32.7225 73.4137 32.6626 73.1143C32.5129 72.3658 31.1359 74.1622 30.4175 72.2161C30.8665 72.306 31.7945 72.0066 31.7346 71.5575C31.5251 70.33 31.585 67.4258 34.309 68.1145C35.2969 68.354 37.991 69.8809 38.4101 68.324C39.3381 70.0904 37.4223 69.7312 36.8236 69.6713C37.063 69.8509 37.3325 70.1204 38.0808 69.9707C39.5776 71.0186 45.1155 74.761 46.732 75.6891C44.5168 76.6472 41.224 74.4316 41.1941 74.4316H41.1641C41.1342 76.0484 45.4747 78.4136 47.3606 79.4914L47.3008 79.5812Z" fill="white"/>
<path d="M23.6521 71.8268C23.8018 71.5274 24.0413 71.2579 24.3706 71.1082C25.7476 70.4795 28.322 71.9765 28.3519 69.9106C28.3519 69.9106 29.2799 70.6292 28.8309 71.3477C27.8131 72.9944 25.1489 70.8388 23.6521 71.8268Z" fill="white"/>
<path d="M26.2265 67.7853C25.8374 67.7853 25.8972 69.0727 25.1788 68.8332C24.9992 68.7733 25.7475 67.9949 25.4781 67.6057C24.8495 67.2165 24.8495 68.0548 24.5202 67.7255C24.3705 67.1865 23.7718 66.8572 23.233 66.7973C21.7961 66.5578 20.6287 68.1147 19.2517 67.3063C19.1319 67.935 19.7007 68.0847 19.7007 68.0847C18.8027 68.2644 18.3836 67.7254 18.204 67.3961C17.8148 68.8332 19.2517 68.953 19.7007 69.0428C19.7007 69.0428 18.9523 69.2224 18.9224 69.7014C18.8027 70.899 18.0243 70.7793 17.8447 70.6894C17.8447 70.8391 18.0842 71.5876 18.9823 70.929C19.1319 71.0787 18.7428 71.2882 18.653 71.887C18.5332 72.6355 18.5332 73.354 17.6352 73.8031C18.174 74.2522 18.8326 73.1445 18.8925 73.2942C18.9523 73.4439 18.1441 73.8331 18.9523 75.9588C19.3714 75.7492 19.1319 75.7791 19.6109 75.2402C19.9701 74.9408 20.1198 74.8809 19.8204 75.36C19.2816 76.0186 19.102 77.5156 19.2816 77.9048C19.7306 77.7252 19.6109 77.3659 20.1497 76.9168C20.1797 77.1264 19.9701 78.1144 19.4313 78.5635C18.5033 79.3718 18.1441 80.3598 18.1142 80.5395C18.0243 81.288 18.2339 82.276 18.2938 83.264C18.7428 83.2041 19.1319 81.9766 19.2517 82.0364C19.3714 82.1263 19.1619 83.264 18.3237 84.0124C17.9046 85.1801 18.0243 85.8088 18.1441 85.8387C18.2938 85.8986 18.7727 84.6711 19.0122 84.8807C17.7549 87.8447 18.5632 88.9225 18.8326 89.8506C19.102 88.9225 19.2517 88.2039 19.581 87.1561C20.2096 87.665 20.3293 88.4135 21.1076 89.1321C21.1376 87.9046 21.9159 84.9705 22.5146 84.3118C22.5146 84.2819 23.4426 86.9764 23.8617 88.174C24.4005 89.7309 24.4304 91.647 23.7419 93.1439C25.2387 91.1081 25.5081 87.2758 24.2807 86.707C24.1909 86.4375 24.4005 85.5393 24.6699 85.6591C24.7298 86.1082 24.6699 86.4675 25.0291 86.9166C25.987 86.6471 25.5979 85.4795 25.5081 85.0903C24.3107 83.5634 25.089 83.234 25.1488 83.264C25.2686 83.6232 25.3883 84.0424 25.7475 84.1921C26.5857 82.8448 26.1367 80.6592 24.64 79.0126C24.5801 78.4138 25.2985 79.4916 25.8074 79.4617C25.9571 78.294 25.5979 76.2881 23.4426 76.1384C23.8616 76.0187 24.0712 75.9588 24.1909 75.6294C23.5324 75.5097 21.5267 75.3001 21.8859 73.7133C22.0656 73.9229 22.1254 74.1923 22.6643 74.5516C23.0235 74.7911 23.4126 74.8211 23.6222 74.4917C22.6942 74.1624 23.0235 73.0247 24.2508 73.384C24.64 73.5037 25.1788 73.1145 25.2387 72.6954C24.9692 72.9648 24.4005 72.7553 24.1011 72.5157C22.7241 71.5876 21.856 72.875 21.6465 73.1445C21.5866 73.1445 21.0478 71.8271 23.0235 71.5277C23.2031 71.0787 23.682 70.2703 24.9992 70.42C25.4781 68.8631 26.7953 69.6715 26.7354 70.39C28.1723 69.3721 26.7653 68.0248 26.1966 67.8153L26.2265 67.7853ZM23.9515 68.3542C23.9515 68.5637 23.712 68.6536 23.1133 68.2644C23.5922 68.8631 23.0235 69.3122 23.0235 69.3122C23.233 69.3122 23.5324 69.2224 23.712 69.1326C23.7419 69.3422 23.4725 69.4021 23.3228 69.4919C22.2751 69.8811 21.6165 68.8631 20.6886 68.6536C21.3172 68.5338 21.7961 68.1147 22.3649 67.935C23.1432 67.6656 23.9515 68.2943 23.9515 68.3841V68.3542Z" fill="white"/>
</g>
</svg>
