<svg xmlns="http://www.w3.org/2000/svg" xmlns:xlink="http://www.w3.org/1999/xlink" width="2048" zoomAndPan="magnify" viewBox="0 0 1536 708.749996" height="945" preserveAspectRatio="xMidYMid meet" version="1.0"><defs><clipPath id="00a0bb4d76"><path d="M 341.722656 70.875 L 1194.171875 70.875 L 1194.171875 637.671875 L 341.722656 637.671875 Z M 341.722656 70.875 " clip-rule="nonzero"/></clipPath></defs><g clip-path="url(#00a0bb4d76)"><path fill="orange" d="M 357.929688 184.671875 C 368.671875 159.402344 383.101562 138.339844 396.886719 121.507812 C 419.316406 104.65625 439.957031 92.023438 463.109375 83.601562 C 486.277344 71.148438 510.074219 70.972656 531.234375 70.972656 C 556.859375 70.972656 587.144531 75.914062 612.835938 81.640625 C 638.523438 95.703125 661.476562 110.765625 681.695312 130.976562 C 701.902344 151.195312 718.226562 173.152344 730.648438 206.777344 C 743.082031 237.097656 749.285156 272.886719 749.285156 314.167969 C 749.285156 351.640625 742.652344 386.425781 729.382812 427.863281 C 716.121094 466.183594 697.066406 500.921875 672.210938 532.09375 C 647.367188 563.25 616.835938 588.628906 580.609375 607.585938 C 544.402344 627.789062 503.546875 637.585938 458.066406 637.585938 C 447.109375 637.585938 437.75 633.996094 429.945312 626.84375 C 422.152344 619.679688 418.257812 611.464844 418.257812 602.207031 C 418.257812 590.839844 420.578125 581.773438 425.207031 575.046875 C 429.847656 568.308594 435.539062 561.992188 442.261719 556.09375 C 449.003906 550.191406 456.480469 539.511719 464.695312 537.144531 C 472.898438 530.40625 480.378906 521.765625 487.117188 511.246094 C 493.859375 500.714844 499.539062 487.339844 504.175781 471.136719 C 508.8125 454.917969 511.128906 434.394531 511.128906 409.542969 C 482.496094 409.542969 457.539062 403.6875 436.261719 397.863281 C 415.007812 390.058594 397.40625 379.855469 383.511719 367.226562 C 368.652344 354.597656 359.1875 340.066406 352.242188 323.636719 C 345.289062 307.214844 341.824219 290.160156 341.824219 270.414062 C 341.824219 239.207031 347.1875 209.9375 357.929688 184.671875 Z M 847.207031 121.507812 C 865.320312 104.65625 881.542969 92.023438 909.113281 83.601562 C 932.28125 71.148438 956.082031 70.972656 980.496094 70.972656 C 1007.027344 70.972656 1033.148438 75.914062 1058.828125 81.640625 C 1084.527344 95.703125 1107.476562 110.765625 1127.699219 130.976562 C 1147.914062 151.195312 1164.242188 173.152344 1176.652344 206.777344 C 1189.074219 237.097656 1194.191406 272.886719 1194.191406 314.167969 C 1194.191406 351.640625 1188.660156 386.425781 1175.390625 427.863281 C 1162.125 466.183594 1143.070312 500.921875 1118.222656 532.09375 C 1093.371094 563.25 1062.839844 588.628906 1026.617188 607.585938 C 990.398438 627.789062 949.550781 637.585938 904.058594 637.585938 C 893.121094 637.585938 883.75 633.996094 875.953125 626.84375 C 868.164062 619.679688 864.265625 611.464844 864.265625 602.207031 C 864.265625 590.839844 866.582031 581.773438 871.214844 575.046875 C 875.84375 568.308594 881.535156 561.992188 888.261719 556.09375 C 895.007812 550.191406 902.480469 539.511719 910.699219 537.144531 C 918.910156 530.40625 926.394531 521.765625 933.121094 511.246094 C 939.859375 500.714844 945.550781 487.339844 948.398438 471.136719 C 954.8125 454.917969 957.121094 434.394531 957.121094 409.542969 C 928.488281 409.542969 903.535156 403.6875 882.265625 397.863281 C 861.003906 390.058594 839.621094 379.855469 829.515625 367.226562 C 815.617188 354.597656 805.195312 340.066406 798.246094 323.636719 C 791.300781 307.214844 787.820312 290.160156 787.820312 270.414062 C 787.820312 239.207031 793.191406 209.9375 803.925781 184.671875 C 814.664062 159.402344 829.105469 138.339844 847.207031 121.507812 Z M 847.207031 121.507812 " fill-opacity="1" fill-rule="evenodd"/></g></svg>