<?xml version="1.0" encoding="utf-8"?>
<!-- Generator: Adobe Illustrator 25.0.1, SVG Export Plug-In . SVG Version: 6.00 Build 0)  -->
<svg version="1.1" id="katman_1" xmlns="http://www.w3.org/2000/svg" xmlns:xlink="http://www.w3.org/1999/xlink" x="0px" y="0px"
	 viewBox="0 0 345 384" style="enable-background:new 0 0 345 384;" xml:space="preserve">
<style type="text/css">
	.st0{fill:#FFFFFF;}
</style>
<g id="katman_2_1_">
	<g id="katman_1-2">
		<path class="st0" d="M337.5,0H7.5C3.4,0,0,3.4,0,7.5v240c0,4.1,3.4,7.5,7.5,7.5H75v9.4c0,4.1,3.4,7.5,7.5,7.5l0,0h5.3L60.2,374.6
			c-1.1,4,1.3,8.1,5.3,9.2c0.6,0.2,1.3,0.3,1.9,0.3h34.9c3.4,0,6.4-2.3,7.2-5.6l28.6-106.6h68.5l28.6,106.6c0.9,3.3,3.8,5.6,7.2,5.6
			h34.9c4.1,0,7.5-3.4,7.5-7.5c0-0.7-0.1-1.3-0.3-1.9l-27.5-102.7h5.3c4.1,0,7.5-3.4,7.5-7.5l0,0V255h67.5c4.1,0,7.5-3.4,7.5-7.5
			V7.5C345,3.4,341.6,0,337.5,0z M255,256.9H90v-18.8h165V256.9z M96.7,369H77.3l26-97.1h19.4L96.7,369z M267.7,369h-19.4l-26-97.1
			h19.4L267.7,369z M330,240h-60v-9.4c0-4.1-3.4-7.5-7.5-7.5h-180c-4.1,0-7.5,3.4-7.5,7.5v9.4H15V15h315V240z"/>
		<path class="st0" d="M119.3,205.7c7.1-0.1,14-2,20.1-5.5c11.4-6.6,18.8-17.8,19.3-29.2v-62.8l49.7-13.3v24.9
			c-3.7,0.9-7.2,2.4-10.5,4.3c-17,9.8-24.1,29.2-15.9,43.4s28.6,17.7,45.5,7.9c11.4-6.6,18.8-17.8,19.3-29.2c0-0.1,0-0.2,0-0.3V43.3
			c0-3.3-2.6-5.9-5.9-5.9c-0.5,0-1,0.1-1.5,0.2L124.6,68.3c-2.6,0.7-4.4,3-4.4,5.7v70.5c-3.7,1-7.2,2.4-10.5,4.3
			c-17,9.8-24.1,29.2-16,43.4C98.8,201,108.5,205.7,119.3,205.7L119.3,205.7z M115.7,159.1c3.4-2,7.2-3.3,11.2-3.8
			c3-0.4,5.2-2.9,5.2-5.9V78.6L235,51v94.6c-0.4,7.3-5.6,14.9-13.4,19.4c-11.3,6.5-24.5,4.9-29.4-3.5s0.3-20.7,11.6-27.2
			c3.4-2,7.2-3.3,11.2-3.8c3-0.4,5.2-2.9,5.2-5.9V87.1c0-3.3-2.6-5.9-5.9-5.9c-0.5,0-1,0.1-1.5,0.2l-61.6,16.5
			c-2.6,0.7-4.4,3-4.4,5.7v66.9c-0.4,7.3-5.6,14.9-13.4,19.4c-11.3,6.5-24.5,4.9-29.4-3.5S104.4,165.7,115.7,159.1L115.7,159.1z"/>
		<path class="st0" d="M40,127.5h17.8c3.3,0.1,6-2.4,6.2-5.7c0.1-3.3-2.4-6-5.7-6.2c-0.2,0-0.3,0-0.5,0H40c-3.3-0.1-6,2.4-6.2,5.7
			s2.4,6,5.7,6.2C39.7,127.5,39.9,127.5,40,127.5z"/>
		<path class="st0" d="M67.1,162.4l-15.4,8.9c-2.8,1.6-3.8,5.3-2.2,8.1c1.1,1.8,3,3,5.2,3c1.1,0,2.1-0.3,3-0.8l15.4-8.9
			c2.8-1.7,3.7-5.3,2-8.1C73.5,161.8,70,160.8,67.1,162.4L67.1,162.4z"/>
		<path class="st0" d="M51.8,71.9l15.4,8.9c0.9,0.5,1.9,0.8,3,0.8c3.3,0,5.9-2.7,5.9-6c0-2.1-1.1-4-2.9-5l-15.5-8.9
			c-2.8-1.7-6.4-0.9-8.2,1.9c-1.7,2.8-0.9,6.4,1.9,8.2C51.5,71.7,51.6,71.8,51.8,71.9z"/>
		<path class="st0" d="M273.5,121.6c0,3.3,2.7,5.9,5.9,5.9l0,0h17.8c3.3,0.1,6-2.4,6.2-5.7s-2.4-6-5.7-6.2c-0.2,0-0.3,0-0.5,0h-17.8
			C276.2,115.6,273.6,118.3,273.5,121.6z"/>
		<path class="st0" d="M264.2,172.6l15.4,8.9c2.8,1.7,6.4,0.8,8.1-2s0.8-6.4-2-8.1c-0.1,0-0.2-0.1-0.2-0.1l-15.4-8.9
			c-2.8-1.7-6.4-0.8-8.1,2s-0.8,6.4,2,8.1C264,172.5,264.1,172.6,264.2,172.6z"/>
		<path class="st0" d="M267.2,81.6c1.1,0,2.1-0.3,3-0.8l15.4-8.9c2.9-1.6,3.9-5.2,2.4-8c-1.6-2.9-5.2-3.9-8-2.4
			c-0.1,0-0.2,0.1-0.2,0.1l-15.4,8.9c-2.8,1.7-3.7,5.3-2,8.1C263.3,80.4,265.2,81.5,267.2,81.6L267.2,81.6z"/>
	</g>
</g>
</svg>
