<?xml version="1.0" encoding="utf-8"?>
<!-- Generator: Adobe Illustrator 25.0.1, SVG Export Plug-In . SVG Version: 6.00 Build 0)  -->
<svg version="1.1" id="Capa_1" xmlns="http://www.w3.org/2000/svg" xmlns:xlink="http://www.w3.org/1999/xlink" x="0px" y="0px"
	 viewBox="0 0 512 512" style="enable-background:new 0 0 512 512;" xml:space="preserve">
<style type="text/css">
	.st0{fill:#FFFFFF;}
</style>
<g>
	<path class="st0" d="M435,171c0-6-3.6-11.5-9.2-13.8l-31-13c-7.6-3.2-16.4,0.4-19.6,8c-3.2,7.6,0.4,16.4,8,19.6L405,181v42.1h-28.5
		c-0.1-39.1-25.6-72.3-60.9-84c14.1-14.8,22.7-34.8,22.7-56.7C338.4,37,301.4,0,256,0s-82.4,37-82.4,82.4c0,22,8.7,42,22.7,56.7
		c-35.3,11.7-60.8,44.9-60.9,84H107V181l21.9-9.2c7.6-3.2,11.2-12,8-19.6c-3.2-7.6-12-11.2-19.6-8l-31,13C80.6,159.5,77,165,77,171
		l0,135c0,8.3,6.7,15,15,15h38.7l16.7,161H131c-8.3,0-15,6.7-15,15s6.7,15,15,15h250c8.3,0,15-6.7,15-15s-6.7-15-15-15h-16.4
		l16.7-161H420c8.3,0,15-6.7,15-15v-67.9C435,237.6,435,171,435,171L435,171z M346.5,223.1h-48c1.9-2.8,2.7-6.3,2.4-9.7l-4.8-48.2
		C324.5,169.2,346.4,193.7,346.5,223.1z M253,134.7c-25.7-1.5-46.5-21.5-49.1-46.9h104.2c-2.6,25.4-23.4,45.4-49.1,46.9H253z
		 M241.6,209.6l4.3-43h20.2l4.3,43l-12.8,13.5h-3.1L241.6,209.6z M256,30c20,0,37.4,11.3,46.2,27.8h-92.5C218.6,41.3,236,30,256,30z
		 M215.9,165.2l-4.8,48.2c-0.3,3.4,0.5,6.8,2.4,9.7h-48C165.6,193.7,187.5,169.3,215.9,165.2L215.9,165.2z M334.5,482h-157
		l-16.7-161h190.4L334.5,482z M405,291H107v-37.9h298V291z"/>
</g>
</svg>
