<?xml version="1.0" encoding="UTF-8"?>
<svg id="katman_2" data-name="katman 2" xmlns="http://www.w3.org/2000/svg" xmlns:xlink="http://www.w3.org/1999/xlink" viewBox="0 0 293.29 67.19">
  <defs>
    <clipPath id="clippath">
      <path d="M24.1,40.68c-.8,0-1.46.65-1.46,1.46v17.14s.06-.02.09-.03c.2-.06.5-.15.86-.28,7.88-2.8,13.27-10.03,13.86-18.29h-13.35Z" fill="none" stroke-width="0"/>
    </clipPath>
    <clipPath id="clippath-1">
      <path d="M24,39.53h13.43c.02-.35.03-.7.03-1.06v-15.23h-14.92v14.83c0,.81.65,1.46,1.46,1.46Z" fill="none" stroke-width="0"/>
    </clipPath>
    <clipPath id="clippath-2">
      <path d="M20.33,40.51H6.85c.6,8.33,6.03,15.63,13.99,18.45.43.15.75.25.96.31v-17.29c0-.81-.66-1.47-1.47-1.47Z" fill="none" stroke-width="0"/>
    </clipPath>
  </defs>
  <g id="katman_1" data-name="katman 1">
    <path d="M231.31,43.65c-.15,0-.22-.15-.22-.29v-14.44c0-.15.07-.29.22-.29s.22.15.22.29v14.44c.07.15-.07.29-.22.29Z" fill="#45638f" stroke-width="0"/>
    <path d="M253.41,43.5v-19.83h-3.14l-7.44,3.65,2.19,4.01,2.33-1.24v13.42h6.05ZM254.28,33.44c0,5.54,4.52,10.06,10.06,10.06,3.72,0,7-2.04,8.75-5.03.95-1.68,1.02-3.21,1.02-5.1,0-3.35,2.19-6.34,5.32-7.37s6.71.07,8.68,2.77c-2.11-4.01-6.71-6.05-11.08-4.96-2.04.51-3.79,1.6-5.1,3.06-1.46,1.68-2.41,3.94-2.41,6.27v.51c-.15,2.77-2.41,4.96-5.18,4.96s-5.18-2.33-5.18-5.18,2.33-5.18,5.18-5.18c2.19,0,4.01,1.31,4.81,3.21.36-1.9,1.24-3.57,2.41-5.03-1.82-1.9-4.38-3.06-7.22-3.06-5.54,0-10.06,4.45-10.06,10.06h0ZM274.63,36.14c-.44,1.53-1.17,2.99-2.19,4.16,1.24,1.24,2.84,2.19,4.59,2.63,4.38,1.09,8.97-.95,11.08-4.96-1.97,2.7-5.47,3.86-8.68,2.77-2.19-.8-3.94-2.48-4.81-4.59h0ZM288.92,34.39l-.07,2.84,1.68-2.33,2.7.95-1.68-2.33,1.75-2.26-2.77.88-1.68-2.33v2.84l-2.77.88,2.84.88h0Z" fill="#d82129" fill-rule="evenodd" stroke-width="0"/>
    <g>
      <path d="M157.7,50.02c-.43-.28-.85-.64-1.14-1.07l.57-.5c.28.36.57.71.99.92.36.21.78.36,1.14.36.5,0,.92-.14,1.28-.43.36-.28.5-.71.5-1.14,0-.36-.07-.64-.28-.92-.21-.28-.43-.5-.64-.64-.28-.14-.64-.36-1.07-.57s-.78-.36-1.21-.64c-.28-.21-.5-.43-.71-.71-.21-.36-.28-.71-.28-1.14s.07-.78.28-1.14c.21-.36.5-.57.85-.78s.78-.28,1.21-.28c.92,0,1.78.5,2.35,1.21l-.5.57c-.21-.28-.5-.5-.85-.71-.28-.21-.64-.28-.99-.28-.43,0-.85.14-1.21.43-.28.28-.5.64-.5,1.07,0,.28.07.57.28.78.14.21.36.43.64.57.36.21.64.36.99.5.5.21.92.5,1.28.64.36.21.57.5.78.78.21.36.36.78.36,1.28,0,.85-.43,1.63-1.21,1.99-.43.21-.92.36-1.35.28-.57.07-1.07-.14-1.56-.43h0Z" fill="#143256" stroke-width="0"/>
      <path d="M166.16,49.88c-.64-.43-1.21-.99-1.56-1.63-.78-1.42-.78-3.13,0-4.55.36-.71.92-1.28,1.56-1.63,1.35-.78,2.98-.85,4.34-.14v.85c-.28-.14-.57-.28-.92-.43-.36-.07-.71-.14-1.14-.14-.71,0-1.35.14-1.92.5s-.99.85-1.35,1.42c-.28.57-.5,1.21-.5,1.92,0,.64.14,1.35.5,1.92.28.57.78,1.07,1.35,1.42.57.36,1.28.57,1.92.5.36,0,.71-.07,1.14-.14.36-.07.64-.21.92-.43v.85c-.64.28-1.35.43-1.99.43-.78-.07-1.63-.28-2.35-.71h0Z" fill="#143256" stroke-width="0"/>
      <polygon points="179.23 41.49 179.23 50.38 178.51 50.38 178.51 46.25 173.47 46.25 173.47 50.38 172.69 50.38 172.69 41.49 173.47 41.49 173.47 45.54 178.51 45.54 178.51 41.49 179.23 41.49" fill="#143256" stroke-width="0"/>
      <path d="M187.97,49.24c.57-.36,1.07-.85,1.35-1.42.64-1.21.64-2.63,0-3.77-1.07-1.85-3.41-2.49-5.19-1.42h-.07c-.57.36-1.07.85-1.35,1.42-.28.57-.5,1.21-.5,1.92,0,.64.14,1.35.5,1.92,1.07,1.78,3.41,2.42,5.26,1.35h0ZM183.64,49.88c-.71-.43-1.21-.99-1.63-1.63-.78-1.42-.78-3.13,0-4.55.36-.71.92-1.28,1.63-1.63,1.49-.85,3.27-.85,4.69,0,.71.43,1.21.99,1.63,1.63.78,1.42.78,3.13,0,4.55-.36.71-.92,1.28-1.63,1.63-1.42.85-3.2.85-4.69,0Z" fill="#143256" stroke-width="0"/>
      <path d="M199.3,49.24c.57-.36,1.07-.85,1.35-1.42.64-1.21.64-2.63,0-3.77-1.07-1.85-3.41-2.49-5.19-1.42h-.07c-.57.36-1.07.85-1.35,1.42-.36.57-.5,1.21-.5,1.92,0,.64.14,1.35.5,1.92,1.07,1.78,3.34,2.42,5.26,1.35-.07,0,0,0,0,0h0ZM194.96,49.88c-.71-.43-1.21-.99-1.63-1.63-.78-1.42-.78-3.13,0-4.55.36-.71.92-1.28,1.63-1.63,1.49-.85,3.27-.85,4.69,0,.71.43,1.21.99,1.63,1.63.78,1.42.78,3.13,0,4.55-.36.71-.92,1.28-1.63,1.63-1.42.85-3.2.85-4.69,0Z" fill="#143256" stroke-width="0"/>
      <polygon points="208.33 49.59 208.33 50.38 204.06 50.38 204.06 41.49 204.85 41.49 204.85 49.59 208.33 49.59" fill="#143256" stroke-width="0"/>
    </g>
    <g>
      <polygon points="72.67 36.85 67.07 29.53 67.07 36.85 64.39 36.85 64.39 21 67.07 21 67.07 28.83 72.61 21 75.73 21 69.93 29.08 75.92 36.85 72.67 36.85" fill="#143256" stroke-width="0"/>
      <path d="M98.13,33.6c.76-.51,1.4-1.15,1.85-1.97.45-.83.64-1.78.64-2.74s-.19-1.85-.64-2.67c-.45-.76-1.08-1.46-1.85-1.91-.83-.51-1.85-.7-2.8-.7h-1.78v10.7h1.78c1.02.06,1.97-.19,2.8-.7h0ZM99.54,22.08c1.15.7,2.1,1.66,2.8,2.86.64,1.21,1.02,2.61.95,4.01,0,1.4-.32,2.8-.95,4.01-.64,1.21-1.59,2.16-2.8,2.86-1.27.7-2.74,1.08-4.2,1.02h-4.39v-15.85h4.39c1.46,0,2.93.32,4.2,1.08Z" fill="#143256" stroke-width="0"/>
      <polygon points="106.92 23.54 106.92 27.55 111.63 27.55 111.63 30.1 106.92 30.1 106.92 34.3 113.16 34.3 113.16 36.85 104.31 36.85 104.31 21 113.16 21 113.16 23.54 106.92 23.54" fill="#143256" stroke-width="0"/>
      <polygon points="129.33 36.85 127.29 27.81 123.09 37.04 122.77 37.04 118.63 27.94 116.79 36.85 114.11 36.85 117.62 20.74 118 20.74 122.9 32.01 127.87 20.74 128.25 20.74 132 36.85 129.33 36.85" fill="#143256" stroke-width="0"/>
      <polygon points="145.56 36.85 139.96 29.53 139.96 36.85 137.29 36.85 137.29 21 139.96 21 139.96 28.83 145.5 21 148.62 21 142.76 29.08 148.81 36.85 145.56 36.85" fill="#143256" stroke-width="0"/>
      <polygon points="57.07 20.81 56.69 20.81 49.62 36.85 52.49 36.85 53.76 33.86 53.76 33.86 54.78 31.31 56.88 26.28 58.98 31.31 60 33.86 60.13 34.05 61.27 36.85 64.14 36.85 57.07 20.81" fill="#143256" stroke-width="0"/>
      <polygon points="83.36 20.81 82.98 20.81 75.92 36.85 78.78 36.85 80.05 33.86 81.14 31.31 83.17 26.28 85.27 31.31 85.27 31.31 86.36 33.86 86.42 34.05 87.57 36.85 90.43 36.85 83.36 20.81" fill="#143256" stroke-width="0"/>
      <g>
        <polygon points="135.82 21.63 135.82 21 133.15 21 133.15 24.12 135.82 21.63" fill="#143256" stroke-width="0"/>
        <polygon points="133.15 25.26 133.15 36.85 135.82 36.85 135.82 22.65 133.15 25.26" fill="#143256" stroke-width="0"/>
      </g>
      <polygon points="218.33 21 218.33 22.21 217 23.54 217 21 218.33 21" fill="#143256" stroke-width="0"/>
      <polygon points="218.33 23.29 218.33 36.85 217 36.85 217 24.63 218.33 23.29" fill="#143256" stroke-width="0"/>
      <polygon points="162.88 36.85 155.88 29.46 155.88 36.85 154.48 36.85 154.48 20.93 155.88 20.93 155.88 28.89 162.88 20.93 164.54 20.93 157.28 29.15 164.73 36.85 162.88 36.85" fill="#143256" stroke-width="0"/>
      <path d="M177.59,34.81c1.02-.64,1.85-1.46,2.42-2.55,1.15-2.1,1.15-4.71,0-6.81-1.85-3.31-6.11-4.46-9.36-2.61,0,0-.06,0-.06.06-1.02.57-1.85,1.46-2.42,2.48-.57,1.02-.89,2.23-.89,3.44s.32,2.36.89,3.44c.57,1.08,1.4,1.97,2.48,2.55,2.1,1.27,4.77,1.27,6.94,0h0ZM169.82,35.96c-1.21-.7-2.23-1.78-2.93-2.99-.7-1.27-1.02-2.67-1.02-4.14s.38-2.86,1.08-4.14c.7-1.27,1.66-2.29,2.93-2.99,2.67-1.46,5.86-1.46,8.53,0,1.21.7,2.23,1.78,2.93,2.99.7,1.27,1.02,2.67,1.02,4.07s-.32,2.86-1.02,4.14-1.72,2.29-2.93,2.99c-2.74,1.53-5.92,1.53-8.59.06h0Z" fill="#143256" stroke-width="0"/>
      <polygon points="193.57 35.51 193.57 36.85 185.86 36.85 185.86 20.93 187.2 20.93 187.2 35.51 193.57 35.51" fill="#143256" stroke-width="0"/>
      <polygon points="197.32 22.21 197.32 28 202.93 28 202.93 29.34 197.32 29.34 197.32 35.51 204.39 35.51 204.39 36.85 195.99 36.85 195.99 20.93 204.39 20.93 204.39 22.21 197.32 22.21" fill="#143256" stroke-width="0"/>
      <path d="M207.51,36.66c-.57-.25-1.15-.7-1.59-1.15l.89-1.02c.32.38.76.7,1.21.89s.89.32,1.34.32c.7.06,1.4-.19,1.91-.76.45-.57.7-1.34.64-2.1v-11.91h1.34v12.1c.06,1.08-.32,2.1-1.02,2.93-.76.76-1.78,1.21-2.86,1.15-.64,0-1.27-.19-1.85-.45h0Z" fill="#143256" stroke-width="0"/>
    </g>
    <g>
      <g>
        <path d="M22.09,66.33s-.65-.16-1.69-.53C8.67,61.64.79,50.44.79,37.93V13.44h0s42.97,0,42.97,0v.79s0,23.7,0,23.7c0,12.51-7.88,23.71-19.61,27.87-1.04.37-1.67.53-1.7.53l-.19.05-.19-.05Z" fill="#fff" stroke-width="0"/>
        <path d="M42.98,14.22s0,0,0,0v23.7c0,12.16-7.62,23.06-19.08,27.13-1.01.36-1.62.51-1.62.51,0,0-.6-.15-1.61-.51C9.2,60.99,1.57,50.09,1.57,37.93V14.23s0,0,0,0h41.39M42.98,12.65H0s0,0,0,0v1.57s0,23.7,0,23.7c0,12.84,8.09,24.34,20.14,28.61,1.07.38,1.73.55,1.76.55l.37.09.38-.09s.7-.17,1.78-.56c12.04-4.27,20.13-15.77,20.13-28.61V12.65h-1.58Z" fill="#fff" stroke-width="0"/>
      </g>
      <g>
        <g>
          <path d="M28.42,12.03c-.09,0-.25-.03-.33-.06-.78-.29-1.66-.51-2.67-.66-.99-.14-2.01-.22-3.11-.22h-.35c-1.55.02-2.95.19-4.29.52-.47.11-.82.22-1.13.35-.09.04-.26.07-.36.07-.3,0-.7-.18-.83-.67-.08-.29-.18-.58-.28-.87-.09-.27-.03-.56.15-.78.15-.17.37-.27.59-.27.05,0,.1,0,.16.02,0,0,.37.08.47.09.13.02.25.03.38.03.06,0,.13,0,.19,0,.05,0,.11-.01.2-.18.14-.24.23-.54.29-.91.02-.11.08-.58.08-.58.01-.38.3-.63.56-.71.08-.03.18-.04.26-.04.28,0,.59.19.73.43.22.29.45.61.71.86.09.08.19.17.26.19,0,0,.01,0,.02,0,.02,0,.06-.01.11-.06.19-.17.36-.4.54-.78.28-.56.47-1.16.67-1.89.07-.49.48-.73.84-.73.34,0,.76.21.85.78.16.6.37,1.33.72,1.99.18.33.33.53.5.66l.54.68-.4-.68c.2-.12.38-.31.53-.51.09-.11.19-.23.28-.35l.17-.22c.2-.33.55-.37.68-.37.06,0,.14,0,.2.02.27.07.59.3.64.76.03.32.07.67.17.98.05.18.12.34.2.49.07.12.12.16.29.16.25,0,.51-.03.82-.11.06-.01.18-.03.24-.03.27,0,.52.13.67.34.15.21.17.55.09.79-.09.25-.17.51-.24.78-.1.4-.43.66-.82.66Z" fill="#fff" stroke-width="0"/>
          <path d="M16.48,14.39c-.44,0-.81-.28-.91-.71-.12-.52.18-.99.72-1.13.5-.12,1-.21,1.42-.28.58-.09,1.14-.17,1.67-.21.51-.05,1.02-.08,1.54-.11.39-.02.77-.03,1.16-.03h.38c.8,0,1.65.04,2.62.13,1.17.11,2.2.27,3.15.49.07.02.33.07.53.3.26.3.31.71.13,1.05-.16.3-.47.49-.82.49h0c-.05,0-.15,0-.2-.02l-.58-.12c-.59-.12-1.23-.21-2.01-.28-.92-.09-1.88-.13-2.93-.13-.4,0-.79,0-1.19.02-1.12.03-2.15.12-3.16.28-.43.07-.86.15-1.29.24-.06.01-.18.03-.24.03Z" fill="#fff" stroke-width="0"/>
          <path d="M16.52,13.9c-.36,0-.78-.24-.84-.78-.06-.53-.15-1-.26-1.43-.12-.48.13-.92.6-1.07.94-.28,1.91-.5,2.91-.64,1.16-.17,2.31-.26,3.39-.26h.4c.97.02,1.97.11,3.06.27.89.13,1.79.34,2.69.61.54.15.79.57.66,1.08-.11.48-.19.94-.25,1.43-.06.53-.48.77-.83.77h0c-.06,0-.18-.02-.24-.03-.94-.24-1.96-.4-3.21-.5-.75-.06-1.48-.08-2.29-.08h-.33c-.72,0-1.51.04-2.35.11-1.06.1-2,.25-2.86.47-.06.02-.18.03-.25.03Z" fill="#fff" stroke-width="0"/>
          <path d="M27.57,10.94c-.42-.02-1-.19-1.39-.89-.15-.27-.25-.55-.32-.81-.03.03-.05.05-.08.08-.18.17-.35.31-.53.41-.27.15-.55.23-.83.23s-.71-.08-1.11-.48c-.38-.37-.61-.81-.8-1.22-.07-.16-.14-.32-.21-.48-.11.28-.23.55-.38.83-.15.28-.3.51-.48.71-.46.53-.95.65-1.28.65-.38,0-.75-.14-1.1-.42-.12-.09-.22-.19-.32-.29-.02.08-.05.17-.08.26-.11.3-.23.53-.38.74-.29.4-.7.63-1.2.68-.1,0-.2.01-.29.01-.27,0-.54-.03-.8-.07l-.26-.03c-.14-.02-.56-.11-.73-.61-.2-.49-.42-.95-.67-1.38-.14-.25-.27-.46-.4-.66-.32-.04-.61-.19-.82-.43-.27-.3-.39-.73-.34-1.19,0-.08.02-.17.04-.25-.05-.04-.1-.1-.13-.15-.14-.22-.17-.49-.07-.73.06-.15.07-.28.04-.44-.06-.33.09-.67.39-.84.12-.07.25-.1.38-.1.19,0,.39.07.53.21.13.12.25.18.39.21.26.04.48.21.58.45.02.05.04.11.05.16.47.16.83.53.98.98.1.31.09.65-.02.96.16.21.33.42.52.59,0,0,0,0,.01.01h.01c.19-.21.29-.46.31-.82.01-.2,0-.42-.06-.65-.22-.1-.41-.25-.55-.44-.24-.33-.32-.74-.22-1.17.01-.07.03-.13.05-.19-.04-.04-.07-.09-.1-.15-.13-.23-.13-.5-.01-.73.07-.14.1-.27.08-.43-.04-.34.15-.66.46-.8.1-.05.21-.07.32-.07.22,0,.43.09.58.26.12.13.23.2.37.24.25.07.46.25.54.5.02.05.03.11.04.17.35.14.64.4.8.73.18.37.2.81.03,1.19-.03.06-.06.12-.09.18.24.41.49.72.79.95.07.06.12.07.13.08,0,0,.05-.03.12-.1.23-.22.39-.52.53-.98.09-.29.15-.61.17-.95-.22-.21-.38-.47-.45-.77-.11-.46-.01-.94.27-1.32.1-.13.21-.25.32-.34-.02-.06-.04-.13-.04-.19-.02-.26.08-.51.28-.68.2-.17.33-.35.41-.61.1-.32.4-.54.74-.55h0c.34,0,.64.21.74.53.09.27.22.46.41.61.21.16.32.42.3.68,0,.08-.02.15-.05.22.23.2.48.49.58.9.14.56-.03,1.13-.43,1.51.04.59.15,1.05.35,1.46.14.28.28.46.46.57.22-.12.4-.29.61-.56.11-.14.21-.29.31-.47-.15-.26-.22-.57-.19-.88.05-.49.35-.91.79-1.14,0-.02,0-.04.01-.05.06-.25.24-.46.48-.55.15-.06.25-.14.35-.27.15-.21.39-.33.64-.33.08,0,.16.01.24.04.32.1.54.4.55.74,0,.18.04.31.12.43.14.22.17.49.07.73-.01.04-.03.07-.05.11.05.11.08.23.1.35.09.55-.09.93-.25,1.14-.11.15-.29.32-.57.43-.1.41-.09.77.03,1.11.07.2.16.31.23.36.18-.14.34-.33.5-.54.01-.02.03-.04.04-.05-.13-.35-.12-.72.03-1.09.18-.43.52-.73.96-.87.11-.23.31-.42.56-.47.16-.03.28-.09.39-.2.15-.14.34-.21.54-.21.13,0,.26.03.38.1.3.16.46.5.4.83-.03.18-.02.31.03.44.1.24.07.52-.07.73-.02.03-.04.06-.07.09.04.18.04.38.03.57-.06.65-.55,1.15-1.18,1.22-.46.69-.81,1.37-1.08,2.06-.18.45-.55.55-.7.57h-.08c-.33.06-.68.11-1.05.11-.07,0-.13,0-.2,0Z" fill="#fff" stroke-width="0"/>
        </g>
        <g>
          <path d="M28.67,10.25c-.33.08-.66.13-1.01.13-.44,0-.77-.19-.98-.57-.11-.21-.2-.42-.26-.65-.11-.36-.15-.73-.19-1.1,0-.04,0-.09-.05-.1-.04,0-.05.04-.07.06-.15.19-.3.39-.46.58-.21.26-.44.51-.74.68-.34.2-.69.19-1.01-.05-.33-.24-.54-.57-.73-.92-.37-.69-.6-1.44-.8-2.19-.02-.06-.01-.16-.08-.16-.07,0-.06.1-.08.15-.19.69-.4,1.38-.72,2.03-.19.38-.41.74-.74,1.03-.26.23-.56.32-.9.2-.21-.07-.38-.21-.53-.36-.33-.3-.59-.66-.85-1.03-.02-.02-.03-.07-.07-.05-.03.01-.03.05-.03.07-.03.2-.05.4-.08.6-.07.41-.18.81-.38,1.17-.18.31-.43.53-.8.57-.27.03-.53.01-.79-.03-.16-.03-.32-.06-.49-.1.11.32.21.62.3.93.02.09.05.11.13.07.4-.16.81-.28,1.23-.38,1.47-.36,2.96-.52,4.46-.54,1.2-.02,2.4.05,3.58.22.97.14,1.91.35,2.83.7.06.02.1.03.11-.05.07-.29.16-.58.26-.86.03-.08.02-.09-.07-.07Z" fill="#143256" stroke-width="0"/>
          <path d="M28.09,13.31c-1-.23-2.02-.37-3.04-.47-.89-.08-1.79-.14-2.69-.13-.45,0-.9,0-1.35.03-.5.03-1.01.06-1.51.11-.54.05-1.08.12-1.62.21-.46.07-.91.15-1.36.26-.12.03-.16.09-.14.18.02.08.09.11.21.09.44-.1.89-.18,1.34-.25,1.08-.16,2.16-.25,3.25-.28,1.41-.04,2.81-.02,4.22.12.7.07,1.4.16,2.09.29.2.04.39.08.59.12.07.01.13,0,.16-.07.03-.06.02-.11-.02-.16-.03-.04-.08-.05-.12-.06Z" fill="#143256" stroke-width="0"/>
          <path d="M28.26,11.36c-.85-.25-1.7-.45-2.58-.58-.98-.15-1.96-.24-2.95-.26-1.23-.02-2.45.07-3.67.25-.94.14-1.87.34-2.79.62-.07.02-.09.05-.07.12.13.5.21,1.02.27,1.53.01.08.03.1.11.08.98-.25,1.98-.4,2.99-.49.92-.08,1.84-.13,2.68-.11.87,0,1.64.03,2.42.08,1.13.09,2.25.23,3.34.52.07.02.09,0,.1-.07.06-.5.14-.99.25-1.48.04-.17.05-.14-.11-.19ZM17.3,12.02c-.03.09-.11.17-.18.24,0,0-.01,0-.02,0-.06-.05-.16-.09-.19-.15-.03-.07.09-.12.13-.19.02-.03.05-.05.09-.03.01,0,.03,0,.04.02.05.04.16.05.15.1ZM19.1,11.83c-.14.11-.28.21-.42.32-.04.03-.07.04-.11.01-.15-.1-.31-.2-.48-.31.17-.13.33-.25.49-.38.03-.03.06-.02.09,0,.14.09.27.17.41.26.05.03.06.05,0,.1ZM20.64,11.6c-.08.06-.17.13-.25.19-.05.03-.08-.02-.11-.05-.19-.13-.18-.12-.01-.27.08-.07.14-.08.22,0,.05.05.11.07.16.12,0,0,0,.01,0,.01ZM22.21,12.19c-.24-.38-.62-.54-1.04-.68.42-.14.8-.3,1.04-.68.3.33.66.55,1.11.68-.45.14-.82.35-1.11.68ZM24.36,11.7s-.1.07-.15.1c-.05-.04-.1-.08-.15-.12q-.13-.1,0-.19t.3.01,0,.19ZM26.01,12.18s-.06.01-.09-.01c-.15-.12-.29-.23-.44-.35-.04-.03-.04-.06,0-.08.15-.09.29-.18.44-.27.03-.02.05-.03.08,0,.16.13.33.26.5.39-.18.11-.34.22-.51.32ZM27.6,12.19c-.08.07-.13.07-.2-.02-.14-.19-.15-.18.07-.27.01,0,.03-.01.04-.02.06.01.08.07.11.11.1.11.09.11-.03.2Z" fill="#dc001e" stroke-width="0"/>
          <path d="M31.24,5.89c-.12-.29-.14-.57-.08-.88-.23.22-.48.34-.79.4.08.13.12.27.13.4-.14-.01-.27-.02-.41,0-.3.04-.54.18-.66.47-.12.28-.06.55.14.78.04.04.03.07,0,.11-.11.14-.21.29-.32.44-.21.27-.43.54-.71.74-.28.2-.54.19-.83,0-.28-.19-.45-.47-.56-.78-.23-.67-.15-1.33.07-1.98.02-.05.05-.06.1-.06.44-.04.66-.32.59-.76-.04-.24-.18-.42-.35-.58-.03-.03-.06-.05-.09-.08.12-.11.26-.19.44-.23-.17-.26-.24-.54-.25-.85-.18.25-.41.43-.7.54.13.14.19.29.22.46-.2,0-.4.01-.59.1-.5.22-.57.84-.13,1.16.06.04.07.07.04.13-.17.35-.37.69-.61,1-.23.29-.48.55-.8.75-.29.17-.57.17-.86-.01-.33-.22-.56-.53-.73-.88-.34-.68-.44-1.4-.45-2.15,0-.06.03-.08.08-.1.32-.16.48-.53.39-.88-.07-.28-.27-.46-.5-.62-.16-.11-.33-.2-.52-.27.11-.19.25-.35.47-.47-.32-.26-.53-.58-.66-.97-.13.4-.34.71-.66.97.21.12.35.28.46.47-.02,0-.03.01-.05.02-.32.14-.63.3-.84.59-.3.41-.17.97.29,1.19.05.03.06.06.06.1,0,.52-.07,1.02-.22,1.52-.15.49-.36.95-.74,1.31-.42.4-.82.42-1.27.08-.57-.43-.95-1.01-1.24-1.65-.02-.05-.02-.08.03-.11.12-.07.2-.17.26-.3.16-.39-.07-.81-.51-.92-.18-.05-.36-.05-.55-.04,0,0-.01,0-.02,0,0-.19.05-.38.18-.56-.3-.08-.54-.24-.75-.47.03.31-.02.59-.16.87.23.02.4.12.55.25-.2.17-.36.37-.42.64-.09.42.14.74.56.77.05,0,.08.02.1.07.14.42.23.85.2,1.29-.03.49-.18.94-.53,1.31-.36.37-.74.39-1.12.03-.35-.31-.62-.69-.88-1.07-.03-.04-.02-.07,0-.11.37-.45.17-1.05-.39-1.21-.2-.06-.4-.05-.6-.02,0-.19.03-.37.14-.55-.31-.05-.56-.19-.79-.41.06.31.03.59-.09.88.22,0,.39.08.55.2-.19.2-.3.44-.34.73-.07.56.3.82.7.74.07-.01.1.02.13.06.23.32.43.65.63.99.28.48.52.99.73,1.5.01.04.02.08.08.09.4.04.79.12,1.19.08.26-.02.48-.14.63-.36.12-.17.21-.35.28-.55.2-.55.25-1.12.25-1.69,0-.06,0-.12.01-.19.04.01.06.04.08.06.14.18.27.36.41.54.27.34.55.69.89.96.46.37.9.33,1.29-.12.15-.18.27-.37.38-.57.32-.59.52-1.22.72-1.85.1-.31.18-.62.27-.94.01-.05.02-.11.09-.12.08,0,.07.07.09.11.04.14.07.27.11.41.2.71.41,1.42.72,2.09.16.36.35.7.63.98.3.29.64.33,1.01.13.14-.08.26-.18.38-.29.42-.41.77-.87,1.12-1.34.02-.03.03-.07.07-.06.03.01.02.06.02.09,0,.36,0,.72.06,1.08.06.4.16.79.36,1.14.16.29.4.47.74.48.4.02.79-.04,1.18-.1.04,0,.06-.04.08-.08.34-.88.79-1.69,1.33-2.47.06-.09.12-.12.23-.1.33.06.62-.17.65-.51.03-.35-.07-.65-.28-.9.13-.07.27-.12.45-.12Z" fill="#143256" stroke-width="0"/>
        </g>
        <g>
          <path d="M43.09,37.92V14.1s0,0,0,0H1.48s0,0,0,0v23.82c0,12.23,7.66,23.18,19.19,27.27,1.01.36,1.62.51,1.62.51,0,0,.61-.15,1.63-.51,11.52-4.09,19.18-15.04,19.18-27.27ZM23.87,64.63c-.99.35-1.59.5-1.59.5,0,0-.6-.15-1.59-.5C9.42,60.63,1.93,49.92,1.93,37.96V14.67s0,0,0,0h40.69s0,0,0,0v23.3c0,11.96-7.49,22.67-18.76,26.67Z" fill="#143256" stroke-width="0"/>
          <g>
            <g>
              <g>
                <g>
                  <path d="M25.61,62.65l-.03-.07.17-.12s.03-.03.04-.05c0-.02,0-.04,0-.07l-.74-1.64s-.03-.04-.05-.05c-.02-.01-.04-.01-.06,0l-.2.05-.03-.07.78-.35.03.07-.17.12s-.03.03-.04.05c0,.02,0,.05,0,.07l.74,1.64s.03.04.05.05c.02,0,.04.01.07,0l.2-.04.03.07-.78.35Z" fill="#000" stroke-width="0"/>
                  <path d="M26.99,62.02l-.04-.07.15-.15s.03-.03.03-.06c0-.02,0-.04,0-.06l-.86-1.56s-.03-.04-.05-.04-.04,0-.06,0l-.22.06-.04-.07.48-.26,1.68.83.24.12-.74-1.34s-.03-.04-.05-.04c-.02,0-.04,0-.06,0l-.21.05-.04-.07.62-.34.04.07-.15.15s-.03.03-.03.06c0,.02,0,.04,0,.06l.79,1.43.14.36-.08.04-1.82-.9-.27-.13.81,1.46s.03.04.05.04c.02,0,.04,0,.06,0l.21-.05.04.07-.61.34Z" fill="#000" stroke-width="0"/>
                  <path d="M29.81,60.37l-.04-.06.17-.17s.02-.04.03-.06c0-.02,0-.04-.02-.06l-1.07-1.56-.43.29s-.03.03-.03.04c0,.01,0,.03,0,.05l.11.36-.07.05-.3-.44,1.54-1.06.3.44-.07.05-.3-.23s-.03-.02-.04-.02c-.01,0-.03,0-.05.01l-.43.3,1.07,1.56s.03.03.05.04c.02,0,.04,0,.06,0l.22-.1.04.06-.76.52Z" fill="#000" stroke-width="0"/>
                  <path d="M31.48,59.18l-.05-.06.13-.16s.02-.04.02-.06c0-.02,0-.04-.02-.06l-1.15-1.39s-.04-.03-.06-.04c-.02,0-.04,0-.06,0l-.18.1-.05-.06,1.25-1.04.33.4-.07.06-.31-.19s-.03-.01-.04-.02c-.01,0-.03,0-.04.01l-.6.5.56.68.39-.33s.03-.03.03-.04c0-.01,0-.03,0-.04l-.1-.26.06-.05.48.59-.06.05-.24-.14s-.03-.02-.04-.02-.03,0-.05.02l-.39.33.62.75.71-.59s.02-.03.02-.04,0-.03,0-.05l-.17-.37.07-.06.36.44-1.36,1.12Z" fill="#000" stroke-width="0"/>
                  <path d="M33.35,57.6l-.05-.05.11-.18s.02-.04.01-.06c0-.02-.01-.04-.03-.06l-1.27-1.28s-.04-.03-.06-.03-.04,0-.06.01l-.18.11-.05-.05.58-.58c.12-.12.22-.2.32-.25.1-.05.19-.08.27-.08.08,0,.15.01.21.04.06.03.12.07.16.12.09.09.14.18.16.28.02.1.02.2,0,.29s-.05.17-.09.24l-.13.22-.26.18-.06-.08s.03-.02.05-.04.05-.04.08-.07c.03-.03.05-.05.07-.06.08-.08.13-.16.15-.25.02-.08.01-.17-.01-.25-.03-.08-.07-.15-.13-.21-.12-.12-.24-.18-.36-.17-.12,0-.24.07-.36.19l-.15.15,1.34,1.35s.04.03.06.03c.02,0,.04,0,.06-.01l.2-.14.05.05-.63.62ZM34.83,56.13l-.24.24s-.09.08-.12.09c-.04.02-.07.02-.11.02s-.09,0-.15-.02l-.99-.16.16-.25,1.03.15s.07,0,.11,0c.04,0,.08-.01.1-.03l.16-.1.05.05Z" fill="#000" stroke-width="0"/>
                  <path d="M35.17,55.76l-.06-.05.09-.19s.01-.04,0-.06c0-.02-.02-.04-.03-.06l-1.38-1.14s-.04-.02-.06-.02c-.02,0-.04,0-.06.02l-.18.14-.06-.05.35-.42,1.87.15.27.02-1.18-.98s-.04-.02-.06-.02c-.02,0-.04,0-.06.02l-.17.12-.06-.05.45-.54.06.05-.09.19s-.01.04,0,.06c0,.02.01.04.03.06l1.26,1.04.27.28-.06.07-2.02-.17-.3-.03,1.29,1.06s.04.02.06.02c.02,0,.04,0,.06-.02l.17-.12.06.05-.45.54Z" fill="#000" stroke-width="0"/>
                  <path d="M36.8,53.75l-.06-.04.04-.14s0-.09-.03-.13l-1.03-1.47-.2-.37.04-.05,2.15.49s.05,0,.07,0c.02,0,.04-.01.06-.03l.11-.09.06.04-.44.65-.06-.04.11-.26-1.58-.36-.23-.06h0s1.07,1.49,1.07,1.49l.2-.2.06.04-.35.52ZM36.44,52.8l-.07-.11.41-.61.13.03-.46.69Z" fill="#000" stroke-width="0"/>
                  <path d="M38.41,51.24l-.07-.04.08-.23s0-.04,0-.06-.02-.04-.04-.05l-1.66-.91-.25.45s-.01.04,0,.05.01.03.02.04l.26.27-.04.07-.47-.26.9-1.64.47.26-.04.07-.37-.07s-.03,0-.05,0c-.01,0-.03.01-.04.03l-.25.46,1.66.91s.04.02.07,0c.02,0,.04-.02.06-.03l.15-.19.07.04-.44.81Z" fill="#000" stroke-width="0"/>
                  <path d="M39.34,49.44l-.07-.03.04-.21s0-.04,0-.06-.03-.04-.05-.04l-1.64-.74s-.05-.01-.07,0c-.02,0-.04.02-.05.04l-.12.17-.07-.03.35-.78.07.03-.04.2s0,.04,0,.06c.01.02.03.04.05.05l1.64.74s.04.01.07,0,.04-.02.05-.04l.12-.17.07.03-.35.78Z" fill="#000" stroke-width="0"/>
                  <path d="M40.35,47.07c-.07.21-.18.37-.32.48-.14.11-.31.18-.5.2s-.4,0-.61-.08c-.2-.07-.38-.17-.52-.31s-.23-.29-.28-.47-.04-.37.03-.57c.08-.22.19-.39.34-.5s.32-.17.51-.18c.19-.01.39.01.59.08.13.05.26.11.38.19.12.08.22.18.3.3s.13.25.15.39c.02.14,0,.3-.05.47ZM40.25,47c.05-.14.05-.28,0-.4-.05-.12-.14-.23-.27-.33-.13-.1-.28-.18-.46-.24-.2-.07-.39-.11-.57-.11-.17,0-.32.03-.45.11-.12.07-.21.19-.27.35-.05.15-.05.29,0,.41s.15.23.28.32.27.17.44.22c.2.07.39.1.56.11.18,0,.33-.03.45-.1.13-.07.22-.19.27-.35Z" fill="#000" stroke-width="0"/>
                  <path d="M40.85,45.33l-.07-.02v-.21s-.02-.04-.04-.06-.03-.03-.06-.03l-1.75-.35s-.05,0-.07,0c-.02.01-.03.03-.04.05l-.09.21-.07-.02.11-.53,1.72-.75.25-.11-1.5-.3s-.05,0-.07,0c-.02.01-.03.03-.04.05l-.09.19h-.07s.14-.71.14-.71h.07s.01.23.01.23c0,.02,0,.04.02.06.01.02.03.03.06.03l1.6.32.37.12-.02.09-1.86.81-.28.12,1.64.33s.05,0,.07,0c.02-.01.03-.03.04-.05l.09-.19h.07s-.14.7-.14.7Z" fill="#000" stroke-width="0"/>
                  <path d="M41.34,42.7h-.08s-.03-.15-.03-.15c0-.04-.04-.08-.09-.1l-1.63-.76-.36-.22v-.06s2.11-.65,2.11-.65c.02,0,.04-.02.06-.03.02-.02.03-.03.04-.06l.05-.14h.08s-.05.79-.05.79h-.08s-.03-.29-.03-.29l-1.54.48-.22.07h0s1.67.75,1.67.75l.08-.27h.08s-.04.63-.04.63ZM40.56,42.07l-.12-.06.05-.73.13-.04-.06.83Z" fill="#000" stroke-width="0"/>
                  <path d="M41.46,40.1h-.08l-.04-.21s-.02-.04-.03-.05c-.02-.01-.04-.02-.06-.02h-1.8s-.05,0-.06.02c-.02.01-.03.03-.03.05l-.04.21h-.08v-.87h.08l.04.21s.02.04.03.06c.02.01.04.02.06.02h1.89v-.82s-.01-.04-.03-.05c-.02,0-.04-.02-.05-.02l-.43-.12v-.09h.64v1.67Z" fill="#000" stroke-width="0"/>
                  <path d="M41.37,36.69l-.57.04v-.09l.32-.13s.03-.02.04-.03c.02-.02.03-.03.04-.04.03-.05.06-.11.09-.17.03-.06.05-.12.06-.18s.02-.11.02-.15c0-.14-.04-.25-.11-.33-.08-.08-.18-.12-.32-.12-.1,0-.18.03-.24.08-.06.05-.11.13-.15.22-.04.08-.06.16-.08.24-.02.08-.04.16-.07.24-.05.12-.12.21-.21.28-.09.07-.2.1-.33.1-.12,0-.23-.03-.33-.09-.1-.06-.18-.15-.24-.25-.06-.11-.09-.23-.09-.36,0-.07,0-.15.02-.22,0-.07.02-.14.04-.21.02-.07.03-.13.05-.19h.53v.09l-.3.11s-.03.02-.04.03-.02.03-.03.04c-.03.03-.05.07-.06.12-.02.05-.03.1-.04.15,0,.05-.01.09-.01.12,0,.13.03.23.1.3.07.07.15.11.26.11.09,0,.17-.02.25-.06.08-.04.14-.12.18-.24.03-.08.05-.16.07-.23.02-.08.05-.16.08-.25.03-.07.06-.13.11-.19.04-.06.1-.11.17-.15.07-.04.16-.06.26-.06.11,0,.22.03.33.08.11.06.2.14.27.27.07.12.1.28.1.47,0,.06,0,.13-.02.2s-.03.15-.05.22c-.02.08-.04.15-.07.23Z" fill="#000" stroke-width="0"/>
                  <path d="M41.03,32.79v-.03h.14c.05.06.1.13.16.21.05.08.1.17.14.27s.06.2.06.31c0,.22-.05.41-.14.57s-.23.28-.4.37c-.17.09-.38.13-.62.13s-.43-.05-.61-.14c-.18-.09-.31-.22-.41-.38s-.15-.34-.15-.55c0-.07,0-.15.02-.24.01-.09.03-.17.05-.25.02-.08.04-.15.06-.21h.52v.09l-.3.11s-.02.01-.03.02c0,.01-.02.02-.03.04-.04.07-.07.15-.1.25-.03.1-.04.19-.04.28,0,.19.08.35.24.47s.41.19.73.19.59-.07.76-.22c.17-.14.25-.35.25-.62,0-.12-.02-.22-.05-.3-.03-.09-.07-.16-.11-.22-.04-.06-.09-.11-.12-.16Z" fill="#000" stroke-width="0"/>
                  <path d="M41.46,32.27h-.08l-.04-.21s-.02-.04-.03-.05c-.02-.01-.04-.02-.06-.02h-1.8s-.05,0-.06.02c-.02.01-.03.03-.03.05l-.04.21h-.08v-.85h.08l.04.2s.02.04.03.05c.02.02.04.02.06.02h.79v-1.08h-.79s-.05,0-.06.02c-.02.01-.03.03-.03.05l-.04.21h-.08v-.85h.08l.04.21s.02.04.03.05c.02.01.04.02.06.02h1.8s.05,0,.06-.02c.02-.02.03-.03.03-.05l.04-.21h.08v.85h-.08l-.04-.21s-.02-.04-.03-.05c-.02-.01-.04-.02-.06-.02h-.88v1.08h.88s.05,0,.06-.02c.02-.01.03-.03.03-.06l.04-.2h.08v.85Z" fill="#000" stroke-width="0"/>
                  <path d="M41.51,28.45c0,.22-.05.41-.15.56s-.24.27-.41.35c-.18.08-.38.12-.6.12-.22,0-.41-.04-.59-.12s-.32-.2-.42-.36c-.1-.15-.16-.34-.16-.55,0-.23.05-.43.16-.58.11-.15.25-.27.42-.34.18-.07.37-.11.58-.11.14,0,.28.02.42.06.14.04.26.1.38.18.11.08.2.19.27.32.07.13.1.29.1.47ZM41.4,28.42c0-.15-.04-.28-.13-.38s-.21-.18-.36-.23c-.15-.05-.32-.08-.51-.08-.22,0-.41.03-.57.08-.17.05-.3.13-.39.24-.09.11-.14.25-.14.42,0,.16.05.29.14.39.09.1.22.17.37.22.15.05.31.07.48.07.21,0,.4-.03.57-.08.17-.05.3-.13.4-.24.1-.11.14-.25.14-.42Z" fill="#000" stroke-width="0"/>
                  <path d="M41.51,25.83c0,.22-.05.4-.15.56-.1.15-.24.27-.41.35-.18.08-.38.12-.6.12-.22,0-.41-.04-.59-.12-.18-.08-.32-.2-.42-.35-.1-.15-.16-.34-.16-.55,0-.23.05-.43.16-.58.11-.15.25-.27.42-.34s.37-.11.58-.11c.14,0,.28.02.42.06.14.04.26.1.38.18.11.08.2.19.27.32.07.13.1.29.1.47ZM41.4,25.8c0-.15-.04-.28-.13-.38-.09-.1-.21-.18-.36-.23s-.32-.08-.51-.08c-.22,0-.41.03-.57.08-.17.05-.3.13-.39.24-.09.11-.14.25-.14.42s.05.29.14.39c.09.1.22.17.37.22.15.05.31.07.48.07.21,0,.4-.03.57-.08.17-.05.3-.13.4-.24.1-.11.14-.25.14-.42Z" fill="#000" stroke-width="0"/>
                  <path d="M41.46,24.25h-.08l-.04-.21s-.02-.04-.03-.05c-.02-.01-.04-.02-.06-.02h-1.8s-.05,0-.06.02c-.02.01-.03.03-.03.05l-.04.21h-.08v-.87h.08l.04.22s.02.04.03.05c.02.02.04.02.06.02h1.89v-.82s-.01-.04-.03-.05c-.02,0-.04-.02-.05-.02l-.43-.12v-.09h.64v1.67Z" fill="#000" stroke-width="0"/>
                </g>
                <g>
                  <path d="M2.74,22.5h.08s.04.15.04.15c.01.05.05.08.1.1l1.84.7.41.21v.07l-2.24.87s-.05.02-.06.04c-.02.02-.03.04-.04.06l-.04.15h-.08v-.86s.08,0,.08,0l.06.31,1.64-.64.24-.09h0s-1.88-.69-1.88-.69l-.06.3h-.08v-.69ZM3.65,23.13l.13.05v.8s-.13.05-.13.05v-.91Z" fill="#000" stroke-width="0"/>
                  <path d="M3.24,27.64v.03h-.15c-.05-.06-.11-.14-.17-.23s-.11-.19-.15-.3c-.04-.11-.06-.22-.06-.34,0-.24.05-.44.15-.62.1-.18.25-.31.43-.41.19-.1.41-.14.67-.14.25,0,.47.05.67.15.19.1.34.24.45.42.11.18.16.37.16.59,0,.08,0,.16-.02.26-.01.1-.03.19-.05.28s-.04.17-.06.23h-.56s0-.09,0-.09l.33-.12s.02-.01.03-.02c0-.01.02-.03.03-.05.04-.07.08-.16.11-.27.03-.11.04-.21.04-.31,0-.21-.09-.38-.27-.52-.18-.13-.44-.2-.8-.2-.37,0-.64.08-.83.24s-.28.38-.28.67c0,.13.02.24.05.33s.08.17.13.24c.05.07.09.12.14.17Z" fill="#000" stroke-width="0"/>
                  <path d="M2.76,28.41h.08s.04.15.04.15c.01.05.05.08.1.1l1.84.7.41.21v.07l-2.24.87s-.04.02-.06.04c-.02.02-.03.04-.04.06l-.04.15h-.08v-.86s.08,0,.08,0l.06.31,1.64-.64.24-.09h0s-1.88-.69-1.88-.69l-.06.3h-.08v-.69ZM3.67,29.04l.13.05v.8s-.13.05-.13.05v-.91Z" fill="#000" stroke-width="0"/>
                  <path d="M2.77,31.52h.08s.05.22.05.22c0,.02.02.04.04.06.02.02.04.02.07.02h1.96s.05-.01.07-.03c.02-.02.03-.04.04-.06l.04-.22h.08v1.01c0,.09,0,.2-.03.31-.02.11-.06.22-.11.32s-.13.2-.22.29c-.09.09-.21.16-.35.21s-.31.08-.5.08c-.28,0-.5-.05-.68-.16-.18-.11-.31-.26-.4-.44s-.13-.39-.13-.61v-1ZM5.08,32.14h-2.17s0,.41,0,.41c0,.28.09.49.27.63.18.14.43.21.75.2.24,0,.44-.04.61-.12.17-.08.31-.19.4-.33.09-.14.14-.31.14-.49v-.3Z" fill="#000" stroke-width="0"/>
                  <path d="M2.78,34.72h.08l.05.22s.02.04.04.06c.02.02.04.02.07.02h1.96s.05-.01.07-.03c.02-.02.03-.04.04-.06l.05-.22h.08s0,1.77,0,1.77h-.57s0-.1,0-.1l.38-.13s.03-.01.04-.02c.01-.01.02-.03.02-.05v-.85s-.97,0-.97,0v.56s0,.04.02.05.02.02.04.02l.29.1v.09s-.83,0-.83,0v-.09l.29-.1s.03-.01.04-.03c.01-.01.02-.03.02-.05v-.56s-1.07,0-1.07,0v1s0,.04.02.05c.01.01.03.02.05.02l.43.12v.1h-.62s0-1.92,0-1.92Z" fill="#000" stroke-width="0"/>
                  <path d="M2.79,37.6h.08l.06.22s.02.04.04.06c.02.02.04.02.07.02h1.95s.05-.01.07-.03c.02-.02.03-.04.04-.06l.05-.22h.08s0,.72,0,.72l-1.57.57-.36.12,1.93.69v.72s-.08,0-.08,0l-.05-.22s-.02-.04-.04-.06c-.02-.02-.04-.02-.07-.02h-1.96s-.05.01-.07.03c-.02.02-.03.04-.04.06l-.05.22h-.08s0-.93,0-.93h.08l.05.22s.02.04.04.06c.02.02.04.02.07.02h2.03s-.27-.1-.27-.1l-1.59-.57-.4-.18v-.07s1.99-.73,1.99-.73l.28-.1h-2.02s-.05.01-.07.03c-.02.02-.03.04-.04.06l-.06.22h-.08v-.77Z" fill="#000" stroke-width="0"/>
                  <path d="M2.91,41.58h.08s.08.2.08.2c0,.02.02.04.04.05.02.01.04.02.07.01l1.95-.27s.05-.01.07-.03c.02-.02.03-.04.03-.06v-.23s.1-.01.1-.01l.13.92h-.08s-.08-.2-.08-.2c0-.02-.02-.04-.04-.05s-.05-.02-.07-.01l-1.95.27s-.05.01-.06.03c-.02.02-.03.04-.03.07l-.02.23h-.08s-.13-.91-.13-.91Z" fill="#000" stroke-width="0"/>
                  <path d="M4.2,45.47v.03s-.14.04-.14.04c-.07-.05-.14-.11-.22-.18-.08-.07-.15-.16-.22-.25-.07-.1-.11-.2-.14-.31-.06-.23-.06-.44,0-.63.06-.19.16-.36.32-.5.16-.14.37-.24.62-.31.24-.06.47-.07.68-.02.21.05.39.15.54.29.15.14.25.32.3.54.02.08.03.16.04.26s.02.19.02.28c0,.09,0,.17,0,.24l-.55.14-.02-.09.29-.2s.02-.02.03-.03c0-.01.01-.03.02-.05.02-.08.04-.18.04-.29,0-.11,0-.22-.03-.31-.05-.2-.18-.35-.38-.43-.2-.09-.48-.09-.82,0-.36.09-.61.24-.75.43-.14.2-.17.44-.1.72.03.12.08.23.13.31.06.08.12.15.18.2.06.05.12.1.17.13Z" fill="#000" stroke-width="0"/>
                  <path d="M6.02,50v.03s-.12.06-.12.06c-.08-.04-.16-.08-.25-.14-.09-.06-.18-.13-.26-.21-.08-.08-.15-.18-.2-.28-.1-.21-.14-.42-.12-.62.02-.2.09-.38.22-.55s.32-.3.55-.41c.23-.11.45-.15.67-.14.22.01.41.08.58.19.17.11.3.27.4.47.03.07.06.15.09.24s.05.18.07.27c.02.09.03.17.04.23l-.51.24-.04-.09.25-.25s.01-.02.02-.04c0-.01,0-.03,0-.06,0-.08,0-.18-.02-.29-.02-.11-.05-.21-.09-.3-.09-.19-.24-.31-.46-.36-.22-.05-.49,0-.81.15-.33.15-.55.34-.65.56-.1.22-.09.46.03.73.05.12.12.21.19.28.07.07.14.12.21.16.07.04.14.07.2.1Z" fill="#000" stroke-width="0"/>
                  <path d="M6.68,52.22c-.12-.2-.18-.4-.18-.6,0-.2.07-.39.18-.56.12-.17.28-.33.49-.46.2-.12.41-.2.62-.22.21-.02.41,0,.59.09s.34.23.46.43c.13.22.19.43.18.63-.01.2-.08.39-.2.56-.12.17-.28.31-.48.43-.13.08-.27.14-.42.18-.15.04-.3.06-.46.04-.15-.01-.3-.06-.43-.14s-.26-.21-.36-.38ZM6.81,52.18c.09.14.2.23.34.28s.29.05.46,0,.34-.11.51-.22c.2-.12.36-.26.49-.4.12-.14.2-.29.22-.45.02-.16-.01-.31-.11-.47-.09-.15-.21-.24-.35-.28-.14-.04-.3-.04-.46,0-.17.04-.33.11-.49.21-.2.12-.36.25-.48.4-.13.14-.2.29-.23.45-.03.16,0,.31.1.47Z" fill="#000" stroke-width="0"/>
                  <path d="M7.98,54.08l.07-.05.18.15s.04.02.07.02c.03,0,.05,0,.07-.02l1.55-1.2s.03-.04.04-.06,0-.05,0-.07l-.1-.21.07-.05.58.75-.07.05-.18-.16s-.04-.02-.07-.02c-.03,0-.05,0-.07.02l-1.63,1.27.55.71s.04.03.06.02c.03,0,.05-.01.06-.02l.45-.18.06.07-.55.43-1.12-1.44Z" fill="#000" stroke-width="0"/>
                  <path d="M9.79,56.32l.06-.06.19.13s.04.02.07.02.05-.01.07-.03l1.42-1.36s.03-.04.03-.07c0-.03,0-.05-.01-.07l-.12-.19.06-.06.65.68-.06.06-.2-.14s-.04-.02-.07-.02c-.03,0-.05.01-.07.03l-1.49,1.43.62.65s.04.02.06.01c.02,0,.04-.02.06-.02l.43-.23.07.07-.5.48-1.26-1.32Z" fill="#000" stroke-width="0"/>
                  <path d="M11.81,58.36l.05-.06.2.11s.04.01.07,0c.02,0,.04-.02.06-.04l1.26-1.51s.03-.04.03-.07,0-.05-.02-.07l-.14-.18.05-.06,1.36,1.14-.37.44-.08-.06.14-.37s.01-.03,0-.05c0-.02,0-.03-.03-.04l-.65-.55-.62.74.43.36s.03.02.05.02c.01,0,.03,0,.04-.02l.26-.16.07.06-.53.64-.07-.06.11-.28s.01-.04,0-.05-.01-.03-.03-.05l-.43-.36-.68.82.77.64s.03.02.05.02c.02,0,.03,0,.05-.02l.36-.25.08.06-.4.48-1.47-1.23Z" fill="#000" stroke-width="0"/>
                  <path d="M15.81,61.01l.32-.49s.02-.04.02-.07-.01-.05-.03-.06l-.18-.17.04-.07.79.51-.04.07-.21-.08s-.05,0-.07,0c-.02,0-.04.02-.06.04l-.15.23c-.05.08-.1.15-.14.21-.04.06-.07.11-.09.15-.12-.02-.26-.06-.41-.11-.15-.06-.3-.13-.43-.21-.17-.11-.3-.25-.39-.43-.09-.18-.12-.37-.11-.58.02-.21.09-.43.24-.66.14-.21.3-.37.49-.48s.39-.16.59-.15c.21,0,.4.07.59.18.11.07.2.14.28.2.08.07.14.13.2.19.05.06.1.12.14.17l-.3.47-.08-.05.08-.32s0-.04,0-.05c0-.02-.01-.03-.02-.05-.04-.08-.1-.16-.19-.25-.09-.09-.18-.16-.27-.23-.11-.07-.24-.11-.37-.1s-.27.06-.4.16c-.14.1-.27.25-.4.45-.12.19-.2.37-.25.56s-.04.35,0,.49c.04.15.14.27.28.36.07.04.13.07.21.1.07.03.14.04.21.06.06.01.11.02.14.02Z" fill="#000" stroke-width="0"/>
                  <path d="M17.18,62.08l.04-.08.22.05s.05,0,.07,0c.02-.01.04-.03.05-.05l.83-1.78s.01-.05,0-.07c0-.02-.02-.04-.04-.06l-.18-.14.04-.07,1.61.75-.24.52-.09-.04.05-.39s0-.04,0-.05c0-.02-.02-.03-.04-.04l-.77-.36-.41.88.51.24s.04.01.05,0c.01,0,.03-.01.04-.03l.21-.22.08.04-.35.75-.08-.04.03-.3s0-.04,0-.05-.02-.03-.04-.04l-.51-.24-.45.97.91.42s.04.01.05,0c.01,0,.03-.02.04-.03l.29-.34.09.04-.26.56-1.74-.81Z" fill="#000" stroke-width="0"/>
                </g>
                <path d="M23.15,62.51l.67.05-.67.05c-.44.03-.78.38-.82.82l-.05.67-.05-.67c-.03-.44-.38-.78-.82-.82l-.67-.05.67-.05c.44-.03.78-.38.82-.82l.05-.67.05.67c.03.44.38.78.82.82Z" fill="#dc001e" stroke-width="0"/>
              </g>
              <g>
                <g>
                  <g>
                    <path d="M21.78,38.36v-15.14H6.54v15.56c0,.36,0,.72.03,1.08h13.71c.82,0,1.49-.67,1.49-1.49Z" fill="#dc001e" stroke="#940008" stroke-miterlimit="10" stroke-width=".34"/>
                    <g>
                      <g>
                        <polygon points="12.84 31 12.84 31.23 14.15 31.23 15.47 31.23 15.47 31 14.15 31 12.84 31" fill="#fff" stroke-width="0"/>
                        <path d="M15.89,29.5c-.04-.22-.21-.37-.42-.38-.38-.03-.71.17-1.07.24-.03,0-.07-.06-.1-.09.17-.13.15-.38-.05-.49-.01-.02,0-.16,0-.17.02-.01.14.01.16,0,.02-.02.01-.17,0-.18-.01-.01-.15,0-.16,0,0,0,0-.15,0-.16,0,0-.02,0-.04,0h0s0,0,0,0h-.05s-.03,0-.03,0c-.01.01,0,.15,0,.16,0,0-.15,0-.16,0-.01.01-.01.17,0,.18.02.02.14,0,.16,0,0,0,.01.15,0,.17-.2.11-.22.36-.05.49-.04.04-.08.1-.1.09-.37-.07-.7-.27-1.07-.24-.21.02-.39.17-.42.38-.07.39.21.69.35,1.02.04.1.08.24.07.36h2.61c0-.12.03-.26.07-.36.13-.33.41-.63.35-1.02M14.01,30.36c-.03.19-.14.32-.23.32-.06,0-.11-.02-.15-.06-.06-.05-.11-.14-.09-.19.01-.02.17,0,.18,0,.01-.02-.02-.14-.04-.16-.02-.02-.16,0-.18-.01-.02-.02-.04-.17-.06-.18,0,0-.15-.02-.16,0-.01.02.05.15.04.17-.01.02-.21-.02-.22,0,0,.02.01.14.03.15.02.02.21.02.21.02.04.03.05.09.05.15,0,.08-.06.12-.16.09-.18-.05-.41-.45-.54-.72-.1-.2-.16-.53.1-.63.16-.06.32-.03.49.02.18.05.41.12.55.21.03.02-.04,0,.08.28.06.13.11.4.09.53M14.15,28.24h.02-.02ZM15.63,29.94c-.13.27-.36.67-.54.72-.1.03-.16-.01-.16-.09,0-.06.01-.12.05-.15,0,0,.19,0,.21-.02.02-.02.03-.13.03-.15,0-.02-.2.02-.22,0-.01-.02.05-.15.04-.17-.01-.02-.16,0-.16,0-.02,0-.04.16-.06.18-.02.02-.16,0-.18.01-.02.02-.05.14-.04.16.01.02.17,0,.18,0,.02.05-.03.14-.09.19-.04.04-.09.06-.15.06-.09,0-.2-.12-.23-.32-.02-.14.03-.41.09-.53.12-.27.05-.26.08-.28.14-.09.37-.16.55-.21.17-.05.33-.08.49-.02.26.1.2.43.1.63" fill="#fff" stroke-width="0"/>
                      </g>
                      <g>
                        <polygon points="16.93 31 16.93 31.23 18.25 31.23 19.56 31.23 19.56 31 18.25 31 16.93 31" fill="#fff" stroke-width="0"/>
                        <path d="M19.98,29.5c-.04-.22-.21-.37-.42-.38-.38-.03-.71.17-1.07.24-.03,0-.07-.06-.1-.09.17-.13.15-.38-.05-.49-.01-.02,0-.16,0-.17.02-.01.14.01.16,0,.02-.02.01-.17,0-.18-.01-.01-.15,0-.16,0,0,0,0-.15,0-.16,0,0-.02,0-.04,0h0s0,0,0,0h-.05s-.03,0-.03,0c-.01.01,0,.15,0,.16,0,0-.15,0-.16,0-.01.01-.01.17,0,.18.02.02.14,0,.16,0,0,0,.01.15,0,.17-.2.11-.22.36-.05.49-.04.04-.08.1-.1.09-.37-.07-.7-.27-1.07-.24-.21.02-.39.17-.42.38-.07.39.21.69.35,1.02.04.1.08.24.07.36h2.61c0-.12.03-.26.07-.36.13-.33.41-.63.35-1.02M18.1,30.36c-.03.19-.14.32-.23.32-.06,0-.11-.02-.15-.06-.06-.05-.11-.14-.09-.19.01-.02.17,0,.18,0,.01-.02-.02-.14-.04-.16-.02-.02-.16,0-.18-.01-.02-.02-.04-.17-.06-.18,0,0-.15-.02-.16,0-.01.02.05.15.04.17-.01.02-.21-.02-.22,0,0,.02.01.14.03.15.02.02.21.02.21.02.04.03.05.09.05.15,0,.08-.06.12-.16.09-.18-.05-.41-.45-.54-.72-.1-.2-.16-.53.1-.63.16-.06.32-.03.49.02.18.05.41.12.55.21.03.02-.04,0,.08.28.06.13.11.4.09.53M18.24,28.24h.02-.02ZM19.72,29.94c-.13.27-.36.67-.54.72-.1.03-.16-.01-.16-.09,0-.06.01-.12.05-.15,0,0,.19,0,.21-.02.02-.02.03-.13.03-.15,0-.02-.2.02-.22,0-.01-.02.05-.15.04-.17-.01-.02-.16,0-.16,0-.02,0-.04.16-.06.18-.02.02-.16,0-.18.01-.02.02-.05.14-.04.16.01.02.17,0,.18,0,.02.05-.03.14-.09.19-.04.04-.09.06-.15.06-.09,0-.2-.12-.23-.32-.02-.14.03-.41.09-.53.12-.27.05-.26.08-.28.14-.09.37-.16.55-.21.17-.05.33-.08.49-.02.26.1.2.43.1.63" fill="#fff" stroke-width="0"/>
                      </g>
                      <g>
                        <polygon points="12.84 27.45 12.84 27.68 14.15 27.68 15.47 27.68 15.47 27.45 14.15 27.45 12.84 27.45" fill="#fff" stroke-width="0"/>
                        <path d="M15.89,25.95c-.04-.22-.21-.37-.42-.38-.38-.03-.71.17-1.07.24-.03,0-.07-.06-.1-.09.17-.13.15-.38-.05-.49-.01-.02,0-.16,0-.17.02-.01.14.01.16,0,.02-.02.01-.17,0-.18-.01-.01-.15,0-.16,0,0,0,0-.15,0-.16,0,0-.02,0-.04,0h0s0,0,0,0h-.05s-.03,0-.03,0c-.01.01,0,.15,0,.16,0,0-.15,0-.16,0-.01.01-.01.17,0,.18.02.02.14,0,.16,0,0,0,.01.15,0,.17-.2.11-.22.36-.05.49-.04.04-.08.1-.1.09-.37-.07-.7-.27-1.07-.24-.21.02-.39.17-.42.38-.07.39.21.69.35,1.02.04.1.08.24.07.36h2.61c0-.12.03-.26.07-.36.13-.33.41-.63.35-1.02M14.01,26.81c-.03.19-.14.32-.23.32-.06,0-.11-.02-.15-.06-.06-.05-.11-.14-.09-.19.01-.02.17,0,.18,0,.01-.02-.02-.14-.04-.16-.02-.02-.16,0-.18-.01-.02-.02-.04-.17-.06-.18,0,0-.15-.02-.16,0-.01.02.05.15.04.17-.01.02-.21-.02-.22,0,0,.02.01.14.03.15.02.02.21.02.21.02.04.03.05.09.05.15,0,.08-.06.12-.16.09-.18-.05-.41-.45-.54-.72-.1-.2-.16-.53.1-.63.16-.06.32-.03.49.02.18.05.41.12.55.21.03.02-.04,0,.08.28.06.13.11.4.09.53M14.15,24.69h.02-.02ZM15.63,26.4c-.13.27-.36.67-.54.72-.1.03-.16-.01-.16-.09,0-.06.01-.12.05-.15,0,0,.19,0,.21-.02.02-.02.03-.13.03-.15,0-.02-.2.02-.22,0-.01-.02.05-.15.04-.17-.01-.02-.16,0-.16,0-.02,0-.04.16-.06.18-.02.02-.16,0-.18.01-.02.02-.05.14-.04.16.01.02.17,0,.18,0,.02.05-.03.14-.09.19-.04.04-.09.06-.15.06-.09,0-.2-.12-.23-.32-.02-.14.03-.41.09-.53.12-.27.05-.26.08-.28.14-.09.37-.16.55-.21.17-.05.33-.08.49-.02.26.1.2.43.1.63" fill="#fff" stroke-width="0"/>
                      </g>
                      <g>
                        <polygon points="16.93 27.45 16.93 27.68 18.25 27.68 19.56 27.68 19.56 27.45 18.25 27.45 16.93 27.45" fill="#fff" stroke-width="0"/>
                        <path d="M19.98,25.95c-.04-.22-.21-.37-.42-.38-.38-.03-.71.17-1.07.24-.03,0-.07-.06-.1-.09.17-.13.15-.38-.05-.49-.01-.02,0-.16,0-.17.02-.01.14.01.16,0,.02-.02.01-.17,0-.18-.01-.01-.15,0-.16,0,0,0,0-.15,0-.16,0,0-.02,0-.04,0h0s0,0,0,0h-.05s-.03,0-.03,0c-.01.01,0,.15,0,.16,0,0-.15,0-.16,0-.01.01-.01.17,0,.18.02.02.14,0,.16,0,0,0,.01.15,0,.17-.2.11-.22.36-.05.49-.04.04-.08.1-.1.09-.37-.07-.7-.27-1.07-.24-.21.02-.39.17-.42.38-.07.39.21.69.35,1.02.04.1.08.24.07.36h2.61c0-.12.03-.26.07-.36.13-.33.41-.63.35-1.02M18.1,26.81c-.03.19-.14.32-.23.32-.06,0-.11-.02-.15-.06-.06-.05-.11-.14-.09-.19.01-.02.17,0,.18,0,.01-.02-.02-.14-.04-.16-.02-.02-.16,0-.18-.01-.02-.02-.04-.17-.06-.18,0,0-.15-.02-.16,0-.01.02.05.15.04.17-.01.02-.21-.02-.22,0,0,.02.01.14.03.15.02.02.21.02.21.02.04.03.05.09.05.15,0,.08-.06.12-.16.09-.18-.05-.41-.45-.54-.72-.1-.2-.16-.53.1-.63.16-.06.32-.03.49.02.18.05.41.12.55.21.03.02-.04,0,.08.28.06.13.11.4.09.53M18.24,24.69h.02-.02ZM19.72,26.4c-.13.27-.36.67-.54.72-.1.03-.16-.01-.16-.09,0-.06.01-.12.05-.15,0,0,.19,0,.21-.02.02-.02.03-.13.03-.15,0-.02-.2.02-.22,0-.01-.02.05-.15.04-.17-.01-.02-.16,0-.16,0-.02,0-.04.16-.06.18-.02.02-.16,0-.18.01-.02.02-.05.14-.04.16.01.02.17,0,.18,0,.02.05-.03.14-.09.19-.04.04-.09.06-.15.06-.09,0-.2-.12-.23-.32-.02-.14.03-.41.09-.53.12-.27.05-.26.08-.28.14-.09.37-.16.55-.21.17-.05.33-.08.49-.02.26.1.2.43.1.63" fill="#fff" stroke-width="0"/>
                      </g>
                      <g>
                        <polygon points="12.84 34.55 12.84 34.77 14.15 34.77 15.47 34.77 15.47 34.55 14.15 34.55 12.84 34.55" fill="#fff" stroke-width="0"/>
                        <path d="M15.89,33.05c-.04-.22-.21-.37-.42-.38-.38-.03-.71.17-1.07.24-.03,0-.07-.06-.1-.09.17-.13.15-.38-.05-.49-.01-.02,0-.16,0-.17.02-.01.14.01.16,0,.02-.02.01-.17,0-.18-.01-.01-.15,0-.16,0,0,0,0-.15,0-.16,0,0-.02,0-.04,0h0s0,0,0,0h-.05s-.03,0-.03,0c-.01.01,0,.15,0,.16,0,0-.15,0-.16,0-.01.01-.01.17,0,.18.02.02.14,0,.16,0,0,0,.01.15,0,.17-.2.11-.22.36-.05.49-.04.04-.08.1-.1.09-.37-.07-.7-.27-1.07-.24-.21.02-.39.17-.42.38-.07.39.21.69.35,1.02.04.1.08.24.07.36h2.61c0-.12.03-.26.07-.36.13-.33.41-.63.35-1.02M14.01,33.9c-.03.19-.14.32-.23.32-.06,0-.11-.02-.15-.06-.06-.05-.11-.14-.09-.19.01-.02.17,0,.18,0,.01-.02-.02-.14-.04-.16-.02-.02-.16,0-.18-.01-.02-.02-.04-.17-.06-.18,0,0-.15-.02-.16,0-.01.02.05.15.04.17-.01.02-.21-.02-.22,0,0,.02.01.14.03.15.02.02.21.02.21.02.04.03.05.09.05.15,0,.08-.06.12-.16.09-.18-.05-.41-.45-.54-.72-.1-.2-.16-.53.1-.63.16-.06.32-.03.49.02.18.05.41.12.55.21.03.02-.04,0,.08.28.06.13.11.4.09.53M14.15,31.79h.02-.02ZM15.63,33.49c-.13.27-.36.67-.54.72-.1.03-.16-.01-.16-.09,0-.06.01-.12.05-.15,0,0,.19,0,.21-.02.02-.02.03-.13.03-.15,0-.02-.2.02-.22,0-.01-.02.05-.15.04-.17-.01-.02-.16,0-.16,0-.02,0-.04.16-.06.18-.02.02-.16,0-.18.01-.02.02-.05.14-.04.16.01.02.17,0,.18,0,.02.05-.03.14-.09.19-.04.04-.09.06-.15.06-.09,0-.2-.12-.23-.32-.02-.14.03-.41.09-.53.12-.27.05-.26.08-.28.14-.09.37-.16.55-.21.17-.05.33-.08.49-.02.26.1.2.43.1.63" fill="#fff" stroke-width="0"/>
                      </g>
                      <g>
                        <polygon points="16.93 34.55 16.93 34.77 18.25 34.77 19.56 34.77 19.56 34.55 18.25 34.55 16.93 34.55" fill="#fff" stroke-width="0"/>
                        <path d="M19.98,33.05c-.04-.22-.21-.37-.42-.38-.38-.03-.71.17-1.07.24-.03,0-.07-.06-.1-.09.17-.13.15-.38-.05-.49-.01-.02,0-.16,0-.17.02-.01.14.01.16,0,.02-.02.01-.17,0-.18-.01-.01-.15,0-.16,0,0,0,0-.15,0-.16,0,0-.02,0-.04,0h0s0,0,0,0h-.05s-.03,0-.03,0c-.01.01,0,.15,0,.16,0,0-.15,0-.16,0-.01.01-.01.17,0,.18.02.02.14,0,.16,0,0,0,.01.15,0,.17-.2.11-.22.36-.05.49-.04.04-.08.1-.1.09-.37-.07-.7-.27-1.07-.24-.21.02-.39.17-.42.38-.07.39.21.69.35,1.02.04.1.08.24.07.36h2.61c0-.12.03-.26.07-.36.13-.33.41-.63.35-1.02M18.1,33.9c-.03.19-.14.32-.23.32-.06,0-.11-.02-.15-.06-.06-.05-.11-.14-.09-.19.01-.02.17,0,.18,0,.01-.02-.02-.14-.04-.16-.02-.02-.16,0-.18-.01-.02-.02-.04-.17-.06-.18,0,0-.15-.02-.16,0-.01.02.05.15.04.17-.01.02-.21-.02-.22,0,0,.02.01.14.03.15.02.02.21.02.21.02.04.03.05.09.05.15,0,.08-.06.12-.16.09-.18-.05-.41-.45-.54-.72-.1-.2-.16-.53.1-.63.16-.06.32-.03.49.02.18.05.41.12.55.21.03.02-.04,0,.08.28.06.13.11.4.09.53M18.24,31.79h.02-.02ZM19.72,33.49c-.13.27-.36.67-.54.72-.1.03-.16-.01-.16-.09,0-.06.01-.12.05-.15,0,0,.19,0,.21-.02.02-.02.03-.13.03-.15,0-.02-.2.02-.22,0-.01-.02.05-.15.04-.17-.01-.02-.16,0-.16,0-.02,0-.04.16-.06.18-.02.02-.16,0-.18.01-.02.02-.05.14-.04.16.01.02.17,0,.18,0,.02.05-.03.14-.09.19-.04.04-.09.06-.15.06-.09,0-.2-.12-.23-.32-.02-.14.03-.41.09-.53.12-.27.05-.26.08-.28.14-.09.37-.16.55-.21.17-.05.33-.08.49-.02.26.1.2.43.1.63" fill="#fff" stroke-width="0"/>
                      </g>
                      <g>
                        <polygon points="8.75 34.55 8.75 34.77 10.06 34.77 11.38 34.77 11.38 34.55 10.06 34.55 8.75 34.55" fill="#fff" stroke-width="0"/>
                        <path d="M11.8,33.05c-.04-.22-.21-.37-.42-.38-.38-.03-.71.17-1.07.24-.03,0-.07-.06-.1-.09.17-.13.15-.38-.05-.49-.01-.02,0-.16,0-.17.02-.01.14.01.16,0,.02-.02.01-.17,0-.18-.01-.01-.15,0-.16,0,0,0,0-.15,0-.16,0,0-.02,0-.04,0h0s0,0,0,0h-.05s-.03,0-.03,0c-.01.01,0,.15,0,.16,0,0-.15,0-.16,0-.01.01-.01.17,0,.18.02.02.14,0,.16,0,0,0,.01.15,0,.17-.2.11-.22.36-.05.49-.04.04-.08.1-.1.09-.37-.07-.7-.27-1.07-.24-.21.02-.39.17-.42.38-.07.39.21.69.35,1.02.04.1.08.24.07.36h2.61c0-.12.03-.26.07-.36.13-.33.41-.63.35-1.02M9.92,33.9c-.03.19-.14.32-.23.32-.06,0-.11-.02-.15-.06-.06-.05-.11-.14-.09-.19.01-.02.17,0,.18,0,.01-.02-.02-.14-.04-.16-.02-.02-.16,0-.18-.01-.02-.02-.04-.17-.06-.18,0,0-.15-.02-.16,0-.01.02.05.15.04.17-.01.02-.21-.02-.22,0,0,.02.01.14.03.15.02.02.21.02.21.02.04.03.05.09.05.15,0,.08-.06.12-.16.09-.18-.05-.41-.45-.54-.72-.1-.2-.16-.53.1-.63.16-.06.32-.03.49.02.18.05.41.12.55.21.03.02-.04,0,.08.28.06.13.11.4.09.53M10.06,31.79h.02-.02ZM11.53,33.49c-.13.27-.36.67-.54.72-.1.03-.16-.01-.16-.09,0-.06.01-.12.05-.15,0,0,.19,0,.21-.02.02-.02.03-.13.03-.15,0-.02-.2.02-.22,0-.01-.02.05-.15.04-.17-.01-.02-.16,0-.16,0-.02,0-.04.16-.06.18-.02.02-.16,0-.18.01-.02.02-.05.14-.04.16.01.02.17,0,.18,0,.02.05-.03.14-.09.19-.04.04-.09.06-.15.06-.09,0-.2-.12-.23-.32-.02-.14.03-.41.09-.53.12-.27.05-.26.08-.28.14-.09.37-.16.55-.21.17-.05.33-.08.49-.02.26.1.2.43.1.63" fill="#fff" stroke-width="0"/>
                      </g>
                      <g>
                        <polygon points="12.84 38.09 12.84 38.32 14.15 38.32 15.47 38.32 15.47 38.09 14.15 38.09 12.84 38.09" fill="#fff" stroke-width="0"/>
                        <path d="M15.89,36.59c-.04-.22-.21-.37-.42-.38-.38-.03-.71.17-1.07.24-.03,0-.07-.06-.1-.09.17-.13.15-.38-.05-.49-.01-.02,0-.16,0-.17.02-.01.14.01.16,0,.02-.02.01-.17,0-.18-.01-.01-.15,0-.16,0,0,0,0-.15,0-.16,0,0-.02,0-.04,0h0s0,0,0,0h-.05s-.03,0-.03,0c-.01.01,0,.15,0,.16,0,0-.15,0-.16,0-.01.01-.01.17,0,.18.02.02.14,0,.16,0,0,0,.01.15,0,.17-.2.11-.22.36-.05.49-.04.04-.08.1-.1.09-.37-.07-.7-.27-1.07-.24-.21.02-.39.17-.42.38-.07.39.21.69.35,1.02.04.1.08.24.07.36h2.61c0-.12.03-.26.07-.36.13-.33.41-.63.35-1.02M14.01,37.45c-.03.19-.14.32-.23.32-.06,0-.11-.02-.15-.06-.06-.05-.11-.14-.09-.19.01-.02.17,0,.18,0,.01-.02-.02-.14-.04-.16-.02-.02-.16,0-.18-.01-.02-.02-.04-.17-.06-.18,0,0-.15-.02-.16,0-.01.02.05.15.04.17-.01.02-.21-.02-.22,0,0,.02.01.14.03.15.02.02.21.02.21.02.04.03.05.09.05.15,0,.08-.06.12-.16.09-.18-.05-.41-.45-.54-.72-.1-.2-.16-.53.1-.63.16-.06.32-.03.49.02.18.05.41.12.55.21.03.02-.04,0,.08.28.06.13.11.4.09.53M14.15,35.33h.02-.02ZM15.63,37.04c-.13.27-.36.67-.54.72-.1.03-.16-.01-.16-.09,0-.06.01-.12.05-.15,0,0,.19,0,.21-.02.02-.02.03-.13.03-.15,0-.02-.2.02-.22,0-.01-.02.05-.15.04-.17-.01-.02-.16,0-.16,0-.02,0-.04.16-.06.18-.02.02-.16,0-.18.01-.02.02-.05.14-.04.16.01.02.17,0,.18,0,.02.05-.03.14-.09.19-.04.04-.09.06-.15.06-.09,0-.2-.12-.23-.32-.02-.14.03-.41.09-.53.12-.27.05-.26.08-.28.14-.09.37-.16.55-.21.17-.05.33-.08.49-.02.26.1.2.43.1.63" fill="#fff" stroke-width="0"/>
                      </g>
                      <g>
                        <polygon points="16.93 38.09 16.93 38.32 18.25 38.32 19.56 38.32 19.56 38.09 18.25 38.09 16.93 38.09" fill="#fff" stroke-width="0"/>
                        <path d="M19.98,36.59c-.04-.22-.21-.37-.42-.38-.38-.03-.71.17-1.07.24-.03,0-.07-.06-.1-.09.17-.13.15-.38-.05-.49-.01-.02,0-.16,0-.17.02-.01.14.01.16,0,.02-.02.01-.17,0-.18-.01-.01-.15,0-.16,0,0,0,0-.15,0-.16,0,0-.02,0-.04,0h0s0,0,0,0h-.05s-.03,0-.03,0c-.01.01,0,.15,0,.16,0,0-.15,0-.16,0-.01.01-.01.17,0,.18.02.02.14,0,.16,0,0,0,.01.15,0,.17-.2.11-.22.36-.05.49-.04.04-.08.1-.1.09-.37-.07-.7-.27-1.07-.24-.21.02-.39.17-.42.38-.07.39.21.69.35,1.02.04.1.08.24.07.36h2.61c0-.12.03-.26.07-.36.13-.33.41-.63.35-1.02M18.1,37.45c-.03.19-.14.32-.23.32-.06,0-.11-.02-.15-.06-.06-.05-.11-.14-.09-.19.01-.02.17,0,.18,0,.01-.02-.02-.14-.04-.16-.02-.02-.16,0-.18-.01-.02-.02-.04-.17-.06-.18,0,0-.15-.02-.16,0-.01.02.05.15.04.17-.01.02-.21-.02-.22,0,0,.02.01.14.03.15.02.02.21.02.21.02.04.03.05.09.05.15,0,.08-.06.12-.16.09-.18-.05-.41-.45-.54-.72-.1-.2-.16-.53.1-.63.16-.06.32-.03.49.02.18.05.41.12.55.21.03.02-.04,0,.08.28.06.13.11.4.09.53M18.24,35.33h.02-.02ZM19.72,37.04c-.13.27-.36.67-.54.72-.1.03-.16-.01-.16-.09,0-.06.01-.12.05-.15,0,0,.19,0,.21-.02.02-.02.03-.13.03-.15,0-.02-.2.02-.22,0-.01-.02.05-.15.04-.17-.01-.02-.16,0-.16,0-.02,0-.04.16-.06.18-.02.02-.16,0-.18.01-.02.02-.05.14-.04.16.01.02.17,0,.18,0,.02.05-.03.14-.09.19-.04.04-.09.06-.15.06-.09,0-.2-.12-.23-.32-.02-.14.03-.41.09-.53.12-.27.05-.26.08-.28.14-.09.37-.16.55-.21.17-.05.33-.08.49-.02.26.1.2.43.1.63" fill="#fff" stroke-width="0"/>
                      </g>
                      <g>
                        <polygon points="8.75 38.09 8.75 38.32 10.06 38.32 11.38 38.32 11.38 38.09 10.06 38.09 8.75 38.09" fill="#fff" stroke-width="0"/>
                        <path d="M11.8,36.59c-.04-.22-.21-.37-.42-.38-.38-.03-.71.17-1.07.24-.03,0-.07-.06-.1-.09.17-.13.15-.38-.05-.49-.01-.02,0-.16,0-.17.02-.01.14.01.16,0,.02-.02.01-.17,0-.18-.01-.01-.15,0-.16,0,0,0,0-.15,0-.16,0,0-.02,0-.04,0h0s0,0,0,0h-.05s-.03,0-.03,0c-.01.01,0,.15,0,.16,0,0-.15,0-.16,0-.01.01-.01.17,0,.18.02.02.14,0,.16,0,0,0,.01.15,0,.17-.2.11-.22.36-.05.49-.04.04-.08.1-.1.09-.37-.07-.7-.27-1.07-.24-.21.02-.39.17-.42.38-.07.39.21.69.35,1.02.04.1.08.24.07.36h2.61c0-.12.03-.26.07-.36.13-.33.41-.63.35-1.02M9.92,37.45c-.03.19-.14.32-.23.32-.06,0-.11-.02-.15-.06-.06-.05-.11-.14-.09-.19.01-.02.17,0,.18,0,.01-.02-.02-.14-.04-.16-.02-.02-.16,0-.18-.01-.02-.02-.04-.17-.06-.18,0,0-.15-.02-.16,0-.01.02.05.15.04.17-.01.02-.21-.02-.22,0,0,.02.01.14.03.15.02.02.21.02.21.02.04.03.05.09.05.15,0,.08-.06.12-.16.09-.18-.05-.41-.45-.54-.72-.1-.2-.16-.53.1-.63.16-.06.32-.03.49.02.18.05.41.12.55.21.03.02-.04,0,.08.28.06.13.11.4.09.53M10.06,35.33h.02-.02ZM11.53,37.04c-.13.27-.36.67-.54.72-.1.03-.16-.01-.16-.09,0-.06.01-.12.05-.15,0,0,.19,0,.21-.02.02-.02.03-.13.03-.15,0-.02-.2.02-.22,0-.01-.02.05-.15.04-.17-.01-.02-.16,0-.16,0-.02,0-.04.16-.06.18-.02.02-.16,0-.18.01-.02.02-.05.14-.04.16.01.02.17,0,.18,0,.02.05-.03.14-.09.19-.04.04-.09.06-.15.06-.09,0-.2-.12-.23-.32-.02-.14.03-.41.09-.53.12-.27.05-.26.08-.28.14-.09.37-.16.55-.21.17-.05.33-.08.49-.02.26.1.2.43.1.63" fill="#fff" stroke-width="0"/>
                      </g>
                      <g>
                        <polygon points="8.75 31 8.75 31.23 10.06 31.23 11.38 31.23 11.38 31 10.06 31 8.75 31" fill="#fff" stroke-width="0"/>
                        <path d="M11.8,29.5c-.04-.22-.21-.37-.42-.38-.38-.03-.71.17-1.07.24-.03,0-.07-.06-.1-.09.17-.13.15-.38-.05-.49-.01-.02,0-.16,0-.17.02-.01.14.01.16,0,.02-.02.01-.17,0-.18-.01-.01-.15,0-.16,0,0,0,0-.15,0-.16,0,0-.02,0-.04,0h0s0,0,0,0h-.05s-.03,0-.03,0c-.01.01,0,.15,0,.16,0,0-.15,0-.16,0-.01.01-.01.17,0,.18.02.02.14,0,.16,0,0,0,.01.15,0,.17-.2.11-.22.36-.05.49-.04.04-.08.1-.1.09-.37-.07-.7-.27-1.07-.24-.21.02-.39.17-.42.38-.07.39.21.69.35,1.02.04.1.08.24.07.36h2.61c0-.12.03-.26.07-.36.13-.33.41-.63.35-1.02M9.92,30.36c-.03.19-.14.32-.23.32-.06,0-.11-.02-.15-.06-.06-.05-.11-.14-.09-.19.01-.02.17,0,.18,0,.01-.02-.02-.14-.04-.16-.02-.02-.16,0-.18-.01-.02-.02-.04-.17-.06-.18,0,0-.15-.02-.16,0-.01.02.05.15.04.17-.01.02-.21-.02-.22,0,0,.02.01.14.03.15.02.02.21.02.21.02.04.03.05.09.05.15,0,.08-.06.12-.16.09-.18-.05-.41-.45-.54-.72-.1-.2-.16-.53.1-.63.16-.06.32-.03.49.02.18.05.41.12.55.21.03.02-.04,0,.08.28.06.13.11.4.09.53M10.06,28.24h.02-.02ZM11.53,29.94c-.13.27-.36.67-.54.72-.1.03-.16-.01-.16-.09,0-.06.01-.12.05-.15,0,0,.19,0,.21-.02.02-.02.03-.13.03-.15,0-.02-.2.02-.22,0-.01-.02.05-.15.04-.17-.01-.02-.16,0-.16,0-.02,0-.04.16-.06.18-.02.02-.16,0-.18.01-.02.02-.05.14-.04.16.01.02.17,0,.18,0,.02.05-.03.14-.09.19-.04.04-.09.06-.15.06-.09,0-.2-.12-.23-.32-.02-.14.03-.41.09-.53.12-.27.05-.26.08-.28.14-.09.37-.16.55-.21.17-.05.33-.08.49-.02.26.1.2.43.1.63" fill="#fff" stroke-width="0"/>
                      </g>
                      <g>
                        <polygon points="8.75 27.45 8.75 27.68 10.06 27.68 11.38 27.68 11.38 27.45 10.06 27.45 8.75 27.45" fill="#fff" stroke-width="0"/>
                        <path d="M11.8,25.95c-.04-.22-.21-.37-.42-.38-.38-.03-.71.17-1.07.24-.03,0-.07-.06-.1-.09.17-.13.15-.38-.05-.49-.01-.02,0-.16,0-.17.02-.01.14.01.16,0,.02-.02.01-.17,0-.18-.01-.01-.15,0-.16,0,0,0,0-.15,0-.16,0,0-.02,0-.04,0h0s0,0,0,0h-.05s-.03,0-.03,0c-.01.01,0,.15,0,.16,0,0-.15,0-.16,0-.01.01-.01.17,0,.18.02.02.14,0,.16,0,0,0,.01.15,0,.17-.2.11-.22.36-.05.49-.04.04-.08.1-.1.09-.37-.07-.7-.27-1.07-.24-.21.02-.39.17-.42.38-.07.39.21.69.35,1.02.04.1.08.24.07.36h2.61c0-.12.03-.26.07-.36.13-.33.41-.63.35-1.02M9.92,26.81c-.03.19-.14.32-.23.32-.06,0-.11-.02-.15-.06-.06-.05-.11-.14-.09-.19.01-.02.17,0,.18,0,.01-.02-.02-.14-.04-.16-.02-.02-.16,0-.18-.01-.02-.02-.04-.17-.06-.18,0,0-.15-.02-.16,0-.01.02.05.15.04.17-.01.02-.21-.02-.22,0,0,.02.01.14.03.15.02.02.21.02.21.02.04.03.05.09.05.15,0,.08-.06.12-.16.09-.18-.05-.41-.45-.54-.72-.1-.2-.16-.53.1-.63.16-.06.32-.03.49.02.18.05.41.12.55.21.03.02-.04,0,.08.28.06.13.11.4.09.53M10.06,24.69h.02-.02ZM11.53,26.4c-.13.27-.36.67-.54.72-.1.03-.16-.01-.16-.09,0-.06.01-.12.05-.15,0,0,.19,0,.21-.02.02-.02.03-.13.03-.15,0-.02-.2.02-.22,0-.01-.02.05-.15.04-.17-.01-.02-.16,0-.16,0-.02,0-.04.16-.06.18-.02.02-.16,0-.18.01-.02.02-.05.14-.04.16.01.02.17,0,.18,0,.02.05-.03.14-.09.19-.04.04-.09.06-.15.06-.09,0-.2-.12-.23-.32-.02-.14.03-.41.09-.53.12-.27.05-.26.08-.28.14-.09.37-.16.55-.21.17-.05.33-.08.49-.02.26.1.2.43.1.63" fill="#fff" stroke-width="0"/>
                      </g>
                    </g>
                  </g>
                  <g>
                    <path d="M23.98,40.47c-.83,0-1.5.67-1.5,1.5v17.63s.06-.02.09-.03c.21-.06.51-.16.88-.29,8.11-2.88,13.65-10.32,14.26-18.81h-13.73Z" fill="#dc001e" stroke="#940008" stroke-miterlimit="10" stroke-width=".34"/>
                    <g clip-path="url(#clippath)">
                      <polygon points="36.16 49.56 34.65 50.19 35.68 50.48 35.35 50.8 35.93 51.49 34.98 51.77 34.99 52.17 33.26 51.59 32.9 51.93 32.31 50.65 29.41 52.33 29.3 52.4 29.3 61.08 29.05 61.08 29.05 52.38 28.95 52.33 26.13 50.7 25.58 51.95 25.23 51.58 23.48 52.14 23.49 51.74 22.53 51.51 23.1 50.81 22.77 50.47 23.82 50.2 22.3 49.53 22.76 49.24 22.18 48.25 23.3 48.28 23.38 47.72 24.68 48.71 24.41 47.67 24.85 47.8 25.16 46.95 25.87 47.64 26.22 47.43 26.58 49.21 27.06 49.35 26.25 50.5 29.05 52.12 29.05 48.65 27.56 48.81 27.72 48.28 26.22 46.92 26.6 46.71 26.29 45.67 27.27 45.83 27.41 45.33 28.26 46.18 28.05 44.36 28.58 44.64 29.21 43.55 29.8 44.63 30.37 44.4 30.14 46.18 30.98 45.36 31.11 45.84 32.09 45.67 31.82 46.73 32.21 46.94 30.71 48.27 30.84 48.8 29.3 48.66 29.3 52.14 32.2 50.46 31.4 49.35 31.89 49.24 32.28 47.44 32.62 47.64 33.3 46.92 33.62 47.77 34.08 47.65 33.79 48.71 35.12 47.72 35.15 48.26 36.29 48.25 35.71 49.21 36.16 49.56" fill="#fff" stroke-width="0"/>
                    </g>
                  </g>
                  <g>
                    <path d="M24,39.85h13.71c.02-.36.03-.72.03-1.08v-15.56h-15.23v15.14c0,.82.67,1.49,1.49,1.49Z" fill="#143256" stroke="#002235" stroke-miterlimit="10" stroke-width=".34"/>
                    <g clip-path="url(#clippath-1)">
                      <g>
                        <path d="M36.41,38.08s-.16.31-.47.26c-.32-.05-.73-.47-1.27-.38-.55.09-.93.48-.93.48,0,0,.66-.27.98-.17.31.11.68.39,1.1.34.42-.05.6-.54.6-.54Z" fill="#fff" stroke-width="0"/>
                        <path d="M27.15,33.35s-.08.28,0,.7c.09.42.19.83.19.83,0,0-.01-.41.08-.58.1-.16.3-.2.3-.2,0,0,0,.24.07.49.06.25.12.63.12.63,0,0,.15-.44.34-.32.14.08.39.57.53.87.1-.12.19-.25.29-.39.27-.37.7-.57,1.05-.85.06-.05.12.04.07.09-.4.38-.85.65-1.14,1.13-.05.08-.1.17-.16.25-.02.05-.11.3-.29.69-.21.45-.53.82-.71.82-.18,0-.81-.82-1.09-.82-.29,0-.29.16-.29.16,0,0-.23-.04-.47.19-.24.23-.34.59-.34.59,0,0,.25-.22.45-.23.19-.01.34.07.34.07,0,0-.36.23-.56.71-.2.48-.16.98-.16.98,0,0,.13-.42.59-.41.45.01.65.06.65.06,0,0-.27.13-.3.55-.03.42.2.98.2.98,0,0,.13-.8.33-.77.2.03.5.33.89-.17.39-.51.37-.59.61-.85.25-.26.55-.36.55-.36,0,0-.07.17-.02.36.04.19.18.54.18.54,0,0-.05-.49.06-.76.11-.27.38-.68.38-.68,0,0-.07.14,0,.42.07.28.26.56.26.56,0,0-.06-.64.11-.9.17-.26.35-.51.35-.51,0,0,0,.13.16.35.15.22.45.4.45.4,0,0-.34-.72-.17-1,.17-.28.4-.57.4-.57,0,0-.21.71.18,1.16.39.45.86.66.86.66,0,0-1.12.44-1.62,1.03-.5.58-.54.83-.33,1.17.21.34.53.58.53.58,0,0-.28.02-.5-.06-.22-.09-.67-.36-.67-.36,0,0,.22.73,1.03.99.8.26,1.48.38,1.48.38,0,0,.29.27-.44.51-.73.24-1.38.23-1.38.23,0,0,.05-.82-.59-.89-.64-.07-.76.27-.76.27,0,0-.52-.05-.74.09-.22.14-.38.47-.38.47,0,0,.37-.26.61-.22.25.04.51.2.51.2,0,0-.28.12-.57.35-.28.23-.35.62-.35.62,0,0,.29-.28.53-.26.24.03.49.09.49.09,0,0-.32.3-.52.55-.2.25-.32.72-.32.72,0,0,.36-.53.62-.46.26.07.4.39.73.32.33-.08.63-.33.63-.33,0,0,.13.3.46.15.32-.15.87-.35.87-.35,0,0,0,.2.07.47.07.28.24.63.24.63,0,0,.02-.62.17-.8.15-.19.36-.5.36-.5,0,0-.04.07.1.39.14.33.51.66.51.66,0,0-.26-.64-.17-.86.09-.22.25-.44.25-.44,0,0,.1.09.29.35.19.26.41.45.41.45,0,0-.36-.71-.16-.92.2-.21.6-.55.59-.83-.01-.28-.77-1.06-1.05-1.37-.28-.3-.48-.83-.48-.83l1.07.16s-.17.49.12.94c.29.45.9.98.9.98,0,0,.01.09-.1.24-.11.15-.45.33-.45.33,0,0,.28.09.62-.04.34-.14.84-.45.84-.45,0,0-.04.17-.17.26-.14.09-.5.39-.5.39,0,0,.85-.06,1.25-.3.4-.24.72-.4.72-.4,0,0,.19.69.15,1.15-.04.46-.26.92-.71.94-.45.02-.86-.03-1.07.17-.21.2-.13.53-.13.53,0,0-.32.17-.38.49-.06.32,0,.83,0,.83,0,0,.12-.21.38-.37.26-.16.56-.2.56-.2,0,0-.23.26-.28.56-.05.31.11.7.11.7,0,0,.44-.93.74-.84.3.09.55.25.84.12.3-.13.4-.12.45.19s0,.91,0,.91c0,0,.26-.16.44-.6.18-.45.19-1.6.19-1.6,0,0,0-.38.25-.37.24.01.57.43.57.43,0,0,.09-.24.06-.82-.02-.58-.24-1.06-.24-1.06,0,0,.18-.12.33.09.15.2.43.51.43.51,0,0-.02-.76-.23-1.09-.21-.33-.4-.59-.4-.59,0,0,.14-.09.3-.03.16.07.41.38.41.38,0,0-.11-.67-.25-.91-.14-.24-.23-.45-.23-.45,0,0,.29.11.57-.23.28-.34.39-.76.39-.76,0,0-.1.25-.41.31-.31.06-.54.12-.54.12,0,0-.17-.53-.54-.61-.37-.08-1.85.41-1.9.04s.42-.66.51-1.2c.05-.31.06-.81-.07-1.22.38-.17.84-.38,1.29-.59,1.12-.51,1.95-.79,2.13-1.7.18-.91-.07-1.48-1.14-2.82-.93-1.16-4.14-3.25-4.06-3.89.08-.64.38-.97.83-.92.45.06,1.43.93,2.65.59s1.38-.82,1.38-.82c0,0-.63.2-1.27.12-.64-.08-.71-.86-1.53-1.12-.82-.27-1.74-.39-2.66,1.25-.92,1.65,3.25,4.3,4.39,5.64,1.14,1.34.61,1.95-.27,2.58-.65.47-1.7.87-2.2,1.04-.02-.01-.05-.03-.08-.04-.64-.28-1.96-.79-2.2-1.2-.24-.42-.53-1.42-.53-1.42,0,0,.15.13.43.1.28-.02.58-.05.58-.05,0,0-.48-.25-.65-.48-.17-.23-.27-.52-.27-.52,0,0,.18.09.46.16.28.07.55-.02.55-.02,0,0-.35-.22-.51-.5-.16-.28-.3-.66-.3-.66,0,0,.2.26.47.26.27,0,.45-.14.45-.14,0,0-.73-.63-.89-1.12-.16-.49-.18-.75-.18-.75,0,0,.21.29.52.32.32.03.6-.07.6-.07,0,0-.7-.49-1-1.21-.3-.72-.34-2.07-.34-2.07,0,0,.08-.6.24-.74.16-.14.36-.41.36-.41,0,0-.56-.03-1.13.06s-.95.27-.95.27c0,0-1.31-.47-1.85-.43-.53.05-.42.45-.42.45,0,0-.74-.06-1.1.19-.36.25-.13.54-.13.54l.11.11c.15-.03.31-.03.46,0,.02,0,.02.03,0,.03-.12,0-.19.03-.31.05l-.04.03s-.03.24.1.39c.13.15.32.12.32.12,0,0,.04.02.11.15.08.12.28.2.28.2,0,0-.18-.12-.16-.28.02-.15.17-.28.17-.28,0,0,.16-.25.44-.15.28.09.53.65.29.96-.24.32-.92.49-1.31.41-.39-.08-.54-.09-.56.17-.02.26.15.41.41.48.26.07.45.01.45.01,0,0-.03.2-.22.47-.19.27-.44.53-.44.53,0,0,.31-.12.64-.12.04,0,.08,0,.12,0,.63-.18,1.27-.35,1.9-.22.06.01.43.13-.01.1-.79-.07-1.33.11-1.84.33-.24.14-.54.32-.7.45-.31.24-.73.87-.73.87,0,0-.66-.34-.96-.51-.29-.17-.68-.43-.68-.43,0,0-.23-1.48-.69-1.76-.46-.28-.81-.02-.81-.02,0,0-.3-.09-.6,0-.3.1-.39.3-.39.3,0,0,.46-.16.58,0,.13.16.26.51.26.51,0,0-.53-.08-.79.15-.27.23-.43.8-.43.8,0,0,.45-.58.74-.41.29.17.52.65.52.65,0,0-.6.18-.72.66-.11.48.14.74.14.74,0,0,.02-.62.25-.71.23-.09.35.12.6.02.26-.1.41-.07.59,0,.19.06.73.62.73.62ZM38.33,45.17c.04-.29.17-.55.2-.84,0-.01.01-.02.03-.03.12-.01.26.13.37.25-.01-.51-.06-1.04-.23-1.51-.01-.03.01-.07.05-.06.15,0,.28.04.4.11-.13-.33-.22-.67-.33-1,0-.02,0-.04.02-.04.21-.04.4,0,.58.09-.19-.27-.4-.53-.69-.72-.04-.02,0-.08.04-.05.38.24.64.57.9.93.04.05-.03.12-.08.08-.16-.12-.78-.48-.61-.04.13.33.27.65.42.96.04.08-.08.15-.13.08,0,0-.49-.42-.46-.21.03.21.11.42.16.62.08.32.11.64.12.97,0,.08-.12.09-.15.02-.08-.2-.31-.55-.38-.16-.03.19-.11.38-.18.56-.01.03-.05.02-.05-.01ZM33.94,27.51c-.05.15-.05.3-.08.46-.01.07-.12.07-.12,0,0-.11-.12-.2-.19-.28-.07-.08-.16-.15-.24-.22,0,0,0-.02,0-.01.08.05.15.11.22.18.05.05.12.16.19.22,0-.25.1-.64.32-.7,0,0,0,0,0,0-.02.12-.08.23-.12.35ZM36.23,42.8c.14-.17.17-.39.2-.6,0-.02.04-.03.05,0,.06.19-.02.35-.08.52.31-.17.51-.49.65-.82.02-.05.1-.03.09.02-.05.4-.45.89-.84.98-.05.01-.09-.06-.06-.1ZM35.43,42.48c.21-.1.22-.32.31-.52.01-.03.06-.02.07,0,.03.12.02.25-.03.36.06-.02.12-.04.17-.06.15-.05.33-.15.49-.16,0,0,0,0,0,0-.06.12-.22.16-.33.22-.15.07-.31.12-.47.19-.05.04-.11.07-.18.09-.08.01-.1-.1-.04-.13ZM33.46,33.96c.29.08.56.17.85.2-.24-.3-.39-.65-.52-1-.02-.04.03-.07.06-.05.21.14.42.2.65.24-.27-.37-.47-.79-.64-1.21,0-.02.01-.04.03-.02.07.05.53.18.53.18-.1-.09-.18-.18-.25-.3-.17-.25-.23-.58-.25-.88,0-.08.1-.09.11-.02.11.44.28.96.67,1.24.04.03.01.09-.03.08-.16-.02-.62-.07-.7-.2.23.39.44.8.73,1.16.04.05-.02.12-.08.1-.14-.05-.66-.13-.72-.26.14.35.37.69.63.96.05.05,0,.12-.07.12-.36-.01-.75-.08-1.05-.28-.05-.03,0-.09.04-.08ZM31.8,27.46s-.41-.04-.67.08c.01-.1.07-.13.06-.16,0-.03-.08-.08-.25-.04.34-.28.86.12.86.12ZM33.34,43.09s.06,0,.07.03c.04.11.1.19.19.25.02-.13.07-.24.17-.33.04-.03.1.01.08.06-.05.13-.09.26-.11.4,0,.07-.1.09-.14.04-.03-.03-.25-.32-.27-.3-.17.17-.29.32-.34.56-.01.07-.11.09-.14.02-.04-.1-.06-.2-.08-.31-.01-.09-.15.05-.17.06-.21.14-.31.28-.45.49-.02.02-.06.02-.07,0-.08-.26.19-.43.39-.54.4-.22.24-.13.41.12.08-.23.23-.42.44-.54ZM30.61,36.31s.06,0,.07.03c.02.13.05.27.08.4.07-.33.24-.68.6-.7.04,0,.05.06,0,.06-.41.06-.49.52-.55.86,0,.05-.07.05-.08,0-.03-.13-.06-.27-.09-.4-.05-.24-.13-.03-.23.09-.2.23-.3.52-.35.81,0,.05-.08.04-.08,0,.02-.46.29-.86.64-1.14ZM28.14,34.64c.03-.2-.03-.35-.05-.55,0,0,0,0,.01,0,.05.15.07.32.12.48.09-.1.2-.19.33-.24.03-.01.06,0,.07.04.02.15.06.29.12.43.02.05.09.3.12.18.02-.06.05-.12.07-.18.08-.18.19-.29.36-.38,0,0,.01,0,0,.01-.2.15-.28.41-.38.64,0,.02-.03.03-.05.03,0,0-.01,0-.02,0-.02,0-.12,0-.13-.02-.03-.11-.06-.22-.11-.32-.04-.09-.03-.2-.07-.29-.1.09-.2.12-.28.24-.04.06-.14.02-.12-.05Z" fill="#fff" stroke-width="0"/>
                      </g>
                    </g>
                  </g>
                  <g>
                    <path d="M20.36,40.44H6.6c.61,8.5,6.15,15.95,14.28,18.83.43.15.77.26.98.32v-17.65c0-.83-.67-1.5-1.5-1.5Z" fill="#143256" stroke="#002235" stroke-miterlimit="10" stroke-width=".34"/>
                    <g clip-path="url(#clippath-2)">
                      <g>
                        <path d="M12.19,46.8s.03.42.09.44c-.69.57-.32.91-.38,1.75-.23.53,0,.79.05.82-.04.36-.08.56-.32.85-.17.21,0,.55-.17.77-.14-.55-.31-.33-.34-1.09-.06-.13-.31-.36-.45-.38-.01.46-.19.87-.16,1.07,0,0-.39-.08-.51-.04-.1.03-.17.15-.18.23.13.09.13.05.33.2.34.26.49.78.49.78,0,0-.8-.67-.86-.79-.04-.09-.08-.24-.12-.39,0-.02.43-.25.55-.48.39-.7-.58.41-.6.31-.05-.25-.21-.48-.21-.48.06-.07.21-.11.44-.49.53-.88-.6.37-.6.37-.29-.18-.3.05-.34.28,0,.02-.51.37-.53.39-.14-.13-.23-.31-.29-.43,0-.02.91-.79,1.07-1.05,1.29-2.09-1.03.91-1.13.83-.05-.17-.07-.4-.05-.7,0,0,.43-.29.71-.72,1.08-1.69-.7.49-.69.48.03-.37.37-1.95.15-1.48-.11.24-.47,1.25-.44,2.29-.11-.19-.58-.4-.77-.45.08-1.54,1.07-3.22.81-2.91-.66.78-.92,2.49-1.4,3.96,0,0-.29.14-.18-1.74.02-.38.19-.88.39-1.23.39-.69,1.18-1.84,1.16-1.85-.18-.15-.65.85-1.05,1.24-.26.25-.96.49-1.01.45.59-1.07,1.96-2.05,1.83-2.18-1.02.91-1.33.94-1.37.89l.92-.85c.26-.33.6-.58.56-.58-.4.08.22-.33.69-.44.09-.02.22-.02.23-.07,0-.07-.11-.04-.21-.08-.06-.02-.13-.07-.13-.16.18.04.36,0,.52-.06.32-.14.89-.29,1.15-.18.15.06.18.06.34.19.07-.03.28-.15.55.2.08.11.19.23.19.32,0,.23,0,.01-.07.23-.03.09.07.26.49.41.16.06.12.22.12.22-.08-.04-.2-.13-.4-.05-.39.17-.45-.12-.68-.32,0,0,.06.25,0,.27-.3.05-.2.28-.17.31.36.34.2.46.33.67.12.2.31.28.6.27.4,0-.5-.63.38-.85-.14.23-.2.41.1.6.19.12.08.69.58.43Z" fill="#fff" stroke-width="0"/>
                        <path d="M8.44,51.05s.46-.38.46-.36c0,.05,0,.04.01.1.02.14.01.25.05.41,0,.02-.16.08-.23.14-.1-.1-.19-.15-.3-.29Z" fill="#fff" stroke-width="0"/>
                        <path d="M17.33,51.14c.07-.22.06-.38.07-.6.23.24.31.25.3.35-.06.14-.16.24-.28.36-.14.11-.2.21-.09-.12Z" fill="#fff" stroke-width="0"/>
                        <path d="M9.01,51.33c.03.07.06.16.1.25.04.09-.09.02-.28-.16,0,0,.17-.12.18-.1Z" fill="#fff" stroke-width="0"/>
                        <path d="M19.01,51.91c-.12.36-.2.67-.41,1.05-.12.21-.3-.31-.09-.84.17-.07.35-.11.5-.21Z" fill="#fff" stroke-width="0"/>
                        <path d="M6.96,49.89c.2.04.74.37.84.56.35.49.32.94,1.83,1.66.08,0-.27-.27-.37-.57-.04-.14-.23-.8-.08-1.11.31.33.24.43.32.67.21.63.33.69.89,1.09.07.05.49.74,1.06.79-.06-.02-.02-.16-.21-.29-.62-.43-.36-1.32-1.18-1.49.42-.14.69.27.76.23-.32-.47-.02-.85-.06-1.23.11.06.22.2.22.31.04.67.35.8.38,1.09-.08.48.3.86.57,1.2.06-.28,0-.53-.35-.77-.19-.13.03-.51.03-.51.07.42.3.55.45.58.13.02-.43-.6-.35-1.15.04-.24.1-.13.15-.41.48.56.11.9.6,1.55.23.31.31.84.34.86.02-.79-.02-.56-.35-1.21-.27-.54.04-1.02.09-1.34.62.45.55,1.29.57,1.11.02-.18.11-.49.03-.78-.13-.48.19-1.19.19-1.19.85,1.41.06,3.01.12,2.99.4-.59.68-.61.78-1.07.05-.25.54-1.61,1.38-1.61-.43.35-.33.4-.37,1,.23,1.5-1.86,1.6-1.74,2.37.3-.45.74-.63,1.41-.97.3-.22.63-.32.66-.68-.03-.26-.04-.21,0-.55.04-.24.27-.09.46-.59.37.35.22.73.18.95-.01.06-.06.29,0,.43.14-.09.23-.28.39-.46.28-.34.29-.76.43-1.05.07-.13.16-.31.21-.32h0c.05.55,0,1.02-.25,1.42,0,0,.06.12.12.15.24-.06.57-.24.72-.62.28.25.07.56.08.56.66-.32.04-1.63.96-1.57-.24.24-.1.57-.09.87,0,.49-.64.85-.64.85.69-.21.83.11.82.11,0,0-1.03.41-2.63.54-.21.02-.51.25-.46.25.21-.01.62-.26,1.19.27-.35,0-.6.56-1.15.22-1.44-.45-2,.26-2.24.43.05.09,1.13-.64,1.96-.11.44.28,1.17.06,1.75-.35-.24.58-1.23,1.21-1.55,1.2-.39,0-.88-.54-1.45-.52-.92.02-1.06.83-.96.77,0,0,.75-1.17,1.64.13-.43-.21-1.01-.17-1.52.05-.07.03.12.25.25.41.09.1.46.68.89.13.06-.08.28-.6,1.58-.45-.5.21-1.06.78-1.33,1.04-.7.66-1.69-.87-1.74-.7,0,.34-.19.5-.28.67-.24.45.28.39.57.28,0,0-.56.83-1,.35-.49-.53.68-.89.32-1.31-.2-.24-.95.49-1.27.49-.89.08-.82-.77-1.29-.75.45-.43.91-.18,1.01-.06.29.35.64.13.88-.05.13-.17.35-.19.54-.13.09.01-.18-.33-.54-.27-.82.14-1.63-.18-1.83-.3-.32-.19-.5-.51-.86-.87.11.02.78.42,1,.54.64.35,1.06-.07,1.14-.07.13,0,.1-.09-.1-.16-.67-.17-1.11-.77-1.75-1.02-.7-.33-1.6-.14-2.18-.75-.19-.17-.29-.44-.53-.53.19-.17.36.18.46.06-.16-.27-.27-.48-.28-.82,0-.18-.21-.36-.26-.46Z" fill="#fff" stroke-width="0"/>
                        <path d="M7.91,52.03c.15.51.06,1.04-.12.76-.26-.39-.4-.8-.48-1.25.15.21.37.39.6.49Z" fill="#fff" stroke-width="0"/>
                        <path d="M13.04,44.24c.06-.04.24-.13.31-.15,0,0-.09.06-.09.15,0,.07.08.16.08.16l-.31-.17Z" fill="#fff" stroke-width="0"/>
                        <path d="M21.09,47.63c-.92.29-1.76-.58-1.66-.37.12.24,1.2,1.23,1.67,1.76-.38.09-.72-.22-.99-.46-.29-.26-.77-.91-.71-.6.78,1.02,1.36,3.11.97,3.23-.21-.48-1.08-2.89-1.14-2.89-.06,0,.06.63.07,1.04.02.9.02,1.33-.2,2.21-.1-.14-.19-.14-.35-.13-.02-.09-.01-.06.09-.19.27-.33-.02-.81.11-1.09.11-.23.16-.04.22-.29-.07-.07-.26-.09-.34-.11-.06-.93-.36-1.41-.26-.82.05.3.13.79.09.8-.04.01-.05.01-.08.03-.02,0-1.49-2.57-.68-.79.11.23.54.87.54.87-.12.12-.24.26-.26.35,0,.02-1.99-2.77-.65-.53.08.14.49.6.6.73.01.02-.05.51-.05.51-.21-.15-.51-.46-.65-.66.03-.28-.04-.24-.05-.52-.06-.04-.15.07-.26.16-.05.04-1.35-2.37-.54-.56.13.29.42.64.44.66-.06.06-.15.25-.25.48,0,0-1.76-2.68-.7-.65.08.16.61.83.61.85-.14.33-.27.64-.27.64.04-.26.11-.76-.42-1.19-.08.46-.2.47-.37.61-.07.06-.21.32-.22.09-.03-.65.18-.63.35-.9.04-.07.04-.21,0-.21-1.31,0-1.3,1.23-1.52,1.23.11-.31.14-.62.03-.87.36-.24.28-.67.22-.86.41-.4.2-1.27.02-1.46.26-.36-.04-.62.03-.85.13-.8.84-.54,1.02-1.3.11.14.3.61.2.76-.12.17-.35.18-.37.31,0,.05-.03.21,0,.24.13.03.23-.09.37-.15.28-.1.94.38.99-.03.03-.26-.09-.07-.07-.31.02-.24.14-.07.15-.38,0-.23-.27-.31-.29-.4-.04-.23-.47.32-.7-.28.14.02.43-.07.41-.21-.06-.38-.04-1.29.8-1.07.3.08,1.14.55,1.27.07.29.55-.31.44-.49.42.07.05.16.14.39.09.47.33,2.19,1.49,2.69,1.78-.69.3-1.71-.39-1.73-.39h-.01c-.01.5,1.35,1.24,1.93,1.57Z" fill="#fff" stroke-width="0"/>
                        <path d="M13.73,45.23c.04-.09.12-.18.22-.23.43-.19,1.23.27,1.24-.37,0,0,.29.22.15.45-.32.51-1.14-.16-1.61.15Z" fill="#fff" stroke-width="0"/>
                        <path d="M14.53,43.97c-.12,0-.11.4-.32.33-.05-.02.18-.26.09-.38-.2-.12-.2.14-.29.04-.04-.17-.24-.27-.4-.29-.45-.08-.81.41-1.24.15-.04.19.14.25.14.25-.28.06-.41-.11-.46-.22-.12.44.33.48.47.51,0,0-.23.06-.25.21-.04.38-.28.34-.33.31,0,.05.08.28.35.08.04.05-.08.11-.11.3-.04.24-.04.46-.31.59.16.14.37-.2.39-.16.02.05-.24.17.02.83.13-.07.06-.06.21-.23.11-.09.16-.11.06.04-.17.2-.22.67-.17.79.14-.05.1-.16.27-.31.01.06-.06.37-.23.52-.29.25-.4.56-.41.62-.03.23.04.54.06.84.14-.02.26-.4.3-.38.04.03-.03.38-.29.61-.13.36-.09.56-.06.57.04.02.19-.37.27-.3-.39.92-.14,1.25-.05,1.54.08-.29.13-.51.23-.84.2.16.24.4.48.61.01-.38.25-1.29.43-1.5,0,0,.29.83.42,1.2.17.48.18,1.08-.04,1.55.47-.63.55-1.83.16-2-.03-.09.03-.37.12-.33.02.14,0,.26.11.39.3-.08.18-.45.15-.57-.38-.48-.13-.58-.11-.56.04.11.07.24.19.29.26-.42.12-1.1-.34-1.61-.01-.19.21.15.36.14.05-.36-.07-.99-.73-1.03.13-.03.2-.06.23-.16-.2-.04-.83-.1-.72-.6.06.06.08.15.24.26.11.07.23.08.3-.02-.29-.11-.18-.46.2-.34.12.04.29-.08.3-.22-.09.08-.26.02-.36-.05-.42-.29-.7.11-.76.19-.02,0-.18-.41.43-.5.06-.14.2-.39.62-.35.15-.48.56-.23.54-.01.45-.31.01-.73-.16-.8ZM13.82,44.14c0,.07-.07.1-.26-.03.15.18-.03.32-.03.32.06,0,.16-.03.21-.06.01.06-.08.09-.12.11-.33.12-.53-.19-.82-.26h0c.19-.03.35-.16.52-.23.24-.09.5.11.5.14Z" fill="#fff" stroke-width="0"/>
                      </g>
                    </g>
                  </g>
                </g>
                <path d="M5.97,22.57h32.34v17.38c-.7,9.81-6.75,17.51-16.17,20.38-8.98-2.81-15.47-10.08-16.11-19.97l-.06-17.79Z" fill="none" stroke="#143256" stroke-miterlimit="10" stroke-width=".17"/>
              </g>
            </g>
            <g>
              <g>
                <path d="M5.88,19.52v-.12l.23-.07c.07-.02.12-.07.16-.16l1.05-2.74.32-.61h.1l1.29,3.34s.04.07.06.1c.03.03.06.05.09.06l.23.07v.12h-1.28v-.12l.46-.09-.95-2.45-.13-.36h0l-1.04,2.8.45.1v.12h-1.03ZM6.83,18.17l.08-.2h1.19l.08.2h-1.36Z" fill="#143256" stroke-width="0"/>
                <path d="M10.27,19.52v-.12l.33-.07s.07-.03.09-.06.04-.06.04-.1v-2.93s-.01-.08-.04-.1-.05-.05-.09-.05l-.33-.07v-.12h1.39v.12l-.33.07s-.07.03-.09.06-.04.06-.04.1v1.52l1.53-1.67-.38-.07v-.12h1.07v.12l-.27.07s-.09.04-.14.07c-.05.04-.1.07-.13.11l-1.06,1.13,1.28,1.72s.08.09.12.13c.04.04.09.07.12.08l.24.06v.12h-1.31v-.12l.4-.08-1.18-1.59-.3.3v1.14s.01.07.04.1c.02.03.05.05.09.05l.33.07v.12h-1.39Z" fill="#143256" stroke-width="0"/>
                <path d="M14.27,19.52v-.12l.23-.07c.07-.02.12-.07.16-.16l1.05-2.74.32-.61h.1l1.29,3.34s.04.07.06.1c.03.03.06.05.09.06l.23.07v.12h-1.28v-.12l.46-.09-.95-2.45-.13-.36h0l-1.04,2.8.45.1v.12h-1.03ZM15.22,18.17l.08-.2h1.19l.08.2h-1.36Z" fill="#143256" stroke-width="0"/>
                <path d="M18.67,19.52v-.12l.33-.07s.07-.03.09-.06.04-.06.04-.1v-2.93s-.01-.08-.04-.1-.05-.05-.09-.05l-.33-.07v-.12h1.5c.14,0,.29.02.46.05s.33.09.48.17c.16.08.3.19.44.33.13.14.24.31.31.52s.12.46.12.75c0,.41-.08.75-.25,1.02s-.38.46-.66.59c-.28.13-.58.19-.91.19h-1.49ZM19.6,16.08v3.24h.61c.42,0,.73-.13.94-.4s.31-.64.31-1.12c0-.35-.06-.66-.18-.92-.12-.26-.28-.46-.49-.59s-.46-.21-.74-.21h-.45Z" fill="#143256" stroke-width="0"/>
                <path d="M23.16,19.52v-.12l.33-.07s.07-.03.09-.06.04-.06.04-.1v-2.93s-.01-.08-.04-.1-.05-.05-.09-.05l-.33-.07v-.12h2.65v.85h-.15l-.19-.56s-.02-.05-.04-.07c-.02-.02-.04-.03-.07-.03h-1.27v1.44h.83s.06,0,.08-.02c.02-.02.03-.04.04-.06l.15-.43h.13v1.24h-.13l-.15-.43s-.02-.05-.04-.07c-.02-.02-.04-.02-.08-.02h-.83v1.59h1.5s.06,0,.07-.03c.02-.02.03-.04.04-.07l.18-.64h.15v.93h-2.86Z" fill="#143256" stroke-width="0"/>
                <path d="M27.18,19.52v-.12l.33-.09s.07-.03.09-.06.04-.06.04-.1v-2.92s-.01-.08-.04-.1-.05-.05-.09-.05l-.33-.07v-.12h1.08l.85,2.34.18.54,1.04-2.88h1.07v.12l-.33.07s-.06.03-.09.06-.04.06-.04.1v2.93s.01.07.04.1.05.05.09.05l.33.07v.12h-1.39v-.12l.33-.07s.06-.03.09-.06.04-.06.04-.1v-3.03l-.14.4-.86,2.37-.27.6h-.11l-1.08-2.97-.14-.41v3.02s.01.07.04.1c.02.03.05.05.09.05l.33.09v.12h-1.14Z" fill="#143256" stroke-width="0"/>
                <path d="M32.54,19.52v-.12l.33-.07s.07-.03.09-.06.04-.06.04-.1v-2.93s-.01-.08-.04-.1-.05-.05-.09-.05l-.33-.07v-.12h1.39v.12l-.33.07s-.07.03-.09.06-.04.06-.04.1v2.93s.01.07.04.1c.02.03.05.05.09.05l.33.07v.12h-1.39Z" fill="#143256" stroke-width="0"/>
                <path d="M33.23,15.76c-.06,0-.11-.01-.16-.04-.05-.03-.09-.07-.12-.11-.03-.05-.04-.1-.04-.16,0-.09.03-.16.09-.22.06-.06.14-.09.22-.09s.17.03.23.09c.06.06.09.14.09.22s-.03.17-.09.23c-.06.06-.14.09-.23.09Z" fill="#143256" stroke-width="0"/>
                <path d="M35.07,19.52v-.12l.33-.07s.07-.03.09-.06.04-.06.04-.1v-2.93s-.01-.08-.04-.1-.05-.05-.09-.05l-.33-.07v-.12h1.39v.12l-.33.07s-.07.03-.09.06-.04.06-.04.1v1.52l1.53-1.67-.38-.07v-.12h1.07v.12l-.27.07s-.09.04-.14.07c-.05.04-.1.07-.13.11l-1.06,1.13,1.28,1.72s.08.09.12.13c.04.04.09.07.12.08l.24.06v.12h-1.31v-.12l.4-.08-1.18-1.59-.3.3v1.14s.01.07.04.1c.02.03.05.05.09.05l.33.07v.12h-1.39Z" fill="#143256" stroke-width="0"/>
              </g>
              <g>
                <path d="M5.88,21.67v-.06l.13-.04s.03-.01.04-.02.01-.02.01-.04v-1.12s0-.03-.01-.04-.02-.02-.03-.02l-.13-.04v-.06h.66v.06l-.13.04s-.02.01-.04.02c0,.01-.01.03-.01.04v1.12s0,.03.01.04c0,.01.02.02.04.02l.13.04v.06h-.66Z" fill="#143256" stroke-width="0"/>
                <path d="M6.98,21.67v-.06l.13-.05s.03-.01.04-.02c0-.01.01-.02.01-.04v-1.11s0-.03-.01-.04c0-.01-.02-.02-.03-.02l-.14-.04v-.06h.46l.63.91.1.14v-.88s0-.03-.01-.04-.02-.02-.04-.02l-.13-.05v-.06h.51v.06l-.13.05s-.03.01-.04.02c0,.01-.01.02-.01.04v1.04l-.03.25h-.17l-.69-.99-.11-.16v.97s0,.03.01.04c0,.01.02.02.04.02l.13.05v.06h-.51Z" fill="#143256" stroke-width="0"/>
                <path d="M9.18,21.67v-.06l.15-.04s.03-.01.04-.02.01-.02.01-.04v-1.17h-.31s-.02,0-.03.01c0,0-.01.02-.01.03l-.09.23h-.07v-.38h1.32v.38h-.07l-.09-.23s0-.02-.01-.03c0,0-.02-.01-.03-.01h-.31v1.17s0,.03.01.04c.01.01.02.02.04.02l.15.04v.06h-.71Z" fill="#143256" stroke-width="0"/>
                <path d="M10.62,21.67v-.06l.13-.04s.03-.01.04-.02c0-.01.01-.02.01-.04v-1.12s0-.03-.01-.04c0-.01-.02-.02-.04-.02l-.13-.04v-.06h1.16v.38h-.07l-.09-.22s0-.02-.01-.03c0,0-.02-.01-.03-.01h-.48v.52h.3s.02,0,.03,0c0,0,.01-.01.01-.02l.07-.17h.07v.53h-.07l-.07-.17s0-.02-.01-.03c0,0-.02-.01-.03-.01h-.3v.58h.57s.02,0,.03-.01c0,0,.01-.02.01-.03l.08-.25h.07v.41h-1.25Z" fill="#143256" stroke-width="0"/>
                <path d="M12.3,21.67v-.06l.13-.04s.03-.01.04-.02c0-.01.01-.02.01-.04v-1.12s0-.03-.01-.04-.02-.02-.03-.02l-.13-.04v-.06h.63c.11,0,.21.01.28.03s.13.05.17.08c.04.03.07.07.09.12.02.04.02.09.02.13,0,.08-.02.14-.05.2s-.08.09-.13.12c-.05.03-.1.05-.15.07l-.16.11-.24-.07v-.1s.02,0,.04,0c.02,0,.04,0,.06,0,.02,0,.04,0,.05,0,.06,0,.1-.01.14-.04s.06-.07.08-.11c.02-.05.03-.09.03-.14,0-.1-.02-.18-.07-.22-.05-.05-.11-.07-.2-.07h-.12v1.17s0,.03.01.04c0,.01.02.02.03.02l.15.04v.06h-.68ZM13.78,21.67h-.34s-.08,0-.1-.01c-.02,0-.05-.02-.06-.04s-.04-.05-.06-.08l-.31-.49.26-.1.36.53s.03.03.05.05c.02.02.04.03.06.03l.14.04v.06Z" fill="#143256" stroke-width="0"/>
                <path d="M14.08,21.67v-.06l.13-.05s.03-.01.04-.02c0-.01.01-.02.01-.04v-1.11s0-.03-.01-.04c0-.01-.02-.02-.03-.02l-.14-.04v-.06h.46l.63.91.1.14v-.88s0-.03-.01-.04-.02-.02-.04-.02l-.13-.05v-.06h.51v.06l-.13.05s-.03.01-.04.02c0,.01-.01.02-.01.04v1.04l-.03.25h-.17l-.69-.99-.11-.16v.97s0,.03.01.04c0,.01.02.02.04.02l.13.05v.06h-.51Z" fill="#143256" stroke-width="0"/>
                <path d="M15.85,21.67v-.06l.1-.04s.05-.03.06-.06l.42-1.06.13-.24h.13l.51,1.31s.01.03.03.04c.01.01.02.02.04.02l.1.04v.06h-.63v-.06l.18-.05-.34-.86-.04-.14h0l-.38,1,.18.05v.06h-.46ZM16.26,21.17l.05-.12h.4l.05.12h-.5Z" fill="#143256" stroke-width="0"/>
                <path d="M17.86,21.67v-.06l.15-.04s.03-.01.04-.02.01-.02.01-.04v-1.17h-.31s-.02,0-.03.01c0,0-.01.02-.01.03l-.09.23h-.07v-.38h1.32v.38h-.07l-.09-.23s0-.02-.01-.03c0,0-.02-.01-.03-.01h-.31v1.17s0,.03.01.04c.01.01.02.02.04.02l.15.04v.06h-.71Z" fill="#143256" stroke-width="0"/>
                <path d="M19.29,21.67v-.06l.13-.04s.03-.01.04-.02.01-.02.01-.04v-1.12s0-.03-.01-.04-.02-.02-.03-.02l-.13-.04v-.06h.66v.06l-.13.04s-.02.01-.04.02c0,.01-.01.03-.01.04v1.12s0,.03.01.04c0,.01.02.02.04.02l.13.04v.06h-.66Z" fill="#143256" stroke-width="0"/>
                <path d="M21.1,21.71c-.15,0-.28-.03-.38-.1-.1-.06-.18-.15-.24-.27-.05-.11-.08-.24-.08-.39s.03-.27.08-.38c.06-.11.14-.2.24-.27.1-.07.23-.1.38-.1.16,0,.29.03.4.1s.18.16.23.27c.05.11.08.24.08.38,0,.09-.01.18-.04.27-.03.09-.07.17-.13.24-.06.07-.13.13-.22.18s-.2.07-.32.07ZM21.11,21.59c.08,0,.15-.03.21-.08s.09-.13.12-.22c.03-.09.04-.2.04-.31,0-.13-.01-.25-.04-.35-.03-.1-.07-.18-.13-.24-.06-.06-.13-.09-.23-.09s-.16.03-.21.09-.09.13-.12.22c-.02.09-.04.19-.04.3,0,.13.01.25.04.35.03.1.07.18.13.24s.13.09.23.09Z" fill="#143256" stroke-width="0"/>
                <path d="M22.24,21.67v-.06l.13-.05s.03-.01.04-.02c0-.01.01-.02.01-.04v-1.11s0-.03-.01-.04c0-.01-.02-.02-.03-.02l-.14-.04v-.06h.46l.63.91.1.14v-.88s0-.03-.01-.04-.02-.02-.04-.02l-.13-.05v-.06h.51v.06l-.13.05s-.03.01-.04.02c0,.01-.01.02-.01.04v1.04l-.03.25h-.17l-.69-.99-.11-.16v.97s0,.03.01.04c0,.01.02.02.04.02l.13.05v.06h-.51Z" fill="#143256" stroke-width="0"/>
                <path d="M24.01,21.67v-.06l.1-.04s.05-.03.06-.06l.42-1.06.13-.24h.13l.51,1.31s.01.03.03.04c.01.01.02.02.04.02l.1.04v.06h-.63v-.06l.18-.05-.34-.86-.04-.14h0l-.38,1,.18.05v.06h-.46ZM24.42,21.17l.05-.12h.4l.05.12h-.5Z" fill="#143256" stroke-width="0"/>
                <path d="M25.83,21.67v-.06l.13-.04s.03-.01.04-.02.01-.02.01-.04v-1.12s0-.03-.01-.04c0-.01-.02-.02-.04-.02l-.13-.04v-.06h.67v.06l-.14.04s-.03.01-.04.02c0,.01-.01.02-.01.04v1.17h.5s.02,0,.03-.02c0-.01.01-.03.01-.04l.09-.28h.07v.45h-1.19Z" fill="#143256" stroke-width="0"/>
                <path d="M28.35,21.62l-.02-.41h.07l.09.21s.01.02.02.03.02.02.03.02c.03.02.07.04.11.06.04.02.08.03.13.04.04,0,.07.01.1.01.08,0,.14-.02.19-.07s.07-.1.07-.17c0-.05-.02-.1-.05-.13-.03-.04-.08-.07-.14-.09-.05-.02-.11-.04-.16-.05-.05-.01-.1-.03-.16-.05-.09-.04-.15-.09-.2-.16-.05-.07-.07-.14-.07-.23s.02-.15.07-.22c.05-.06.11-.12.19-.15.08-.04.17-.06.26-.06.06,0,.11,0,.17,0,.05,0,.11.01.15.02.05.01.09.02.13.04v.38h-.07l-.08-.19s-.01-.02-.02-.03-.02-.02-.02-.02c-.02-.02-.05-.03-.09-.04-.03-.01-.07-.02-.1-.02s-.06,0-.08,0c-.07,0-.13.02-.17.06s-.06.09-.06.14c0,.06.01.1.04.14.03.04.08.07.15.1.05.02.1.03.15.05.05.01.1.03.16.06.05.02.09.04.13.08.04.03.08.08.1.13.03.05.04.11.04.18,0,.07-.02.15-.06.21-.04.07-.1.13-.19.17-.09.05-.2.07-.34.07-.06,0-.11,0-.17-.01-.05,0-.11-.02-.16-.03s-.1-.03-.15-.04Z" fill="#143256" stroke-width="0"/>
                <path d="M31.06,21.37h.05v.11s-.08.07-.14.1c-.06.03-.12.06-.19.09-.07.02-.14.04-.21.04-.14,0-.26-.03-.37-.09-.1-.06-.18-.15-.24-.26s-.09-.25-.09-.4.03-.28.09-.4c.06-.11.14-.2.25-.27.1-.06.22-.1.35-.1.05,0,.1,0,.16.01.06,0,.12.02.17.03s.1.03.14.04v.35h-.07l-.08-.18s-.01-.02-.02-.03-.02-.01-.03-.02c-.04-.02-.08-.04-.13-.05-.05-.01-.09-.02-.14-.02-.11,0-.2.05-.27.15-.07.1-.1.25-.1.44s.04.35.12.46.2.16.35.16c.06,0,.11,0,.15-.02.04-.01.08-.04.12-.06s.07-.06.11-.09Z" fill="#143256" stroke-width="0"/>
                <path d="M31.51,21.67v-.06l.13-.04s.03-.01.04-.02c0-.01.01-.02.01-.04v-1.12s0-.03-.01-.04c0-.01-.02-.02-.04-.02l-.13-.04v-.06h.66v.06l-.13.04s-.03.01-.04.02c0,.01-.01.02-.01.04v.47h.59v-.47s0-.03-.01-.04c0-.01-.02-.02-.04-.02l-.13-.04v-.06h.66v.06l-.13.04s-.03.01-.03.02c0,.01-.01.03-.01.04v1.12s0,.03.01.04c0,.01.02.02.03.02l.13.04v.06h-.66v-.06l.13-.04s.03-.01.04-.02c0-.01.01-.02.01-.04v-.53h-.59v.53s0,.03.01.04c0,.01.02.02.04.02l.13.04v.06h-.66Z" fill="#143256" stroke-width="0"/>
                <path d="M34.21,21.71c-.15,0-.28-.03-.38-.1-.1-.06-.18-.15-.24-.27-.05-.11-.08-.24-.08-.39s.03-.27.08-.38c.06-.11.14-.2.24-.27.1-.07.23-.1.38-.1.16,0,.29.03.4.1s.18.16.23.27c.05.11.08.24.08.38,0,.09-.01.18-.04.27-.03.09-.07.17-.13.24-.06.07-.13.13-.22.18s-.2.07-.32.07ZM34.22,21.59c.08,0,.15-.03.21-.08s.09-.13.12-.22c.03-.09.04-.2.04-.31,0-.13-.01-.25-.04-.35-.03-.1-.07-.18-.13-.24-.06-.06-.13-.09-.23-.09s-.16.03-.21.09-.09.13-.12.22c-.02.09-.04.19-.04.3,0,.13.01.25.04.35.03.1.07.18.13.24s.13.09.23.09Z" fill="#143256" stroke-width="0"/>
                <path d="M36.06,21.71c-.15,0-.28-.03-.38-.1-.1-.06-.18-.15-.24-.27-.05-.11-.08-.24-.08-.39s.03-.27.08-.38c.06-.11.14-.2.24-.27.1-.07.23-.1.38-.1.16,0,.29.03.4.1s.18.16.23.27c.05.11.08.24.08.38,0,.09-.01.18-.04.27-.03.09-.07.17-.13.24-.06.07-.13.13-.22.18s-.2.07-.32.07ZM36.08,21.59c.08,0,.15-.03.21-.08s.09-.13.12-.22c.03-.09.04-.2.04-.31,0-.13-.01-.25-.04-.35-.03-.1-.07-.18-.13-.24-.06-.06-.13-.09-.23-.09s-.16.03-.21.09-.09.13-.12.22c-.02.09-.04.19-.04.3,0,.13.01.25.04.35.03.1.07.18.13.24s.13.09.23.09Z" fill="#143256" stroke-width="0"/>
                <path d="M37.2,21.67v-.06l.13-.04s.03-.01.04-.02.01-.02.01-.04v-1.12s0-.03-.01-.04c0-.01-.02-.02-.04-.02l-.13-.04v-.06h.67v.06l-.14.04s-.03.01-.04.02c0,.01-.01.02-.01.04v1.17h.5s.02,0,.03-.02c0-.01.01-.03.01-.04l.09-.28h.07v.45h-1.19Z" fill="#143256" stroke-width="0"/>
              </g>
            </g>
          </g>
        </g>
      </g>
    </g>
    <g>
      <path d="M57.84,41.36h1.03v9.09h-1.03v-9.09Z" fill="#143256" stroke-width="0"/>
      <path d="M68.09,41.34v9.25h-.05l-6.23-6.92v6.79h-1.03v-9.24h.06l6.22,6.91v-6.79h1.03Z" fill="#143256" stroke-width="0"/>
      <path d="M75.63,42.38h-2.63v8.07h-1.03v-8.07h-2.64v-1.01h6.3v1.01Z" fill="#143256" stroke-width="0"/>
      <path d="M77.91,42.37v2.87h3.74v1.03h-3.74v3.16h4.31v1.02h-5.34v-9.09h5.34v1.01h-4.31Z" fill="#143256" stroke-width="0"/>
      <path d="M89.11,50.45l-2.54-3.55h-1.7v3.55h-1.03v-9.09s2.68,0,2.68,0c1.69,0,3.06,1.3,3.06,2.9,0,1.18-.81,2.19-1.91,2.53l2.7,3.66h-1.27ZM86.56,46.04c1.08,0,1.97-.82,1.97-1.8,0-1.05-.9-1.86-1.97-1.86h-1.69v3.66h1.69Z" fill="#143256" stroke-width="0"/>
      <path d="M98.74,41.34v9.25h-.05l-6.23-6.92v6.79h-1.03v-9.24h.06l6.22,6.91v-6.79h1.03Z" fill="#143256" stroke-width="0"/>
      <path d="M106.58,48.95h-4.96l-.67,1.49h-1.11l4.2-9.23h.11l4.21,9.23h-1.12l-.67-1.49ZM106.19,48.06l-2.08-4.67-2.09,4.67h4.17Z" fill="#143256" stroke-width="0"/>
      <path d="M113.97,42.38h-2.63v8.07h-1.03v-8.07h-2.64v-1.01h6.3v1.01Z" fill="#143256" stroke-width="0"/>
      <path d="M115.21,41.36h1.03v9.09h-1.03v-9.09Z" fill="#143256" stroke-width="0"/>
      <path d="M117.68,45.91c0-2.58,2.1-4.68,4.67-4.68s4.67,2.1,4.67,4.68-2.1,4.66-4.68,4.66-4.66-2.1-4.66-4.66ZM125.98,45.9c0-2-1.63-3.64-3.64-3.64s-3.62,1.64-3.62,3.64,1.63,3.62,3.62,3.62,3.64-1.63,3.64-3.62Z" fill="#143256" stroke-width="0"/>
      <path d="M135.76,41.34v9.25h-.05l-6.23-6.92v6.79h-1.03v-9.24h.06l6.22,6.91v-6.79h1.03Z" fill="#143256" stroke-width="0"/>
      <path d="M143.6,48.95h-4.96l-.67,1.49h-1.11l4.2-9.23h.11l4.21,9.23h-1.12l-.67-1.49ZM143.21,48.06l-2.08-4.67-2.09,4.67h4.17Z" fill="#143256" stroke-width="0"/>
      <path d="M151.96,49.43v1.02h-5.48v-9.09h1.03v8.07h4.45Z" fill="#143256" stroke-width="0"/>
    </g>
  </g>
</svg>