<svg width="168" height="252" viewBox="0 0 168 252" fill="none" xmlns="http://www.w3.org/2000/svg">
<path d="M82.8745 248.85C82.8745 248.85 80.4359 248.25 76.5342 246.862C32.5271 231.255 2.96386 189.236 2.96386 142.302V50.4238H164.173V53.3877V142.302C164.173 189.236 134.61 231.255 90.603 246.862C86.7012 248.25 84.3377 248.85 84.2251 248.85L83.5123 249.038L82.7995 248.85H82.8745Z" fill="white"/>
<path d="M161.247 53.3491V142.264C161.247 187.884 132.659 228.777 89.665 244.047C85.8758 245.397 83.5873 245.96 83.5873 245.96C83.5873 245.96 81.3363 245.397 77.5471 244.047C34.5154 228.815 5.89013 187.922 5.89013 142.301V53.3866H161.172M161.247 47.459H0V53.3491V142.264C0 190.435 30.351 233.58 75.5587 249.599C79.573 251.025 82.0491 251.663 82.1617 251.663L83.5498 252L84.9754 251.663C84.9754 251.663 87.6016 251.025 91.6534 249.562C136.824 233.542 167.175 190.398 167.175 142.226V47.459H161.247Z" fill="white"/>
<path d="M106.623 45.1316C106.285 45.1316 105.685 45.019 105.385 44.9065C102.458 43.8185 99.1568 42.9931 95.3677 42.4304C91.6535 41.9052 87.8268 41.605 83.6999 41.605H82.3869C76.5718 41.6801 71.3194 42.3178 66.2922 43.5559C64.5289 43.9686 63.2158 44.3813 62.0528 44.869C61.7151 45.019 61.0773 45.1316 60.7022 45.1316C59.5767 45.1316 58.076 44.4563 57.5883 42.618C57.2882 41.53 56.913 40.442 56.5378 39.354C56.2002 38.3411 56.4253 37.2531 57.1006 36.4277C57.6633 35.7899 58.4887 35.4148 59.3141 35.4148C59.5016 35.4148 59.6892 35.4148 59.9143 35.4898C59.9143 35.4898 61.3024 35.7899 61.6776 35.8274C62.1653 35.9025 62.6155 35.94 63.1032 35.94C63.3283 35.94 63.591 35.94 63.8161 35.94C64.0036 35.94 64.2287 35.9025 64.5664 35.2647C65.0916 34.3643 65.4293 33.2388 65.6544 31.8507C65.7294 31.438 65.9545 29.6747 65.9545 29.6747C65.992 28.2491 67.08 27.3111 68.0555 27.011C68.3556 26.8985 68.7308 26.8609 69.0309 26.8609C70.0814 26.8609 71.2444 27.5738 71.7696 28.4742C72.595 29.5621 73.4579 30.7627 74.4333 31.7006C74.771 32.0007 75.1461 32.3384 75.4087 32.4134C75.4087 32.4134 75.4463 32.4134 75.4838 32.4134C75.5588 32.4134 75.7089 32.3759 75.8965 32.1883C76.6093 31.5505 77.2471 30.6876 77.9224 29.262C78.9728 27.1611 79.6857 24.9101 80.436 22.1713C80.6986 20.333 82.2368 19.4326 83.5874 19.4326C84.863 19.4326 86.4387 20.2205 86.7763 22.3589C87.3766 24.6099 88.1644 27.3487 89.4775 29.8248C90.1528 31.0628 90.7156 31.8131 91.3534 32.3009L93.3793 34.852L91.8786 32.3009C92.6289 31.8507 93.3042 31.1378 93.867 30.3875C94.2046 29.9748 94.5798 29.5246 94.9174 29.0744L95.5552 28.2491C96.3056 27.011 97.6187 26.8609 98.1064 26.8609C98.3315 26.8609 98.6316 26.8609 98.8567 26.936C99.8697 27.1986 101.07 28.0615 101.258 29.7872C101.37 30.9878 101.52 32.3009 101.896 33.4639C102.083 34.1392 102.346 34.7395 102.646 35.3022C102.909 35.7524 103.096 35.9025 103.734 35.9025C104.672 35.9025 105.647 35.7899 106.81 35.4898C107.035 35.4523 107.486 35.3772 107.711 35.3772C108.724 35.3772 109.662 35.865 110.224 36.6528C110.787 37.4407 110.862 38.7162 110.562 39.6166C110.224 40.5545 109.924 41.53 109.662 42.5429C109.286 44.0436 108.048 45.019 106.585 45.019L106.623 45.1316Z" fill="white"/>
<path d="M61.8276 53.9864C60.1769 53.9864 58.7888 52.9359 58.4136 51.3227C57.9634 49.3718 59.0889 47.6085 61.1148 47.0833C62.9907 46.6331 64.8665 46.2954 66.4422 46.0328C68.6182 45.6952 70.7191 45.395 72.7075 45.245C74.6208 45.0574 76.5342 44.9448 78.4851 44.8323C79.9482 44.7572 81.3739 44.7197 82.837 44.7197H84.2627C87.264 44.7197 90.4529 44.8698 94.092 45.2074C98.4815 45.6201 102.346 46.2204 105.91 47.0458C106.172 47.1208 107.148 47.3084 107.898 48.1713C108.874 49.2968 109.061 50.835 108.386 52.1105C107.786 53.236 106.623 53.9488 105.31 53.9488C105.122 53.9488 104.747 53.9488 104.559 53.8738L102.383 53.4236C100.17 52.9734 97.7687 52.6358 94.8424 52.3731C91.3908 52.0355 87.7892 51.8854 83.85 51.8854C82.3493 51.8854 80.8861 51.8854 79.3855 51.9605C75.1836 52.073 71.3194 52.4107 67.5302 53.0109C65.917 53.2735 64.3037 53.5737 62.6905 53.9113C62.4654 53.9488 62.0152 54.0239 61.7901 54.0239L61.8276 53.9864Z" fill="white"/>
<path d="M61.9777 52.1468C60.6271 52.1468 59.0514 51.2464 58.8263 49.2205C58.6012 47.2322 58.2636 45.4689 57.8509 43.8556C57.4007 42.0548 58.3386 40.4041 60.1019 39.8413C63.6285 38.7909 67.2676 37.9655 71.0193 37.4403C75.3712 36.8025 79.6856 36.4648 83.7374 36.4648H85.2381C88.8772 36.5399 92.6289 36.8775 96.7182 37.4778C100.057 37.9655 103.434 38.7534 106.81 39.7663C108.836 40.3291 109.774 41.9048 109.286 43.8181C108.874 45.6189 108.574 47.3447 108.348 49.183C108.123 51.1714 106.548 52.0718 105.235 52.0718C105.009 52.0718 104.559 51.9968 104.334 51.9593C100.808 51.0589 96.9808 50.4586 92.2913 50.0834C89.4775 49.8583 86.7388 49.7833 83.6999 49.7833H82.4619C79.7607 49.7833 76.7968 49.9334 73.6454 50.196C69.6686 50.5711 66.1421 51.1339 62.9156 51.9593C62.6905 52.0343 62.2403 52.0718 61.9777 52.0718V52.1468Z" fill="white"/>
<path d="M103.434 41.0433C101.858 40.9683 99.682 40.3305 98.2189 37.7043C97.6561 36.6914 97.281 35.6409 97.0184 34.6655C96.9058 34.778 96.8308 34.8531 96.7182 34.9656C96.0429 35.6034 95.4051 36.1286 94.7298 36.5038C93.7169 37.0665 92.6664 37.3667 91.6159 37.3667C90.5655 37.3667 88.9522 37.0665 87.4516 35.5659C86.0259 34.1778 85.1631 32.527 84.4502 30.9888C84.1876 30.3886 83.925 29.7883 83.6624 29.188C83.2497 30.2385 82.7995 31.2515 82.2368 32.3019C81.674 33.3524 81.1113 34.2153 80.4359 34.9656C78.7102 36.954 76.8719 37.4042 75.6338 37.4042C74.2082 37.4042 72.82 36.879 71.507 35.8285C71.0568 35.4908 70.6816 35.1157 70.3064 34.7405C70.2314 35.0406 70.1188 35.3783 70.0063 35.7159C69.5936 36.8415 69.1434 37.7043 68.5807 38.4922C67.4927 39.9929 65.9545 40.8557 64.0786 41.0433C63.7035 41.0433 63.3283 41.0808 62.9907 41.0808C61.9777 41.0808 60.9648 40.9683 59.9893 40.8182L59.0139 40.7057C58.4886 40.6306 56.9129 40.293 56.2752 38.4172C55.5248 36.5788 54.6995 34.8531 53.7615 33.2398C53.2363 32.3019 52.7486 31.5141 52.2609 30.7637C51.0603 30.6137 49.9723 30.0509 49.1845 29.1505C48.1715 28.025 47.7213 26.4118 47.9089 24.686C47.9089 24.3859 47.984 24.0482 48.059 23.7481C47.8714 23.598 47.6838 23.3729 47.5713 23.1854C47.046 22.36 46.9335 21.347 47.3087 20.4466C47.5338 19.8839 47.5713 19.3962 47.4587 18.7959C47.2336 17.5578 47.7964 16.2823 48.9219 15.6445C49.3721 15.3819 49.8598 15.2693 50.3475 15.2693C51.0603 15.2693 51.8107 15.5319 52.3359 16.0572C52.8236 16.5074 53.2738 16.7325 53.7991 16.845C54.7745 16.9951 55.5999 17.6329 55.975 18.5333C56.0501 18.7209 56.1251 18.946 56.1626 19.1335C57.9259 19.7338 59.2765 21.1219 59.8392 22.8102C60.2144 23.9732 60.1769 25.2488 59.7642 26.4118C60.3645 27.1996 61.0023 27.9875 61.7151 28.6253C61.7151 28.6253 61.7151 28.6253 61.7526 28.6628H61.7901C62.5029 27.8749 62.8781 26.937 62.9531 25.5864C62.9907 24.8361 62.9531 24.0107 62.728 23.1478C61.9027 22.7727 61.1899 22.2099 60.6646 21.4971C59.7642 20.259 59.4641 18.7209 59.8392 17.1076C59.8768 16.845 59.9518 16.6199 60.0268 16.3948C59.8768 16.2448 59.7642 16.0572 59.6517 15.8321C59.1639 14.9692 59.164 13.9562 59.6142 13.0933C59.8768 12.5681 59.9893 12.0804 59.9143 11.4801C59.7642 10.2046 60.477 9.00402 61.6401 8.47879C62.0152 8.2912 62.4279 8.21617 62.8406 8.21617C63.666 8.21617 64.4538 8.55382 65.0166 9.1916C65.4668 9.67932 65.8795 9.94194 66.4047 10.092C67.3426 10.3546 68.1305 11.0299 68.4306 11.9678C68.5056 12.1554 68.5431 12.3805 68.5807 12.6056C69.8937 13.1309 70.9817 14.1063 71.582 15.3444C72.2573 16.7325 72.3323 18.3832 71.6945 19.8088C71.582 20.0339 71.4694 20.259 71.3569 20.4841C72.2573 22.0223 73.1952 23.1854 74.3207 24.0482C74.5833 24.2733 74.7709 24.3109 74.8084 24.3484C74.8084 24.3484 74.996 24.2358 75.2586 23.9732C76.1215 23.1478 76.7218 22.0223 77.247 20.2966C77.5847 19.2086 77.8098 18.008 77.8848 16.7325C77.0594 15.9446 76.4592 14.9692 76.1966 13.8437C75.7839 12.1179 76.159 10.3171 77.2095 8.89147C77.5847 8.40375 77.9974 7.95355 78.41 7.6159C78.335 7.3908 78.26 7.12818 78.26 6.90308C78.1849 5.92765 78.5601 4.98973 79.3104 4.35194C80.0608 3.71416 80.5485 3.03886 80.8486 2.06342C81.2238 0.862885 82.3493 0.0375168 83.6249 0C84.9004 0 86.0259 0.787852 86.4011 1.98839C86.7388 3.00134 87.2265 3.71416 87.9393 4.27691C88.7272 4.87718 89.1398 5.85261 89.0648 6.82805C89.0648 7.12818 88.9898 7.3908 88.8772 7.65342C89.7401 8.40375 90.678 9.49174 91.0532 11.0299C91.5784 13.1309 90.9406 15.2693 89.44 16.695C89.59 18.9084 90.0027 20.6342 90.7531 22.1724C91.2783 23.2229 91.8035 23.8982 92.4788 24.3109C93.3042 23.8607 93.9795 23.2229 94.7673 22.2099C95.18 21.6847 95.5552 21.1219 95.9304 20.4466C95.3676 19.4712 95.105 18.3082 95.2175 17.1452C95.4051 15.3068 96.5306 13.7311 98.1814 12.8682C98.1814 12.7932 98.1814 12.7182 98.2189 12.6807C98.444 11.7427 99.1193 10.9549 100.02 10.6172C100.582 10.3921 100.958 10.092 101.333 9.60429C101.896 8.81644 102.796 8.36624 103.734 8.36624C104.034 8.36624 104.334 8.40375 104.634 8.5163C105.835 8.89147 106.66 10.017 106.698 11.2925C106.698 11.9678 106.848 12.4556 107.148 12.9058C107.673 13.7311 107.786 14.7441 107.41 15.6445C107.373 15.7946 107.298 15.9071 107.223 16.0572C107.41 16.4699 107.523 16.9201 107.598 17.3703C107.936 19.4337 107.26 20.8593 106.66 21.6472C106.247 22.2099 105.572 22.8477 104.522 23.2604C104.147 24.7986 104.184 26.1492 104.634 27.4247C104.897 28.1751 105.235 28.5878 105.497 28.7753C106.172 28.2501 106.773 27.5373 107.373 26.7494C107.41 26.6744 107.486 26.5994 107.523 26.5619C107.035 25.2488 107.073 23.8607 107.636 22.4725C108.311 20.8593 109.586 19.7338 111.237 19.2086C111.65 18.3457 112.4 17.6329 113.338 17.4453C113.938 17.3327 114.389 17.1076 114.801 16.695C115.364 16.1697 116.077 15.9071 116.827 15.9071C117.315 15.9071 117.803 16.0197 118.253 16.2823C119.378 16.8825 119.979 18.1581 119.754 19.3962C119.641 20.0715 119.678 20.5592 119.866 21.0469C120.241 21.9473 120.129 22.9978 119.603 23.7856C119.528 23.8982 119.453 24.0107 119.341 24.1233C119.491 24.7986 119.491 25.5489 119.453 26.2617C119.228 28.7003 117.39 30.5762 115.026 30.8388C113.301 33.4274 111.988 35.9786 110.975 38.5672C110.299 40.2555 108.911 40.6306 108.348 40.7057H108.048C106.81 40.9308 105.497 41.1184 104.109 41.1184C103.846 41.1184 103.621 41.1184 103.359 41.1184L103.434 41.0433Z" fill="white"/>
</svg>
