<?xml version="1.0" encoding="UTF-8"?><svg id="katman_2" xmlns="http://www.w3.org/2000/svg" viewBox="0 0 42.95 47.3"><defs><style>.cls-1{fill:#fff;fill-rule:evenodd;}</style></defs><g id="katman_1"><path class="cls-1" d="M7.44,38.45C7.38,28.55,25.29,4.4,38.64,0c-1.79,9.39-13.36,26.68-23.37,36-1.95,1.82-6.52,4.91-9.41,5.62-.55,.13-3.84,4.28-4.25,4.49,5.81,.1,14.7-4.93,19.31-6.17,2.99-.8,4.58-.37,2.69,2.86-.07,.14-.14,.28-.2,.41,.13-.02,.25-.05,.38-.07,1.59-.07,8.97-1.57,9.25-.07,.16,.86,.31,1.48,1.27,1.77,3.73,1.11,4.76,.69,8.66,.76,0,.01,0,.02,0,.03-3.95,.11-5.04,.72-8.87-.26-.61-.16-1.23-.51-1.62-1-.06-.1-.12-.2-.18-.3-.19-.61,.04-.59-.6-.74-3.31-.41-4.43,.41-7.71,.97-.44,.07-2.6,.93-2.43-.39,.05-.4,.42-.7,.59-1.05,1.69-2.47,.45-2.43-1.14-1.96-6.12,1.8-14.05,6.06-20.26,5.89-.36,0-1,.79-.63,.4,2.7-3.39,4.06-5.55,4.85-6.19,1.01-.82,4.66-1.85,8.42-5.01,8-6.72,12.86-15.09,17.87-22.79-1.04,.66-2.7,1.51-3.7,1.69,.81-.35,3.44-2.05,4.44-2.84,2.29-3.62,4.24-7.24,5.75-10.75C25.08,8.28,9.18,28.12,7.44,38.45m1.3-.4c3.79-6.1,10.37-15.93,23.84-30.64-5.29,3.71-22.28,25.4-23.84,30.64Z"/></g></svg>