<svg width="176" height="41" viewBox="0 0 176 41" fill="none" xmlns="http://www.w3.org/2000/svg">
<path opacity="0.5" d="M13.3554 22.0876C10.5638 22.0876 10.9655 16.1731 10.9655 13.3815C10.9655 11.8552 11.8492 10.4092 13.1144 9.41504H1.88784C0.843505 9.41504 0 10.2585 0 11.3029L0.0100453 30.6331H21.8908V14.948C20.2641 17.9806 15.6349 22.0876 13.3554 22.0876Z" fill="white"/>
<path opacity="0.5" d="M21.8611 11.0016C21.7406 10.2886 21.2285 9.71625 20.5557 9.50537C21.0879 9.92712 21.5297 10.4392 21.8611 11.0016Z" fill="white"/>
<path d="M13.3451 22.1881C10.5535 22.1881 10.9552 16.2736 10.9552 13.482C10.9552 10.6904 13.9175 8.19007 16.7091 8.19007C18.7576 8.19007 20.8864 9.40511 21.8805 11.1524C21.5491 5.40852 16.7894 0.849609 10.9552 0.849609C4.9101 0.849609 0.00976562 5.74994 0.00976562 11.795C0.00976562 17.8401 4.9101 22.7404 10.9552 22.7404C15.1526 22.7404 18.7877 20.3806 20.6253 16.9163C18.5366 19.5271 15.1827 22.1881 13.3451 22.1881Z" fill="white"/>
<path opacity="0.5" d="M13.3554 22.0876C10.5638 22.0876 10.9655 16.1731 10.9655 13.3815C10.9655 11.8552 11.8492 10.4092 13.1144 9.41504H1.88784C0.843505 9.41504 0 10.2585 0 11.3029L0.0100453 30.6331H21.8908V14.948C20.2641 17.9806 15.6349 22.0876 13.3554 22.0876Z" fill="white"/>
<path opacity="0.5" d="M21.8611 11.0016C21.7406 10.2886 21.2285 9.71625 20.5557 9.50537C21.0879 9.92712 21.5297 10.4392 21.8611 11.0016Z" fill="white"/>
<path opacity="0.5" d="M13.3554 22.0876C10.5638 22.0876 10.9655 16.1731 10.9655 13.3815C10.9655 11.8552 11.8492 10.4092 13.1144 9.41504H1.88784C0.843505 9.41504 0 10.2585 0 11.3029L0.0100453 30.6331H21.8908V14.948C20.2641 17.9806 15.6349 22.0876 13.3554 22.0876Z" fill="white"/>
<path opacity="0.5" d="M21.8611 11.0016C21.7406 10.2886 21.2285 9.71625 20.5557 9.50537C21.0879 9.92712 21.5297 10.4392 21.8611 11.0016Z" fill="white"/>
<path opacity="0.5" d="M13.3554 22.0876C10.5638 22.0876 10.9655 16.1731 10.9655 13.3815C10.9655 11.8552 11.8492 10.4092 13.1144 9.41504H1.88784C0.843505 9.41504 0 10.2585 0 11.3029L0.0100453 30.6331H21.8908V14.948C20.2641 17.9806 15.6349 22.0876 13.3554 22.0876Z" fill="white"/>
<path opacity="0.5" d="M21.8611 11.0016C21.7406 10.2886 21.2285 9.71625 20.5557 9.50537C21.0879 9.92712 21.5297 10.4392 21.8611 11.0016Z" fill="white"/>
<path opacity="0.5" d="M13.3554 22.0876C10.5638 22.0876 10.9655 16.1731 10.9655 13.3815C10.9655 11.8552 11.8492 10.4092 13.1144 9.41504H1.88784C0.843505 9.41504 0 10.2585 0 11.3029L0.0100453 30.6331H21.8908V14.948C20.2641 17.9806 15.6349 22.0876 13.3554 22.0876Z" fill="white"/>
<path opacity="0.5" d="M21.8611 11.0016C21.7406 10.2886 21.2285 9.71625 20.5557 9.50537C21.0879 9.92712 21.5297 10.4392 21.8611 11.0016Z" fill="white"/>
<path opacity="0.5" d="M13.3554 22.0876C10.5638 22.0876 10.9655 16.1731 10.9655 13.3815C10.9655 11.8552 11.8492 10.4092 13.1144 9.41504H1.88784C0.843505 9.41504 0 10.2585 0 11.3029L0.0100453 30.6331H21.8908V14.948C20.2641 17.9806 15.6349 22.0876 13.3554 22.0876Z" fill="white"/>
<path opacity="0.5" d="M21.8611 11.0016C21.7406 10.2886 21.2285 9.71625 20.5557 9.50537C21.0879 9.92712 21.5297 10.4392 21.8611 11.0016Z" fill="white"/>
<path opacity="0.5" d="M13.3554 22.0876C10.5638 22.0876 10.9655 16.1731 10.9655 13.3815C10.9655 11.8552 11.8492 10.4092 13.1144 9.41504H1.88784C0.843505 9.41504 0 10.2585 0 11.3029L0.0100453 30.6331H21.8908V14.948C20.2641 17.9806 15.6349 22.0876 13.3554 22.0876Z" fill="white"/>
<path opacity="0.5" d="M21.8611 11.0016C21.7406 10.2886 21.2285 9.71625 20.5557 9.50537C21.0879 9.92712 21.5297 10.4392 21.8611 11.0016Z" fill="white"/>
<path opacity="0.5" d="M13.3554 22.0876C10.5638 22.0876 10.9655 16.1731 10.9655 13.3815C10.9655 11.8552 11.8492 10.4092 13.1144 9.41504H1.88784C0.843505 9.41504 0 10.2585 0 11.3029L0.0100453 30.6331H21.8908V14.948C20.2641 17.9806 15.6349 22.0876 13.3554 22.0876Z" fill="white"/>
<path opacity="0.5" d="M21.8611 11.0016C21.7406 10.2886 21.2285 9.71625 20.5557 9.50537C21.0879 9.92712 21.5297 10.4392 21.8611 11.0016Z" fill="white"/>
<path d="M15.9265 12.4077C14.5809 12.4077 13.4863 13.5023 13.4863 14.8478C13.4863 16.1934 14.5809 17.288 15.9265 17.288C17.272 17.288 18.3666 16.1934 18.3666 14.8478C18.3666 13.5023 17.272 12.4077 15.9265 12.4077ZM16.5892 15.5708C15.9164 15.5708 15.3641 15.0286 15.3641 14.3458C15.3641 13.6629 15.9064 13.1207 16.5892 13.1207C17.262 13.1207 17.8143 13.6629 17.8143 14.3458C17.8143 15.0286 17.262 15.5708 16.5892 15.5708Z" fill="white"/>
<path d="M21.8908 12.7393H26.7008L21.208 16.1333C21.208 16.1333 22.0214 15.3702 21.8908 12.7393Z" fill="#E9692C"/>
<path d="M43.3905 24.9199C44.4951 26.0244 45.8307 26.5767 47.3871 26.5767C48.9436 26.5767 50.2791 26.0244 51.3837 24.9199L51.4038 24.8998L54.4063 27.9022L54.3862 27.9223C52.4582 29.8503 50.1285 30.8143 47.3871 30.8143C44.6458 30.8143 42.3161 29.8503 40.3881 27.9223C38.4601 25.9943 37.4961 23.6646 37.4961 20.9233C37.4961 18.1819 38.4601 15.8522 40.3881 13.9242C42.3161 11.9962 44.6458 11.0322 47.3871 11.0322C50.1285 11.0322 52.4582 11.9962 54.3862 13.9242C56.3142 15.8522 57.2782 18.1819 57.2782 20.9233C57.2782 21.3952 57.238 21.8672 57.1476 22.3391H55.8723H41.9144C42.1554 23.3132 42.6475 24.1667 43.3905 24.9199ZM51.3837 16.9267C50.2791 15.8221 48.9436 15.2698 47.3871 15.2698C45.8307 15.2698 44.4951 15.8221 43.3905 16.9267C43.019 17.2982 42.7178 17.6798 42.4868 18.1016H52.2875C52.0565 17.6899 51.7553 17.2982 51.3837 16.9267Z" fill="white"/>
<path d="M64.347 15.2699V20.9234C64.347 22.4799 64.8993 23.8154 66.0038 24.92C67.1084 26.0246 68.444 26.5769 70.0004 26.5769V30.8144C67.259 30.8144 64.9294 29.8504 63.0014 27.9224C61.0734 25.9944 60.1094 23.6648 60.1094 20.9234V5.37891H64.347V11.0324H70.0004V15.2699H64.347Z" fill="white"/>
<path d="M78.4756 11.0321H86.9507V15.2697H79.1082C77.602 15.2797 76.8789 15.581 76.9191 16.1533C76.9191 17.0069 78.4856 17.8203 81.6186 18.6035C83.9182 19.1759 85.5148 19.8888 86.4185 20.7424C87.3223 21.5959 87.7742 22.821 87.7742 24.4277C87.7742 26.5364 87.1616 28.123 85.9466 29.1975C84.7215 30.2719 82.9341 30.8142 80.5843 30.8142H72.8121L72.792 26.5766H80.4739C82.3316 26.5063 83.2956 26.0142 83.3659 25.1205C83.3659 24.3574 82.7634 23.8151 81.5584 23.5038C77.4815 22.4896 75.0012 21.4754 74.1275 20.4713C73.2539 19.4671 72.8121 18.242 72.8121 16.8161C72.8322 12.93 74.7099 11.002 78.4756 11.0321Z" fill="white"/>
<path d="M94.0208 5.46924V30.9048H89.7832V5.46924H94.0208Z" fill="white"/>
<path d="M98.9706 9.61628C98.3782 9.61628 97.8861 9.41544 97.4644 8.99369C97.0527 8.58198 96.8418 8.0799 96.8418 7.48744C96.8418 6.89499 97.0527 6.40294 97.4644 5.99124C97.8761 5.57953 98.3782 5.36865 98.9706 5.36865C99.5631 5.36865 100.055 5.57953 100.477 5.99124C100.889 6.40294 101.099 6.90503 101.099 7.48744C101.099 8.0799 100.889 8.58198 100.477 8.99369C100.055 9.41544 99.5631 9.61628 98.9706 9.61628ZM101.089 11.0322V30.8142H96.8518V11.0322H101.089Z" fill="white"/>
<path d="M108.159 30.9046H103.922V21.0136C103.922 18.2722 104.886 15.9426 106.814 14.0146C108.742 12.0866 111.072 11.1226 113.813 11.1226C116.554 11.1226 118.884 12.0866 120.812 14.0146C122.74 15.9426 123.704 18.2722 123.704 21.0136V30.9046H119.466V21.0136C119.466 19.4571 118.914 18.1216 117.81 17.017C116.705 15.9124 115.369 15.3601 113.813 15.3601C112.256 15.3601 110.921 15.9124 109.816 17.017C108.712 18.1216 108.159 19.4571 108.159 21.0136V30.9046Z" fill="white"/>
<path d="M142.07 29.1676C140.433 30.3325 138.555 30.9149 136.416 30.9149C133.675 30.9149 131.345 29.9509 129.417 28.0229C127.489 26.0949 126.525 23.7652 126.525 21.0239C126.525 18.2825 127.489 15.9528 129.417 14.0248C131.345 12.0968 133.675 11.1328 136.416 11.1328C139.158 11.1328 141.487 12.0968 143.415 14.0248C145.343 15.9528 146.307 18.2825 146.307 21.0239V30.9149C146.307 33.6563 145.343 35.9859 143.415 37.9139C141.487 39.8419 139.158 40.8059 136.416 40.8059V36.5684C137.973 36.5684 139.308 36.0161 140.413 34.9115C141.518 33.8069 142.07 32.4714 142.07 30.9149V29.1676ZM136.416 26.6673C137.973 26.6673 139.308 26.115 140.413 25.0104C141.518 23.9058 142.07 22.5703 142.07 21.0138C142.07 19.4574 141.518 18.1218 140.413 17.0172C139.308 15.9126 137.973 15.3604 136.416 15.3604C134.86 15.3604 133.524 15.9126 132.42 17.0172C131.315 18.1218 130.763 19.4574 130.763 21.0138C130.763 22.5703 131.315 23.9058 132.42 25.0104C133.524 26.115 134.86 26.6673 136.416 26.6673Z" fill="white"/>
<path d="M159.031 30.9046C156.289 30.9046 153.96 29.9406 152.032 28.0126C150.104 26.0846 149.14 23.755 149.14 21.0136C149.14 18.2722 150.104 15.9426 152.032 14.0146C153.96 12.0866 156.289 11.1226 159.031 11.1226C161.772 11.1226 164.102 12.0866 166.03 14.0146C167.958 15.9426 168.922 18.2722 168.922 21.0136C168.922 23.755 167.958 26.0846 166.03 28.0126C164.102 29.9406 161.772 30.9046 159.031 30.9046ZM163.027 25.0102C164.132 23.9056 164.684 22.5701 164.684 21.0136C164.684 19.4571 164.132 18.1216 163.027 17.017C161.923 15.9124 160.587 15.3601 159.031 15.3601C157.474 15.3601 156.139 15.9124 155.034 17.017C153.93 18.1216 153.377 19.4571 153.377 21.0136C153.377 22.5701 153.93 23.9056 155.034 25.0102C156.139 26.1148 157.474 26.6671 159.031 26.6671C160.587 26.6671 161.923 26.1148 163.027 25.0102Z" fill="white"/>
<path d="M173.872 30.9046C173.28 30.9046 172.788 30.6938 172.366 30.2821C171.954 29.8703 171.743 29.3683 171.743 28.7758C171.743 28.1833 171.954 27.6913 172.366 27.2696C172.777 26.8578 173.28 26.647 173.872 26.647C174.464 26.647 174.957 26.8578 175.378 27.2696C175.79 27.6813 176.001 28.1833 176.001 28.7758C176.001 29.3683 175.79 29.8603 175.378 30.2821C174.957 30.7038 174.454 30.9046 173.872 30.9046Z" fill="white"/>
<path d="M30.4365 5.37891V13.5729V14.3662V14.9185V30.8144H34.6741V5.37891H30.4365Z" fill="white"/>
</svg>
