<svg width="183" height="47" viewBox="0 0 183 47" fill="none" xmlns="http://www.w3.org/2000/svg">
<path fill-rule="evenodd" clip-rule="evenodd" d="M28.7778 31.5208L21.8021 22.3696V31.5208H18.5625V11.6814H21.8021V21.4947L28.6832 11.6814H32.4902L25.3254 21.8021L32.774 31.5208H28.7778Z" fill="white"/>
<path fill-rule="evenodd" clip-rule="evenodd" d="M60.3691 27.4299C61.3622 26.8151 62.1189 26.0111 62.6628 24.9707C63.2067 23.9303 63.4668 22.7952 63.4668 21.5656C63.4668 20.3124 63.2067 19.1773 62.6628 18.1842C62.1189 17.1674 61.3622 16.3634 60.3691 15.7959C59.3759 15.2047 58.2173 14.921 56.8694 14.921H54.623V28.3522H56.8694C58.1936 28.3285 59.3759 28.0211 60.3691 27.4299ZM62.1189 12.982C63.6323 13.8569 64.7673 15.0392 65.5949 16.5289C66.3989 18.0423 66.8246 19.6975 66.8246 21.542C66.8246 23.3864 66.4226 25.0889 65.5949 26.6023C64.791 28.1157 63.6323 29.3217 62.1189 30.1966C60.6056 31.0715 58.8557 31.5208 56.8221 31.5208H51.3125V11.6814H56.8221C58.8557 11.6814 60.6056 12.1307 62.1189 12.982Z" fill="white"/>
<path fill-rule="evenodd" clip-rule="evenodd" d="M71.365 14.8737V19.8867H77.3002V23.0553H71.365V28.3522H79.192V31.5208H68.0781V11.6814H79.192V14.8737H71.365Z" fill="white"/>
<path fill-rule="evenodd" clip-rule="evenodd" d="M99.362 31.639L96.8082 20.3596L91.535 31.8991H91.133L85.9544 20.5252L83.6371 31.639H80.2793L84.7248 11.5159H85.1505L91.3222 25.5618L97.5175 11.5159H97.9432L102.672 31.639H99.362Z" fill="white"/>
<path fill-rule="evenodd" clip-rule="evenodd" d="M119.438 31.5208L112.462 22.3696V31.5208H109.223V11.6814H112.462V21.4947L119.343 11.6814H123.15L115.986 21.8021L123.434 31.5208H119.438Z" fill="white"/>
<path fill-rule="evenodd" clip-rule="evenodd" d="M9.22212 11.5159H8.74919L0 31.5208H3.57061L5.10763 27.8083L6.38455 24.6397L9.0093 18.3497L11.6104 24.6397L12.911 27.8083L13.0056 28.0447L14.448 31.5208H18.0186L9.22212 11.5159Z" fill="white"/>
<path fill-rule="evenodd" clip-rule="evenodd" d="M41.9956 11.5159H41.5226L32.7734 31.5208H36.3204L37.8811 27.8083L39.158 24.6397L41.7827 18.3497L44.3838 24.616V24.6397L45.6608 27.8083H45.6844L45.779 28.0447L47.2214 31.5208H50.792L41.9956 11.5159Z" fill="white"/>
<path fill-rule="evenodd" clip-rule="evenodd" d="M107.402 12.4144V11.6814H104.139V15.5121L107.402 12.4144Z" fill="white"/>
<path fill-rule="evenodd" clip-rule="evenodd" d="M166.424 38.4255C166.258 40.4355 164.556 42.0198 162.499 42.0198C161.836 42.0198 161.222 41.8543 160.678 41.5705C159.141 44.2662 156.256 46.087 152.969 46.087C149.351 46.087 146.23 43.8879 144.858 40.7429C144.811 40.7429 144.764 40.7429 144.716 40.7429C144.267 40.7429 143.842 40.6719 143.44 40.5537C142.636 41.4523 141.453 42.0198 140.153 42.0198C140.058 42.0198 139.987 42.0198 139.893 42.0198C139.798 42.0198 139.727 42.0198 139.632 42.0198C138.758 42.0198 137.93 41.7597 137.22 41.3104C135.991 42.8238 134.099 43.7933 131.995 43.7933C128.282 43.7933 125.255 40.7665 125.255 37.054C125.255 34.8076 126.343 32.8213 128.022 31.5917C126.461 29.4871 124.002 26.1766 120.668 21.6365L126.816 13.3366C125.847 12.1779 125.279 10.6646 125.279 9.03297C125.279 5.29683 128.282 2.29372 132.018 2.29372C134.454 2.29372 136.582 3.57063 137.764 5.50964C138.332 5.24953 138.97 5.08399 139.656 5.08399C141.382 5.08399 142.872 6.07715 143.629 7.51959C143.842 7.4723 144.031 7.425 144.267 7.40136C145.024 3.19229 148.642 0 153.016 0C156.965 0 160.323 2.62476 161.482 6.24267C161.813 6.14809 162.168 6.1008 162.546 6.1008C163.657 6.1008 164.674 6.57372 165.407 7.33041C166.424 6.26631 167.843 5.60423 169.403 5.60423C172.312 5.60423 174.676 7.87427 174.96 10.7591C175.315 11.1848 175.622 11.705 175.812 12.2252C175.953 12.2252 176.095 12.2016 176.261 12.2016C179.973 12.2016 183 15.2283 183 18.9408C183 21.6838 181.368 24.0485 179.004 25.1126C180.044 25.9165 180.706 27.1934 180.706 28.6122C180.706 31.0478 178.767 33.0105 176.355 33.0578C176.024 36.4865 173.163 39.1585 169.663 39.1585C168.457 39.2295 167.37 38.9457 166.424 38.4255Z" fill="white"/>
<path fill-rule="evenodd" clip-rule="evenodd" d="M104.139 16.978V31.5206H107.402V13.6912L104.139 16.978Z" fill="white"/>
<path d="M148.76 36.8411C148.24 36.7229 147.767 36.5101 147.365 36.2263C146.963 35.9426 145.544 33.7434 145.071 33.1523C144.858 32.8922 144.645 32.5847 144.409 32.23C144.173 31.8754 143.936 31.4734 143.7 31.0477C143.463 30.6221 143.227 30.1965 142.99 29.7472C142.754 29.2979 142.541 28.8959 142.352 28.4939C142.115 27.95 141.95 27.5717 141.832 27.3589C141.713 27.1461 141.642 27.0278 141.595 27.0278C141.571 27.0278 141.548 27.0515 141.548 27.1224C141.548 27.5244 141.501 28.0446 141.382 28.6358C141.264 29.2269 141.122 29.7472 140.98 30.1728C140.602 31.1896 140.011 31.9936 139.254 32.5847C138.497 33.1759 137.646 33.4833 136.7 33.4833C135.613 33.4833 134.667 33.0813 133.91 32.301C133.153 31.5206 132.586 30.4093 132.255 28.9668C132.136 28.4702 132.066 27.8791 132.066 27.1933C132.066 26.5076 132.113 25.9401 132.207 25.4908C132.302 25.1361 132.42 24.7578 132.586 24.4031C132.751 24.0247 132.964 23.6937 133.224 23.3863C133.484 23.0789 133.768 22.8424 134.099 22.6532C134.43 22.4641 134.785 22.3931 135.187 22.3931C135.849 22.3931 136.417 22.6532 136.842 23.1498C137.268 23.6464 137.504 24.2375 137.504 24.9233C137.504 25.7746 137.079 26.5549 136.251 27.2643C135.707 27.7136 135.589 28.3993 135.896 29.2979C136.015 29.6526 136.18 29.9127 136.369 30.1255C136.558 30.3383 136.771 30.4329 137.008 30.4329C137.102 30.4329 137.15 30.4329 137.22 30.4093C138.119 30.2437 138.71 29.3215 138.994 27.6426C139.018 27.5007 139.041 27.1224 139.065 26.4603C139.089 25.8218 139.112 25.0888 139.136 24.2848C139.16 23.0789 139.207 22.0384 139.254 21.1635C139.301 20.2886 139.372 19.5082 139.443 18.8225C139.514 18.1604 139.609 17.5692 139.727 17.0727C139.845 16.5761 139.987 16.1268 140.153 15.7248C140.224 15.5829 140.271 15.4647 140.295 15.3465C140.318 15.2282 140.342 15.1809 140.318 15.1573C140.295 15.1336 140.129 15.1336 139.822 15.11C139.491 15.11 139.112 15.0864 138.663 15.0864H137.788C137.575 15.0864 137.386 15.0864 137.268 15.11C137.126 15.1336 137.031 15.1336 136.96 15.1573C136.889 15.1809 136.818 15.2046 136.724 15.2519C136.487 15.3701 136.275 15.5356 136.062 15.7484C135.849 15.9613 135.707 16.1977 135.589 16.4342C135.494 16.6234 135.447 16.7889 135.447 16.9544C135.423 17.12 135.423 17.4273 135.423 17.8766C135.423 18.1604 135.423 18.4205 135.4 18.7043C135.376 18.988 135.376 19.2008 135.352 19.3427C135.258 19.7447 135.045 20.0994 134.667 20.4068C134.288 20.7142 133.91 20.8797 133.532 20.8797C133.39 20.8797 133.177 20.8325 132.94 20.7379C132.704 20.6433 132.515 20.5487 132.373 20.4305C131.782 19.9102 131.498 19.0826 131.498 17.9476C131.498 16.8125 131.782 15.843 132.349 15.039C132.917 14.2351 133.721 13.6439 134.809 13.3129C134.95 13.2892 135.069 13.2419 135.163 13.2183C135.281 13.1946 135.4 13.171 135.565 13.1473C135.731 13.1237 135.92 13.1237 136.156 13.1237H137.055C137.433 13.1237 137.741 13.1237 137.977 13.1473C138.214 13.1473 138.45 13.171 138.663 13.171C138.876 13.171 139.089 13.1946 139.301 13.2419C139.514 13.2656 139.751 13.3129 140.011 13.3602C140.342 13.4074 140.697 13.4547 141.051 13.502C141.406 13.5493 141.69 13.573 141.879 13.573C142.139 13.573 142.328 13.573 142.399 13.5966C142.494 13.6203 142.565 13.6676 142.636 13.7622C142.848 14.0459 142.825 14.5425 142.541 15.2992C142.352 15.7721 142.21 16.245 142.115 16.7416C142.021 17.2382 141.95 17.853 141.879 18.5387C141.784 19.39 141.737 20.1231 141.737 20.7379C141.713 21.3763 141.737 21.6837 141.761 21.6837C141.784 21.6837 141.879 21.6128 142.021 21.4473C142.163 21.2817 142.304 21.0926 142.494 20.8797C142.683 20.6669 142.872 20.4305 143.038 20.1703C143.227 19.9102 143.392 19.6974 143.51 19.4846C143.747 19.1299 143.983 18.7752 144.196 18.3969C144.409 18.0185 144.622 17.6402 144.811 17.2855C145 16.9308 145.166 16.5997 145.308 16.2923C145.449 15.9849 145.544 15.7485 145.591 15.5356C145.662 15.2519 145.71 14.8026 145.733 14.1878C145.733 13.8567 145.757 13.5966 145.781 13.4311C145.804 13.2419 145.828 13.1237 145.875 13.0291C146.206 12.2961 146.655 11.9177 147.247 11.9177C147.625 11.9177 148.003 12.1069 148.334 12.5089C148.807 13.0528 148.949 13.7858 148.807 14.708C148.665 15.6302 148.192 16.647 147.436 17.8057C147.176 18.1604 146.868 18.586 146.49 19.0826C146.112 19.5792 145.71 20.0758 145.284 20.5723C144.858 21.0689 144.433 21.5655 144.031 22.0384C143.629 22.5114 143.227 22.9133 142.896 23.2444L142.636 23.5045L143.061 24.0247C143.298 24.3085 143.605 24.7578 143.96 25.3726C144.338 26.011 144.669 26.6258 145 27.217C145.497 28.1392 145.922 28.8486 146.277 29.3452C146.632 29.8417 147.98 31.9226 148.263 32.0645C148.5 32.1827 148.665 32.2537 148.76 32.2537C148.949 32.2537 149.209 32.0882 149.54 31.7335C150.202 31.0714 150.794 30.7167 151.314 30.7167C151.55 30.7167 151.834 30.8112 152.165 30.9768C153.016 31.4734 153.418 32.2773 153.324 33.3651C153.3 33.8143 153.158 34.24 152.922 34.6656C152.685 35.0913 152.425 35.4696 152.094 35.777C151.763 36.1081 151.408 36.3682 151.006 36.5573C150.604 36.7465 150.202 36.8411 149.8 36.8411C149.706 36.8411 149.564 36.8174 149.351 36.7938C149.138 36.7702 148.949 36.8648 148.76 36.8411Z" fill="#54B9EA"/>
<path d="M149.825 29.9837C149.683 29.9364 149.541 29.8182 149.352 29.629C149.162 29.4635 149.044 29.3216 148.973 29.2034C148.879 29.0379 148.784 28.8487 148.713 28.5886C148.619 28.3285 148.548 28.0447 148.477 27.7137C148.406 27.3826 148.358 27.0516 148.311 26.6969C148.264 26.3422 148.24 26.0111 148.24 25.7037C148.24 25.1599 148.619 23.1026 148.76 22.4169C148.902 21.7311 149.162 20.9035 149.493 19.934C149.635 19.5556 149.754 19.2719 149.895 19.059C150.037 18.8462 150.227 18.6571 150.463 18.4679C150.96 18.0895 151.432 17.924 151.882 18.0186C152.166 18.0659 152.426 18.1841 152.709 18.3733C152.993 18.5625 153.159 18.7753 153.253 19.0354C153.301 19.2009 153.348 19.3428 153.348 19.4611C153.348 19.5793 153.301 19.8867 153.23 20.4069L153.064 21.3764C152.993 21.7311 152.922 22.0149 152.851 22.2277C152.804 22.4168 152.709 22.7716 152.615 23.2681C152.497 23.7647 152.095 25.6564 151.976 26.1293C151.834 26.7914 151.693 27.3353 151.574 27.7373C151.456 28.1393 151.385 28.4703 151.291 28.7305C151.22 28.9906 151.125 29.1797 151.078 29.3216C151.007 29.4635 150.936 29.6054 150.841 29.7236C150.629 29.9837 150.345 30.0783 149.99 30.031C149.919 30.031 149.848 30.0074 149.825 29.9837ZM151.48 17.1673C151.149 16.9782 150.889 16.7181 150.723 16.387C150.605 16.1033 150.558 15.8195 150.581 15.5121C150.605 15.2047 150.699 14.9446 150.818 14.6844C150.96 14.4243 151.125 14.2115 151.362 14.0224C151.598 13.8332 151.834 13.715 152.142 13.6913C152.402 13.644 152.709 13.6677 153.017 13.7149C153.679 13.8332 154.105 14.2115 154.317 14.8736C154.365 15.0392 154.388 15.181 154.365 15.2993C154.341 15.4175 154.341 15.583 154.294 15.8195C154.175 16.4343 153.915 16.8599 153.466 17.12C153.017 17.3802 152.52 17.4511 151.905 17.3329C151.764 17.2856 151.622 17.2383 151.48 17.1673Z" fill="#E3051F"/>
<path d="M162.427 28.7068C161.788 28.3994 161.292 27.7846 160.937 26.8624C160.866 26.7205 160.795 26.6023 160.748 26.484C160.677 26.3658 160.653 26.3185 160.606 26.2949C160.559 26.2949 160.488 26.3658 160.37 26.5077C160.015 27.0752 159.518 27.5245 158.904 27.8082C158.265 28.092 157.65 28.2339 156.988 28.2339C156.586 28.2339 156.184 28.1393 155.782 27.9501C155.38 27.761 155.049 27.5008 154.813 27.1698C154.553 26.8624 154.34 26.555 154.198 26.2239C154.056 25.8929 153.961 25.4436 153.867 24.8997C153.796 24.5687 153.772 24.1667 153.796 23.7174C153.82 23.2681 153.867 22.8189 153.985 22.3932C154.009 22.204 154.08 21.9912 154.174 21.7784C154.269 21.5656 154.363 21.3291 154.458 21.0927C154.576 20.8562 154.695 20.6434 154.813 20.4305C154.931 20.2177 155.073 20.0285 155.191 19.8867C155.64 19.3664 156.137 18.9645 156.681 18.728C157.225 18.4915 157.84 18.3733 158.502 18.3733C158.88 18.3733 159.116 18.3733 159.258 18.397C159.377 18.4206 159.542 18.4679 159.755 18.5388C159.873 18.5861 159.968 18.6334 160.062 18.6571C160.157 18.6807 160.181 18.7043 160.181 18.6807C160.204 18.6807 160.204 18.6098 160.228 18.4915C160.251 18.3733 160.275 18.2078 160.299 18.0423C160.393 17.593 160.488 17.0728 160.606 16.5052C160.724 15.9377 160.843 15.4884 160.961 15.181C161.055 14.8973 161.174 14.6135 161.316 14.3297C161.434 14.046 161.599 13.7859 161.788 13.5731C161.978 13.3366 162.19 13.1474 162.451 13.0055C162.711 12.8637 162.994 12.7927 163.349 12.7927C163.704 12.7927 164.011 12.911 164.319 13.1238C164.626 13.3366 164.839 13.6204 164.91 13.975C165.004 14.2588 165.028 14.5662 164.981 14.8973C164.933 15.2283 164.839 15.7249 164.626 16.4343C164.484 16.8836 164.366 17.6639 164.224 18.728C164.082 19.7921 163.988 20.9744 163.893 22.2513C163.869 22.5587 163.869 22.9134 163.846 23.3154C163.846 23.7174 163.822 24.1194 163.822 24.5214C163.822 24.9234 163.822 25.2781 163.846 25.6091C163.869 25.9402 163.869 26.153 163.893 26.2949C163.917 26.3895 163.917 26.555 163.94 26.7441C163.964 26.9333 163.964 27.1225 163.988 27.288C164.011 27.5718 164.011 27.7373 164.011 27.8555C164.011 27.9738 163.964 28.0447 163.917 28.1393C163.822 28.3285 163.704 28.494 163.562 28.6359C163.42 28.7777 163.231 28.8487 162.994 28.8487C162.853 28.8487 162.663 28.8014 162.427 28.7068ZM158.289 24.4032C158.431 24.3322 158.596 24.1903 158.762 23.9539C158.951 23.7174 159.116 23.4573 159.282 23.1735C159.447 22.8898 159.589 22.6297 159.684 22.3459C159.779 22.0621 159.849 21.8966 159.849 21.7784C159.849 21.6838 159.755 21.5656 159.566 21.3764C159.377 21.1872 159.187 21.0453 158.998 20.9271C158.904 20.8562 158.762 20.8089 158.596 20.7852C158.431 20.7616 158.289 20.738 158.147 20.738C158.029 20.738 157.91 20.7616 157.816 20.7852C157.603 20.8562 157.461 21.069 157.343 21.4237C157.225 21.7784 157.154 22.1567 157.13 22.5824C157.106 23.008 157.13 23.3863 157.201 23.7647C157.272 24.1194 157.39 24.3559 157.579 24.4741C157.674 24.5214 157.769 24.545 157.863 24.545C157.958 24.545 158.1 24.4977 158.289 24.4032Z" fill="#FBD200"/>
<path d="M167.25 28.494C167.014 28.4467 166.801 28.3758 166.636 28.2812C166.47 28.1866 166.305 28.0684 166.139 27.9029C165.903 27.6428 165.761 27.359 165.713 27.0043C165.666 26.6733 165.713 26.3658 165.832 26.1057C166.163 25.5855 166.659 25.3254 167.345 25.3254C167.558 25.3254 167.771 25.349 167.983 25.3963C168.196 25.4673 168.433 25.4909 168.693 25.4909C169.142 25.4909 169.639 25.3254 170.206 24.9944C170.443 24.8525 170.703 24.6869 170.963 24.4741C171.223 24.2613 171.365 24.1431 171.412 24.0721C171.46 24.0012 171.436 23.9539 171.389 23.9539C171.365 23.9303 171.318 23.9303 171.199 23.9303C171.034 23.9303 170.774 23.9539 170.466 24.0012C170.135 24.0485 169.781 24.0958 169.379 24.1667C168.953 24.2377 168.598 24.285 168.338 24.3086C168.078 24.3323 167.842 24.3559 167.629 24.3559C167.487 24.3559 167.369 24.3559 167.25 24.3322C167.132 24.3086 167.038 24.3086 166.919 24.285C166.588 24.1904 166.305 24.0958 166.092 24.0012C165.879 23.9066 165.642 23.7174 165.43 23.481C165.217 23.2682 165.051 23.079 164.957 22.8898C164.862 22.7006 164.791 22.4642 164.744 22.2041C164.649 21.5656 164.768 20.8799 165.146 20.1705C165.524 19.4611 166.044 18.8936 166.754 18.4206C167.463 17.9477 168.22 17.593 169.024 17.4038C169.828 17.191 170.656 17.0964 171.507 17.0964C172.098 17.0964 172.642 17.2383 173.138 17.5457C173.635 17.8531 173.871 18.326 173.871 19.0118C173.871 19.5557 173.682 20.0286 173.28 20.4306C172.878 20.8326 172.405 21.0217 171.838 21.0217C171.696 21.0217 171.554 20.9981 171.436 20.9508C171.318 20.9035 171.105 20.8089 170.774 20.6198C170.419 20.4306 170.183 20.336 170.064 20.2887C169.946 20.2651 169.781 20.2414 169.544 20.2414C168.835 20.2414 168.196 20.4779 167.605 20.9272C167.44 21.069 167.298 21.2346 167.18 21.4237C167.061 21.6129 166.99 21.7784 166.99 21.9203C166.99 22.1331 167.109 22.275 167.369 22.2987C167.605 22.3223 167.818 22.3459 167.96 22.3459C168.102 22.3459 168.291 22.3459 168.504 22.3223C168.717 22.2987 168.953 22.275 169.213 22.2513C169.544 22.2041 169.875 22.1568 170.23 22.1331C170.585 22.1095 170.916 22.0858 171.247 22.0858C171.696 22.0858 172.098 22.1331 172.476 22.2041C172.855 22.275 173.162 22.5351 173.399 22.9371C173.493 23.1026 173.54 23.2209 173.54 23.3154C173.564 23.41 173.564 23.5756 173.564 23.7884C173.564 24.0248 173.54 24.1904 173.517 24.3086C173.493 24.4032 173.422 24.5687 173.304 24.8052C173.162 25.1126 172.902 25.4673 172.524 25.8456C172.145 26.224 171.767 26.6023 171.318 26.957C170.868 27.3117 170.419 27.6428 169.946 27.9029C169.473 28.163 169.048 28.3522 168.693 28.4467C168.48 28.5177 168.267 28.5413 168.007 28.5413C167.747 28.5413 167.511 28.565 167.25 28.494Z" fill="#4EAD33"/>
</svg>
