<svg width="486" height="733" viewBox="0 0 486 733" fill="none" xmlns="http://www.w3.org/2000/svg">
<path d="M240.928 723.442C240.928 723.442 233.839 721.697 222.496 717.662C94.5608 672.29 8.61646 550.136 8.61646 413.694V146.59H477.275V155.206V413.694C477.275 550.136 391.331 672.29 263.396 717.662C252.053 721.697 245.182 723.442 244.854 723.442L242.782 723.988L240.71 723.442H240.928Z" fill="white"/>
<path d="M468.767 155.094V413.582C468.767 546.206 385.659 665.089 260.669 709.479C249.653 713.405 243 715.041 243 715.041C243 715.041 236.456 713.405 225.44 709.479C100.341 665.198 17.1234 546.315 17.1234 413.691V155.203H468.549M468.767 137.971H0V155.094V413.582C0 553.623 88.2347 679.049 219.66 725.621C231.33 729.765 238.528 731.619 238.855 731.619L242.891 732.601L247.035 731.619C247.035 731.619 254.67 729.765 266.449 725.511C397.765 678.94 486 553.514 486 413.472V137.971H468.767Z" fill="white"/>
<path d="M309.967 131.203C308.985 131.203 307.24 130.875 306.368 130.548C297.861 127.385 288.263 124.986 277.247 123.35C266.45 121.823 255.325 120.95 243.327 120.95H239.51C222.605 121.169 207.336 123.023 192.721 126.622C187.594 127.822 183.777 129.021 180.396 130.439C179.415 130.875 177.56 131.203 176.47 131.203C173.198 131.203 168.835 129.239 167.417 123.895C166.545 120.732 165.454 117.569 164.363 114.406C163.382 111.462 164.036 108.299 165.999 105.899C167.635 104.045 170.035 102.954 172.434 102.954C172.98 102.954 173.525 102.954 174.179 103.173C174.179 103.173 178.215 104.045 179.305 104.154C180.723 104.372 182.032 104.481 183.45 104.481C184.104 104.481 184.868 104.481 185.522 104.481C186.068 104.481 186.722 104.372 187.704 102.518C189.23 99.9006 190.212 96.6286 190.866 92.5932C191.085 91.3934 191.739 86.2673 191.739 86.2673C191.848 82.1228 195.011 79.3961 197.847 78.5236C198.719 78.1964 199.81 78.0873 200.682 78.0873C203.736 78.0873 207.117 80.1596 208.644 82.7772C211.044 85.9401 213.552 89.4302 216.388 92.1569C217.37 93.0294 218.46 94.011 219.224 94.2292C219.224 94.2292 219.333 94.2292 219.442 94.2292C219.66 94.2292 220.096 94.1201 220.642 93.5748C222.714 91.7206 224.568 89.2121 226.531 85.0676C229.585 78.9599 231.657 72.4159 233.839 64.454C234.602 59.1098 239.074 56.4922 243 56.4922C246.708 56.4922 251.289 58.7826 252.271 64.9994C254.016 71.5434 256.306 79.5052 260.124 86.7036C262.087 90.3028 263.723 92.4841 265.577 93.902L271.467 101.318L267.104 93.902C269.285 92.5932 271.248 90.5209 272.884 88.3396C273.866 87.1399 274.957 85.8311 275.938 84.5223L277.792 82.1228C279.974 78.5236 283.791 78.0873 285.209 78.0873C285.863 78.0873 286.736 78.0873 287.39 78.3055C290.335 79.0689 293.825 81.5775 294.371 86.5945C294.698 90.0846 295.134 93.902 296.225 97.283C296.77 99.2462 297.533 100.991 298.406 102.627C299.169 103.936 299.715 104.372 301.569 104.372C304.296 104.372 307.131 104.045 310.512 103.173C311.167 103.064 312.476 102.845 313.13 102.845C316.075 102.845 318.801 104.263 320.437 106.554C322.073 108.844 322.292 112.552 321.419 115.17C320.437 117.897 319.565 120.732 318.801 123.677C317.711 128.04 314.112 130.875 309.858 130.875L309.967 131.203Z" fill="white"/>
<path d="M179.742 156.945C174.943 156.945 170.907 153.891 169.817 149.202C168.508 143.53 171.78 138.404 177.67 136.877C183.123 135.568 188.576 134.587 193.157 133.823C199.483 132.842 205.591 131.969 211.371 131.533C216.933 130.987 222.496 130.66 228.167 130.333C232.421 130.115 236.565 130.006 240.819 130.006H244.963C253.689 130.006 262.959 130.442 273.539 131.424C286.3 132.623 297.534 134.369 307.895 136.768C308.658 136.986 311.494 137.531 313.675 140.04C316.511 143.312 317.056 147.784 315.093 151.492C313.348 154.764 309.967 156.836 306.15 156.836C305.604 156.836 304.514 156.836 303.968 156.618L297.643 155.309C291.208 154 284.227 153.019 275.72 152.255C265.686 151.274 255.216 150.838 243.764 150.838C239.401 150.838 235.148 150.838 230.785 151.056C218.569 151.383 207.336 152.364 196.32 154.11C191.63 154.873 186.94 155.746 182.25 156.727C181.596 156.836 180.287 157.054 179.633 157.054L179.742 156.945Z" fill="white"/>
<path d="M180.178 151.598C176.252 151.598 171.671 148.98 171.016 143.09C170.362 137.31 169.38 132.184 168.181 127.494C166.872 122.259 169.599 117.46 174.725 115.824C184.977 112.77 195.556 110.37 206.463 108.844C219.115 106.989 231.657 106.008 243.437 106.008H247.799C258.379 106.226 269.285 107.208 281.174 108.953C290.88 110.37 300.696 112.661 310.512 115.606C316.402 117.242 319.129 121.822 317.711 127.385C316.511 132.62 315.638 137.637 314.984 142.981C314.33 148.762 309.749 151.379 305.932 151.379C305.277 151.379 303.968 151.161 303.314 151.052C293.062 148.435 281.937 146.69 268.304 145.599C260.124 144.945 252.162 144.726 243.327 144.726H239.728C231.875 144.726 223.259 145.163 214.098 145.926C202.537 147.017 192.284 148.653 182.905 151.052C182.25 151.27 180.941 151.379 180.178 151.379V151.598Z" fill="white"/>
<path d="M300.696 119.319C296.115 119.101 289.79 117.246 285.536 109.612C283.9 106.667 282.809 103.613 282.046 100.777C281.719 101.105 281.501 101.323 281.173 101.65C279.21 103.504 277.356 105.031 275.393 106.122C272.448 107.758 269.394 108.63 266.34 108.63C263.286 108.63 258.597 107.758 254.234 103.395C250.089 99.3595 247.581 94.5606 245.509 90.0889C244.745 88.3438 243.982 86.5987 243.218 84.8537C242.018 87.9075 240.71 90.8523 239.074 93.9062C237.438 96.9601 235.802 99.4686 233.839 101.65C228.821 107.43 223.477 108.739 219.878 108.739C215.733 108.739 211.698 107.212 207.881 104.158C206.572 103.177 205.481 102.086 204.391 100.996C204.172 101.868 203.845 102.85 203.518 103.831C202.318 107.103 201.01 109.612 199.374 111.902C196.211 116.265 191.739 118.773 186.286 119.319C185.195 119.319 184.104 119.428 183.123 119.428C180.178 119.428 177.233 119.101 174.397 118.664L171.562 118.337C170.035 118.119 165.454 117.137 163.6 111.684C161.418 106.34 159.019 101.323 156.292 96.6329C154.765 93.9062 153.347 91.6158 151.93 89.4345C148.439 88.9982 145.277 87.3622 142.986 84.7446C140.041 81.4726 138.733 76.7828 139.278 71.7657C139.278 70.8932 139.496 69.9116 139.714 69.039C139.169 68.6028 138.624 67.9484 138.296 67.4031C136.769 65.0036 136.442 62.0588 137.533 59.4412C138.187 57.8052 138.296 56.3873 137.969 54.6423C137.315 51.0431 138.951 47.3348 142.223 45.4807C143.532 44.7172 144.949 44.39 146.367 44.39C148.439 44.39 150.621 45.1535 152.148 46.6804C153.566 47.9892 154.874 48.6436 156.401 48.9708C159.237 49.4071 161.637 51.2612 162.727 53.8788C162.945 54.4241 163.163 55.0785 163.273 55.6239C168.399 57.3689 172.325 61.4044 173.961 66.3124C175.052 69.6934 174.943 73.4017 173.743 76.7828C175.488 79.0732 177.342 81.3636 179.414 83.2177C179.414 83.2177 179.414 83.2177 179.523 83.3268H179.632C181.705 81.0364 182.795 78.3097 183.014 74.3833C183.123 72.202 183.014 69.8025 182.359 67.294C179.96 66.2033 177.887 64.5673 176.361 62.4951C173.743 58.8959 172.87 54.4241 173.961 49.7343C174.07 48.9708 174.288 48.3164 174.506 47.662C174.07 47.2258 173.743 46.6804 173.416 46.026C171.998 43.5175 171.998 40.5727 173.307 38.0642C174.07 36.5373 174.397 35.1194 174.179 33.3743C173.743 29.6661 175.815 26.1759 179.196 24.649C180.287 24.1037 181.487 23.8855 182.686 23.8855C185.086 23.8855 187.376 24.8671 189.012 26.7213C190.321 28.1391 191.521 28.9026 193.048 29.3389C195.774 30.1023 198.065 32.0655 198.937 34.7922C199.155 35.3375 199.264 35.9919 199.374 36.6463C203.191 38.1732 206.354 41.009 208.099 44.6082C210.062 48.6436 210.28 53.4426 208.426 57.5871C208.099 58.2415 207.772 58.8959 207.444 59.5503C210.062 64.022 212.789 67.4031 216.061 69.9116C216.824 70.566 217.369 70.675 217.479 70.7841C217.479 70.7841 218.024 70.4569 218.787 69.6934C221.296 67.294 223.041 64.022 224.568 59.0049C225.549 55.842 226.204 52.3519 226.422 48.6436C224.023 46.3532 222.277 43.5175 221.514 40.2455C220.314 35.2285 221.405 29.9933 224.459 25.8487C225.549 24.4309 226.749 23.1221 227.949 22.1405C227.731 21.4861 227.513 20.7226 227.513 20.0682C227.295 17.2325 228.385 14.5058 230.567 12.6517C232.748 10.7976 234.166 8.83438 235.038 5.99865C236.129 2.50853 239.401 0.109066 243.109 0C246.817 0 250.089 2.29039 251.18 5.78052C252.162 8.72531 253.58 10.7976 255.652 12.4336C257.942 14.1786 259.142 17.0144 258.924 19.8501C258.924 20.7226 258.706 21.4861 258.378 22.2496C260.887 24.4309 263.614 27.5938 264.704 32.0655C266.231 38.1733 264.377 44.39 260.014 48.5346C260.451 54.9695 261.65 59.9865 263.832 64.4583C265.359 67.5121 266.886 69.4753 268.849 70.675C271.248 69.3662 273.212 67.5121 275.502 64.5673C276.702 63.0404 277.792 61.4044 278.883 59.4412C277.247 56.6055 276.483 53.2244 276.811 49.8434C277.356 44.4991 280.628 39.9183 285.427 37.4098C285.427 37.1917 285.427 36.9735 285.536 36.8645C286.19 34.1378 288.154 31.8474 290.771 30.8658C292.407 30.2114 293.498 29.3389 294.589 27.921C296.225 25.6306 298.842 24.3218 301.569 24.3218C302.441 24.3218 303.314 24.4309 304.186 24.7581C307.676 25.8487 310.076 29.1207 310.185 32.829C310.185 34.7922 310.621 36.2101 311.494 37.5189C313.021 39.9183 313.348 42.8631 312.257 45.4807C312.148 45.917 311.93 46.2442 311.712 46.6804C312.257 47.8802 312.584 49.189 312.803 50.4978C313.784 56.4964 311.821 60.6409 310.076 62.9313C308.876 64.5673 306.913 66.4215 303.859 67.6212C302.769 72.0929 302.878 76.0193 304.186 79.7276C304.95 81.9089 305.931 83.1086 306.695 83.654C308.658 82.127 310.403 80.0548 312.148 77.7644C312.257 77.5462 312.475 77.3281 312.584 77.219C311.167 73.4017 311.276 69.3662 312.912 65.3308C314.875 60.6409 318.583 57.3689 323.382 55.842C324.582 53.3335 326.763 51.2612 329.49 50.7159C331.235 50.3887 332.544 49.7343 333.743 48.5346C335.379 47.0076 337.452 46.2442 339.633 46.2442C341.051 46.2442 342.469 46.5714 343.778 47.3348C347.049 49.0799 348.795 52.7882 348.14 56.3873C347.813 58.3505 347.922 59.7684 348.467 61.1863C349.558 63.8039 349.231 66.8577 347.704 69.1481C347.486 69.4753 347.268 69.8025 346.94 70.1297C347.377 72.0929 347.377 74.2742 347.268 76.3465C346.613 83.4358 341.269 88.8891 334.398 89.6526C329.381 97.1782 325.563 104.595 322.619 112.12C320.655 117.028 316.62 118.119 314.984 118.337H314.111C310.512 118.991 306.695 119.537 302.659 119.537C301.896 119.537 301.242 119.537 300.478 119.537L300.696 119.319Z" fill="white"/>
</svg>
