<?xml version="1.0" encoding="UTF-8"?>
<svg id="katman_2" data-name="katman 2" xmlns="http://www.w3.org/2000/svg" xmlns:xlink="http://www.w3.org/1999/xlink" viewBox="0 0 234.39 72.13">
  <defs>
    <clipPath id="clippath">
      <path d="M25.87,43.68c-.86,0-1.56.7-1.56,1.56v18.4s.06-.02.1-.03c.22-.06.53-.16.92-.3,8.46-3,14.24-10.77,14.88-19.63h-14.34Z" fill="none" stroke-width="0"/>
    </clipPath>
    <clipPath id="clippath-1">
      <path d="M25.76,42.44h14.42c.02-.38.03-.75.03-1.13v-16.35h-16.01v15.92c0,.87.7,1.57,1.57,1.57Z" fill="none" stroke-width="0"/>
    </clipPath>
    <clipPath id="clippath-2">
      <path d="M21.82,43.49H7.36c.64,8.94,6.47,16.78,15.02,19.81.46.16.81.27,1.03.33v-18.57c0-.87-.71-1.58-1.58-1.58Z" fill="none" stroke-width="0"/>
    </clipPath>
  </defs>
  <g id="katman_2-2" data-name="katman 2">
    <g>
      <path d="M169.3,53.7c-.46-.31-.92-.69-1.22-1.14l.61-.53c.31.38.61.76,1.07.99.38.23.84.38,1.22.38.53,0,.99-.15,1.37-.46.38-.31.53-.76.53-1.22,0-.38-.08-.69-.31-.99-.23-.31-.46-.53-.69-.69-.31-.15-.69-.38-1.14-.61s-.84-.38-1.3-.69c-.31-.23-.53-.46-.76-.76-.23-.38-.31-.76-.31-1.22s.08-.84.31-1.22c.23-.38.53-.61.92-.84s.84-.31,1.3-.31c.99,0,1.91.53,2.52,1.3l-.53.61c-.23-.31-.53-.53-.92-.76-.31-.23-.69-.31-1.07-.31-.46,0-.92.15-1.3.46-.31.31-.53.69-.53,1.14,0,.31.08.61.31.84.15.23.38.46.69.61.38.23.69.38,1.07.53.53.23.99.53,1.37.69.38.23.61.53.84.84.23.38.38.84.38,1.37,0,.92-.46,1.75-1.3,2.14-.46.23-.99.38-1.45.31-.61.08-1.14-.15-1.68-.46h0Z" fill="#fff" stroke-width="0"/>
      <path d="M178.38,53.55c-.69-.46-1.3-1.07-1.68-1.75-.84-1.53-.84-3.36,0-4.88.38-.76.99-1.37,1.68-1.75,1.45-.84,3.2-.92,4.65-.15v.92c-.31-.15-.61-.31-.99-.46-.38-.08-.76-.15-1.22-.15-.76,0-1.45.15-2.06.53s-1.07.92-1.45,1.53c-.31.61-.53,1.3-.53,2.06,0,.69.15,1.45.53,2.06.31.61.84,1.14,1.45,1.53.61.38,1.37.61,2.06.53.38,0,.76-.08,1.22-.15.38-.08.69-.23.99-.46v.92c-.69.31-1.45.46-2.14.46-.84-.08-1.75-.31-2.52-.76h0Z" fill="#fff" stroke-width="0"/>
      <polygon points="192.41 44.54 192.41 54.08 191.64 54.08 191.64 49.66 186.23 49.66 186.23 54.08 185.39 54.08 185.39 44.54 186.23 44.54 186.23 48.89 191.64 48.89 191.64 44.54 192.41 44.54" fill="#fff" stroke-width="0"/>
      <path d="M201.8,52.86c.61-.38,1.14-.92,1.45-1.53.69-1.3.69-2.82,0-4.04-1.14-1.98-3.66-2.67-5.57-1.53h-.08c-.61.38-1.14.92-1.45,1.53-.31.61-.53,1.3-.53,2.06,0,.69.15,1.45.53,2.06,1.14,1.91,3.66,2.59,5.65,1.45h0ZM197.14,53.55c-.76-.46-1.3-1.07-1.75-1.75-.84-1.53-.84-3.36,0-4.88.38-.76.99-1.37,1.75-1.75,1.6-.92,3.51-.92,5.04,0,.76.46,1.3,1.07,1.75,1.75.84,1.53.84,3.36,0,4.88-.38.76-.99,1.37-1.75,1.75-1.53.92-3.43.92-5.04,0Z" fill="#fff" stroke-width="0"/>
      <path d="M213.95,52.86c.61-.38,1.14-.92,1.45-1.53.69-1.3.69-2.82,0-4.04-1.14-1.98-3.66-2.67-5.57-1.53h-.08c-.61.38-1.14.92-1.45,1.53-.38.61-.53,1.3-.53,2.06,0,.69.15,1.45.53,2.06,1.14,1.91,3.59,2.59,5.65,1.45-.08,0,0,0,0,0h0ZM209.3,53.55c-.76-.46-1.3-1.07-1.75-1.75-.84-1.53-.84-3.36,0-4.88.38-.76.99-1.37,1.75-1.75,1.6-.92,3.51-.92,5.04,0,.76.46,1.3,1.07,1.75,1.75.84,1.53.84,3.36,0,4.88-.38.76-.99,1.37-1.75,1.75-1.53.92-3.43.92-5.04,0Z" fill="#fff" stroke-width="0"/>
      <polygon points="223.65 53.24 223.65 54.08 219.07 54.08 219.07 44.54 219.91 44.54 219.91 53.24 223.65 53.24" fill="#fff" stroke-width="0"/>
    </g>
    <g>
      <polygon points="78.01 39.56 72 31.7 72 39.56 69.13 39.56 69.13 22.54 72 22.54 72 30.95 77.95 22.54 81.29 22.54 75.08 31.22 81.5 39.56 78.01 39.56" fill="#fff" stroke-width="0"/>
      <path d="M105.35,36.07c.82-.55,1.5-1.23,1.98-2.12.48-.89.68-1.91.68-2.94s-.21-1.98-.68-2.87c-.48-.82-1.16-1.57-1.98-2.05-.89-.55-1.98-.75-3.01-.75h-1.91v11.48h1.91c1.09.07,2.12-.21,3.01-.75h0ZM106.86,23.7c1.23.75,2.26,1.78,3.01,3.08.68,1.3,1.09,2.8,1.03,4.31,0,1.5-.34,3.01-1.03,4.31-.68,1.3-1.71,2.32-3.01,3.08-1.37.75-2.94,1.16-4.51,1.09h-4.72v-17.02h4.72c1.57,0,3.14.34,4.51,1.16Z" fill="#fff" stroke-width="0"/>
      <polygon points="114.78 25.27 114.78 29.58 119.84 29.58 119.84 32.31 114.78 32.31 114.78 36.82 121.48 36.82 121.48 39.56 111.98 39.56 111.98 22.54 121.48 22.54 121.48 25.27 114.78 25.27" fill="#fff" stroke-width="0"/>
      <polygon points="138.84 39.56 136.66 29.85 132.14 39.76 131.8 39.76 127.36 29.99 125.38 39.56 122.51 39.56 126.27 22.27 126.68 22.27 131.94 34.36 137.27 22.27 137.68 22.27 141.71 39.56 138.84 39.56" fill="#fff" stroke-width="0"/>
      <polygon points="156.27 39.56 150.26 31.7 150.26 39.56 147.39 39.56 147.39 22.54 150.26 22.54 150.26 30.95 156.2 22.54 159.55 22.54 153.26 31.22 159.76 39.56 156.27 39.56" fill="#fff" stroke-width="0"/>
      <polygon points="61.27 22.34 60.86 22.34 53.27 39.56 56.35 39.56 57.72 36.35 57.72 36.35 58.81 33.61 61.06 28.21 63.32 33.61 64.41 36.35 64.55 36.55 65.78 39.56 68.86 39.56 61.27 22.34" fill="#fff" stroke-width="0"/>
      <polygon points="89.5 22.34 89.09 22.34 81.5 39.56 84.58 39.56 85.94 36.35 87.1 33.61 89.29 28.21 91.55 33.61 91.55 33.61 92.71 36.35 92.78 36.55 94.01 39.56 97.08 39.56 89.5 22.34" fill="#fff" stroke-width="0"/>
      <g>
        <polygon points="145.81 23.22 145.81 22.54 142.94 22.54 142.94 25.89 145.81 23.22" fill="#fff" stroke-width="0"/>
        <polygon points="142.94 27.12 142.94 39.56 145.81 39.56 145.81 24.32 142.94 27.12" fill="#fff" stroke-width="0"/>
      </g>
      <polygon points="234.39 22.54 234.39 23.84 232.96 25.27 232.96 22.54 234.39 22.54" fill="#fff" stroke-width="0"/>
      <polygon points="234.39 25 234.39 39.56 232.96 39.56 232.96 26.44 234.39 25" fill="#fff" stroke-width="0"/>
      <polygon points="174.86 39.56 167.34 31.63 167.34 39.56 165.84 39.56 165.84 22.47 167.34 22.47 167.34 31.02 174.86 22.47 176.64 22.47 168.85 31.29 176.84 39.56 174.86 39.56" fill="#fff" stroke-width="0"/>
      <path d="M190.65,37.37c1.09-.68,1.98-1.57,2.6-2.73,1.23-2.26,1.23-5.06,0-7.31-1.98-3.55-6.56-4.78-10.05-2.8,0,0-.07,0-.07.07-1.09.62-1.98,1.57-2.6,2.67-.62,1.09-.96,2.39-.96,3.69s.34,2.53.96,3.69c.62,1.16,1.5,2.12,2.67,2.73,2.26,1.37,5.13,1.37,7.45,0h0ZM182.31,38.6c-1.3-.75-2.39-1.91-3.14-3.21-.75-1.37-1.09-2.87-1.09-4.44s.41-3.08,1.16-4.44c.75-1.37,1.78-2.46,3.14-3.21,2.87-1.57,6.29-1.57,9.16,0,1.3.75,2.39,1.91,3.14,3.21.75,1.37,1.09,2.87,1.09,4.37s-.34,3.08-1.09,4.44-1.85,2.46-3.14,3.21c-2.94,1.64-6.36,1.64-9.23.07h0Z" fill="#fff" stroke-width="0"/>
      <polygon points="207.8 38.12 207.8 39.56 199.53 39.56 199.53 22.47 200.97 22.47 200.97 38.12 207.8 38.12" fill="#fff" stroke-width="0"/>
      <polygon points="211.84 23.84 211.84 30.06 217.85 30.06 217.85 31.49 211.84 31.49 211.84 38.12 219.42 38.12 219.42 39.56 210.4 39.56 210.4 22.47 219.42 22.47 219.42 23.84 211.84 23.84" fill="#fff" stroke-width="0"/>
      <path d="M222.77,39.35c-.62-.27-1.23-.75-1.71-1.23l.96-1.09c.34.41.82.75,1.3.96s.96.34,1.44.34c.75.07,1.5-.21,2.05-.82.48-.62.75-1.44.68-2.26v-12.78h1.44v12.99c.07,1.16-.34,2.26-1.09,3.14-.82.82-1.91,1.3-3.08,1.23-.68,0-1.37-.21-1.98-.48h0Z" fill="#fff" stroke-width="0"/>
    </g>
    <g>
      <g>
        <path d="M23.72,71.21s-.7-.17-1.81-.57C9.31,66.17.85,54.15.85,40.72V14.43h0s46.13,0,46.13,0v.85s0,25.45,0,25.45c0,13.43-8.46,25.45-21.05,29.92-1.11.4-1.79.56-1.82.57l-.2.05-.2-.05Z" fill="#fff" stroke-width="0"/>
        <path d="M46.14,15.27s0,0,0,0v25.45c0,13.06-8.18,24.76-20.49,29.12-1.08.39-1.74.55-1.74.55,0,0-.65-.16-1.73-.55C9.88,65.48,1.69,53.78,1.69,40.72V15.27s0,0,0,0h44.44M46.14,13.58H0s0,0,0,0v1.69s0,25.45,0,25.45c0,13.79,8.69,26.13,21.62,30.71,1.15.41,1.86.59,1.89.59l.4.1.4-.1s.75-.19,1.91-.6c12.92-4.58,21.61-16.92,21.61-30.71V13.58h-1.7Z" fill="#fff" stroke-width="0"/>
      </g>
      <g>
        <g>
          <path d="M30.51,12.92c-.1,0-.26-.03-.36-.07-.84-.32-1.78-.55-2.87-.7-1.06-.16-2.15-.23-3.34-.23h-.37c-1.67.02-3.17.2-4.6.55-.5.12-.88.24-1.21.37-.1.04-.27.08-.38.08-.32,0-.75-.19-.89-.72-.08-.31-.19-.62-.3-.94-.1-.29-.04-.6.16-.83.16-.19.4-.29.64-.29.06,0,.11,0,.17.02,0,0,.4.08.5.1.13.02.27.04.41.04.07,0,.13,0,.2-.01.06,0,.12-.01.22-.19.15-.26.25-.58.31-.97.02-.12.08-.63.08-.63.01-.41.32-.67.6-.76.09-.03.19-.05.28-.05.3,0,.63.2.78.46.23.32.48.65.77.92.09.08.2.18.28.21,0,0,.01,0,.02,0,.03,0,.06-.01.12-.07.21-.18.38-.43.58-.84.3-.6.5-1.24.72-2.03.08-.53.51-.79.9-.79.36,0,.81.22.91.83.17.64.4,1.43.77,2.14.19.36.35.57.54.71l.58.73-.43-.73c.22-.13.4-.34.57-.54.1-.12.2-.25.3-.38l.18-.23c.22-.35.59-.4.74-.4.07,0,.15,0,.21.03.29.07.63.33.69.82.04.34.08.72.18,1.05.06.19.13.37.21.53.07.13.13.17.31.17.27,0,.55-.04.88-.12.07-.02.19-.03.26-.03.29,0,.56.14.72.37.16.22.19.59.09.85-.09.27-.19.55-.26.84-.1.43-.46.71-.88.71Z" fill="#fff" stroke-width="0"/>
          <path d="M17.7,15.45c-.48,0-.87-.31-.97-.76-.13-.56.2-1.07.77-1.21.54-.13,1.07-.22,1.53-.3.62-.1,1.22-.18,1.8-.23.55-.05,1.1-.09,1.65-.12.41-.02.83-.03,1.24-.03h.41c.86,0,1.78.05,2.81.14,1.26.12,2.36.29,3.38.52.08.02.35.08.57.32.28.32.34.76.14,1.13-.17.33-.51.53-.88.53h0c-.06,0-.16,0-.22-.02l-.62-.13c-.63-.12-1.32-.22-2.16-.3-.99-.1-2.02-.14-3.15-.14-.42,0-.85,0-1.27.02-1.2.03-2.31.13-3.39.3-.47.07-.93.16-1.39.26-.06.01-.19.03-.25.03Z" fill="#fff" stroke-width="0"/>
          <path d="M17.73,14.92c-.39,0-.83-.26-.9-.84-.07-.57-.16-1.07-.27-1.54-.13-.52.14-.99.64-1.15,1.01-.3,2.05-.53,3.12-.69,1.25-.18,2.47-.28,3.64-.28h.43c1.04.02,2.12.12,3.28.29.95.14,1.92.36,2.88.65.59.17.85.62.71,1.16-.12.51-.2,1.01-.27,1.54-.07.57-.51.83-.9.83h0c-.07,0-.19-.02-.26-.03-1.01-.26-2.11-.43-3.45-.53-.8-.06-1.58-.09-2.46-.09h-.35c-.77,0-1.62.04-2.52.12-1.14.1-2.14.27-3.07.5-.07.02-.19.04-.26.04Z" fill="#fff" stroke-width="0"/>
          <path d="M29.6,11.74c-.45-.02-1.07-.21-1.49-.95-.16-.29-.27-.59-.35-.87-.03.03-.05.05-.08.08-.19.18-.38.33-.57.44-.29.17-.59.25-.89.25s-.76-.09-1.19-.51c-.41-.4-.65-.87-.86-1.31-.08-.17-.15-.34-.22-.52-.12.3-.25.59-.41.89-.16.3-.33.54-.51.76-.49.57-1.02.7-1.37.7-.41,0-.81-.15-1.18-.45-.12-.1-.24-.2-.35-.31-.03.09-.06.18-.09.27-.12.32-.25.57-.41.79-.31.43-.75.68-1.29.73-.11,0-.21.01-.31.01-.29,0-.58-.04-.86-.07l-.27-.03c-.15-.02-.6-.11-.78-.65-.21-.52-.45-1.02-.72-1.48-.15-.27-.29-.5-.43-.71-.34-.04-.65-.2-.88-.46-.29-.33-.42-.78-.36-1.28.01-.09.03-.18.05-.27-.05-.05-.1-.1-.14-.17-.15-.23-.18-.53-.08-.78.06-.16.08-.3.05-.47-.07-.36.1-.72.42-.9.13-.07.27-.11.41-.11.21,0,.41.08.57.22.14.13.26.2.42.22.28.05.51.23.63.49.03.06.04.12.06.18.51.18.89.56,1.05,1.05.11.34.1.7-.02,1.03.17.23.35.45.55.63,0,0,.01,0,.02.01h.01c.2-.22.31-.5.33-.88.01-.22,0-.45-.07-.7-.24-.1-.44-.26-.59-.47-.26-.35-.34-.8-.24-1.26.02-.07.03-.14.06-.21-.04-.05-.08-.1-.11-.16-.13-.24-.14-.54-.01-.79.08-.15.1-.29.08-.47-.04-.36.16-.71.49-.86.11-.05.23-.08.35-.08.23,0,.46.1.62.27.13.14.25.22.4.26.27.07.49.27.58.54.02.06.03.12.04.18.38.15.68.43.86.78.2.4.21.87.03,1.28-.03.07-.06.13-.1.19.25.44.53.77.85,1.02.08.06.12.08.14.08,0,0,.05-.03.13-.11.24-.23.42-.55.57-1.05.1-.31.16-.65.18-1.02-.24-.22-.41-.51-.48-.83-.12-.49-.01-1.01.29-1.42.1-.14.22-.26.34-.37-.02-.07-.04-.14-.05-.21-.02-.28.09-.55.3-.73.22-.18.35-.38.44-.65.11-.35.43-.59.8-.59h0c.36,0,.68.23.8.57.1.29.23.49.44.65.22.17.34.45.32.73,0,.08-.02.16-.05.24.25.22.51.52.62.97.15.6-.04,1.21-.46,1.62.04.63.16,1.12.38,1.56.15.3.3.49.49.61.24-.13.43-.31.66-.6.12-.15.23-.31.34-.5-.16-.28-.24-.61-.2-.94.06-.52.37-.97.85-1.22,0-.02,0-.04.01-.06.06-.27.25-.49.51-.59.16-.06.27-.15.37-.29.16-.22.42-.35.68-.35.08,0,.17.01.26.04.35.11.58.43.59.79,0,.19.04.33.12.46.16.23.18.53.08.79-.02.04-.04.08-.06.11.05.12.09.25.11.38.1.59-.09.99-.27,1.23-.12.16-.31.34-.61.46-.1.44-.09.83.03,1.19.08.22.17.33.25.39.2-.16.36-.36.54-.59.01-.02.03-.04.04-.06-.14-.37-.13-.78.04-1.17.19-.46.55-.78,1.03-.94.11-.25.34-.45.61-.5.17-.03.3-.09.42-.21.16-.15.37-.23.58-.23.14,0,.28.03.4.1.32.17.49.53.43.89-.03.19-.02.33.04.47.11.26.08.55-.08.79-.02.03-.05.06-.07.09.04.2.05.4.03.61-.07.69-.59,1.23-1.26,1.31-.49.74-.87,1.47-1.16,2.21-.2.49-.59.59-.75.61h-.09c-.36.06-.73.12-1.13.12-.07,0-.14,0-.21,0Z" fill="#fff" stroke-width="0"/>
        </g>
        <g>
          <path d="M30.78,11c-.35.08-.71.14-1.08.14-.47,0-.82-.2-1.05-.62-.12-.22-.21-.45-.28-.69-.11-.39-.16-.79-.2-1.19,0-.04,0-.09-.05-.1-.04,0-.06.04-.08.07-.16.21-.32.42-.49.63-.23.28-.48.54-.79.73-.36.22-.75.2-1.09-.05-.35-.26-.58-.61-.78-.99-.4-.74-.64-1.54-.85-2.36-.02-.06-.01-.17-.09-.17-.08,0-.07.1-.08.17-.2.75-.43,1.48-.78,2.18-.2.41-.44.8-.79,1.1-.28.24-.6.35-.97.22-.22-.08-.4-.22-.57-.38-.35-.33-.63-.71-.92-1.1-.02-.03-.03-.07-.07-.06-.03.01-.03.05-.03.08-.03.21-.05.43-.09.64-.07.44-.19.87-.41,1.26-.19.34-.46.57-.86.62-.29.03-.57.01-.85-.03-.17-.03-.34-.07-.52-.1.12.34.23.66.32,1,.02.09.05.11.14.08.43-.17.87-.3,1.32-.41,1.57-.38,3.17-.55,4.79-.58,1.29-.02,2.57.05,3.85.24,1.04.15,2.05.38,3.04.75.06.02.1.03.12-.05.08-.31.18-.62.28-.92.03-.09.02-.1-.07-.08Z" fill="#143256" stroke-width="0"/>
          <path d="M30.15,14.29c-1.08-.25-2.17-.4-3.27-.5-.96-.09-1.92-.15-2.89-.14-.48,0-.96,0-1.45.03-.54.03-1.08.07-1.62.12-.58.05-1.16.13-1.74.22-.49.08-.98.17-1.46.28-.13.03-.17.1-.15.2.02.09.1.12.22.1.48-.11.96-.19,1.44-.27,1.16-.18,2.32-.27,3.49-.31,1.51-.04,3.02-.02,4.53.13.75.07,1.5.17,2.24.32.21.04.42.09.63.13.07.02.14-.01.17-.08.03-.06.02-.12-.03-.17-.03-.04-.08-.05-.13-.06Z" fill="#143256" stroke-width="0"/>
          <path d="M30.34,12.2c-.91-.27-1.83-.49-2.77-.63-1.05-.16-2.11-.26-3.17-.28-1.32-.03-2.63.07-3.94.26-1.01.15-2.01.37-2.99.66-.08.02-.1.05-.08.13.14.54.23,1.09.29,1.64.01.09.04.1.12.08,1.05-.27,2.12-.43,3.21-.53.99-.09,1.98-.14,2.87-.12.93,0,1.77.03,2.6.09,1.21.09,2.41.25,3.59.55.08.02.1,0,.11-.07.06-.53.15-1.07.27-1.59.04-.18.06-.15-.12-.2ZM18.57,12.91c-.03.1-.12.18-.2.26,0,0-.01,0-.03,0-.07-.05-.18-.09-.2-.16-.03-.08.09-.13.14-.2.02-.04.05-.06.09-.03.01,0,.03.01.04.02.05.04.18.05.16.11ZM20.5,12.7c-.15.11-.3.23-.45.35-.04.03-.07.04-.12.01-.17-.11-.33-.22-.51-.34.18-.14.36-.27.53-.4.04-.03.06-.02.1,0,.15.09.29.19.44.28.06.03.07.06,0,.1ZM22.15,12.46c-.09.07-.18.14-.27.2-.05.03-.08-.03-.12-.05-.2-.14-.2-.13-.01-.29.09-.08.15-.09.24,0,.05.05.12.07.17.13,0,0,0,.01,0,.01ZM23.84,13.08c-.26-.41-.67-.58-1.12-.73.45-.15.86-.32,1.12-.73.32.35.71.59,1.19.73-.48.15-.88.38-1.19.73ZM26.15,12.57c-.05.04-.11.07-.16.11-.06-.04-.11-.08-.16-.12q-.14-.11,0-.2t.33.01,0,.2ZM27.92,13.07s-.06.01-.09-.01c-.16-.13-.31-.25-.47-.37-.05-.04-.04-.06,0-.09.16-.09.32-.19.47-.29.03-.02.06-.03.09,0,.17.14.35.27.54.42-.19.12-.37.23-.54.34ZM29.63,13.09c-.09.07-.14.07-.21-.02-.15-.2-.16-.2.08-.29.01,0,.03-.01.04-.02.06.02.08.07.12.11.1.12.1.12-.03.22Z" fill="#dc001e" stroke-width="0"/>
          <path d="M33.53,6.32c-.13-.31-.15-.61-.09-.95-.25.23-.52.37-.85.43.09.14.13.29.14.43-.15-.01-.29-.02-.44,0-.32.05-.58.19-.71.5-.13.3-.07.59.15.84.04.05.03.07,0,.11-.12.16-.22.32-.34.47-.23.29-.46.58-.76.79-.3.21-.58.21-.89,0-.3-.21-.49-.5-.6-.84-.25-.72-.17-1.43.08-2.13.02-.06.06-.06.1-.06.48-.05.71-.35.63-.82-.04-.26-.19-.45-.38-.62-.03-.03-.06-.06-.1-.09.13-.12.28-.21.48-.25-.18-.28-.26-.58-.27-.91-.2.27-.44.46-.75.58.14.15.2.31.24.49-.22,0-.43.01-.63.1-.53.23-.61.9-.14,1.24.06.05.07.08.04.14-.19.38-.39.74-.66,1.08-.25.31-.52.6-.86.8-.31.18-.62.18-.92-.02-.36-.23-.6-.57-.78-.94-.36-.73-.47-1.51-.48-2.31,0-.07.04-.08.08-.1.34-.18.52-.57.42-.94-.08-.3-.29-.5-.53-.67-.17-.12-.36-.21-.56-.29.12-.2.27-.38.5-.51-.35-.27-.57-.62-.71-1.04-.14.43-.37.76-.71,1.05.23.13.38.3.49.5-.02,0-.04.01-.05.02-.35.15-.67.32-.9.63-.32.44-.18,1.04.31,1.28.06.03.07.06.07.11,0,.55-.07,1.1-.24,1.63-.16.53-.39,1.02-.8,1.41-.45.43-.88.45-1.37.08-.61-.47-1.02-1.09-1.34-1.77-.03-.05-.02-.08.04-.12.13-.08.22-.19.28-.32.18-.41-.07-.87-.54-.99-.19-.05-.39-.05-.59-.05,0,0-.01,0-.02,0,0-.21.06-.41.2-.6-.32-.08-.58-.25-.81-.5.04.34-.02.64-.17.93.24.02.43.13.59.27-.22.18-.39.4-.45.68-.1.45.15.79.6.83.06,0,.09.02.11.08.15.45.24.91.21,1.39-.03.53-.19,1.01-.57,1.4-.39.4-.79.41-1.21.04-.37-.34-.66-.74-.94-1.15-.03-.05-.03-.07,0-.11.39-.49.19-1.13-.41-1.3-.21-.06-.43-.05-.64-.02,0-.2.03-.39.15-.59-.33-.06-.6-.21-.84-.44.06.33.03.64-.09.94.24,0,.42.09.59.21-.2.22-.33.48-.36.78-.07.6.32.88.75.79.07-.01.1.02.14.07.24.34.47.7.67,1.07.3.52.56,1.06.78,1.61.02.04.02.09.08.1.43.05.85.13,1.28.09.28-.03.51-.15.68-.38.13-.18.22-.38.3-.59.21-.59.26-1.2.27-1.81,0-.07,0-.13.01-.2.05.01.06.04.08.07.15.19.29.39.44.58.29.37.59.74.96,1.03.5.4.97.35,1.38-.13.16-.19.29-.4.41-.61.34-.63.56-1.31.77-1.99.1-.33.19-.67.29-1.01.02-.05.02-.12.09-.13.08,0,.08.07.09.12.04.15.08.29.12.44.21.76.44,1.52.77,2.24.18.38.37.76.68,1.06.32.31.69.36,1.08.14.15-.09.28-.19.4-.31.45-.44.83-.94,1.2-1.44.02-.03.04-.08.08-.06.03.01.02.06.02.09,0,.39,0,.77.07,1.16.07.43.17.85.39,1.23.18.31.43.5.8.52.43.02.85-.04,1.27-.1.05,0,.06-.04.08-.08.37-.94.85-1.82,1.42-2.65.07-.09.13-.12.24-.1.36.06.67-.18.7-.54.04-.38-.08-.7-.3-.96.14-.08.29-.13.48-.13Z" fill="#143256" stroke-width="0"/>
        </g>
        <g>
          <path d="M46.26,40.71V15.13s0,0,0,0H1.58s0,0,0,0v25.57c0,13.13,8.23,24.89,20.6,29.28,1.09.39,1.74.55,1.74.55,0,0,.66-.17,1.75-.55,12.37-4.39,20.59-16.15,20.59-29.27ZM25.63,69.38c-1.07.38-1.71.54-1.71.54,0,0-.64-.16-1.71-.54-12.1-4.29-20.14-15.79-20.14-28.63V15.75s0,0,0,0h43.68s0,0,0,0v25.01c0,12.84-8.04,24.34-20.14,28.63Z" fill="#143256" stroke-width="0"/>
          <g>
            <g>
              <g>
                <g>
                  <path d="M27.49,67.26l-.03-.07.18-.13s.03-.03.04-.06c0-.02,0-.05,0-.07l-.8-1.76s-.03-.04-.05-.05c-.02-.01-.04-.01-.07,0l-.22.05-.03-.07.84-.38.03.08-.18.13s-.03.03-.04.06c0,.02,0,.05,0,.07l.8,1.76s.03.04.05.05c.02,0,.05.01.07,0l.22-.05.03.07-.84.38Z" fill="#000" stroke-width="0"/>
                  <path d="M28.98,66.58l-.04-.07.17-.16s.03-.04.03-.06c0-.02,0-.05-.01-.07l-.93-1.68s-.03-.04-.05-.05-.05,0-.07,0l-.23.07-.04-.07.51-.28,1.81.89.26.13-.8-1.44s-.03-.04-.05-.05c-.02,0-.05,0-.07,0l-.22.06-.04-.07.66-.37.04.07-.17.16s-.03.04-.03.06c0,.02,0,.05.01.07l.85,1.54.15.39-.08.05-1.95-.96-.29-.14.87,1.57s.03.04.05.05c.02,0,.05,0,.07,0l.22-.06.04.07-.66.37Z" fill="#000" stroke-width="0"/>
                  <path d="M32,64.81l-.05-.07.18-.18s.03-.04.03-.06c0-.03,0-.05-.02-.07l-1.15-1.68-.46.31s-.03.03-.03.04c0,.01,0,.03,0,.05l.11.39-.08.05-.33-.47,1.66-1.14.33.47-.08.05-.32-.25s-.03-.02-.04-.02c-.01,0-.03,0-.05.01l-.46.32,1.15,1.68s.03.04.06.04c.02,0,.05,0,.07,0l.24-.11.05.07-.82.56Z" fill="#000" stroke-width="0"/>
                  <path d="M33.8,63.53l-.05-.06.14-.18s.02-.04.02-.07c0-.02,0-.05-.02-.07l-1.23-1.49s-.04-.03-.06-.04c-.02,0-.05,0-.07,0l-.2.11-.05-.06,1.35-1.11.36.43-.07.06-.33-.21s-.03-.02-.05-.02c-.02,0-.03,0-.05.02l-.65.53.61.73.42-.35s.03-.03.03-.04c0-.01,0-.03,0-.05l-.11-.28.07-.05.52.63-.07.05-.26-.15s-.03-.02-.05-.02-.03,0-.05.02l-.42.35.67.81.76-.63s.02-.03.03-.04,0-.03,0-.05l-.18-.4.08-.06.39.47-1.46,1.2Z" fill="#000" stroke-width="0"/>
                  <path d="M35.8,61.84l-.06-.06.12-.19s.02-.04.02-.07c0-.02-.01-.04-.03-.06l-1.36-1.37s-.04-.03-.06-.03-.05,0-.07.02l-.19.12-.06-.06.62-.62c.13-.12.24-.22.35-.27.11-.06.2-.08.29-.09.09,0,.16.01.23.04.07.03.12.07.18.13.09.09.15.19.17.3.02.11.02.21,0,.31s-.06.18-.1.25l-.14.24-.28.19-.07-.09s.03-.02.06-.04.06-.05.09-.08c.03-.03.05-.05.07-.07.09-.08.14-.17.16-.26.02-.09.02-.18-.01-.26-.03-.08-.08-.16-.14-.22-.13-.13-.26-.19-.39-.18-.13.01-.26.08-.39.21l-.17.16,1.43,1.45s.04.03.06.03c.02,0,.04,0,.06-.01l.22-.15.06.06-.67.67ZM37.4,60.26l-.26.26s-.09.08-.13.1c-.04.02-.08.02-.12.02s-.1,0-.16-.02l-1.06-.17.17-.27,1.11.16s.08,0,.12,0c.05,0,.08-.01.11-.03l.17-.11.06.06Z" fill="#000" stroke-width="0"/>
                  <path d="M37.75,59.86l-.06-.05.1-.21s.01-.04,0-.07c0-.02-.02-.04-.03-.06l-1.48-1.22s-.04-.03-.07-.03c-.02,0-.05,0-.06.02l-.19.15-.06-.05.37-.45,2.01.17.29.03-1.27-1.05s-.04-.03-.07-.02c-.02,0-.05,0-.06.02l-.19.13-.06-.05.48-.58.06.05-.1.21s-.01.04,0,.07c0,.02.02.04.04.06l1.35,1.12.29.31-.06.08-2.17-.18-.32-.03,1.38,1.14s.04.03.07.02c.02,0,.04,0,.06-.02l.19-.13.06.05-.48.58Z" fill="#000" stroke-width="0"/>
                  <path d="M39.51,57.7l-.07-.05.05-.15s0-.09-.03-.14l-1.11-1.58-.22-.4.04-.06,2.3.52s.05,0,.08,0c.03,0,.05-.01.07-.03l.12-.1.07.05-.47.7-.07-.05.12-.28-1.69-.38-.24-.06h0s1.15,1.6,1.15,1.6l.22-.21.07.05-.38.56ZM39.12,56.69l-.08-.12.44-.65.14.03-.5.74Z" fill="#000" stroke-width="0"/>
                  <path d="M41.24,55.01l-.07-.04.08-.25s0-.05,0-.07-.03-.04-.05-.05l-1.78-.98-.27.49s-.01.04,0,.05.01.03.03.04l.28.29-.04.08-.5-.28.97-1.76.5.28-.04.08-.4-.07s-.03,0-.05,0c-.01,0-.03.01-.04.03l-.27.49,1.78.98s.05.02.07.01c.02,0,.04-.02.06-.03l.16-.2.07.04-.47.87Z" fill="#000" stroke-width="0"/>
                  <path d="M42.24,53.08l-.07-.03.05-.22s0-.05,0-.07-.03-.04-.05-.05l-1.76-.79s-.05-.01-.07,0c-.02,0-.04.02-.06.04l-.13.18-.08-.03.37-.84.07.03-.05.22s0,.05,0,.07c.01.02.03.04.05.05l1.76.79s.05.01.07,0,.04-.02.06-.04l.13-.18.08.03-.37.84Z" fill="#000" stroke-width="0"/>
                  <path d="M43.32,50.53c-.08.22-.19.4-.35.52-.15.12-.33.19-.54.21s-.42,0-.66-.09c-.22-.07-.4-.18-.55-.33s-.25-.31-.3-.51-.04-.4.03-.62c.08-.24.2-.41.36-.53s.34-.18.55-.2c.2-.01.41.01.63.09.14.05.28.12.4.21.13.09.23.19.32.32s.14.26.16.42c.02.16,0,.33-.06.51ZM43.21,50.46c.05-.15.05-.3,0-.43-.05-.13-.15-.25-.28-.35-.14-.1-.3-.19-.49-.25-.22-.08-.42-.11-.61-.12-.19,0-.35.03-.48.11-.13.08-.23.2-.29.37-.06.16-.05.31,0,.44s.16.25.3.35.29.18.47.24c.21.07.42.11.6.12.19,0,.35-.03.49-.11.14-.08.23-.2.29-.37Z" fill="#000" stroke-width="0"/>
                  <path d="M43.85,48.66l-.08-.02v-.23s-.02-.05-.04-.06-.04-.03-.06-.04l-1.88-.38s-.05,0-.07,0c-.02.01-.04.03-.05.05l-.1.22-.08-.02.12-.57,1.85-.8.27-.11-1.62-.33s-.05,0-.07,0c-.02.01-.04.03-.05.05l-.1.2-.08-.02.15-.74.08.02v.23s.02.05.04.06c.01.02.03.03.06.04l1.72.35.4.13-.02.1-2,.87-.3.13,1.76.35s.05,0,.07,0c.02-.01.04-.03.05-.05l.1-.21.08.02-.15.74Z" fill="#000" stroke-width="0"/>
                  <path d="M44.39,45.84h-.08s-.03-.16-.03-.16c-.01-.05-.04-.08-.1-.11l-1.75-.81-.39-.24v-.07s2.26-.7,2.26-.7c.02,0,.05-.02.07-.04.02-.02.03-.04.04-.06l.05-.15h.08s-.06.85-.06.85h-.08s-.04-.31-.04-.31l-1.66.52-.24.07h0s1.79.81,1.79.81l.08-.29h.08s-.05.68-.05.68ZM43.54,45.16l-.13-.06.05-.78.14-.04-.06.89Z" fill="#000" stroke-width="0"/>
                  <path d="M44.51,43.04h-.08l-.05-.22s-.02-.04-.04-.06c-.02-.02-.04-.02-.07-.02h-1.93s-.05,0-.07.02c-.02.01-.03.03-.04.06l-.05.22h-.08v-.93h.08l.05.23s.02.04.04.06c.02.02.04.02.07.02h2.03v-.88s-.01-.04-.03-.05c-.02-.01-.04-.02-.06-.02l-.46-.13v-.09h.68v1.79Z" fill="#000" stroke-width="0"/>
                  <path d="M44.41,39.39l-.62.04v-.09l.35-.14s.03-.02.05-.03c.02-.02.03-.03.04-.04.03-.06.07-.12.09-.18.03-.07.05-.13.06-.19s.02-.12.02-.16c0-.15-.04-.26-.12-.35-.08-.09-.2-.13-.35-.13-.11,0-.19.03-.26.09-.07.06-.12.14-.16.23-.04.09-.06.17-.08.26-.02.09-.04.17-.08.26-.05.13-.13.23-.22.3-.1.07-.22.11-.35.11-.13,0-.25-.03-.36-.1-.11-.07-.19-.16-.26-.27-.06-.11-.09-.24-.09-.39,0-.08,0-.16.02-.23.01-.08.03-.15.04-.22.02-.07.04-.14.06-.2h.57v.09l-.32.12s-.03.02-.05.03-.03.03-.03.04c-.03.04-.05.08-.07.13-.02.05-.03.1-.04.16,0,.05-.01.1-.01.13,0,.14.04.24.11.32.07.08.16.12.28.12.1,0,.19-.02.27-.07.08-.04.15-.13.2-.26.03-.08.06-.17.08-.25.02-.08.05-.17.09-.26.03-.07.07-.14.11-.21.05-.07.11-.12.18-.16.07-.04.17-.06.28-.06.12,0,.24.03.35.09.12.06.21.16.28.28.07.13.11.3.11.5,0,.07,0,.14-.02.22s-.03.16-.06.24c-.02.08-.05.16-.07.24Z" fill="#000" stroke-width="0"/>
                  <path d="M44.04,35.2v-.03h.15c.05.06.11.14.17.23.06.09.11.19.15.29s.06.22.06.33c0,.23-.05.44-.15.61s-.24.3-.43.4c-.19.09-.41.14-.66.14s-.47-.05-.65-.15c-.19-.1-.33-.24-.44-.41s-.16-.37-.16-.59c0-.08,0-.16.02-.26.01-.09.03-.18.05-.27.02-.09.04-.16.06-.22h.56v.09l-.32.12s-.02.01-.03.02c0,.01-.02.03-.03.05-.04.07-.08.16-.11.27-.03.11-.05.21-.05.3,0,.21.09.38.26.51s.44.2.78.2.64-.08.82-.23c.18-.15.27-.37.27-.66,0-.13-.02-.24-.05-.33-.03-.09-.08-.17-.12-.24-.05-.06-.09-.12-.13-.17Z" fill="#000" stroke-width="0"/>
                  <path d="M44.51,34.64h-.08l-.05-.22s-.02-.04-.04-.06c-.02-.02-.04-.02-.07-.02h-1.93s-.05,0-.07.02c-.02.02-.03.03-.04.06l-.05.22h-.08v-.92h.08l.05.22s.02.04.04.06c.02.02.04.02.07.02h.85v-1.16h-.85s-.05,0-.07.02c-.02.01-.03.03-.04.06l-.05.22h-.08v-.92h.08l.05.22s.02.04.04.06c.02.02.04.02.07.02h1.93s.05,0,.07-.02c.02-.02.03-.04.04-.06l.05-.22h.08v.92h-.08l-.05-.22s-.02-.04-.04-.06c-.02-.02-.04-.02-.07-.02h-.95v1.16h.95s.05,0,.07-.02c.02-.02.03-.03.04-.06l.05-.22h.08v.92Z" fill="#000" stroke-width="0"/>
                  <path d="M44.57,30.55c0,.24-.05.44-.16.6s-.26.29-.44.38c-.19.09-.4.13-.65.13-.23,0-.44-.04-.63-.13s-.34-.22-.45-.38c-.11-.17-.17-.36-.17-.59,0-.25.06-.46.17-.62.11-.16.27-.28.45-.36.19-.08.4-.12.62-.12.15,0,.3.02.45.06.15.04.28.11.4.2.12.09.22.21.29.34.07.14.11.31.11.5ZM44.44,30.51c0-.16-.05-.3-.14-.4s-.22-.19-.39-.24c-.16-.05-.34-.08-.54-.08-.23,0-.44.03-.61.08-.18.06-.32.14-.42.26-.1.12-.15.27-.15.45,0,.17.05.31.15.42.1.11.23.19.39.24.16.05.33.07.52.07.23,0,.43-.03.61-.08.18-.06.32-.14.43-.26.1-.12.16-.27.16-.45Z" fill="#000" stroke-width="0"/>
                  <path d="M44.57,27.73c0,.24-.05.43-.16.6-.11.16-.26.29-.44.37-.19.09-.4.13-.65.13-.23,0-.44-.04-.63-.13-.19-.09-.34-.22-.45-.38-.11-.17-.17-.36-.17-.59,0-.25.06-.46.17-.62.11-.16.27-.28.45-.36s.4-.12.62-.12c.15,0,.3.02.45.06.15.04.28.11.4.2.12.09.22.2.29.34.07.14.11.31.11.5ZM44.44,27.7c0-.16-.05-.3-.14-.41-.09-.11-.22-.19-.39-.24s-.34-.08-.54-.08c-.23,0-.44.03-.61.09-.18.06-.32.14-.42.26-.1.12-.15.27-.15.45s.05.31.15.42c.1.11.23.19.39.23.16.05.33.07.52.07.23,0,.43-.03.61-.08.18-.06.32-.14.43-.26.1-.12.16-.27.16-.45Z" fill="#000" stroke-width="0"/>
                  <path d="M44.51,26.03h-.08l-.05-.22s-.02-.04-.04-.06c-.02-.02-.04-.02-.07-.02h-1.93s-.05,0-.07.02c-.02.02-.03.03-.04.06l-.05.22h-.08v-.93h.08l.05.23s.02.04.04.06c.02.02.04.02.07.02h2.03v-.88s-.01-.04-.03-.05c-.02-.01-.04-.02-.06-.02l-.46-.13v-.09h.68v1.79Z" fill="#000" stroke-width="0"/>
                </g>
                <g>
                  <path d="M2.95,24.15h.09s.05.16.05.16c.01.05.05.09.11.11l1.97.75.44.23v.07l-2.4.94s-.05.03-.07.04c-.02.02-.03.04-.04.07l-.05.16h-.09v-.92s.09,0,.09,0l.06.33,1.76-.69.26-.1h0s-2.01-.74-2.01-.74l-.07.32h-.09v-.74ZM3.92,24.83l.14.06v.86s-.14.06-.14.06v-.97Z" fill="#000" stroke-width="0"/>
                  <path d="M3.47,29.68v.03h-.16c-.06-.07-.12-.15-.18-.25s-.12-.2-.16-.32c-.04-.12-.07-.24-.07-.36,0-.25.05-.47.16-.66.11-.19.26-.33.47-.44.2-.1.44-.15.72-.16.27,0,.51.05.72.16.21.11.37.26.48.45.12.19.17.4.17.64,0,.08,0,.18-.02.28-.01.1-.03.2-.06.3s-.04.18-.07.25h-.6s0-.1,0-.1l.35-.13s.02-.01.03-.03c0-.01.02-.03.03-.05.04-.08.08-.17.12-.29.03-.12.05-.23.05-.33,0-.23-.1-.41-.29-.55-.19-.14-.47-.22-.85-.21-.4,0-.69.09-.89.26s-.3.41-.3.72c0,.14.02.26.06.36s.08.19.13.26c.05.07.1.13.15.18Z" fill="#000" stroke-width="0"/>
                  <path d="M2.97,30.5h.09s.05.16.05.16c.01.05.05.09.11.11l1.97.75.44.23v.07l-2.4.94s-.05.03-.07.04c-.02.02-.03.04-.04.07l-.05.16h-.09v-.92s.09,0,.09,0l.06.33,1.76-.69.26-.1h0s-2.01-.74-2.01-.74l-.07.32h-.09v-.74ZM3.94,31.18l.14.06v.86s-.14.06-.14.06v-.97Z" fill="#000" stroke-width="0"/>
                  <path d="M2.98,33.84h.09s.05.24.05.24c0,.02.02.05.04.06.02.02.04.03.07.03h2.11s.05-.02.08-.03c.02-.02.03-.04.04-.06l.05-.24h.09v1.08c0,.1,0,.21-.03.33-.02.12-.07.23-.12.35s-.14.22-.24.31c-.1.09-.22.17-.37.23s-.33.09-.54.09c-.3,0-.54-.06-.73-.17-.19-.12-.33-.28-.43-.47s-.14-.42-.14-.65v-1.07ZM5.45,34.5h-2.33s0,.44,0,.44c0,.3.1.53.29.67.19.15.46.22.81.22.25,0,.47-.04.66-.13.19-.09.33-.2.43-.36.1-.15.15-.33.15-.53v-.32Z" fill="#000" stroke-width="0"/>
                  <path d="M2.99,37.27h.09l.05.24s.02.05.04.06c.02.02.04.03.07.03h2.11s.05-.02.08-.03c.02-.02.03-.04.04-.06l.05-.24h.09s0,1.9,0,1.9h-.61s0-.1,0-.1l.4-.14s.03-.01.05-.03c.01-.01.02-.03.02-.05v-.91s-1.04,0-1.04,0v.6s0,.04.02.06.03.02.04.03l.31.11v.09s-.89,0-.89,0v-.09l.31-.11s.04-.02.05-.03c.01-.01.02-.03.02-.06v-.6s-1.15,0-1.15,0v1.08s0,.04.02.05c.01.01.03.02.05.03l.46.13v.11h-.67s0-2.06,0-2.06Z" fill="#000" stroke-width="0"/>
                  <path d="M3,40.36h.09l.06.24s.02.05.04.06c.02.02.04.03.07.03h2.1s.05-.02.08-.03c.02-.02.03-.04.04-.06l.05-.24h.09s0,.78,0,.78l-1.68.61-.39.13,2.07.74v.77s-.09,0-.09,0l-.05-.24s-.02-.05-.04-.06c-.02-.02-.05-.03-.07-.03h-2.11s-.05.02-.07.03c-.02.02-.03.04-.04.06l-.05.24h-.09s0-1,0-1h.09l.05.24s.02.05.04.06c.02.02.04.03.07.03h2.18s-.29-.11-.29-.11l-1.71-.61-.43-.2v-.08s2.14-.78,2.14-.78l.3-.1h-2.17s-.05.02-.07.03c-.02.02-.03.04-.04.06l-.06.24h-.09v-.82Z" fill="#000" stroke-width="0"/>
                  <path d="M3.13,44.64h.09s.08.22.08.22c0,.02.03.04.05.06.02.01.05.02.08.02l2.09-.29s.05-.02.07-.04c.02-.02.03-.04.03-.07l.02-.25h.09s.14.98.14.98h-.09s-.08-.22-.08-.22c0-.02-.02-.04-.05-.06s-.05-.02-.08-.02l-2.09.29s-.05.02-.07.03c-.02.02-.03.04-.03.07l-.02.24h-.09s-.14-.98-.14-.98Z" fill="#000" stroke-width="0"/>
                  <path d="M4.51,48.82v.03s-.15.04-.15.04c-.07-.05-.15-.12-.24-.2-.09-.08-.16-.17-.23-.27-.07-.1-.12-.21-.15-.34-.06-.25-.06-.47,0-.68.06-.21.17-.39.35-.54.17-.15.39-.26.66-.33.26-.07.51-.07.73-.02.23.06.42.16.58.32.16.16.27.35.33.58.02.08.04.17.05.28s.02.2.02.3c0,.1,0,.18,0,.26l-.59.15-.02-.1.31-.21s.02-.02.03-.03c0-.01.01-.03.02-.06.02-.09.04-.19.04-.31,0-.12,0-.23-.03-.33-.06-.22-.19-.37-.41-.47-.22-.09-.51-.09-.88,0-.38.1-.65.25-.8.47-.15.21-.19.47-.11.77.03.13.08.24.14.33.06.09.12.16.19.22.07.06.13.1.19.14Z" fill="#000" stroke-width="0"/>
                  <path d="M6.46,53.68v.03s-.13.07-.13.07c-.08-.04-.17-.09-.27-.15-.1-.06-.19-.14-.28-.22-.09-.09-.16-.19-.21-.3-.11-.23-.15-.45-.13-.67.02-.22.1-.41.24-.59s.34-.33.59-.44c.25-.11.48-.16.72-.15.23.01.44.08.63.21.18.12.33.29.43.51.03.08.07.16.1.26s.05.2.08.29c.02.1.03.18.04.25l-.55.26-.04-.09.27-.26s.02-.02.02-.04c0-.02,0-.04,0-.06,0-.09,0-.19-.02-.31-.02-.12-.05-.23-.09-.32-.09-.2-.26-.33-.49-.38-.23-.05-.52,0-.87.16-.36.17-.59.37-.7.6-.11.24-.1.5.03.78.06.12.12.22.2.3.08.07.15.13.23.18.08.04.15.08.21.1Z" fill="#000" stroke-width="0"/>
                  <path d="M7.17,56.06c-.13-.22-.2-.43-.19-.65,0-.21.07-.42.2-.6.13-.19.3-.35.53-.49.22-.13.44-.21.66-.24.23-.03.44,0,.64.1s.36.24.49.46c.14.23.21.46.19.67-.01.22-.08.42-.22.6-.13.18-.3.34-.51.47-.14.09-.29.15-.45.2-.16.05-.32.06-.49.05-.16-.01-.32-.07-.47-.15s-.28-.22-.39-.4ZM7.31,56.02c.09.15.21.25.36.3s.31.05.5,0,.37-.12.55-.23c.22-.13.39-.28.52-.43.13-.15.21-.31.24-.48.03-.17-.01-.33-.12-.5-.1-.16-.22-.26-.38-.3-.15-.04-.32-.04-.5,0-.18.05-.35.12-.53.23-.21.13-.38.27-.52.43-.14.15-.22.32-.25.48-.03.17,0,.34.11.51Z" fill="#000" stroke-width="0"/>
                  <path d="M8.56,58.06l.07-.05.19.16s.04.03.07.03c.03,0,.05,0,.07-.02l1.67-1.29s.04-.04.04-.07,0-.05,0-.07l-.11-.22.07-.05.62.8-.07.06-.19-.17s-.04-.03-.07-.03c-.03,0-.05,0-.07.02l-1.75,1.36.59.76s.04.03.06.02c.03,0,.05-.01.06-.02l.48-.19.06.08-.59.46-1.2-1.55Z" fill="#000" stroke-width="0"/>
                  <path d="M10.5,60.46l.06-.06.2.14s.05.02.07.02.05-.01.07-.03l1.52-1.46s.03-.04.04-.07c0-.03,0-.05-.02-.07l-.13-.21.06-.06.7.73-.06.06-.21-.15s-.05-.02-.07-.02c-.03,0-.05.01-.07.03l-1.6,1.53.66.69s.04.02.07.01c.03,0,.05-.02.06-.03l.46-.24.07.07-.54.52-1.35-1.41Z" fill="#000" stroke-width="0"/>
                  <path d="M12.68,62.65l.06-.07.22.12s.05.01.07.01c.03,0,.05-.02.07-.04l1.35-1.62s.03-.05.03-.07,0-.05-.02-.07l-.15-.19.06-.07,1.46,1.22-.39.47-.08-.07.16-.4s.01-.04.01-.05c0-.02,0-.03-.03-.05l-.7-.59-.67.8.46.38s.04.02.05.02c.02,0,.03,0,.05-.02l.28-.17.07.06-.57.68-.07-.06.11-.31s.01-.04.01-.05-.01-.03-.03-.05l-.46-.38-.73.88.83.69s.03.02.05.02c.02,0,.03,0,.05-.02l.39-.27.08.07-.43.51-1.58-1.32Z" fill="#000" stroke-width="0"/>
                  <path d="M16.97,65.5l.34-.53s.02-.05.02-.08-.01-.05-.03-.07l-.19-.18.05-.08.85.54-.05.08-.23-.09s-.05,0-.08,0c-.03,0-.05.02-.06.05l-.16.25c-.05.08-.1.16-.15.23-.04.07-.08.12-.1.16-.13-.02-.28-.06-.44-.12-.17-.06-.32-.14-.47-.23-.18-.12-.32-.27-.42-.46-.1-.19-.13-.4-.12-.63.02-.23.1-.47.26-.71.15-.23.32-.4.52-.51s.41-.17.63-.16c.22,0,.43.07.63.2.12.08.22.15.3.22.08.07.15.14.21.2.06.06.11.12.15.18l-.33.51-.09-.06.08-.35s0-.04,0-.06c0-.02-.01-.03-.02-.05-.04-.08-.11-.17-.2-.27-.09-.1-.19-.18-.29-.24-.12-.08-.26-.11-.4-.1s-.29.07-.43.17c-.15.11-.29.27-.43.48-.13.2-.22.4-.27.6s-.05.37,0,.53c.05.16.15.28.3.38.07.04.14.08.22.11.08.03.15.05.22.06.07.01.12.02.15.03Z" fill="#000" stroke-width="0"/>
                  <path d="M18.44,66.64l.04-.08.24.06s.05,0,.07,0c.02-.01.04-.03.05-.05l.89-1.91s.01-.05,0-.08c0-.03-.02-.05-.04-.06l-.2-.15.04-.08,1.72.8-.26.56-.1-.04.05-.42s0-.04,0-.05c0-.02-.02-.03-.04-.04l-.83-.39-.44.94.54.25s.04.01.06,0c.01,0,.03-.01.04-.03l.23-.24.08.04-.37.81-.08-.04.03-.32s0-.04,0-.06-.02-.03-.04-.04l-.54-.25-.48,1.04.98.45s.04.01.06,0c.02,0,.03-.02.04-.03l.31-.36.1.04-.28.6-1.87-.87Z" fill="#000" stroke-width="0"/>
                </g>
                <path d="M24.85,67.11l.72.05-.72.05c-.47.04-.84.41-.88.88l-.05.72-.05-.72c-.04-.47-.41-.84-.88-.88l-.72-.05.72-.05c.47-.04.84-.41.88-.88l.05-.72.05.72c.04.47.41.84.88.88Z" fill="#dc001e" stroke-width="0"/>
              </g>
              <g>
                <g>
                  <g>
                    <path d="M23.38,41.18v-16.26H7.03v16.7c0,.39.01.77.03,1.16h14.72c.88,0,1.6-.72,1.6-1.6Z" fill="#dc001e" stroke="#940008" stroke-miterlimit="10" stroke-width=".37"/>
                    <g>
                      <g>
                        <polygon points="13.78 33.28 13.78 33.52 15.2 33.52 16.61 33.52 16.61 33.28 15.2 33.28 13.78 33.28" fill="#fff" stroke-width="0"/>
                        <path d="M17.05,31.67c-.04-.23-.23-.39-.45-.41-.41-.03-.76.19-1.15.26-.03,0-.07-.06-.11-.1.18-.14.16-.41-.05-.53-.01-.02,0-.17,0-.18.02-.01.15.01.17,0,.02-.02.02-.18,0-.2-.01-.02-.16,0-.17,0,0-.01,0-.16-.01-.17,0,0-.03,0-.04,0h0s0,0,0,0h-.06s-.03,0-.03,0c-.01.01,0,.16,0,.17,0,.01-.16,0-.17,0-.01.02-.02.18,0,.2.02.02.15,0,.17,0,0,0,.01.16,0,.18-.21.12-.24.39-.05.53-.04.04-.08.11-.11.1-.39-.07-.75-.29-1.15-.26-.23.02-.41.18-.45.41-.07.42.23.74.37,1.09.05.11.09.26.08.39h2.8c0-.13.03-.28.08-.39.14-.35.44-.67.37-1.09M15.04,32.59c-.04.21-.15.34-.25.34-.06,0-.11-.02-.16-.06-.06-.06-.11-.15-.1-.2.01-.02.19,0,.2,0,.01-.02-.02-.15-.04-.17-.02-.02-.17,0-.19-.01-.02-.02-.04-.18-.06-.19,0,0-.16-.02-.17,0-.01.02.05.16.04.19-.01.02-.23-.02-.23,0,0,.02.01.15.03.16.02.02.22.02.22.02.04.03.05.1.05.16,0,.09-.07.13-.17.1-.2-.05-.44-.48-.58-.77-.11-.22-.17-.57.11-.68.17-.06.35-.03.53.03.19.06.44.13.59.23.04.02-.04,0,.09.3.06.14.12.43.1.57M15.19,30.32h.02-.02ZM16.77,32.15c-.14.29-.39.72-.58.77-.1.03-.17-.01-.17-.1,0-.07.01-.13.05-.16,0,0,.2,0,.22-.02.02-.02.04-.14.03-.16,0-.02-.22.02-.23,0-.01-.02.06-.16.04-.19-.01-.02-.17,0-.17,0-.02.01-.04.18-.06.19-.02.02-.17,0-.19.01-.02.02-.05.15-.04.17.01.02.18,0,.2,0,.02.05-.04.15-.1.2-.05.04-.1.06-.16.06-.1,0-.21-.13-.25-.34-.03-.15.04-.44.1-.57.13-.29.05-.27.09-.3.15-.09.4-.17.59-.23.18-.05.36-.09.53-.03.28.11.21.46.11.68" fill="#fff" stroke-width="0"/>
                      </g>
                      <g>
                        <polygon points="18.18 33.28 18.18 33.52 19.59 33.52 21 33.52 21 33.28 19.59 33.28 18.18 33.28" fill="#fff" stroke-width="0"/>
                        <path d="M21.45,31.67c-.04-.23-.23-.39-.45-.41-.41-.03-.76.19-1.15.26-.03,0-.07-.06-.11-.1.18-.14.16-.41-.05-.53-.01-.02,0-.17,0-.18.02-.01.15.01.17,0,.02-.02.02-.18,0-.2-.01-.02-.16,0-.17,0,0-.01,0-.16-.01-.17,0,0-.03,0-.04,0h0s0,0,0,0h-.06s-.03,0-.03,0c-.01.01,0,.16,0,.17,0,.01-.16,0-.17,0-.01.02-.02.18,0,.2.02.02.15,0,.17,0,0,0,.01.16,0,.18-.21.12-.24.39-.05.53-.04.04-.08.11-.11.1-.39-.07-.75-.29-1.15-.26-.23.02-.41.18-.45.41-.07.42.23.74.37,1.09.05.11.09.26.08.39h2.8c0-.13.03-.28.08-.39.14-.35.44-.67.37-1.09M19.43,32.59c-.04.21-.15.34-.25.34-.06,0-.11-.02-.16-.06-.06-.06-.11-.15-.1-.2.01-.02.19,0,.2,0,.01-.02-.02-.15-.04-.17-.02-.02-.17,0-.19-.01-.02-.02-.04-.18-.06-.19,0,0-.16-.02-.17,0-.01.02.05.16.04.19-.01.02-.23-.02-.23,0,0,.02.01.15.03.16.02.02.22.02.22.02.04.03.05.1.05.16,0,.09-.07.13-.17.1-.2-.05-.44-.48-.58-.77-.11-.22-.17-.57.11-.68.17-.06.35-.03.53.03.19.06.44.13.59.23.04.02-.04,0,.09.3.06.14.12.43.1.57M19.59,30.32h.02-.02ZM21.17,32.15c-.14.29-.39.72-.58.77-.1.03-.17-.01-.17-.1,0-.07.01-.13.05-.16,0,0,.2,0,.22-.02.02-.02.04-.14.03-.16,0-.02-.22.02-.23,0-.01-.02.06-.16.04-.19-.01-.02-.17,0-.17,0-.02.01-.04.18-.06.19-.02.02-.17,0-.19.01-.02.02-.05.15-.04.17.01.02.18,0,.2,0,.02.05-.04.15-.1.2-.05.04-.1.06-.16.06-.1,0-.21-.13-.25-.34-.03-.15.04-.44.1-.57.13-.29.05-.27.09-.3.15-.09.4-.17.59-.23.18-.05.36-.09.53-.03.28.11.21.46.11.68" fill="#fff" stroke-width="0"/>
                      </g>
                      <g>
                        <polygon points="13.78 29.47 13.78 29.72 15.2 29.72 16.61 29.72 16.61 29.47 15.2 29.47 13.78 29.47" fill="#fff" stroke-width="0"/>
                        <path d="M17.05,27.86c-.04-.23-.23-.39-.45-.41-.41-.03-.76.19-1.15.26-.03,0-.07-.06-.11-.1.18-.14.16-.41-.05-.53-.01-.02,0-.17,0-.18.02-.01.15.01.17,0,.02-.02.02-.18,0-.2-.01-.02-.16,0-.17,0,0-.01,0-.16-.01-.17,0,0-.03,0-.04,0h0s0,0,0,0h-.06s-.03,0-.03,0c-.01.01,0,.16,0,.17,0,.01-.16,0-.17,0-.01.02-.02.18,0,.2.02.02.15,0,.17,0,0,0,.01.16,0,.18-.21.12-.24.39-.05.53-.04.04-.08.11-.11.1-.39-.07-.75-.29-1.15-.26-.23.02-.41.18-.45.41-.07.42.23.74.37,1.09.05.11.09.26.08.39h2.8c0-.13.03-.28.08-.39.14-.35.44-.67.37-1.09M15.04,28.78c-.04.21-.15.34-.25.34-.06,0-.11-.02-.16-.06-.06-.06-.11-.15-.1-.2.01-.02.19,0,.2,0,.01-.02-.02-.15-.04-.17-.02-.02-.17,0-.19-.01-.02-.02-.04-.18-.06-.19,0,0-.16-.02-.17,0-.01.02.05.16.04.19-.01.02-.23-.02-.23,0,0,.02.01.15.03.16.02.02.22.02.22.02.04.03.05.1.05.16,0,.09-.07.13-.17.1-.2-.05-.44-.48-.58-.77-.11-.22-.17-.57.11-.68.17-.06.35-.03.53.03.19.06.44.13.59.23.04.02-.04,0,.09.3.06.14.12.43.1.57M15.19,26.51h.02-.02ZM16.77,28.34c-.14.29-.39.72-.58.77-.1.03-.17-.01-.17-.1,0-.07.01-.13.05-.16,0,0,.2,0,.22-.02.02-.02.04-.14.03-.16,0-.02-.22.02-.23,0-.01-.02.06-.16.04-.19-.01-.02-.17,0-.17,0-.02.01-.04.18-.06.19-.02.02-.17,0-.19.01-.02.02-.05.15-.04.17.01.02.18,0,.2,0,.02.05-.04.15-.1.2-.05.04-.1.06-.16.06-.1,0-.21-.13-.25-.34-.03-.15.04-.44.1-.57.13-.29.05-.27.09-.3.15-.09.4-.17.59-.23.18-.05.36-.09.53-.03.28.11.21.46.11.68" fill="#fff" stroke-width="0"/>
                      </g>
                      <g>
                        <polygon points="18.18 29.47 18.18 29.72 19.59 29.72 21 29.72 21 29.47 19.59 29.47 18.18 29.47" fill="#fff" stroke-width="0"/>
                        <path d="M21.45,27.86c-.04-.23-.23-.39-.45-.41-.41-.03-.76.19-1.15.26-.03,0-.07-.06-.11-.1.18-.14.16-.41-.05-.53-.01-.02,0-.17,0-.18.02-.01.15.01.17,0,.02-.02.02-.18,0-.2-.01-.02-.16,0-.17,0,0-.01,0-.16-.01-.17,0,0-.03,0-.04,0h0s0,0,0,0h-.06s-.03,0-.03,0c-.01.01,0,.16,0,.17,0,.01-.16,0-.17,0-.01.02-.02.18,0,.2.02.02.15,0,.17,0,0,0,.01.16,0,.18-.21.12-.24.39-.05.53-.04.04-.08.11-.11.1-.39-.07-.75-.29-1.15-.26-.23.02-.41.18-.45.41-.07.42.23.74.37,1.09.05.11.09.26.08.39h2.8c0-.13.03-.28.08-.39.14-.35.44-.67.37-1.09M19.43,28.78c-.04.21-.15.34-.25.34-.06,0-.11-.02-.16-.06-.06-.06-.11-.15-.1-.2.01-.02.19,0,.2,0,.01-.02-.02-.15-.04-.17-.02-.02-.17,0-.19-.01-.02-.02-.04-.18-.06-.19,0,0-.16-.02-.17,0-.01.02.05.16.04.19-.01.02-.23-.02-.23,0,0,.02.01.15.03.16.02.02.22.02.22.02.04.03.05.1.05.16,0,.09-.07.13-.17.1-.2-.05-.44-.48-.58-.77-.11-.22-.17-.57.11-.68.17-.06.35-.03.53.03.19.06.44.13.59.23.04.02-.04,0,.09.3.06.14.12.43.1.57M19.59,26.51h.02-.02ZM21.17,28.34c-.14.29-.39.72-.58.77-.1.03-.17-.01-.17-.1,0-.07.01-.13.05-.16,0,0,.2,0,.22-.02.02-.02.04-.14.03-.16,0-.02-.22.02-.23,0-.01-.02.06-.16.04-.19-.01-.02-.17,0-.17,0-.02.01-.04.18-.06.19-.02.02-.17,0-.19.01-.02.02-.05.15-.04.17.01.02.18,0,.2,0,.02.05-.04.15-.1.2-.05.04-.1.06-.16.06-.1,0-.21-.13-.25-.34-.03-.15.04-.44.1-.57.13-.29.05-.27.09-.3.15-.09.4-.17.59-.23.18-.05.36-.09.53-.03.28.11.21.46.11.68" fill="#fff" stroke-width="0"/>
                      </g>
                      <g>
                        <polygon points="13.78 37.09 13.78 37.33 15.2 37.33 16.61 37.33 16.61 37.09 15.2 37.09 13.78 37.09" fill="#fff" stroke-width="0"/>
                        <path d="M17.05,35.48c-.04-.23-.23-.39-.45-.41-.41-.03-.76.19-1.15.26-.03,0-.07-.06-.11-.1.18-.14.16-.41-.05-.53-.01-.02,0-.17,0-.18.02-.01.15.01.17,0,.02-.02.02-.18,0-.2-.01-.02-.16,0-.17,0,0-.01,0-.16-.01-.17,0,0-.03,0-.04,0h0s0,0,0,0h-.06s-.03,0-.03,0c-.01.01,0,.16,0,.17,0,.01-.16,0-.17,0-.01.02-.02.18,0,.2.02.02.15,0,.17,0,0,0,.01.16,0,.18-.21.12-.24.39-.05.53-.04.04-.08.11-.11.1-.39-.07-.75-.29-1.15-.26-.23.02-.41.18-.45.41-.07.42.23.74.37,1.09.05.11.09.26.08.39h2.8c0-.13.03-.28.08-.39.14-.35.44-.67.37-1.09M15.04,36.4c-.04.21-.15.34-.25.34-.06,0-.11-.02-.16-.06-.06-.06-.11-.15-.1-.2.01-.02.19,0,.2,0,.01-.02-.02-.15-.04-.17-.02-.02-.17,0-.19-.01-.02-.02-.04-.18-.06-.19,0,0-.16-.02-.17,0-.01.02.05.16.04.19-.01.02-.23-.02-.23,0,0,.02.01.15.03.16.02.02.22.02.22.02.04.03.05.1.05.16,0,.09-.07.13-.17.1-.2-.05-.44-.48-.58-.77-.11-.22-.17-.57.11-.68.17-.06.35-.03.53.03.19.06.44.13.59.23.04.02-.04,0,.09.3.06.14.12.43.1.57M15.19,34.13h.02-.02ZM16.77,35.95c-.14.29-.39.72-.58.77-.1.03-.17-.01-.17-.1,0-.07.01-.13.05-.16,0,0,.2,0,.22-.02.02-.02.04-.14.03-.16,0-.02-.22.02-.23,0-.01-.02.06-.16.04-.19-.01-.02-.17,0-.17,0-.02.01-.04.18-.06.19-.02.02-.17,0-.19.01-.02.02-.05.15-.04.17.01.02.18,0,.2,0,.02.05-.04.15-.1.2-.05.04-.1.06-.16.06-.1,0-.21-.13-.25-.34-.03-.15.04-.44.1-.57.13-.29.05-.27.09-.3.15-.09.4-.17.59-.23.18-.05.36-.09.53-.03.28.11.21.46.11.68" fill="#fff" stroke-width="0"/>
                      </g>
                      <g>
                        <polygon points="18.18 37.09 18.18 37.33 19.59 37.33 21 37.33 21 37.09 19.59 37.09 18.18 37.09" fill="#fff" stroke-width="0"/>
                        <path d="M21.45,35.48c-.04-.23-.23-.39-.45-.41-.41-.03-.76.19-1.15.26-.03,0-.07-.06-.11-.1.18-.14.16-.41-.05-.53-.01-.02,0-.17,0-.18.02-.01.15.01.17,0,.02-.02.02-.18,0-.2-.01-.02-.16,0-.17,0,0-.01,0-.16-.01-.17,0,0-.03,0-.04,0h0s0,0,0,0h-.06s-.03,0-.03,0c-.01.01,0,.16,0,.17,0,.01-.16,0-.17,0-.01.02-.02.18,0,.2.02.02.15,0,.17,0,0,0,.01.16,0,.18-.21.12-.24.39-.05.53-.04.04-.08.11-.11.1-.39-.07-.75-.29-1.15-.26-.23.02-.41.18-.45.41-.07.42.23.74.37,1.09.05.11.09.26.08.39h2.8c0-.13.03-.28.08-.39.14-.35.44-.67.37-1.09M19.43,36.4c-.04.21-.15.34-.25.34-.06,0-.11-.02-.16-.06-.06-.06-.11-.15-.1-.2.01-.02.19,0,.2,0,.01-.02-.02-.15-.04-.17-.02-.02-.17,0-.19-.01-.02-.02-.04-.18-.06-.19,0,0-.16-.02-.17,0-.01.02.05.16.04.19-.01.02-.23-.02-.23,0,0,.02.01.15.03.16.02.02.22.02.22.02.04.03.05.1.05.16,0,.09-.07.13-.17.1-.2-.05-.44-.48-.58-.77-.11-.22-.17-.57.11-.68.17-.06.35-.03.53.03.19.06.44.13.59.23.04.02-.04,0,.09.3.06.14.12.43.1.57M19.59,34.13h.02-.02ZM21.17,35.95c-.14.29-.39.72-.58.77-.1.03-.17-.01-.17-.1,0-.07.01-.13.05-.16,0,0,.2,0,.22-.02.02-.02.04-.14.03-.16,0-.02-.22.02-.23,0-.01-.02.06-.16.04-.19-.01-.02-.17,0-.17,0-.02.01-.04.18-.06.19-.02.02-.17,0-.19.01-.02.02-.05.15-.04.17.01.02.18,0,.2,0,.02.05-.04.15-.1.2-.05.04-.1.06-.16.06-.1,0-.21-.13-.25-.34-.03-.15.04-.44.1-.57.13-.29.05-.27.09-.3.15-.09.4-.17.59-.23.18-.05.36-.09.53-.03.28.11.21.46.11.68" fill="#fff" stroke-width="0"/>
                      </g>
                      <g>
                        <polygon points="9.39 37.09 9.39 37.33 10.8 37.33 12.22 37.33 12.22 37.09 10.8 37.09 9.39 37.09" fill="#fff" stroke-width="0"/>
                        <path d="M12.66,35.48c-.04-.23-.23-.39-.45-.41-.41-.03-.76.19-1.15.26-.03,0-.07-.06-.11-.1.18-.14.16-.41-.05-.53-.01-.02,0-.17,0-.18.02-.01.15.01.17,0,.02-.02.02-.18,0-.2-.01-.02-.16,0-.17,0,0-.01,0-.16-.01-.17,0,0-.03,0-.04,0h0s0,0,0,0h-.06s-.03,0-.03,0c-.01.01,0,.16,0,.17,0,.01-.16,0-.17,0-.01.02-.02.18,0,.2.02.02.15,0,.17,0,0,0,.01.16,0,.18-.21.12-.24.39-.05.53-.04.04-.08.11-.11.1-.39-.07-.75-.29-1.15-.26-.23.02-.41.18-.45.41-.07.42.23.74.37,1.09.05.11.09.26.08.39h2.8c0-.13.03-.28.08-.39.14-.35.44-.67.37-1.09M10.65,36.4c-.04.21-.15.34-.25.34-.06,0-.11-.02-.16-.06-.06-.06-.11-.15-.1-.2.01-.02.19,0,.2,0,.01-.02-.02-.15-.04-.17-.02-.02-.17,0-.19-.01-.02-.02-.04-.18-.06-.19,0,0-.16-.02-.17,0-.01.02.05.16.04.19-.01.02-.23-.02-.23,0,0,.02.01.15.03.16.02.02.22.02.22.02.04.03.05.1.05.16,0,.09-.07.13-.17.1-.2-.05-.44-.48-.58-.77-.11-.22-.17-.57.11-.68.17-.06.35-.03.53.03.19.06.44.13.59.23.04.02-.04,0,.09.3.06.14.12.43.1.57M10.8,34.13h.02-.02ZM12.38,35.95c-.14.29-.39.72-.58.77-.1.03-.17-.01-.17-.1,0-.07.01-.13.05-.16,0,0,.2,0,.22-.02.02-.02.04-.14.03-.16,0-.02-.22.02-.23,0-.01-.02.06-.16.04-.19-.01-.02-.17,0-.17,0-.02.01-.04.18-.06.19-.02.02-.17,0-.19.01-.02.02-.05.15-.04.17.01.02.18,0,.2,0,.02.05-.04.15-.1.2-.05.04-.1.06-.16.06-.1,0-.21-.13-.25-.34-.03-.15.04-.44.1-.57.13-.29.05-.27.09-.3.15-.09.4-.17.59-.23.18-.05.36-.09.53-.03.28.11.21.46.11.68" fill="#fff" stroke-width="0"/>
                      </g>
                      <g>
                        <polygon points="13.78 40.89 13.78 41.14 15.2 41.14 16.61 41.14 16.61 40.89 15.2 40.89 13.78 40.89" fill="#fff" stroke-width="0"/>
                        <path d="M17.05,39.28c-.04-.23-.23-.39-.45-.41-.41-.03-.76.19-1.15.26-.03,0-.07-.06-.11-.1.18-.14.16-.41-.05-.53-.01-.02,0-.17,0-.18.02-.01.15.01.17,0,.02-.02.02-.18,0-.2-.01-.02-.16,0-.17,0,0-.01,0-.16-.01-.17,0,0-.03,0-.04,0h0s0,0,0,0h-.06s-.03,0-.03,0c-.01.01,0,.16,0,.17,0,.01-.16,0-.17,0-.01.02-.02.18,0,.2.02.02.15,0,.17,0,0,0,.01.16,0,.18-.21.12-.24.39-.05.53-.04.04-.08.11-.11.1-.39-.07-.75-.29-1.15-.26-.23.02-.41.18-.45.41-.07.42.23.74.37,1.09.05.11.09.26.08.39h2.8c0-.13.03-.28.08-.39.14-.35.44-.67.37-1.09M15.04,40.21c-.04.21-.15.34-.25.34-.06,0-.11-.02-.16-.06-.06-.06-.11-.15-.1-.2.01-.02.19,0,.2,0,.01-.02-.02-.15-.04-.17-.02-.02-.17,0-.19-.01-.02-.02-.04-.18-.06-.19,0,0-.16-.02-.17,0-.01.02.05.16.04.19-.01.02-.23-.02-.23,0,0,.02.01.15.03.16.02.02.22.02.22.02.04.03.05.1.05.16,0,.09-.07.13-.17.1-.2-.05-.44-.48-.58-.77-.11-.22-.17-.57.11-.68.17-.06.35-.03.53.03.19.06.44.13.59.23.04.02-.04,0,.09.3.06.14.12.43.1.57M15.19,37.93h.02-.02ZM16.77,39.76c-.14.29-.39.72-.58.77-.1.03-.17-.01-.17-.1,0-.07.01-.13.05-.16,0,0,.2,0,.22-.02.02-.02.04-.14.03-.16,0-.02-.22.02-.23,0-.01-.02.06-.16.04-.19-.01-.02-.17,0-.17,0-.02.01-.04.18-.06.19-.02.02-.17,0-.19.01-.02.02-.05.15-.04.17.01.02.18,0,.2,0,.02.05-.04.15-.1.2-.05.04-.1.06-.16.06-.1,0-.21-.13-.25-.34-.03-.15.04-.44.1-.57.13-.29.05-.27.09-.3.15-.09.4-.17.59-.23.18-.05.36-.09.53-.03.28.11.21.46.11.68" fill="#fff" stroke-width="0"/>
                      </g>
                      <g>
                        <polygon points="18.18 40.89 18.18 41.14 19.59 41.14 21 41.14 21 40.89 19.59 40.89 18.18 40.89" fill="#fff" stroke-width="0"/>
                        <path d="M21.45,39.28c-.04-.23-.23-.39-.45-.41-.41-.03-.76.19-1.15.26-.03,0-.07-.06-.11-.1.18-.14.16-.41-.05-.53-.01-.02,0-.17,0-.18.02-.01.15.01.17,0,.02-.02.02-.18,0-.2-.01-.02-.16,0-.17,0,0-.01,0-.16-.01-.17,0,0-.03,0-.04,0h0s0,0,0,0h-.06s-.03,0-.03,0c-.01.01,0,.16,0,.17,0,.01-.16,0-.17,0-.01.02-.02.18,0,.2.02.02.15,0,.17,0,0,0,.01.16,0,.18-.21.12-.24.39-.05.53-.04.04-.08.11-.11.1-.39-.07-.75-.29-1.15-.26-.23.02-.41.18-.45.41-.07.42.23.74.37,1.09.05.11.09.26.08.39h2.8c0-.13.03-.28.08-.39.14-.35.44-.67.37-1.09M19.43,40.21c-.04.21-.15.34-.25.34-.06,0-.11-.02-.16-.06-.06-.06-.11-.15-.1-.2.01-.02.19,0,.2,0,.01-.02-.02-.15-.04-.17-.02-.02-.17,0-.19-.01-.02-.02-.04-.18-.06-.19,0,0-.16-.02-.17,0-.01.02.05.16.04.19-.01.02-.23-.02-.23,0,0,.02.01.15.03.16.02.02.22.02.22.02.04.03.05.1.05.16,0,.09-.07.13-.17.1-.2-.05-.44-.48-.58-.77-.11-.22-.17-.57.11-.68.17-.06.35-.03.53.03.19.06.44.13.59.23.04.02-.04,0,.09.3.06.14.12.43.1.57M19.59,37.93h.02-.02ZM21.17,39.76c-.14.29-.39.72-.58.77-.1.03-.17-.01-.17-.1,0-.07.01-.13.05-.16,0,0,.2,0,.22-.02.02-.02.04-.14.03-.16,0-.02-.22.02-.23,0-.01-.02.06-.16.04-.19-.01-.02-.17,0-.17,0-.02.01-.04.18-.06.19-.02.02-.17,0-.19.01-.02.02-.05.15-.04.17.01.02.18,0,.2,0,.02.05-.04.15-.1.2-.05.04-.1.06-.16.06-.1,0-.21-.13-.25-.34-.03-.15.04-.44.1-.57.13-.29.05-.27.09-.3.15-.09.4-.17.59-.23.18-.05.36-.09.53-.03.28.11.21.46.11.68" fill="#fff" stroke-width="0"/>
                      </g>
                      <g>
                        <polygon points="9.39 40.89 9.39 41.14 10.8 41.14 12.22 41.14 12.22 40.89 10.8 40.89 9.39 40.89" fill="#fff" stroke-width="0"/>
                        <path d="M12.66,39.28c-.04-.23-.23-.39-.45-.41-.41-.03-.76.19-1.15.26-.03,0-.07-.06-.11-.1.18-.14.16-.41-.05-.53-.01-.02,0-.17,0-.18.02-.01.15.01.17,0,.02-.02.02-.18,0-.2-.01-.02-.16,0-.17,0,0-.01,0-.16-.01-.17,0,0-.03,0-.04,0h0s0,0,0,0h-.06s-.03,0-.03,0c-.01.01,0,.16,0,.17,0,.01-.16,0-.17,0-.01.02-.02.18,0,.2.02.02.15,0,.17,0,0,0,.01.16,0,.18-.21.12-.24.39-.05.53-.04.04-.08.11-.11.1-.39-.07-.75-.29-1.15-.26-.23.02-.41.18-.45.41-.07.42.23.74.37,1.09.05.11.09.26.08.39h2.8c0-.13.03-.28.08-.39.14-.35.44-.67.37-1.09M10.65,40.21c-.04.21-.15.34-.25.34-.06,0-.11-.02-.16-.06-.06-.06-.11-.15-.1-.2.01-.02.19,0,.2,0,.01-.02-.02-.15-.04-.17-.02-.02-.17,0-.19-.01-.02-.02-.04-.18-.06-.19,0,0-.16-.02-.17,0-.01.02.05.16.04.19-.01.02-.23-.02-.23,0,0,.02.01.15.03.16.02.02.22.02.22.02.04.03.05.1.05.16,0,.09-.07.13-.17.1-.2-.05-.44-.48-.58-.77-.11-.22-.17-.57.11-.68.17-.06.35-.03.53.03.19.06.44.13.59.23.04.02-.04,0,.09.3.06.14.12.43.1.57M10.8,37.93h.02-.02ZM12.38,39.76c-.14.29-.39.72-.58.77-.1.03-.17-.01-.17-.1,0-.07.01-.13.05-.16,0,0,.2,0,.22-.02.02-.02.04-.14.03-.16,0-.02-.22.02-.23,0-.01-.02.06-.16.04-.19-.01-.02-.17,0-.17,0-.02.01-.04.18-.06.19-.02.02-.17,0-.19.01-.02.02-.05.15-.04.17.01.02.18,0,.2,0,.02.05-.04.15-.1.2-.05.04-.1.06-.16.06-.1,0-.21-.13-.25-.34-.03-.15.04-.44.1-.57.13-.29.05-.27.09-.3.15-.09.4-.17.59-.23.18-.05.36-.09.53-.03.28.11.21.46.11.68" fill="#fff" stroke-width="0"/>
                      </g>
                      <g>
                        <polygon points="9.39 33.28 9.39 33.52 10.8 33.52 12.22 33.52 12.22 33.28 10.8 33.28 9.39 33.28" fill="#fff" stroke-width="0"/>
                        <path d="M12.66,31.67c-.04-.23-.23-.39-.45-.41-.41-.03-.76.19-1.15.26-.03,0-.07-.06-.11-.1.18-.14.16-.41-.05-.53-.01-.02,0-.17,0-.18.02-.01.15.01.17,0,.02-.02.02-.18,0-.2-.01-.02-.16,0-.17,0,0-.01,0-.16-.01-.17,0,0-.03,0-.04,0h0s0,0,0,0h-.06s-.03,0-.03,0c-.01.01,0,.16,0,.17,0,.01-.16,0-.17,0-.01.02-.02.18,0,.2.02.02.15,0,.17,0,0,0,.01.16,0,.18-.21.12-.24.39-.05.53-.04.04-.08.11-.11.1-.39-.07-.75-.29-1.15-.26-.23.02-.41.18-.45.41-.07.42.23.74.37,1.09.05.11.09.26.08.39h2.8c0-.13.03-.28.08-.39.14-.35.44-.67.37-1.09M10.65,32.59c-.04.21-.15.34-.25.34-.06,0-.11-.02-.16-.06-.06-.06-.11-.15-.1-.2.01-.02.19,0,.2,0,.01-.02-.02-.15-.04-.17-.02-.02-.17,0-.19-.01-.02-.02-.04-.18-.06-.19,0,0-.16-.02-.17,0-.01.02.05.16.04.19-.01.02-.23-.02-.23,0,0,.02.01.15.03.16.02.02.22.02.22.02.04.03.05.1.05.16,0,.09-.07.13-.17.1-.2-.05-.44-.48-.58-.77-.11-.22-.17-.57.11-.68.17-.06.35-.03.53.03.19.06.44.13.59.23.04.02-.04,0,.09.3.06.14.12.43.1.57M10.8,30.32h.02-.02ZM12.38,32.15c-.14.29-.39.72-.58.77-.1.03-.17-.01-.17-.1,0-.07.01-.13.05-.16,0,0,.2,0,.22-.02.02-.02.04-.14.03-.16,0-.02-.22.02-.23,0-.01-.02.06-.16.04-.19-.01-.02-.17,0-.17,0-.02.01-.04.18-.06.19-.02.02-.17,0-.19.01-.02.02-.05.15-.04.17.01.02.18,0,.2,0,.02.05-.04.15-.1.2-.05.04-.1.06-.16.06-.1,0-.21-.13-.25-.34-.03-.15.04-.44.1-.57.13-.29.05-.27.09-.3.15-.09.4-.17.59-.23.18-.05.36-.09.53-.03.28.11.21.46.11.68" fill="#fff" stroke-width="0"/>
                      </g>
                      <g>
                        <polygon points="9.39 29.47 9.39 29.72 10.8 29.72 12.22 29.72 12.22 29.47 10.8 29.47 9.39 29.47" fill="#fff" stroke-width="0"/>
                        <path d="M12.66,27.86c-.04-.23-.23-.39-.45-.41-.41-.03-.76.19-1.15.26-.03,0-.07-.06-.11-.1.18-.14.16-.41-.05-.53-.01-.02,0-.17,0-.18.02-.01.15.01.17,0,.02-.02.02-.18,0-.2-.01-.02-.16,0-.17,0,0-.01,0-.16-.01-.17,0,0-.03,0-.04,0h0s0,0,0,0h-.06s-.03,0-.03,0c-.01.01,0,.16,0,.17,0,.01-.16,0-.17,0-.01.02-.02.18,0,.2.02.02.15,0,.17,0,0,0,.01.16,0,.18-.21.12-.24.39-.05.53-.04.04-.08.11-.11.1-.39-.07-.75-.29-1.15-.26-.23.02-.41.18-.45.41-.07.42.23.74.37,1.09.05.11.09.26.08.39h2.8c0-.13.03-.28.08-.39.14-.35.44-.67.37-1.09M10.65,28.78c-.04.21-.15.34-.25.34-.06,0-.11-.02-.16-.06-.06-.06-.11-.15-.1-.2.01-.02.19,0,.2,0,.01-.02-.02-.15-.04-.17-.02-.02-.17,0-.19-.01-.02-.02-.04-.18-.06-.19,0,0-.16-.02-.17,0-.01.02.05.16.04.19-.01.02-.23-.02-.23,0,0,.02.01.15.03.16.02.02.22.02.22.02.04.03.05.1.05.16,0,.09-.07.13-.17.1-.2-.05-.44-.48-.58-.77-.11-.22-.17-.57.11-.68.17-.06.35-.03.53.03.19.06.44.13.59.23.04.02-.04,0,.09.3.06.14.12.43.1.57M10.8,26.51h.02-.02ZM12.38,28.34c-.14.29-.39.72-.58.77-.1.03-.17-.01-.17-.1,0-.07.01-.13.05-.16,0,0,.2,0,.22-.02.02-.02.04-.14.03-.16,0-.02-.22.02-.23,0-.01-.02.06-.16.04-.19-.01-.02-.17,0-.17,0-.02.01-.04.18-.06.19-.02.02-.17,0-.19.01-.02.02-.05.15-.04.17.01.02.18,0,.2,0,.02.05-.04.15-.1.2-.05.04-.1.06-.16.06-.1,0-.21-.13-.25-.34-.03-.15.04-.44.1-.57.13-.29.05-.27.09-.3.15-.09.4-.17.59-.23.18-.05.36-.09.53-.03.28.11.21.46.11.68" fill="#fff" stroke-width="0"/>
                      </g>
                    </g>
                  </g>
                  <g>
                    <path d="M25.74,43.44c-.89,0-1.61.72-1.61,1.61v18.93s.06-.02.1-.03c.23-.07.55-.17.95-.31,8.71-3.09,14.65-11.08,15.3-20.19h-14.75Z" fill="#dc001e" stroke="#940008" stroke-miterlimit="10" stroke-width=".37"/>
                    <g clip-path="url(#clippath)">
                      <polygon points="38.82 53.21 37.19 53.88 38.3 54.19 37.95 54.54 38.57 55.28 37.55 55.57 37.56 56 35.7 55.39 35.32 55.75 34.69 54.38 31.58 56.18 31.45 56.25 31.45 65.57 31.18 65.57 31.18 56.24 31.08 56.18 28.05 54.43 27.46 55.77 27.09 55.37 25.21 55.97 25.22 55.55 24.19 55.3 24.79 54.54 24.44 54.18 25.57 53.89 23.94 53.17 24.44 52.87 23.81 51.8 25.01 51.83 25.1 51.23 26.5 52.3 26.21 51.18 26.67 51.31 27.01 50.4 27.77 51.14 28.15 50.91 28.54 52.83 29.05 52.98 28.18 54.22 31.18 55.96 31.18 52.23 29.59 52.4 29.76 51.83 28.15 50.38 28.56 50.15 28.23 49.03 29.28 49.2 29.43 48.66 30.33 49.58 30.12 47.62 30.69 47.93 31.36 46.76 31.99 47.91 32.61 47.66 32.36 49.58 33.26 48.7 33.39 49.21 34.45 49.03 34.16 50.17 34.58 50.39 32.97 51.82 33.1 52.39 31.45 52.24 31.45 55.97 34.57 54.17 33.71 52.98 34.24 52.86 34.65 50.93 35.02 51.15 35.75 50.38 36.09 51.28 36.58 51.16 36.27 52.29 37.71 51.23 37.73 51.81 38.96 51.8 38.34 52.83 38.82 53.21" fill="#fff" stroke-width="0"/>
                    </g>
                  </g>
                  <g>
                    <path d="M25.76,42.78h14.72c.02-.38.03-.77.03-1.16v-16.7h-16.35v16.26c0,.88.72,1.6,1.6,1.6Z" fill="#143256" stroke="#002235" stroke-miterlimit="10" stroke-width=".37"/>
                    <g clip-path="url(#clippath-1)">
                      <g>
                        <path d="M39.09,40.88s-.17.33-.51.28c-.34-.06-.78-.5-1.37-.41-.59.09-1,.52-1,.52,0,0,.71-.29,1.05-.18.34.11.73.42,1.18.37.45-.05.65-.58.65-.58Z" fill="#fff" stroke-width="0"/>
                        <path d="M29.14,35.81s-.09.3.01.76c.1.45.21.89.21.89,0,0-.01-.44.09-.62.1-.18.32-.21.32-.21,0,0,0,.26.07.52.07.26.13.67.13.67,0,0,.16-.47.37-.34.15.09.41.61.57.93.1-.13.2-.27.31-.41.29-.39.75-.61,1.12-.92.06-.05.13.04.08.1-.43.41-.91.7-1.23,1.22-.05.09-.11.18-.17.27-.02.06-.11.32-.31.74-.22.48-.57.89-.76.88-.19,0-.87-.88-1.17-.88-.31,0-.31.17-.31.17,0,0-.25-.05-.5.2-.25.25-.36.63-.36.63,0,0,.27-.23.48-.25.21-.01.37.08.37.08,0,0-.38.25-.6.76-.22.51-.17,1.05-.17,1.05,0,0,.14-.46.63-.44.48.01.7.06.7.06,0,0-.29.14-.32.59-.03.46.21,1.05.21,1.05,0,0,.14-.86.35-.82.21.03.53.36.96-.18.42-.54.39-.64.66-.91.27-.28.59-.39.59-.39,0,0-.07.19-.03.39.05.2.2.58.2.58,0,0-.06-.52.06-.81.12-.29.41-.73.41-.73,0,0-.07.16,0,.45.07.3.28.6.28.6,0,0-.06-.68.12-.97.19-.28.37-.55.37-.55,0,0,0,.14.17.38.16.23.48.43.48.43,0,0-.37-.77-.18-1.07.18-.3.43-.61.43-.61,0,0-.23.76.19,1.24.42.49.92.71.92.71,0,0-1.2.48-1.74,1.1-.54.62-.58.89-.35,1.26.23.37.57.63.57.63,0,0-.3.03-.54-.07-.24-.09-.71-.38-.71-.38,0,0,.24.79,1.1,1.07.86.28,1.59.4,1.59.4,0,0,.32.29-.47.55-.78.26-1.48.24-1.48.24,0,0,.05-.88-.63-.96-.69-.08-.81.29-.81.29,0,0-.55-.05-.79.1-.24.15-.41.51-.41.51,0,0,.39-.28.66-.24.26.04.55.21.55.21,0,0-.3.12-.61.38-.3.25-.37.66-.37.66,0,0,.31-.3.57-.27.26.03.53.1.53.1,0,0-.34.32-.56.59-.22.27-.34.77-.34.77,0,0,.39-.57.67-.5.28.07.43.42.79.34.36-.08.67-.35.67-.35,0,0,.14.32.49.16.35-.16.93-.37.93-.37,0,0,0,.21.07.51.07.3.26.67.26.67,0,0,.02-.66.18-.86.16-.2.39-.54.39-.54,0,0-.04.07.11.42.15.35.55.71.55.71,0,0-.27-.69-.18-.92.09-.24.27-.47.27-.47,0,0,.11.1.31.37.2.28.44.49.44.49,0,0-.38-.77-.17-.99.21-.22.64-.59.63-.89-.01-.3-.82-1.14-1.13-1.47-.3-.33-.51-.89-.51-.89l1.15.17s-.18.53.13,1.01c.31.49.97,1.05.97,1.05,0,0,.01.09-.11.26-.12.16-.48.36-.48.36,0,0,.3.1.67-.05.37-.15.9-.48.9-.48,0,0-.04.18-.19.28-.15.1-.54.41-.54.41,0,0,.91-.06,1.34-.32.43-.25.78-.43.78-.43,0,0,.2.74.16,1.23-.04.49-.28.99-.76,1.01-.48.02-.92-.03-1.15.18-.23.21-.14.57-.14.57,0,0-.35.18-.41.53-.06.35,0,.89,0,.89,0,0,.13-.23.41-.4.28-.17.6-.21.6-.21,0,0-.25.28-.3.61-.05.33.12.76.12.76,0,0,.47-1,.79-.9.32.1.59.27.9.13.32-.14.43-.13.48.21s.01.98.01.98c0,0,.28-.17.47-.65.19-.48.21-1.72.21-1.72,0,0,0-.4.27-.39.26.01.61.46.61.46,0,0,.09-.25.07-.88-.02-.62-.26-1.14-.26-1.14,0,0,.19-.12.35.1.16.22.46.55.46.55,0,0-.02-.82-.25-1.17-.23-.35-.43-.63-.43-.63,0,0,.15-.1.32-.03.17.07.44.4.44.4,0,0-.12-.72-.27-.98-.15-.25-.25-.48-.25-.48,0,0,.31.12.61-.25.3-.37.42-.82.42-.82,0,0-.11.27-.44.34-.33.06-.58.13-.58.13,0,0-.18-.57-.58-.66-.4-.09-1.98.44-2.04.05s.45-.71.54-1.28c.06-.34.07-.87-.07-1.31.41-.18.9-.4,1.39-.63,1.2-.55,2.1-.85,2.29-1.82.19-.97-.07-1.59-1.22-3.03-1-1.25-4.45-3.49-4.36-4.18.09-.69.41-1.05.89-.99.48.06,1.53.99,2.85.63s1.48-.88,1.48-.88c0,0-.68.21-1.37.12-.69-.09-.76-.92-1.64-1.21-.88-.29-1.87-.42-2.85,1.35-.99,1.77,3.49,4.62,4.72,6.05,1.22,1.44.65,2.1-.29,2.77-.7.5-1.82.93-2.36,1.12-.03-.02-.05-.03-.08-.04-.69-.31-2.1-.85-2.36-1.29-.26-.45-.57-1.53-.57-1.53,0,0,.16.14.47.11.3-.03.62-.06.62-.06,0,0-.52-.26-.7-.51-.18-.25-.29-.55-.29-.55,0,0,.19.1.49.17.3.07.59-.02.59-.02,0,0-.37-.24-.54-.53-.17-.3-.33-.71-.33-.71,0,0,.22.28.51.28.29,0,.48-.15.48-.15,0,0-.79-.68-.96-1.2-.17-.52-.2-.81-.2-.81,0,0,.22.31.56.34.34.03.65-.08.65-.08,0,0-.75-.52-1.07-1.3-.32-.78-.36-2.22-.36-2.22,0,0,.09-.64.26-.79.17-.15.39-.44.39-.44,0,0-.6-.03-1.22.06s-1.02.29-1.02.29c0,0-1.41-.51-1.98-.46-.57.05-.45.48-.45.48,0,0-.8-.06-1.18.2-.38.26-.14.58-.14.58l.11.11c.16-.03.33-.03.49,0,.02,0,.02.03,0,.03-.13.01-.21.03-.34.06l-.04.03s-.03.26.11.42c.14.16.34.13.34.13,0,0,.04.02.12.16.08.13.3.22.3.22,0,0-.2-.13-.17-.3.02-.16.18-.3.18-.3,0,0,.17-.27.48-.16.3.1.57.69.31,1.04-.26.34-.99.53-1.4.44-.41-.09-.58-.1-.6.18-.03.28.16.44.44.52.28.07.48.01.48.01,0,0-.03.21-.23.5-.2.29-.47.57-.47.57,0,0,.34-.13.69-.13.05,0,.09,0,.13,0,.67-.2,1.36-.38,2.04-.24.06.01.46.14-.01.1-.85-.07-1.43.12-1.97.36-.26.15-.58.35-.75.49-.33.26-.79.93-.79.93,0,0-.71-.37-1.03-.55-.32-.18-.73-.46-.73-.46,0,0-.24-1.59-.74-1.89-.49-.3-.87-.02-.87-.02,0,0-.32-.1-.64.01-.32.11-.42.32-.42.32,0,0,.49-.17.63,0,.14.17.28.55.28.55,0,0-.57-.09-.85.16-.29.25-.46.85-.46.85,0,0,.48-.62.79-.44.32.18.56.7.56.7,0,0-.65.19-.77.7-.12.52.15.8.15.8,0,0,.02-.67.27-.76.24-.1.37.12.65.02.28-.1.44-.07.64,0,.2.07.79.66.79.66ZM41.15,48.5c.04-.31.18-.59.22-.9,0-.01.01-.03.03-.03.13-.02.28.14.4.27-.01-.54-.06-1.12-.24-1.62-.01-.04.01-.07.05-.07.16,0,.3.05.43.12-.13-.35-.23-.72-.35-1.08,0-.02,0-.04.02-.04.23-.04.43,0,.62.1-.21-.29-.43-.56-.74-.77-.04-.03,0-.08.04-.06.4.26.69.62.97,1,.04.06-.03.13-.08.09-.17-.13-.84-.51-.65-.04.14.35.29.69.45,1.03.04.08-.08.16-.14.08,0,0-.53-.46-.49-.22.03.22.12.45.17.67.08.34.12.69.12,1.04,0,.08-.13.1-.16.02-.08-.22-.34-.59-.41-.18-.04.21-.12.41-.2.6-.01.03-.06.02-.05-.01ZM36.44,29.54c-.05.16-.05.33-.08.49-.01.07-.13.08-.13,0,0-.11-.13-.22-.2-.3-.08-.09-.17-.17-.26-.24,0,0,0-.02.01-.01.09.05.17.12.24.19.06.06.13.17.21.24,0-.27.11-.69.34-.75,0,0,0,0,0,0-.02.13-.09.25-.13.37ZM38.9,45.95c.15-.18.18-.42.21-.64,0-.02.04-.03.05,0,.07.2-.02.38-.09.56.34-.19.55-.52.7-.88.02-.05.1-.03.1.03-.05.43-.48.95-.91,1.05-.06.01-.1-.06-.06-.11ZM38.03,45.6c.23-.11.24-.35.33-.56.02-.04.06-.03.07,0,.03.12.02.27-.03.39.06-.02.12-.04.19-.06.16-.06.36-.16.53-.17,0,0,0,0,0,0-.06.12-.24.18-.36.23-.17.07-.34.13-.5.2-.05.05-.12.08-.19.09-.08.02-.11-.1-.04-.14ZM35.92,36.46c.31.09.6.19.91.22-.26-.32-.42-.69-.56-1.08-.02-.04.03-.08.07-.05.22.15.45.22.7.26-.29-.4-.51-.85-.69-1.3,0-.02.01-.04.03-.03.08.06.57.2.57.2-.11-.1-.19-.2-.27-.32-.18-.27-.25-.62-.27-.94,0-.08.1-.09.12-.02.12.48.3,1.03.72,1.33.04.03.01.1-.04.09-.17-.02-.66-.07-.75-.21.25.42.47.86.78,1.25.05.06-.02.13-.08.11-.15-.05-.71-.14-.77-.28.16.38.39.74.68,1.03.05.06-.01.13-.07.13-.39-.01-.8-.08-1.13-.3-.05-.03,0-.1.05-.08ZM34.14,29.48s-.44-.04-.72.09c.01-.11.07-.14.07-.17,0-.03-.09-.08-.27-.04.37-.3.92.13.92.13ZM35.79,46.26s.07,0,.08.03c.04.12.11.21.21.27.02-.14.07-.26.19-.36.04-.04.11.01.09.06-.06.14-.1.28-.11.43,0,.08-.11.1-.15.04-.03-.03-.26-.34-.29-.32-.18.18-.31.34-.36.6-.01.07-.12.1-.15.02-.05-.11-.07-.21-.08-.33-.01-.1-.16.05-.18.07-.23.15-.34.3-.48.52-.02.03-.07.02-.07,0-.09-.28.2-.46.42-.58.43-.24.25-.14.44.13.08-.24.24-.46.48-.58ZM32.86,38.98s.07,0,.07.03c.02.14.05.29.08.43.07-.35.26-.73.64-.75.04,0,.05.06,0,.07-.44.07-.53.56-.6.93,0,.05-.08.05-.09,0-.04-.14-.07-.29-.1-.43-.05-.25-.14-.04-.25.09-.21.25-.32.56-.38.87,0,.05-.08.04-.08-.01.02-.49.31-.92.69-1.22ZM30.21,37.19c.03-.22-.03-.38-.06-.59,0,0,.01-.01.01,0,.06.17.08.35.13.51.1-.11.21-.2.35-.26.03-.01.07,0,.07.04.02.16.06.31.13.46.02.06.1.33.13.19.02-.07.05-.13.08-.19.09-.19.2-.31.39-.4,0,0,.01,0,0,.01-.22.16-.3.44-.4.68,0,.02-.03.03-.05.03,0,0-.01,0-.02,0-.02,0-.13,0-.14-.03-.03-.12-.07-.23-.12-.34-.05-.1-.03-.21-.07-.31-.11.1-.22.13-.31.26-.04.06-.15.02-.13-.05Z" fill="#fff" stroke-width="0"/>
                      </g>
                    </g>
                  </g>
                  <g>
                    <path d="M21.85,43.42H7.09c.65,9.13,6.61,17.13,15.33,20.22.47.17.82.28,1.05.34v-18.95c0-.89-.72-1.61-1.61-1.61Z" fill="#143256" stroke="#002235" stroke-miterlimit="10" stroke-width=".37"/>
                    <g clip-path="url(#clippath-2)">
                      <g>
                        <path d="M13.08,50.24s.03.46.09.48c-.74.62-.35.97-.41,1.88-.24.57,0,.85.06.89-.05.39-.09.6-.34.91-.18.23,0,.59-.19.83-.15-.59-.33-.35-.36-1.17-.06-.14-.33-.39-.49-.41-.01.49-.2.94-.17,1.15,0,0-.41-.09-.54-.04-.1.03-.19.16-.19.25.14.09.14.06.35.22.37.28.52.84.52.84,0,0-.86-.72-.92-.85-.05-.1-.09-.26-.13-.42,0-.02.46-.27.59-.51.41-.75-.62.44-.64.33-.05-.27-.23-.52-.23-.52.07-.07.22-.12.47-.53.57-.95-.65.4-.65.4-.31-.19-.32.05-.36.3,0,.02-.54.4-.57.42-.15-.14-.25-.33-.31-.47,0-.02.98-.85,1.15-1.12,1.39-2.24-1.1.98-1.21.89-.06-.18-.07-.42-.06-.76,0,0,.46-.31.76-.78,1.16-1.81-.75.53-.75.51.03-.39.4-2.09.16-1.59-.12.26-.51,1.34-.47,2.46-.12-.21-.63-.42-.82-.48.09-1.65,1.15-3.45.86-3.12-.71.83-.98,2.68-1.5,4.25,0,0-.31.15-.19-1.87.02-.41.21-.95.42-1.32.42-.74,1.27-1.98,1.24-1.99-.19-.16-.7.91-1.12,1.33-.28.27-1.03.52-1.08.48.63-1.14,2.11-2.2,1.96-2.34-1.09.97-1.43,1.01-1.48.96l.99-.91c.28-.36.65-.63.6-.62-.43.08.23-.35.74-.47.09-.02.24-.03.24-.07.01-.08-.12-.05-.22-.08-.07-.02-.14-.08-.14-.18.19.05.39,0,.56-.06.34-.15.96-.32,1.24-.2.16.07.19.06.37.2.08-.03.3-.16.59.21.09.12.2.25.2.35,0,.25,0,.01-.07.24-.03.1.08.28.52.44.17.06.12.23.12.23-.08-.04-.22-.14-.43-.05-.41.18-.49-.12-.73-.35,0,0,.06.27,0,.29-.32.06-.22.3-.18.33.39.37.22.5.36.72.13.21.33.3.64.29.43,0-.54-.67.41-.92-.15.24-.22.44.11.64.2.13.08.74.62.47Z" fill="#fff" stroke-width="0"/>
                        <path d="M9.06,54.8s.5-.4.5-.39c0,.05,0,.05.01.11.02.15.01.27.06.44,0,.02-.17.08-.25.15-.11-.11-.21-.16-.32-.31Z" fill="#fff" stroke-width="0"/>
                        <path d="M18.61,54.9c.07-.24.06-.41.07-.64.25.26.34.27.32.38-.06.15-.18.26-.3.39-.15.12-.21.23-.09-.13Z" fill="#fff" stroke-width="0"/>
                        <path d="M9.67,55.11c.03.08.06.17.11.27.04.09-.09.02-.3-.17,0,0,.18-.13.19-.1Z" fill="#fff" stroke-width="0"/>
                        <path d="M20.41,55.72c-.13.38-.22.72-.45,1.12-.13.23-.33-.34-.09-.9.18-.07.37-.11.54-.22Z" fill="#fff" stroke-width="0"/>
                        <path d="M7.47,53.56c.22.04.79.4.9.6.38.53.34,1.01,1.96,1.78.08,0-.29-.29-.4-.61-.05-.15-.24-.86-.09-1.19.33.35.26.46.35.72.23.68.36.74.96,1.17.08.06.53.79,1.13.84-.06-.02-.02-.17-.22-.31-.67-.46-.38-1.42-1.27-1.6.45-.15.74.29.82.25-.34-.51-.02-.92-.06-1.32.12.07.23.22.24.34.05.72.38.86.41,1.17-.09.51.32.92.61,1.29.07-.3,0-.57-.38-.82-.2-.14.03-.55.03-.55.07.45.32.59.48.62.14.02-.46-.64-.38-1.23.04-.26.11-.14.16-.44.52.61.12.96.65,1.66.25.33.33.9.37.92.02-.85-.02-.6-.38-1.3-.29-.57.05-1.09.1-1.43.67.48.59,1.38.61,1.19.02-.19.12-.53.03-.83-.14-.51.2-1.28.2-1.28.91,1.52.07,3.23.13,3.21.43-.63.73-.65.83-1.14.06-.27.58-1.73,1.48-1.73-.46.38-.36.43-.4,1.07.25,1.61-2,1.71-1.87,2.55.32-.48.79-.68,1.51-1.04.32-.24.67-.34.7-.73-.03-.28-.05-.22.01-.59.04-.26.29-.1.5-.64.39.38.24.79.2,1.02-.01.07-.06.31,0,.46.15-.1.25-.3.42-.5.3-.36.31-.81.46-1.12.07-.14.17-.34.23-.34h.01c.06.59,0,1.1-.27,1.53,0,0,.07.13.13.16.25-.06.61-.26.77-.67.3.27.07.6.09.6.71-.34.04-1.75,1.04-1.68-.25.26-.11.61-.09.93,0,.52-.68.91-.68.91.75-.23.89.12.88.12,0,0-1.1.44-2.83.58-.22.02-.54.27-.49.27.22-.01.67-.28,1.28.29-.37,0-.64.6-1.24.23-1.54-.48-2.14.28-2.4.47.05.1,1.22-.69,2.11-.12.47.3,1.26.06,1.87-.38-.26.62-1.32,1.29-1.67,1.29-.42-.01-.95-.58-1.56-.56-.98.02-1.14.9-1.03.83,0,0,.81-1.26,1.76.13-.46-.23-1.08-.19-1.63.06-.07.03.13.27.27.44.09.11.49.74.95.14.07-.09.3-.64,1.7-.49-.54.22-1.14.83-1.43,1.11-.75.71-1.82-.93-1.87-.75,0,.36-.2.53-.3.72-.26.48.3.42.61.3,0,0-.6.89-1.07.37-.52-.57.73-.96.35-1.41-.22-.26-1.02.53-1.37.52-.95.08-.88-.82-1.38-.81.49-.47.98-.19,1.08-.07.31.38.68.14.94-.05.14-.18.38-.2.58-.14.1.01-.19-.35-.58-.29-.88.15-1.75-.19-1.96-.32-.35-.21-.54-.55-.92-.93.12.03.84.45,1.07.58.69.37,1.14-.07,1.22-.07.13,0,.1-.1-.11-.17-.72-.18-1.2-.83-1.88-1.1-.75-.36-1.72-.16-2.34-.81-.2-.18-.31-.48-.57-.57.2-.18.39.19.5.07-.18-.29-.29-.52-.3-.88,0-.2-.23-.38-.28-.49Z" fill="#fff" stroke-width="0"/>
                        <path d="M8.49,55.86c.16.55.06,1.12-.13.82-.28-.42-.43-.86-.51-1.34.16.22.4.42.64.52Z" fill="#fff" stroke-width="0"/>
                        <path d="M14,47.5c.07-.04.26-.14.34-.16,0,0-.09.07-.1.17,0,.07.09.17.09.17l-.33-.18Z" fill="#fff" stroke-width="0"/>
                        <path d="M22.64,51.14c-.99.31-1.89-.62-1.78-.4.13.26,1.29,1.32,1.8,1.89-.41.1-.77-.24-1.06-.49-.31-.28-.83-.98-.76-.64.84,1.09,1.46,3.34,1.04,3.47-.23-.51-1.16-3.11-1.22-3.1-.07.01.06.68.07,1.12.02.97.02,1.43-.22,2.38-.1-.15-.21-.15-.38-.14-.02-.09-.01-.07.1-.21.29-.36-.02-.87.12-1.17.12-.25.18-.05.23-.31-.08-.07-.28-.1-.37-.12-.06-1-.38-1.51-.28-.88.06.32.14.85.09.86-.05.01-.05.01-.09.03-.02,0-1.6-2.75-.73-.85.11.25.58.93.58.93-.13.13-.26.28-.28.37,0,.03-2.14-2.97-.69-.56.09.15.53.64.64.79.01.02-.06.55-.06.55-.23-.17-.55-.5-.69-.7.03-.3-.04-.26-.05-.56-.07-.05-.16.08-.28.17-.05.05-1.45-2.55-.58-.61.14.31.46.68.47.71-.06.06-.16.27-.27.51,0,0-1.88-2.87-.75-.7.09.17.66.9.65.91-.15.35-.29.69-.29.69.04-.28.11-.82-.45-1.28-.09.49-.22.51-.39.65-.08.06-.22.34-.23.1-.03-.7.2-.68.37-.97.04-.07.04-.23,0-.22-1.41,0-1.4,1.33-1.63,1.32.12-.33.15-.66.03-.94.38-.26.3-.72.24-.92.44-.43.22-1.37.02-1.57.28-.39-.05-.67.03-.91.14-.86.9-.58,1.09-1.4.12.15.32.65.22.81-.12.19-.38.2-.4.33,0,.06-.03.22,0,.26.14.03.25-.1.4-.16.3-.11,1.01.4,1.07-.03.04-.27-.09-.08-.07-.33.02-.26.15-.07.16-.41,0-.25-.29-.33-.31-.43-.05-.25-.51.35-.75-.3.15.03.46-.07.44-.22-.07-.41-.05-1.38.86-1.15.33.08,1.23.59,1.37.07.31.59-.33.47-.53.45.08.06.17.15.42.1.5.35,2.35,1.6,2.89,1.91-.74.32-1.84-.42-1.85-.42h-.01c-.01.54,1.44,1.33,2.07,1.69Z" fill="#fff" stroke-width="0"/>
                        <path d="M14.74,48.55c.05-.1.13-.19.24-.24.46-.21,1.32.29,1.33-.4,0,0,.31.24.16.48-.34.55-1.23-.17-1.73.16Z" fill="#fff" stroke-width="0"/>
                        <path d="M15.6,47.2c-.13,0-.11.43-.35.35-.06-.02.19-.28.1-.41-.21-.13-.21.15-.32.04-.05-.18-.25-.29-.43-.31-.48-.08-.87.44-1.33.17-.04.21.15.26.15.26-.3.06-.44-.12-.5-.23-.13.48.35.52.5.55,0,0-.25.06-.26.22-.04.4-.3.36-.36.33,0,.05.08.3.38.08.05.05-.08.12-.11.32-.04.25-.04.49-.34.64.18.15.4-.22.42-.17.02.05-.25.18.02.89.14-.07.06-.06.22-.24.12-.1.17-.12.07.04-.18.22-.24.72-.18.85.15-.06.11-.18.29-.33.01.07-.06.4-.24.55-.31.27-.43.6-.44.66-.03.25.04.58.06.91.15-.02.28-.43.32-.41.04.03-.03.41-.31.66-.14.39-.1.6-.06.61.05.02.21-.39.29-.32-.42.99-.15,1.35-.06,1.66.09-.31.14-.55.25-.9.21.17.25.42.51.66.01-.41.27-1.39.47-1.61,0-.01.31.89.45,1.29.18.52.19,1.16-.04,1.66.5-.68.59-1.96.18-2.15-.03-.09.04-.39.13-.35.02.15,0,.27.12.42.32-.09.19-.48.16-.61-.4-.51-.14-.62-.12-.61.04.12.08.26.2.31.28-.45.13-1.18-.37-1.73-.02-.2.22.16.39.15.05-.39-.07-1.06-.79-1.11.14-.04.21-.06.25-.17-.22-.04-.89-.11-.77-.64.06.07.08.16.26.28.12.08.25.09.32-.02-.31-.11-.2-.49.21-.37.13.04.31-.09.33-.23-.09.09-.28.02-.38-.06-.46-.31-.75.12-.82.21-.02,0-.2-.44.46-.54.06-.15.22-.42.66-.37.16-.52.6-.25.58-.01.48-.34.01-.79-.18-.86ZM14.84,47.39c0,.07-.08.1-.28-.03.16.2-.03.35-.03.35.07,0,.17-.03.23-.06.01.07-.08.09-.13.12-.35.13-.57-.21-.88-.28h0c.21-.04.37-.18.56-.24.26-.09.53.12.53.15Z" fill="#fff" stroke-width="0"/>
                      </g>
                    </g>
                  </g>
                </g>
                <path d="M6.41,24.22h34.71v18.66c-.75,10.54-7.25,18.8-17.36,21.88-9.64-3.02-16.6-10.82-17.29-21.44l-.06-19.1Z" fill="none" stroke="#143256" stroke-miterlimit="10" stroke-width=".18"/>
              </g>
            </g>
            <g>
              <g>
                <path d="M6.31,20.95v-.13l.24-.07c.08-.02.13-.08.17-.17l1.12-2.94.34-.65h.11l1.39,3.59s.04.07.07.1c.03.03.06.05.1.06l.24.07v.13h-1.38v-.13l.49-.09-1.02-2.63-.14-.38h0l-1.11,3,.48.1v.13h-1.1ZM7.33,19.5l.09-.22h1.28l.09.22h-1.45Z" fill="#143256" stroke-width="0"/>
                <path d="M11.03,20.95v-.13l.36-.08s.07-.03.1-.06.04-.07.04-.11v-3.15s-.01-.08-.04-.11-.06-.05-.1-.06l-.36-.07v-.13h1.49v.13l-.36.07s-.07.03-.1.06-.04.07-.04.11v1.63l1.64-1.8-.4-.08v-.13h1.15v.13l-.29.08s-.09.04-.15.08c-.05.04-.1.08-.14.12l-1.14,1.21,1.38,1.85s.08.1.13.14c.05.05.09.08.13.09l.26.07v.13h-1.41v-.13l.43-.08-1.26-1.71-.33.32v1.23s.01.08.04.11c.03.03.06.05.1.06l.36.08v.13h-1.49Z" fill="#143256" stroke-width="0"/>
                <path d="M15.32,20.95v-.13l.24-.07c.08-.02.13-.08.17-.17l1.12-2.94.34-.65h.11l1.39,3.59s.04.07.07.1c.03.03.06.05.1.06l.24.07v.13h-1.38v-.13l.49-.09-1.02-2.63-.14-.38h0l-1.11,3,.48.1v.13h-1.1ZM16.34,19.5l.09-.22h1.28l.09.22h-1.45Z" fill="#143256" stroke-width="0"/>
                <path d="M20.04,20.95v-.13l.36-.08s.07-.03.1-.06.04-.07.04-.11v-3.15s-.01-.08-.04-.11-.06-.05-.1-.06l-.36-.07v-.13h1.62c.15,0,.31.02.49.06s.35.1.52.19c.17.09.33.2.47.35.14.15.25.34.34.56s.13.49.13.81c0,.44-.09.81-.26,1.09s-.41.5-.71.64c-.3.14-.62.21-.98.21h-1.6ZM21.04,17.26v3.48h.65c.45,0,.79-.14,1.01-.43s.33-.69.33-1.21c0-.38-.06-.71-.19-.98-.13-.28-.3-.49-.53-.64s-.49-.22-.79-.22h-.48Z" fill="#143256" stroke-width="0"/>
                <path d="M24.86,20.95v-.13l.36-.08s.07-.03.1-.06.04-.07.04-.11v-3.15s-.01-.08-.04-.11-.06-.05-.1-.06l-.36-.07v-.13h2.84v.91h-.16l-.2-.6s-.02-.05-.04-.07c-.02-.02-.04-.03-.08-.03h-1.36v1.55h.89s.06,0,.08-.03c.02-.02.03-.04.04-.06l.16-.46h.14v1.33h-.14l-.16-.46s-.02-.05-.04-.07c-.02-.02-.04-.03-.08-.03h-.89v1.71h1.61s.06,0,.08-.03c.02-.02.03-.04.04-.07l.19-.68h.16v1h-3.07Z" fill="#143256" stroke-width="0"/>
                <path d="M29.18,20.95v-.13l.36-.09s.07-.03.1-.06.04-.07.04-.11v-3.13s-.01-.08-.04-.11-.06-.05-.1-.06l-.36-.07v-.13h1.16l.91,2.52.2.58,1.12-3.09h1.15v.13l-.36.07s-.07.03-.09.06-.04.07-.04.11v3.15s.01.08.04.11.06.05.09.06l.36.08v.13h-1.5v-.13l.36-.08s.07-.03.09-.06.04-.07.04-.11v-3.25l-.15.43-.92,2.55-.29.65h-.12l-1.15-3.19-.16-.44v3.24s.01.08.04.11c.03.03.06.05.09.06l.36.09v.13h-1.23Z" fill="#143256" stroke-width="0"/>
                <path d="M34.93,20.95v-.13l.36-.08s.07-.03.1-.06.04-.07.04-.11v-3.15s-.01-.08-.04-.11-.06-.05-.1-.06l-.36-.07v-.13h1.49v.13l-.36.07s-.07.03-.1.06-.04.07-.04.11v3.15s.01.08.04.11c.03.03.06.05.1.06l.36.08v.13h-1.49Z" fill="#143256" stroke-width="0"/>
                <path d="M35.67,16.92c-.06,0-.12-.02-.17-.05-.05-.03-.09-.07-.12-.12-.03-.05-.04-.11-.04-.17,0-.09.03-.17.1-.24.07-.07.15-.1.24-.1s.18.03.25.1c.07.07.1.15.1.24s-.03.18-.1.24c-.07.07-.15.1-.25.1Z" fill="#143256" stroke-width="0"/>
                <path d="M37.65,20.95v-.13l.36-.08s.07-.03.1-.06.04-.07.04-.11v-3.15s-.01-.08-.04-.11-.06-.05-.1-.06l-.36-.07v-.13h1.49v.13l-.36.07s-.07.03-.1.06-.04.07-.04.11v1.63l1.64-1.8-.4-.08v-.13h1.15v.13l-.29.08s-.09.04-.15.08c-.05.04-.1.08-.14.12l-1.14,1.21,1.38,1.85s.08.1.13.14c.05.05.09.08.13.09l.26.07v.13h-1.41v-.13l.43-.08-1.26-1.71-.33.32v1.23s.01.08.04.11c.03.03.06.05.1.06l.36.08v.13h-1.49Z" fill="#143256" stroke-width="0"/>
              </g>
              <g>
                <path d="M6.31,23.27v-.07l.14-.04s.03-.01.04-.02.01-.03.01-.04v-1.2s0-.03-.02-.04-.02-.02-.04-.02l-.14-.04v-.07h.71v.07l-.14.04s-.03.01-.04.02c-.01.01-.02.03-.02.04v1.2s0,.03.01.04c.01.01.02.02.04.02l.14.04v.07h-.71Z" fill="#143256" stroke-width="0"/>
                <path d="M7.49,23.27v-.07l.14-.05s.03-.01.04-.03c0-.01.01-.03.01-.04v-1.19s0-.03-.02-.04c-.01-.01-.02-.02-.04-.02l-.15-.05v-.07h.49l.68.97.11.15v-.94s0-.03-.01-.04-.02-.02-.04-.03l-.14-.05v-.07h.55v.07l-.14.05s-.03.01-.04.03c-.01.01-.01.03-.01.04v1.11l-.03.27h-.18l-.74-1.06-.12-.17v1.04s0,.03.01.04c0,.01.02.02.04.03l.14.05v.07h-.55Z" fill="#143256" stroke-width="0"/>
                <path d="M9.86,23.27v-.07l.17-.04s.03-.01.04-.02.01-.03.01-.04v-1.25h-.33s-.03,0-.03.01c0,0-.01.02-.02.03l-.09.25h-.08v-.41h1.42v.41h-.08l-.09-.25s0-.02-.01-.03c0,0-.02-.01-.03-.01h-.34v1.25s0,.03.02.04c.01.01.02.02.04.02l.17.04v.07h-.76Z" fill="#143256" stroke-width="0"/>
                <path d="M11.4,23.27v-.07l.14-.04s.03-.01.04-.02c0-.01.01-.03.01-.04v-1.2s0-.03-.01-.04c-.01-.01-.02-.02-.04-.02l-.14-.04v-.07h1.25v.4h-.08l-.09-.24s0-.02-.02-.03c0,0-.02-.01-.03-.01h-.51v.56h.33s.03,0,.03-.01c0,0,.01-.02.02-.03l.08-.18h.07v.57h-.07l-.08-.18s0-.02-.02-.03c0,0-.02-.01-.03-.01h-.33v.62h.61s.02,0,.03-.01c0,0,.01-.02.02-.03l.09-.27h.08v.44h-1.34Z" fill="#143256" stroke-width="0"/>
                <path d="M13.21,23.27v-.07l.14-.04s.03-.01.04-.02c0-.01.01-.03.01-.04v-1.2s0-.03-.02-.04-.02-.02-.04-.02l-.14-.04v-.07h.68c.12,0,.22.01.3.03s.14.05.18.09c.04.04.07.08.09.12.02.05.03.09.03.14,0,.08-.02.16-.06.21s-.08.1-.14.13c-.05.03-.11.06-.16.07l-.17.12-.25-.07v-.11s.03,0,.05,0c.02,0,.04,0,.07,0,.02,0,.04,0,.05,0,.06,0,.11-.02.15-.05s.07-.07.09-.12c.02-.05.03-.1.03-.16,0-.11-.02-.19-.07-.24-.05-.05-.12-.07-.21-.07h-.13v1.25s0,.03.01.04c0,.01.02.02.04.02l.17.04v.07h-.73ZM14.8,23.27h-.36s-.08,0-.11-.01c-.03,0-.05-.02-.07-.04s-.04-.05-.06-.08l-.33-.53.28-.1.39.57s.03.04.05.06c.02.02.05.03.06.04l.15.04v.07Z" fill="#143256" stroke-width="0"/>
                <path d="M15.12,23.27v-.07l.14-.05s.03-.01.04-.03c0-.01.01-.03.01-.04v-1.19s0-.03-.02-.04c-.01-.01-.02-.02-.04-.02l-.15-.05v-.07h.49l.68.97.11.15v-.94s0-.03-.01-.04-.02-.02-.04-.03l-.14-.05v-.07h.55v.07l-.14.05s-.03.01-.04.03c-.01.01-.01.03-.01.04v1.11l-.03.27h-.18l-.74-1.06-.12-.17v1.04s0,.03.01.04c0,.01.02.02.04.03l.14.05v.07h-.55Z" fill="#143256" stroke-width="0"/>
                <path d="M17.01,23.27v-.07l.1-.04s.05-.03.07-.07l.45-1.14.14-.26h.14l.55,1.4s.01.03.03.04c.01.01.03.02.04.03l.1.04v.07h-.68v-.07l.2-.05-.37-.93-.05-.15h-.01l-.41,1.07.19.05v.07h-.49ZM17.46,22.72l.05-.12h.43l.05.12h-.53Z" fill="#143256" stroke-width="0"/>
                <path d="M19.17,23.27v-.07l.17-.04s.03-.01.04-.02.01-.03.01-.04v-1.25h-.33s-.03,0-.03.01c0,0-.01.02-.02.03l-.09.25h-.08v-.41h1.42v.41h-.08l-.09-.25s0-.02-.01-.03c0,0-.02-.01-.03-.01h-.34v1.25s0,.03.02.04c.01.01.02.02.04.02l.17.04v.07h-.76Z" fill="#143256" stroke-width="0"/>
                <path d="M20.71,23.27v-.07l.14-.04s.03-.01.04-.02.01-.03.01-.04v-1.2s0-.03-.02-.04-.02-.02-.04-.02l-.14-.04v-.07h.71v.07l-.14.04s-.03.01-.04.02c-.01.01-.02.03-.02.04v1.2s0,.03.01.04c.01.01.02.02.04.02l.14.04v.07h-.71Z" fill="#143256" stroke-width="0"/>
                <path d="M22.65,23.3c-.16,0-.3-.03-.41-.1-.11-.07-.2-.17-.26-.29-.06-.12-.09-.26-.09-.42s.03-.29.09-.41c.06-.12.15-.22.26-.29.11-.07.25-.11.41-.11.17,0,.31.04.43.11s.19.17.25.29c.05.12.08.26.08.4,0,.1-.01.19-.04.29-.03.1-.07.18-.13.26-.06.08-.14.14-.23.19s-.21.07-.34.07ZM22.67,23.18c.09,0,.16-.03.22-.09s.1-.14.13-.24c.03-.1.04-.21.04-.33,0-.14-.02-.27-.05-.38-.03-.11-.08-.19-.14-.26-.06-.06-.14-.09-.24-.09s-.17.03-.23.09-.1.14-.13.24c-.03.1-.04.21-.04.32,0,.14.01.26.04.37.03.11.08.2.14.26s.14.1.24.1Z" fill="#143256" stroke-width="0"/>
                <path d="M23.88,23.27v-.07l.14-.05s.03-.01.04-.03c0-.01.01-.03.01-.04v-1.19s0-.03-.02-.04c-.01-.01-.02-.02-.04-.02l-.15-.05v-.07h.49l.68.97.11.15v-.94s0-.03-.01-.04-.02-.02-.04-.03l-.14-.05v-.07h.55v.07l-.14.05s-.03.01-.04.03c-.01.01-.01.03-.01.04v1.11l-.03.27h-.18l-.74-1.06-.12-.17v1.04s0,.03.01.04c0,.01.02.02.04.03l.14.05v.07h-.55Z" fill="#143256" stroke-width="0"/>
                <path d="M25.78,23.27v-.07l.1-.04s.05-.03.07-.07l.45-1.14.14-.26h.14l.55,1.4s.01.03.03.04c.01.01.03.02.04.03l.1.04v.07h-.68v-.07l.2-.05-.37-.93-.05-.15h-.01l-.41,1.07.19.05v.07h-.49ZM26.22,22.72l.05-.12h.43l.05.12h-.53Z" fill="#143256" stroke-width="0"/>
                <path d="M27.73,23.27v-.07l.14-.04s.03-.01.04-.02.01-.03.01-.04v-1.2s0-.03-.01-.04c-.01-.01-.02-.02-.04-.02l-.14-.04v-.07h.72v.07l-.15.04s-.03.01-.04.03c0,.01-.01.03-.01.04v1.25h.54s.03,0,.03-.02c0-.01.01-.03.02-.04l.1-.3h.07v.48h-1.28Z" fill="#143256" stroke-width="0"/>
                <path d="M30.44,23.21l-.03-.44h.07l.1.22s.01.02.02.03.02.02.03.03c.04.02.08.04.12.06.05.02.09.03.13.04.04,0,.08.01.11.01.09,0,.15-.03.2-.08s.07-.11.07-.18c0-.06-.02-.11-.05-.14-.03-.04-.08-.07-.15-.1-.06-.02-.11-.04-.17-.05-.06-.01-.11-.03-.17-.05-.09-.04-.16-.09-.21-.17-.05-.07-.07-.16-.07-.25s.02-.16.07-.23c.05-.07.12-.12.2-.17.08-.04.18-.06.28-.06.06,0,.12,0,.18.01.06,0,.11.02.17.03.05.01.1.02.14.04v.41h-.08l-.09-.21s-.01-.02-.02-.03-.02-.02-.03-.02c-.02-.02-.05-.03-.09-.04-.04-.01-.07-.02-.11-.03s-.07,0-.09,0c-.07,0-.13.02-.18.07s-.07.09-.07.15c0,.06.01.11.04.15.03.04.08.08.16.1.05.02.11.04.16.05.05.01.11.03.17.06.05.02.1.05.14.08.04.04.08.08.11.14.03.06.04.12.04.19,0,.08-.02.16-.07.23-.04.07-.11.14-.21.18-.09.05-.22.07-.36.07-.06,0-.12,0-.18-.01-.06,0-.12-.02-.17-.04s-.11-.03-.16-.05Z" fill="#143256" stroke-width="0"/>
                <path d="M33.35,22.94h.05v.12s-.09.07-.15.11c-.06.04-.13.07-.2.09-.07.03-.15.04-.22.04-.15,0-.28-.03-.39-.1-.11-.07-.2-.16-.26-.28s-.09-.26-.09-.43.03-.3.1-.42c.07-.12.15-.22.27-.29.11-.07.24-.1.38-.1.05,0,.11,0,.17.01.06,0,.13.02.19.03s.11.03.15.04v.38h-.08l-.08-.2s-.01-.02-.02-.03-.02-.01-.03-.02c-.04-.02-.09-.04-.14-.06-.05-.01-.1-.02-.15-.02-.12,0-.22.05-.29.16-.07.11-.11.27-.11.47s.04.38.13.49.21.17.38.17c.06,0,.12,0,.16-.02.05-.02.09-.04.13-.07s.08-.06.12-.1Z" fill="#143256" stroke-width="0"/>
                <path d="M33.83,23.27v-.07l.14-.04s.03-.01.04-.02c0-.01.01-.03.01-.04v-1.2s0-.03-.01-.04c-.01-.01-.02-.02-.04-.02l-.14-.04v-.07h.71v.07l-.14.04s-.03.01-.04.03c-.01.01-.02.03-.02.04v.5h.64v-.5s0-.03-.02-.04c0-.01-.02-.02-.04-.02l-.14-.04v-.07h.71v.07l-.14.04s-.03.01-.04.02c-.01.01-.02.03-.02.04v1.2s0,.03.02.04c0,.01.02.02.04.02l.14.04v.07h-.71v-.07l.14-.04s.03-.01.04-.02c.01-.01.02-.03.02-.04v-.57h-.64v.57s0,.03.02.04c.01.01.02.02.04.02l.14.04v.07h-.71Z" fill="#143256" stroke-width="0"/>
                <path d="M36.72,23.3c-.16,0-.3-.03-.41-.1-.11-.07-.2-.17-.26-.29-.06-.12-.09-.26-.09-.42s.03-.29.09-.41c.06-.12.15-.22.26-.29.11-.07.25-.11.41-.11.17,0,.31.04.43.11s.19.17.25.29c.05.12.08.26.08.4,0,.1-.01.19-.04.29-.03.1-.07.18-.13.26-.06.08-.14.14-.23.19s-.21.07-.34.07ZM36.74,23.18c.09,0,.16-.03.22-.09s.1-.14.13-.24c.03-.1.04-.21.04-.33,0-.14-.02-.27-.05-.38-.03-.11-.08-.19-.14-.26-.06-.06-.14-.09-.24-.09s-.17.03-.23.09-.1.14-.13.24c-.03.1-.04.21-.04.32,0,.14.01.26.04.37.03.11.08.2.14.26s.14.1.24.1Z" fill="#143256" stroke-width="0"/>
                <path d="M38.71,23.3c-.16,0-.3-.03-.41-.1-.11-.07-.2-.17-.26-.29-.06-.12-.09-.26-.09-.42s.03-.29.09-.41c.06-.12.15-.22.26-.29.11-.07.25-.11.41-.11.17,0,.31.04.43.11s.19.17.25.29c.05.12.08.26.08.4,0,.1-.01.19-.04.29-.03.1-.07.18-.13.26-.06.08-.14.14-.23.19s-.21.07-.34.07ZM38.73,23.18c.09,0,.16-.03.22-.09s.1-.14.13-.24c.03-.1.04-.21.04-.33,0-.14-.02-.27-.05-.38-.03-.11-.08-.19-.14-.26-.06-.06-.14-.09-.24-.09s-.17.03-.23.09-.1.14-.13.24c-.03.1-.04.21-.04.32,0,.14.01.26.04.37.03.11.08.2.14.26s.14.1.24.1Z" fill="#143256" stroke-width="0"/>
                <path d="M39.94,23.27v-.07l.14-.04s.03-.01.04-.02.01-.03.01-.04v-1.2s0-.03-.01-.04c-.01-.01-.02-.02-.04-.02l-.14-.04v-.07h.72v.07l-.15.04s-.03.01-.04.03c0,.01-.01.03-.01.04v1.25h.54s.03,0,.03-.02c0-.01.01-.03.02-.04l.1-.3h.07v.48h-1.28Z" fill="#143256" stroke-width="0"/>
              </g>
            </g>
          </g>
        </g>
      </g>
    </g>
    <g>
      <path d="M62.09,44.4h1.1v9.76h-1.1v-9.76Z" fill="#fff" stroke-width="0"/>
      <path d="M73.09,44.38v9.93h-.05l-6.69-7.43v7.29h-1.1v-9.92h.06l6.68,7.42v-7.29h1.1Z" fill="#fff" stroke-width="0"/>
      <path d="M81.2,45.49h-2.83v8.67h-1.1v-8.67h-2.84v-1.09h6.77v1.09Z" fill="#fff" stroke-width="0"/>
      <path d="M83.64,45.49v3.09h4.01v1.1h-4.01v3.39h4.63v1.1h-5.73v-9.76h5.73v1.08h-4.63Z" fill="#fff" stroke-width="0"/>
      <path d="M95.67,54.16l-2.72-3.81h-1.82v3.81h-1.1v-9.76s2.87,0,2.87,0c1.81,0,3.29,1.39,3.29,3.11,0,1.26-.87,2.35-2.05,2.71l2.9,3.93h-1.36ZM92.93,49.43c1.16,0,2.12-.88,2.12-1.94,0-1.13-.97-2-2.12-2h-1.82v3.93h1.82Z" fill="#fff" stroke-width="0"/>
      <path d="M106,44.38v9.93h-.05l-6.69-7.43v7.29h-1.1v-9.92h.06l6.68,7.42v-7.29h1.1Z" fill="#fff" stroke-width="0"/>
      <path d="M114.42,52.55h-5.33l-.71,1.6h-1.19l4.51-9.91h.12l4.51,9.91h-1.2l-.71-1.6ZM114,51.6l-2.23-5.02-2.24,5.02h4.47Z" fill="#fff" stroke-width="0"/>
      <path d="M122.35,45.49h-2.83v8.67h-1.1v-8.67h-2.84v-1.09h6.77v1.09Z" fill="#fff" stroke-width="0"/>
      <path d="M123.69,44.4h1.1v9.76h-1.1v-9.76Z" fill="#fff" stroke-width="0"/>
      <path d="M126.33,49.29c0-2.77,2.26-5.02,5.01-5.02s5.02,2.26,5.02,5.02-2.26,5-5.02,5-5-2.25-5-5ZM135.24,49.28c0-2.15-1.75-3.91-3.91-3.91s-3.89,1.76-3.89,3.91,1.75,3.89,3.89,3.89,3.91-1.75,3.91-3.89Z" fill="#fff" stroke-width="0"/>
      <path d="M145.74,44.38v9.93h-.05l-6.69-7.43v7.29h-1.1v-9.92h.06l6.68,7.42v-7.29h1.1Z" fill="#fff" stroke-width="0"/>
      <path d="M154.16,52.55h-5.33l-.71,1.6h-1.19l4.51-9.91h.12l4.51,9.91h-1.2l-.71-1.6ZM153.74,51.6l-2.23-5.02-2.24,5.02h4.47Z" fill="#fff" stroke-width="0"/>
      <path d="M163.14,53.06v1.1h-5.88v-9.76h1.1v8.66h4.78Z" fill="#fff" stroke-width="0"/>
    </g>
  </g>
</svg>